<?xml version="1.0" encoding="utf-8"?>
<!-- Generator: Adobe Illustrator 22.1.0, SVG Export Plug-In . SVG Version: 6.00 Build 0)  -->
<svg version="1.1" id="Layer_1" xmlns="http://www.w3.org/2000/svg" xmlns:xlink="http://www.w3.org/1999/xlink" x="0px" y="0px"
	 viewBox="0 0 600 600" style="enable-background:new 0 0 600 600;" xml:space="preserve">
<style type="text/css">
	.st0{fill:#79B0BD;}
	.st1{fill:#ACCAD3;}
	.st2{fill:#9FC3CD;}
	.st3{fill:#92BCC7;}
	.st4{fill:#7FB3BF;}
	.st5{fill:#FFFFFF;}
</style>
<g>
	<polygon class="st0" points="300,443.7 369.8,343.2 230.2,343.2 	"/>
	<g>
		<g>
			<path class="st1" d="M545.4,74.6H54.6c-19.2,0-34.8-15.6-34.8-34.8v0C19.8,20.6,35.4,5,54.6,5h490.8c19.2,0,34.8,15.6,34.8,34.8
				v0C580.2,59,564.6,74.6,545.4,74.6z"/>
			<path class="st2" d="M545.4,154.1H54.6c-19.2,0-34.8-15.6-34.8-34.8v0c0-19.2,15.6-34.8,34.8-34.8h490.8
				c19.2,0,34.8,15.6,34.8,34.8v0C580.2,138.6,564.6,154.1,545.4,154.1z"/>
			<path class="st3" d="M545.4,233.7H54.6c-19.2,0-34.8-15.6-34.8-34.8v0c0-19.2,15.6-34.8,34.8-34.8h490.8
				c19.2,0,34.8,15.6,34.8,34.8v0C580.2,218.1,564.6,233.7,545.4,233.7z"/>
			<path class="st4" d="M545.4,313.2H54.6c-19.2,0-34.8-15.6-34.8-34.8v0c0-19.2,15.6-34.8,34.8-34.8h490.8
				c19.2,0,34.8,15.6,34.8,34.8v0C580.2,297.6,564.6,313.2,545.4,313.2z"/>
		</g>
	</g>
	<g>
		<g>
			<path class="st5" d="M97.9,33.9h-5.6v-1.5h13v1.5h-5.6v13.5h-1.8V33.9z"/>
			<path class="st5" d="M112.5,38.3c-0.3-0.1-0.6-0.1-0.9-0.1c-1.7,0-3.2,1.3-3.2,4v5.2h-1.7V36.8h1.7v2.5c0.5-1.7,1.8-2.7,3.4-2.7
				c0.3,0,0.6,0,0.8,0.1V38.3z"/>
			<path class="st5" d="M121.4,45.6c-0.5,1.2-1.9,2-3.7,2c-1.8,0-3.4-1.1-3.4-3c0-2,1.5-2.9,3.7-3.2l3.4-0.4v-0.6
				c0-1.7-1-2.4-2.5-2.4c-1.4,0-2.3,0.7-2.4,2h-1.7c0.2-2.1,1.9-3.4,4.1-3.4c2.6,0,4.2,1.2,4.2,3.8v4.9c0,0.8,0,1.5,0.3,2.2h-1.7
				C121.5,46.8,121.4,46.1,121.4,45.6z M121.4,43.2v-0.9l-2.9,0.3c-1.3,0.2-2.4,0.5-2.4,2c0,1,0.7,1.7,2,1.7
				C119.7,46.3,121.4,45.3,121.4,43.2z"/>
			<path class="st5" d="M128.8,38.8c0.5-1.3,1.8-2.2,3.4-2.2c2.4,0,3.8,1.5,3.8,4v6.8h-1.7V41c0-2-0.9-3-2.5-3c-1.6,0-2.9,1-2.9,3.6
				v5.8h-1.7V36.8h1.7V38.8z"/>
			<path class="st5" d="M140.9,44.3c0.1,1.4,1.5,2.1,2.9,2.1c1.4,0,2.5-0.7,2.5-1.8c0-0.8-0.5-1.3-1.8-1.5l-1.9-0.4
				c-1.7-0.3-2.9-1-2.9-2.9c0-1.8,1.6-3.2,3.9-3.2c2.4,0,3.9,1,4.1,3h-1.6c-0.1-1.1-1.1-1.7-2.5-1.7c-1.4,0-2.3,0.7-2.3,1.7
				c0,0.9,0.6,1.3,1.8,1.5l2.1,0.4c1.7,0.3,2.7,1.2,2.7,2.9c0,1.8-1.7,3.2-4.1,3.2c-2.5,0-4.4-1.1-4.6-3.4H140.9z"/>
			<path class="st5" d="M150.1,38.2v-1.3h1.5v-2c0-2,1.3-3,3.1-3c0.4,0,0.9,0,1.2,0.1v1.4c-0.3,0-0.7-0.1-1.1-0.1
				c-0.8,0-1.4,0.4-1.4,1.6v2h2.3v1.3h-2.3v9.2h-1.7v-9.2H150.1z"/>
			<path class="st5" d="M162.6,47.7c-2.9,0-5-2.1-5-5.5s2.1-5.5,5-5.5c2.9,0,5,2.1,5,5.5S165.5,47.7,162.6,47.7z M162.6,46.2
				c2.1,0,3.3-1.6,3.3-4.1s-1.2-4.1-3.3-4.1s-3.3,1.6-3.3,4.1S160.5,46.2,162.6,46.2z"/>
			<path class="st5" d="M176.8,38.3c-0.3-0.1-0.6-0.1-0.9-0.1c-1.7,0-3.2,1.3-3.2,4v5.2H171V36.8h1.7v2.5c0.5-1.7,1.8-2.7,3.4-2.7
				c0.3,0,0.6,0,0.8,0.1V38.3z"/>
			<path class="st5" d="M191.3,36.6c2.4,0,3.6,1.5,3.6,4v6.8h-1.8V41c0-2-0.7-3-2.3-3c-1.6,0-2.8,1.1-2.8,3.6v5.8h-1.8V41
				c0-2-0.7-3-2.3-3s-2.8,1.1-2.8,3.6v5.8h-1.7V36.8h1.7v1.9c0.5-1.3,1.8-2.2,3.3-2.2c1.8,0,2.8,0.9,3.2,2.3
				C188.4,37.4,189.7,36.6,191.3,36.6z"/>
			<path class="st5" d="M198.8,32.5h2v2.1h-2V32.5z M198.9,36.8h1.7v10.6h-1.7V36.8z"/>
			<path class="st5" d="M206.5,38.8c0.5-1.3,1.8-2.2,3.4-2.2c2.4,0,3.8,1.5,3.8,4v6.8H212V41c0-2-0.9-3-2.5-3c-1.6,0-2.9,1-2.9,3.6
				v5.8h-1.7V36.8h1.7V38.8z"/>
			<path class="st5" d="M225.2,45.2c-0.5,1-1.7,2-3.5,2c-2.7,0-4.7-2-4.7-5.3c0-3.2,2-5.3,4.7-5.3c1.8,0,3.1,1.1,3.6,2.1v-1.8h1.7
				v9.8c0,3.4-2.2,4.8-5,4.8c-2.5,0-4.3-1-4.7-3.1h1.8c0.4,1.3,1.5,1.7,2.9,1.7c2.1,0,3.3-1.1,3.3-3.3V45.2z M225.3,41.6
				c0-2.2-1.4-3.7-3.3-3.7c-2.1,0-3.3,1.6-3.3,3.9c0,2.3,1.2,3.9,3.3,3.9c2,0,3.3-1.5,3.3-3.7V41.6z"/>
			<path class="st5" d="M236.1,47.4V31.9h1.7v15.5H236.1z"/>
			<path class="st5" d="M246.3,47.7c-3,0-5.1-2.1-5.1-5.5c0-3.4,2.2-5.6,5-5.6c3.1,0,4.5,2.5,4.5,5.2v0.7h-7.8
				c0.1,2.4,1.4,3.8,3.4,3.8c1.4,0,2.3-0.7,2.7-2h1.6C250.2,46.5,248.3,47.7,246.3,47.7z M243,41.2h6c0-1.8-0.9-3.2-2.8-3.2
				C244.5,38,243.2,39.1,243,41.2z"/>
			<path class="st5" d="M260.6,45.6c-0.5,1.2-1.9,2-3.7,2c-1.8,0-3.4-1.1-3.4-3c0-2,1.5-2.9,3.7-3.2l3.4-0.4v-0.6
				c0-1.7-1-2.4-2.5-2.4c-1.4,0-2.3,0.7-2.4,2H254c0.2-2.1,1.9-3.4,4.1-3.4c2.6,0,4.2,1.2,4.2,3.8v4.9c0,0.8,0,1.5,0.3,2.2h-1.7
				C260.7,46.8,260.6,46.1,260.6,45.6z M260.6,43.2v-0.9l-2.9,0.3c-1.3,0.2-2.4,0.5-2.4,2c0,1,0.7,1.7,2,1.7
				C258.9,46.3,260.6,45.3,260.6,43.2z"/>
			<path class="st5" d="M273.8,45.6c-0.5,1.1-1.8,2.1-3.6,2.1c-2.7,0-4.7-2.2-4.7-5.5c0-3.4,2-5.5,4.7-5.5c1.8,0,3,1,3.5,2.1v-6.8
				h1.7v15.5h-1.7V45.6z M273.8,42c0-2.4-1.2-4-3.2-4c-2.1,0-3.3,1.7-3.3,4.2c0,2.5,1.2,4.2,3.3,4.2c2.1,0,3.2-1.6,3.2-4V42z"/>
			<path class="st5" d="M284,47.7c-3,0-5.1-2.1-5.1-5.5c0-3.4,2.2-5.6,5-5.6c3.1,0,4.5,2.5,4.5,5.2v0.7h-7.8
				c0.1,2.4,1.4,3.8,3.4,3.8c1.4,0,2.3-0.7,2.7-2h1.6C287.8,46.5,286,47.7,284,47.7z M280.6,41.2h6c0-1.8-0.9-3.2-2.8-3.2
				C282.2,38,280.9,39.1,280.6,41.2z"/>
			<path class="st5" d="M297.6,38.3c-0.3-0.1-0.6-0.1-0.9-0.1c-1.7,0-3.2,1.3-3.2,4v5.2h-1.7V36.8h1.7v2.5c0.5-1.7,1.8-2.7,3.4-2.7
				c0.3,0,0.6,0,0.8,0.1V38.3z"/>
			<path class="st5" d="M301.1,44.3c0.1,1.4,1.5,2.1,2.9,2.1c1.4,0,2.5-0.7,2.5-1.8c0-0.8-0.5-1.3-1.8-1.5l-1.9-0.4
				c-1.7-0.3-2.9-1-2.9-2.9c0-1.8,1.6-3.2,3.9-3.2c2.4,0,3.9,1,4.1,3h-1.6c-0.1-1.1-1.1-1.7-2.5-1.7c-1.4,0-2.3,0.7-2.3,1.7
				c0,0.9,0.6,1.3,1.8,1.5l2.1,0.4c1.7,0.3,2.7,1.2,2.7,2.9c0,1.8-1.7,3.2-4.1,3.2c-2.5,0-4.4-1.1-4.6-3.4H301.1z"/>
			<path class="st5" d="M325.1,47.4c-0.4-0.4-0.8-0.8-1.3-1.4c-1.2,1.1-2.6,1.6-4.1,1.6c-2.8,0-4.3-1.8-4.3-4c0-1.9,1.2-3.3,2.8-4.1
				v-0.1c-0.7-0.9-1.2-2-1.2-3c0-1.7,1.2-3.5,3.6-3.5c1.8,0,3.1,1.2,3.1,3c0,1.5-0.9,2.7-3.1,3.8v0.1c1.2,1.4,2.5,2.9,3.4,3.9
				c0.7-1,1.1-2.4,1.4-4.1h1.7c-0.4,2.2-1,4-2,5.2c0.8,0.8,1.5,1.6,2.3,2.5H325.1z M322.9,45c-0.8-0.9-2.4-2.6-4-4.5
				c-0.8,0.5-1.8,1.4-1.8,2.9c0,1.6,1.2,2.9,2.9,2.9C321.2,46.2,322.2,45.7,322.9,45z M318.6,36.3c0,1,0.5,1.8,1.1,2.5
				c1.4-0.8,2.4-1.6,2.4-2.8c0-0.9-0.5-1.8-1.6-1.8C319.2,34.3,318.6,35.2,318.6,36.3z"/>
			<path class="st5" d="M334.6,47.4V31.9h1.7v15.5H334.6z"/>
			<path class="st5" d="M344.8,47.7c-3,0-5.1-2.1-5.1-5.5c0-3.4,2.2-5.6,5-5.6c3.1,0,4.5,2.5,4.5,5.2v0.7h-7.8
				c0.1,2.4,1.4,3.8,3.4,3.8c1.4,0,2.3-0.7,2.7-2h1.6C348.7,46.5,346.9,47.7,344.8,47.7z M341.5,41.2h6c0-1.8-0.9-3.2-2.8-3.2
				C343.1,38,341.8,39.1,341.5,41.2z"/>
			<path class="st5" d="M359.1,45.6c-0.5,1.2-1.9,2-3.7,2c-1.8,0-3.4-1.1-3.4-3c0-2,1.5-2.9,3.7-3.2l3.4-0.4v-0.6
				c0-1.7-1-2.4-2.5-2.4c-1.4,0-2.3,0.7-2.4,2h-1.7c0.2-2.1,1.9-3.4,4.1-3.4c2.6,0,4.2,1.2,4.2,3.8v4.9c0,0.8,0,1.5,0.3,2.2h-1.7
				C359.2,46.8,359.1,46.1,359.1,45.6z M359.1,43.2v-0.9l-2.9,0.3c-1.3,0.2-2.4,0.5-2.4,2c0,1,0.7,1.7,2,1.7
				C357.5,46.3,359.1,45.3,359.1,43.2z"/>
			<path class="st5" d="M372.4,45.6c-0.5,1.1-1.8,2.1-3.6,2.1c-2.7,0-4.7-2.2-4.7-5.5c0-3.4,2-5.5,4.7-5.5c1.8,0,3,1,3.5,2.1v-6.8
				h1.7v15.5h-1.7V45.6z M372.4,42c0-2.4-1.2-4-3.2-4c-2.1,0-3.3,1.7-3.3,4.2c0,2.5,1.2,4.2,3.3,4.2c2.1,0,3.2-1.6,3.2-4V42z"/>
			<path class="st5" d="M382.5,47.7c-3,0-5.1-2.1-5.1-5.5c0-3.4,2.2-5.6,5-5.6c3.1,0,4.5,2.5,4.5,5.2v0.7h-7.8
				c0.1,2.4,1.4,3.8,3.4,3.8c1.4,0,2.3-0.7,2.7-2h1.6C386.4,46.5,384.6,47.7,382.5,47.7z M379.2,41.2h6c0-1.8-0.9-3.2-2.8-3.2
				C380.8,38,379.5,39.1,379.2,41.2z"/>
			<path class="st5" d="M396.2,38.3c-0.3-0.1-0.6-0.1-0.9-0.1c-1.7,0-3.2,1.3-3.2,4v5.2h-1.7V36.8h1.7v2.5c0.5-1.7,1.8-2.7,3.4-2.7
				c0.3,0,0.6,0,0.8,0.1V38.3z"/>
			<path class="st5" d="M399.6,44.3c0.1,1.4,1.5,2.1,2.9,2.1c1.4,0,2.5-0.7,2.5-1.8c0-0.8-0.5-1.3-1.8-1.5l-1.9-0.4
				c-1.7-0.3-2.9-1-2.9-2.9c0-1.8,1.6-3.2,3.9-3.2c2.4,0,3.9,1,4.1,3h-1.6c-0.1-1.1-1.1-1.7-2.5-1.7c-1.4,0-2.3,0.7-2.3,1.7
				c0,0.9,0.6,1.3,1.8,1.5l2.1,0.4c1.7,0.3,2.7,1.2,2.7,2.9c0,1.8-1.7,3.2-4.1,3.2c-2.5,0-4.4-1.1-4.6-3.4H399.6z"/>
			<path class="st5" d="M415.2,36.6c2.4,0,3.8,1.5,3.8,4v6.8h-1.7V41c0-2-0.9-3-2.5-3c-1.6,0-2.9,1-2.9,3.6v5.8h-1.7V31.9h1.7v6.8
				C412.3,37.4,413.6,36.6,415.2,36.6z"/>
			<path class="st5" d="M422.9,32.5h2v2.1h-2V32.5z M423,36.8h1.7v10.6H423V36.8z"/>
			<path class="st5" d="M430.7,51.1h-1.7V36.8h1.7v1.9c0.5-1.1,1.7-2.2,3.6-2.2c2.7,0,4.7,2.2,4.7,5.5c0,3.3-2,5.5-4.7,5.5
				c-1.7,0-3-1-3.5-2.1V51.1z M430.6,42.3c0,2.4,1.2,4,3.2,4c2.1,0,3.3-1.7,3.3-4.2c0-2.5-1.2-4.2-3.3-4.2c-2.1,0-3.2,1.6-3.2,4
				V42.3z"/>
			<path class="st5" d="M452.2,47.3c-0.8,0.2-1.4,0.3-1.8,0.3c-1.9,0-2.9-0.9-2.9-2.9v-6.5h-1.6v-1.3h1.6v-2.7h1.7v2.7h2.8v1.3h-2.8
				v6.4c0,1.1,0.6,1.5,1.5,1.5c0.4,0,0.9,0,1.5-0.3V47.3z"/>
			<path class="st5" d="M459.6,47.7c-3,0-5.1-2.1-5.1-5.5c0-3.4,2.2-5.6,5-5.6c3.1,0,4.5,2.5,4.5,5.2v0.7h-7.8
				c0.1,2.4,1.4,3.8,3.4,3.8c1.4,0,2.3-0.7,2.7-2h1.6C463.5,46.5,461.7,47.7,459.6,47.7z M456.3,41.2h6c0-1.8-0.9-3.2-2.8-3.2
				C457.8,38,456.6,39.1,456.3,41.2z"/>
			<path class="st5" d="M473.9,45.6c-0.5,1.2-1.9,2-3.7,2c-1.8,0-3.4-1.1-3.4-3c0-2,1.5-2.9,3.7-3.2l3.4-0.4v-0.6
				c0-1.7-1-2.4-2.5-2.4c-1.4,0-2.3,0.7-2.4,2h-1.7c0.2-2.1,1.9-3.4,4.1-3.4c2.6,0,4.2,1.2,4.2,3.8v4.9c0,0.8,0,1.5,0.3,2.2h-1.7
				C474,46.8,473.9,46.1,473.9,45.6z M473.9,43.2v-0.9l-2.9,0.3c-1.3,0.2-2.4,0.5-2.4,2c0,1,0.7,1.7,2,1.7
				C472.2,46.3,473.9,45.3,473.9,43.2z"/>
			<path class="st5" d="M491.4,36.6c2.4,0,3.6,1.5,3.6,4v6.8h-1.8V41c0-2-0.7-3-2.3-3c-1.6,0-2.8,1.1-2.8,3.6v5.8h-1.8V41
				c0-2-0.7-3-2.3-3s-2.8,1.1-2.8,3.6v5.8h-1.7V36.8h1.7v1.9c0.5-1.3,1.8-2.2,3.3-2.2c1.8,0,2.8,0.9,3.2,2.3
				C488.5,37.4,489.9,36.6,491.4,36.6z"/>
			<path class="st5" d="M499.9,44.3c0.1,1.4,1.5,2.1,2.9,2.1c1.4,0,2.5-0.7,2.5-1.8c0-0.8-0.5-1.3-1.8-1.5l-1.9-0.4
				c-1.7-0.3-2.9-1-2.9-2.9c0-1.8,1.6-3.2,3.9-3.2c2.4,0,3.9,1,4.1,3h-1.6c-0.1-1.1-1.1-1.7-2.5-1.7c-1.4,0-2.3,0.7-2.3,1.7
				c0,0.9,0.6,1.3,1.8,1.5l2.1,0.4c1.7,0.3,2.7,1.2,2.7,2.9c0,1.8-1.7,3.2-4.1,3.2c-2.5,0-4.4-1.1-4.6-3.4H499.9z"/>
		</g>
	</g>
	<g>
		<g>
			<path class="st5" d="M144.7,122.8h-7.2l-1.7,4.2h-1.8l6.1-15h2l6.1,15h-1.9L144.7,122.8z M138.2,121.3h6l-3-7.5h-0.1L138.2,121.3
				z"/>
			<path class="st5" d="M150.9,126.9v-15.5h1.7v15.5H150.9z"/>
			<path class="st5" d="M161.8,126.8c-0.8,0.2-1.4,0.3-1.8,0.3c-1.9,0-2.9-0.9-2.9-2.9v-6.5h-1.6v-1.3h1.6v-2.7h1.7v2.7h2.8v1.3
				h-2.8v6.4c0,1.1,0.6,1.5,1.5,1.5c0.4,0,0.9,0,1.5-0.3V126.8z"/>
			<path class="st5" d="M169.2,127.2c-3,0-5.1-2.1-5.1-5.5c0-3.4,2.2-5.6,5-5.6c3.1,0,4.5,2.5,4.5,5.2v0.7h-7.8
				c0.1,2.4,1.4,3.8,3.4,3.8c1.4,0,2.3-0.7,2.7-2h1.6C173.1,126.1,171.2,127.2,169.2,127.2z M165.9,120.8h6c0-1.8-0.9-3.2-2.8-3.2
				C167.4,117.5,166.2,118.6,165.9,120.8z"/>
			<path class="st5" d="M182.9,117.8c-0.3-0.1-0.6-0.1-0.9-0.1c-1.7,0-3.2,1.3-3.2,4v5.2H177v-10.6h1.7v2.5c0.5-1.7,1.8-2.7,3.4-2.7
				c0.3,0,0.6,0,0.8,0.1V117.8z"/>
			<path class="st5" d="M185.4,112.1h2v2.1h-2V112.1z M185.5,116.4h1.7v10.6h-1.7V116.4z"/>
			<path class="st5" d="M193.1,118.3c0.5-1.3,1.8-2.2,3.4-2.2c2.4,0,3.8,1.5,3.8,4v6.8h-1.7v-6.4c0-2-0.9-3-2.5-3
				c-1.6,0-2.9,1-2.9,3.6v5.8h-1.7v-10.6h1.7V118.3z"/>
			<path class="st5" d="M211.8,124.7c-0.5,1-1.7,2-3.5,2c-2.7,0-4.7-2-4.7-5.3c0-3.2,2-5.3,4.7-5.3c1.8,0,3.1,1.1,3.6,2.1v-1.8h1.7
				v9.8c0,3.4-2.2,4.8-5,4.8c-2.5,0-4.3-1-4.7-3.1h1.8c0.4,1.3,1.5,1.7,2.9,1.7c2.1,0,3.3-1.1,3.3-3.3V124.7z M211.9,121.2
				c0-2.2-1.4-3.7-3.3-3.7c-2.1,0-3.3,1.6-3.3,3.9c0,2.3,1.2,3.9,3.3,3.9c2,0,3.3-1.5,3.3-3.7V121.2z"/>
			<path class="st5" d="M226.9,127.2c-2.9,0-5-2.1-5-5.5s2.1-5.5,5-5.5c2.9,0,5,2.1,5,5.5S229.8,127.2,226.9,127.2z M226.9,125.8
				c2.1,0,3.3-1.6,3.3-4.1s-1.2-4.1-3.3-4.1s-3.3,1.6-3.3,4.1S224.8,125.8,226.9,125.8z"/>
			<path class="st5" d="M241.2,117.8c-0.3-0.1-0.6-0.1-0.9-0.1c-1.7,0-3.2,1.3-3.2,4v5.2h-1.7v-10.6h1.7v2.5
				c0.5-1.7,1.8-2.7,3.4-2.7c0.3,0,0.6,0,0.8,0.1V117.8z"/>
			<path class="st5" d="M251.1,124.7c-0.5,1-1.7,2-3.5,2c-2.7,0-4.7-2-4.7-5.3c0-3.2,2-5.3,4.7-5.3c1.8,0,3.1,1.1,3.6,2.1v-1.8h1.7
				v9.8c0,3.4-2.2,4.8-5,4.8c-2.5,0-4.3-1-4.7-3.1h1.8c0.4,1.3,1.5,1.7,2.9,1.7c2.1,0,3.3-1.1,3.3-3.3V124.7z M251.2,121.2
				c0-2.2-1.4-3.7-3.3-3.7c-2.1,0-3.3,1.6-3.3,3.9c0,2.3,1.2,3.9,3.3,3.9c2,0,3.3-1.5,3.3-3.7V121.2z"/>
			<path class="st5" d="M263.3,125.2c-0.5,1.2-1.9,2-3.7,2c-1.8,0-3.4-1.1-3.4-3c0-2,1.5-2.9,3.7-3.2l3.4-0.4v-0.6
				c0-1.7-1-2.4-2.5-2.4c-1.4,0-2.3,0.7-2.4,2h-1.7c0.2-2.1,1.9-3.4,4.1-3.4c2.6,0,4.2,1.2,4.2,3.8v4.9c0,0.8,0,1.5,0.3,2.2h-1.7
				C263.4,126.4,263.3,125.7,263.3,125.2z M263.2,122.8v-0.9l-2.9,0.3c-1.3,0.2-2.4,0.5-2.4,2c0,1,0.7,1.7,2,1.7
				C261.6,125.9,263.2,124.8,263.2,122.8z"/>
			<path class="st5" d="M270.7,118.3c0.5-1.3,1.8-2.2,3.4-2.2c2.4,0,3.8,1.5,3.8,4v6.8h-1.7v-6.4c0-2-0.9-3-2.5-3
				c-1.6,0-2.9,1-2.9,3.6v5.8H269v-10.6h1.7V118.3z"/>
			<path class="st5" d="M281.9,112.1h2v2.1h-2V112.1z M282,116.4h1.7v10.6H282V116.4z"/>
			<path class="st5" d="M289.3,125.6h6.5v1.3h-8.7v-1.1l6.3-8.1h-6.1v-1.3h8.2v1.3L289.3,125.6z"/>
			<path class="st5" d="M305.4,125.2c-0.5,1.2-1.9,2-3.7,2c-1.8,0-3.4-1.1-3.4-3c0-2,1.5-2.9,3.7-3.2l3.4-0.4v-0.6
				c0-1.7-1-2.4-2.5-2.4c-1.4,0-2.3,0.7-2.4,2h-1.7c0.2-2.1,1.9-3.4,4.1-3.4c2.6,0,4.2,1.2,4.2,3.8v4.9c0,0.8,0,1.5,0.3,2.2h-1.7
				C305.5,126.4,305.4,125.7,305.4,125.2z M305.4,122.8v-0.9l-2.9,0.3c-1.3,0.2-2.4,0.5-2.4,2c0,1,0.7,1.7,2,1.7
				C303.7,125.9,305.4,124.8,305.4,122.8z"/>
			<path class="st5" d="M316,126.8c-0.8,0.2-1.4,0.3-1.8,0.3c-1.9,0-2.9-0.9-2.9-2.9v-6.5h-1.6v-1.3h1.6v-2.7h1.7v2.7h2.8v1.3H313
				v6.4c0,1.1,0.6,1.5,1.5,1.5c0.4,0,0.9,0,1.5-0.3V126.8z"/>
			<path class="st5" d="M319.2,112.1h2v2.1h-2V112.1z M319.3,116.4h1.7v10.6h-1.7V116.4z"/>
			<path class="st5" d="M329.4,127.2c-2.9,0-5-2.1-5-5.5s2.1-5.5,5-5.5c2.9,0,5,2.1,5,5.5S332.4,127.2,329.4,127.2z M329.4,125.8
				c2.1,0,3.3-1.6,3.3-4.1s-1.2-4.1-3.3-4.1s-3.3,1.6-3.3,4.1S327.4,125.8,329.4,125.8z"/>
			<path class="st5" d="M339.5,118.3c0.5-1.3,1.8-2.2,3.4-2.2c2.4,0,3.8,1.5,3.8,4v6.8H345v-6.4c0-2-0.9-3-2.5-3
				c-1.6,0-2.9,1-2.9,3.6v5.8h-1.7v-10.6h1.7V118.3z"/>
			<path class="st5" d="M357.1,125.2c-0.5,1.2-1.9,2-3.7,2c-1.8,0-3.4-1.1-3.4-3c0-2,1.5-2.9,3.7-3.2l3.4-0.4v-0.6
				c0-1.7-1-2.4-2.5-2.4c-1.4,0-2.3,0.7-2.4,2h-1.7c0.2-2.1,1.9-3.4,4.1-3.4c2.6,0,4.2,1.2,4.2,3.8v4.9c0,0.8,0,1.5,0.3,2.2h-1.7
				C357.1,126.4,357.1,125.7,357.1,125.2z M357,122.8v-0.9l-2.9,0.3c-1.3,0.2-2.4,0.5-2.4,2c0,1,0.7,1.7,2,1.7
				C355.4,125.9,357,124.8,357,122.8z"/>
			<path class="st5" d="M362.8,126.9v-15.5h1.7v15.5H362.8z"/>
			<path class="st5" d="M385.5,116.1c2.4,0,3.6,1.5,3.6,4v6.8h-1.8v-6.4c0-2-0.7-3-2.3-3c-1.6,0-2.8,1.1-2.8,3.6v5.8h-1.8v-6.4
				c0-2-0.7-3-2.3-3s-2.8,1.1-2.8,3.6v5.8h-1.7v-10.6h1.7v1.9c0.5-1.3,1.8-2.2,3.3-2.2c1.8,0,2.8,0.9,3.2,2.3
				C382.6,117,383.9,116.1,385.5,116.1z"/>
			<path class="st5" d="M393,112.1h2v2.1h-2V112.1z M393.1,116.4h1.7v10.6h-1.7V116.4z"/>
			<path class="st5" d="M400.7,118.3c0.5-1.3,1.8-2.2,3.4-2.2c2.4,0,3.8,1.5,3.8,4v6.8h-1.7v-6.4c0-2-0.9-3-2.5-3
				c-1.6,0-2.9,1-2.9,3.6v5.8H399v-10.6h1.7V118.3z"/>
			<path class="st5" d="M419.5,125.1c-0.5,1.1-1.8,2.1-3.6,2.1c-2.7,0-4.7-2.2-4.7-5.5c0-3.4,2-5.5,4.7-5.5c1.8,0,3,1,3.5,2.1v-6.8
				h1.7v15.5h-1.7V125.1z M419.5,121.5c0-2.4-1.2-4-3.2-4c-2.1,0-3.3,1.7-3.3,4.2c0,2.5,1.2,4.2,3.3,4.2c2.1,0,3.2-1.6,3.2-4V121.5z
				"/>
			<path class="st5" d="M426.1,123.8c0.1,1.4,1.5,2.1,2.9,2.1c1.4,0,2.5-0.7,2.5-1.8c0-0.8-0.5-1.3-1.8-1.5l-1.9-0.4
				c-1.7-0.3-2.9-1-2.9-2.9c0-1.8,1.6-3.2,3.9-3.2c2.4,0,3.9,1,4.1,3h-1.6c-0.1-1.1-1.1-1.7-2.5-1.7c-1.4,0-2.3,0.7-2.3,1.7
				c0,0.9,0.6,1.3,1.8,1.5l2.1,0.4c1.7,0.3,2.7,1.2,2.7,2.9c0,1.8-1.7,3.2-4.1,3.2c-2.5,0-4.4-1.1-4.6-3.4H426.1z"/>
			<path class="st5" d="M440.9,127.2c-3,0-5.1-2.1-5.1-5.5c0-3.4,2.2-5.6,5-5.6c3.1,0,4.5,2.5,4.5,5.2v0.7h-7.8
				c0.1,2.4,1.4,3.8,3.4,3.8c1.4,0,2.3-0.7,2.7-2h1.6C444.8,126.1,442.9,127.2,440.9,127.2z M437.6,120.8h6c0-1.8-0.9-3.2-2.8-3.2
				C439.1,117.5,437.9,118.6,437.6,120.8z"/>
			<path class="st5" d="M453.6,126.8c-0.8,0.2-1.4,0.3-1.8,0.3c-1.9,0-2.9-0.9-2.9-2.9v-6.5h-1.6v-1.3h1.6v-2.7h1.7v2.7h2.8v1.3
				h-2.8v6.4c0,1.1,0.6,1.5,1.5,1.5c0.4,0,0.9,0,1.5-0.3V126.8z"/>
			<path class="st5" d="M457.6,123.8c0.1,1.4,1.5,2.1,2.9,2.1c1.4,0,2.5-0.7,2.5-1.8c0-0.8-0.5-1.3-1.8-1.5l-1.9-0.4
				c-1.7-0.3-2.9-1-2.9-2.9c0-1.8,1.6-3.2,3.9-3.2c2.4,0,3.9,1,4.1,3h-1.6c-0.1-1.1-1.1-1.7-2.5-1.7c-1.4,0-2.3,0.7-2.3,1.7
				c0,0.9,0.6,1.3,1.8,1.5l2.1,0.4c1.7,0.3,2.7,1.2,2.7,2.9c0,1.8-1.7,3.2-4.1,3.2c-2.5,0-4.4-1.1-4.6-3.4H457.6z"/>
		</g>
	</g>
	<g>
		<g>
			<path class="st5" d="M132.5,191.5h9.6v1.5h-7.8v5.5h7.1v1.5h-7.1v6.5h-1.8V191.5z"/>
			<path class="st5" d="M149.1,206.7c-2.9,0-5-2.1-5-5.5s2.1-5.5,5-5.5c2.9,0,5,2.1,5,5.5S152.1,206.7,149.1,206.7z M149.1,205.3
				c2.1,0,3.3-1.6,3.3-4.1s-1.2-4.1-3.3-4.1s-3.3,1.6-3.3,4.1S147.1,205.3,149.1,205.3z"/>
			<path class="st5" d="M161.8,195.7c2.4,0,3.9,1.3,4.2,3.6h-1.7c-0.3-1.4-1.2-2.2-2.6-2.2c-2.1,0-3.3,1.7-3.3,4.1s1.2,4.1,3.3,4.1
				c1.4,0,2.3-0.8,2.6-2.2h1.7c-0.3,2.3-1.9,3.6-4.2,3.6c-2.9,0-5-2.1-5-5.5S158.8,195.7,161.8,195.7z"/>
			<path class="st5" d="M176.3,206.5v-1.9c-0.5,1.3-1.8,2.2-3.4,2.2c-2.4,0-3.7-1.4-3.7-4v-6.8h1.8v6.5c0,2,0.8,3,2.5,3
				c1.6,0,2.8-1.1,2.8-3.6v-5.8h1.8v10.6H176.3z"/>
			<path class="st5" d="M182.9,203.4c0.1,1.4,1.5,2.1,2.9,2.1c1.4,0,2.5-0.7,2.5-1.8c0-0.8-0.5-1.3-1.8-1.5l-1.9-0.4
				c-1.7-0.3-2.9-1-2.9-2.9c0-1.8,1.6-3.2,3.9-3.2c2.4,0,3.9,1,4.1,3h-1.6c-0.1-1.1-1.1-1.7-2.5-1.7c-1.4,0-2.3,0.7-2.3,1.7
				c0,0.9,0.6,1.3,1.8,1.5l2.1,0.4c1.7,0.3,2.7,1.2,2.7,2.9c0,1.8-1.7,3.2-4.1,3.2c-2.5,0-4.4-1.1-4.6-3.4H182.9z"/>
			<path class="st5" d="M193.3,191.6h2v2.1h-2V191.6z M193.4,195.9h1.7v10.6h-1.7V195.9z"/>
			<path class="st5" d="M201,197.9c0.5-1.3,1.8-2.2,3.4-2.2c2.4,0,3.8,1.5,3.8,4v6.8h-1.7v-6.4c0-2-0.9-3-2.5-3
				c-1.6,0-2.9,1-2.9,3.6v5.8h-1.7v-10.6h1.7V197.9z"/>
			<path class="st5" d="M219.7,204.3c-0.5,1-1.7,2-3.5,2c-2.7,0-4.7-2-4.7-5.3c0-3.2,2-5.3,4.7-5.3c1.8,0,3.1,1.1,3.6,2.1v-1.8h1.7
				v9.8c0,3.4-2.2,4.8-5,4.8c-2.5,0-4.3-1-4.7-3.1h1.8c0.4,1.3,1.5,1.7,2.9,1.7c2.1,0,3.3-1.1,3.3-3.3V204.3z M219.8,200.7
				c0-2.2-1.4-3.7-3.3-3.7c-2.1,0-3.3,1.6-3.3,3.9c0,2.3,1.2,3.9,3.3,3.9c2,0,3.3-1.5,3.3-3.7V200.7z"/>
			<path class="st5" d="M234.8,206.7c-2.9,0-5-2.1-5-5.5s2.1-5.5,5-5.5c2.9,0,5,2.1,5,5.5S237.7,206.7,234.8,206.7z M234.8,205.3
				c2.1,0,3.3-1.6,3.3-4.1s-1.2-4.1-3.3-4.1s-3.3,1.6-3.3,4.1S232.7,205.3,234.8,205.3z"/>
			<path class="st5" d="M244.9,197.9c0.5-1.3,1.8-2.2,3.4-2.2c2.4,0,3.8,1.5,3.8,4v6.8h-1.7v-6.4c0-2-0.9-3-2.5-3
				c-1.6,0-2.9,1-2.9,3.6v5.8h-1.7v-10.6h1.7V197.9z"/>
			<path class="st5" d="M262.9,210.2h-1.7v-14.3h1.7v1.9c0.5-1.1,1.7-2.2,3.6-2.2c2.7,0,4.7,2.2,4.7,5.5c0,3.3-2,5.5-4.7,5.5
				c-1.7,0-3-1-3.5-2.1V210.2z M262.8,201.3c0,2.4,1.2,4,3.2,4c2.1,0,3.3-1.7,3.3-4.2c0-2.5-1.2-4.2-3.3-4.2c-2.1,0-3.2,1.6-3.2,4
				V201.3z"/>
			<path class="st5" d="M280.3,197.4c-0.3-0.1-0.6-0.1-0.9-0.1c-1.7,0-3.2,1.3-3.2,4v5.2h-1.7v-10.6h1.7v2.5
				c0.5-1.7,1.8-2.7,3.4-2.7c0.3,0,0.6,0,0.8,0.1V197.4z"/>
			<path class="st5" d="M287,206.7c-2.9,0-5-2.1-5-5.5s2.1-5.5,5-5.5c2.9,0,5,2.1,5,5.5S289.9,206.7,287,206.7z M287,205.3
				c2.1,0,3.3-1.6,3.3-4.1s-1.2-4.1-3.3-4.1s-3.3,1.6-3.3,4.1S285,205.3,287,205.3z"/>
			<path class="st5" d="M302.9,204.6c-0.5,1.1-1.8,2.1-3.6,2.1c-2.7,0-4.7-2.2-4.7-5.5c0-3.4,2-5.5,4.7-5.5c1.8,0,3,1,3.5,2.1V191
				h1.7v15.5h-1.7V204.6z M302.9,201c0-2.4-1.2-4-3.2-4c-2.1,0-3.3,1.7-3.3,4.2c0,2.5,1.2,4.2,3.3,4.2c2.1,0,3.2-1.6,3.2-4V201z"/>
			<path class="st5" d="M315.8,206.5v-1.9c-0.5,1.3-1.8,2.2-3.4,2.2c-2.4,0-3.7-1.4-3.7-4v-6.8h1.8v6.5c0,2,0.8,3,2.5,3
				c1.6,0,2.8-1.1,2.8-3.6v-5.8h1.8v10.6H315.8z"/>
			<path class="st5" d="M325.8,195.7c2.4,0,3.9,1.3,4.2,3.6h-1.7c-0.3-1.4-1.2-2.2-2.6-2.2c-2.1,0-3.3,1.7-3.3,4.1s1.2,4.1,3.3,4.1
				c1.4,0,2.3-0.8,2.6-2.2h1.7c-0.3,2.3-1.9,3.6-4.2,3.6c-2.9,0-5-2.1-5-5.5S322.9,195.7,325.8,195.7z"/>
			<path class="st5" d="M333.2,191.6h2v2.1h-2V191.6z M333.4,195.9h1.7v10.6h-1.7V195.9z"/>
			<path class="st5" d="M340.9,197.9c0.5-1.3,1.8-2.2,3.4-2.2c2.4,0,3.8,1.5,3.8,4v6.8h-1.7v-6.4c0-2-0.9-3-2.5-3
				c-1.6,0-2.9,1-2.9,3.6v5.8h-1.7v-10.6h1.7V197.9z"/>
			<path class="st5" d="M359.6,204.3c-0.5,1-1.7,2-3.5,2c-2.7,0-4.7-2-4.7-5.3c0-3.2,2-5.3,4.7-5.3c1.8,0,3.1,1.1,3.6,2.1v-1.8h1.7
				v9.8c0,3.4-2.2,4.8-5,4.8c-2.5,0-4.3-1-4.7-3.1h1.8c0.4,1.3,1.5,1.7,2.9,1.7c2.1,0,3.3-1.1,3.3-3.3V204.3z M359.7,200.7
				c0-2.2-1.4-3.7-3.3-3.7c-2.1,0-3.3,1.6-3.3,3.9c0,2.3,1.2,3.9,3.3,3.9c2,0,3.3-1.5,3.3-3.7V200.7z"/>
			<path class="st5" d="M374.7,206.7c-2.9,0-5-2.1-5-5.5s2.1-5.5,5-5.5c2.9,0,5,2.1,5,5.5S377.7,206.7,374.7,206.7z M374.7,205.3
				c2.1,0,3.3-1.6,3.3-4.1s-1.2-4.1-3.3-4.1s-3.3,1.6-3.3,4.1S372.7,205.3,374.7,205.3z"/>
			<path class="st5" d="M390.1,206.5v-1.9c-0.5,1.3-1.8,2.2-3.4,2.2c-2.4,0-3.7-1.4-3.7-4v-6.8h1.8v6.5c0,2,0.8,3,2.5,3
				c1.6,0,2.8-1.1,2.8-3.6v-5.8h1.8v10.6H390.1z"/>
			<path class="st5" d="M400.9,206.4c-0.8,0.2-1.4,0.3-1.8,0.3c-1.9,0-2.9-0.9-2.9-2.9v-6.5h-1.6v-1.3h1.6v-2.7h1.7v2.7h2.8v1.3
				h-2.8v6.4c0,1.1,0.6,1.5,1.5,1.5c0.4,0,0.9,0,1.5-0.3V206.4z"/>
			<path class="st5" d="M408.2,195.7c2.4,0,3.9,1.3,4.2,3.6h-1.7c-0.3-1.4-1.2-2.2-2.6-2.2c-2.1,0-3.3,1.7-3.3,4.1s1.2,4.1,3.3,4.1
				c1.4,0,2.3-0.8,2.6-2.2h1.7c-0.3,2.3-1.9,3.6-4.2,3.6c-2.9,0-5-2.1-5-5.5S405.3,195.7,408.2,195.7z"/>
			<path class="st5" d="M420,206.7c-2.9,0-5-2.1-5-5.5s2.1-5.5,5-5.5c2.9,0,5,2.1,5,5.5S422.9,206.7,420,206.7z M420,205.3
				c2.1,0,3.3-1.6,3.3-4.1s-1.2-4.1-3.3-4.1s-3.3,1.6-3.3,4.1S418,205.3,420,205.3z"/>
			<path class="st5" d="M440.2,195.7c2.4,0,3.6,1.5,3.6,4v6.8h-1.8v-6.4c0-2-0.7-3-2.3-3c-1.6,0-2.8,1.1-2.8,3.6v5.8h-1.8v-6.4
				c0-2-0.7-3-2.3-3s-2.8,1.1-2.8,3.6v5.8h-1.7v-10.6h1.7v1.9c0.5-1.3,1.8-2.2,3.3-2.2c1.8,0,2.8,0.9,3.2,2.3
				C437.3,196.5,438.6,195.7,440.2,195.7z"/>
			<path class="st5" d="M452.2,206.7c-3,0-5.1-2.1-5.1-5.5c0-3.4,2.2-5.6,5-5.6c3.1,0,4.5,2.5,4.5,5.2v0.7h-7.8
				c0.1,2.4,1.4,3.8,3.4,3.8c1.4,0,2.3-0.7,2.7-2h1.6C456.1,205.6,454.2,206.7,452.2,206.7z M448.9,200.3h6c0-1.8-0.9-3.2-2.8-3.2
				C450.4,197.1,449.1,198.2,448.9,200.3z"/>
			<path class="st5" d="M460.9,203.4c0.1,1.4,1.5,2.1,2.9,2.1c1.4,0,2.5-0.7,2.5-1.8c0-0.8-0.5-1.3-1.8-1.5l-1.9-0.4
				c-1.7-0.3-2.9-1-2.9-2.9c0-1.8,1.6-3.2,3.9-3.2c2.4,0,3.9,1,4.1,3h-1.6c-0.1-1.1-1.1-1.7-2.5-1.7c-1.4,0-2.3,0.7-2.3,1.7
				c0,0.9,0.6,1.3,1.8,1.5l2.1,0.4c1.7,0.3,2.7,1.2,2.7,2.9c0,1.8-1.7,3.2-4.1,3.2c-2.5,0-4.4-1.1-4.6-3.4H460.9z"/>
		</g>
	</g>
	<g>
		<g>
			<path class="st5" d="M59.5,284.7c2.5,0,3.6-1.4,3.9-3.1h1.8c-0.5,2.7-2.4,4.6-5.7,4.6c-3.9,0-6.7-3-6.7-7.8
				c0-4.7,2.9-7.7,6.7-7.7c3.3,0,5.2,1.9,5.7,4.6h-1.8c-0.3-1.7-1.4-3.1-3.9-3.1c-3.1,0-4.9,2.5-4.9,6.2S56.5,284.7,59.5,284.7z"/>
			<path class="st5" d="M72.7,286.3c-2.9,0-5-2.1-5-5.5s2.1-5.5,5-5.5c2.9,0,5,2.1,5,5.5S75.6,286.3,72.7,286.3z M72.7,284.9
				c2.1,0,3.3-1.6,3.3-4.1s-1.2-4.1-3.3-4.1s-3.3,1.6-3.3,4.1S70.7,284.9,72.7,284.9z"/>
			<path class="st5" d="M82.8,277.4c0.5-1.3,1.8-2.2,3.4-2.2c2.4,0,3.8,1.5,3.8,4v6.8h-1.7v-6.4c0-2-0.9-3-2.5-3
				c-1.6,0-2.9,1-2.9,3.6v5.8h-1.7v-10.6h1.7V277.4z"/>
			<path class="st5" d="M92.6,275.5h1.8l3.4,8.8h0l3.3-8.8h1.7L98.7,286h-2L92.6,275.5z"/>
			<path class="st5" d="M109.6,286.3c-3,0-5.1-2.1-5.1-5.5c0-3.4,2.2-5.6,5-5.6c3.1,0,4.5,2.5,4.5,5.2v0.7h-7.8
				c0.1,2.4,1.4,3.8,3.4,3.8c1.4,0,2.3-0.7,2.7-2h1.6C113.5,285.2,111.7,286.3,109.6,286.3z M106.3,279.9h6c0-1.8-0.9-3.2-2.8-3.2
				C107.9,276.6,106.6,277.7,106.3,279.9z"/>
			<path class="st5" d="M119.1,277.4c0.5-1.3,1.8-2.2,3.4-2.2c2.4,0,3.8,1.5,3.8,4v6.8h-1.7v-6.4c0-2-0.9-3-2.5-3
				c-1.6,0-2.9,1-2.9,3.6v5.8h-1.7v-10.6h1.7V277.4z"/>
			<path class="st5" d="M130.3,271.1h2v2.1h-2V271.1z M130.4,275.5h1.7V286h-1.7V275.5z"/>
			<path class="st5" d="M138,277.4c0.5-1.3,1.8-2.2,3.4-2.2c2.4,0,3.8,1.5,3.8,4v6.8h-1.7v-6.4c0-2-0.9-3-2.5-3
				c-1.6,0-2.9,1-2.9,3.6v5.8h-1.7v-10.6h1.7V277.4z"/>
			<path class="st5" d="M156.6,283.8c-0.5,1-1.7,2-3.5,2c-2.7,0-4.7-2-4.7-5.3c0-3.2,2-5.3,4.7-5.3c1.8,0,3.1,1.1,3.6,2.1v-1.8h1.7
				v9.8c0,3.4-2.2,4.8-5,4.8c-2.5,0-4.3-1-4.7-3.1h1.8c0.4,1.3,1.5,1.7,2.9,1.7c2.1,0,3.3-1.1,3.3-3.3V283.8z M156.8,280.3
				c0-2.2-1.4-3.7-3.3-3.7c-2.1,0-3.3,1.6-3.3,3.9c0,2.3,1.2,3.9,3.3,3.9c2,0,3.3-1.5,3.3-3.7V280.3z"/>
			<path class="st5" d="M173.8,284.2c-0.5,1.2-1.9,2-3.7,2c-1.8,0-3.4-1.1-3.4-3c0-2,1.5-2.9,3.7-3.2l3.4-0.4V279
				c0-1.7-1-2.4-2.5-2.4c-1.4,0-2.3,0.7-2.4,2h-1.7c0.2-2.1,1.9-3.4,4.1-3.4c2.6,0,4.2,1.2,4.2,3.8v4.9c0,0.8,0,1.5,0.3,2.2H174
				C173.9,285.4,173.8,284.7,173.8,284.2z M173.8,281.9v-0.9l-2.9,0.3c-1.3,0.2-2.4,0.5-2.4,2c0,1,0.7,1.7,2,1.7
				C172.1,284.9,173.8,283.9,173.8,281.9z"/>
			<path class="st5" d="M181.2,277.4c0.5-1.3,1.8-2.2,3.4-2.2c2.4,0,3.8,1.5,3.8,4v6.8h-1.7v-6.4c0-2-0.9-3-2.5-3
				c-1.6,0-2.9,1-2.9,3.6v5.8h-1.7v-10.6h1.7V277.4z"/>
			<path class="st5" d="M200,284.2c-0.5,1.1-1.8,2.1-3.6,2.1c-2.7,0-4.7-2.2-4.7-5.5c0-3.4,2-5.5,4.7-5.5c1.8,0,3,1,3.5,2.1v-6.8
				h1.7V286H200V284.2z M200,280.6c0-2.4-1.2-4-3.2-4c-2.1,0-3.3,1.7-3.3,4.2c0,2.5,1.2,4.2,3.3,4.2c2.1,0,3.2-1.6,3.2-4V280.6z"/>
			<path class="st5" d="M217.1,284.2c-0.5,1.2-1.9,2-3.7,2c-1.8,0-3.4-1.1-3.4-3c0-2,1.5-2.9,3.7-3.2l3.4-0.4V279
				c0-1.7-1-2.4-2.5-2.4c-1.4,0-2.3,0.7-2.4,2h-1.7c0.2-2.1,1.9-3.4,4.1-3.4c2.6,0,4.2,1.2,4.2,3.8v4.9c0,0.8,0,1.5,0.3,2.2h-1.7
				C217.2,285.4,217.1,284.7,217.1,284.2z M217.1,281.9v-0.9l-2.9,0.3c-1.3,0.2-2.4,0.5-2.4,2c0,1,0.7,1.7,2,1.7
				C215.4,284.9,217.1,283.9,217.1,281.9z"/>
			<path class="st5" d="M222.8,286v-15.5h1.7V286H222.8z"/>
			<path class="st5" d="M228.6,271.1h2v2.1h-2V271.1z M228.7,275.5h1.7V286h-1.7V275.5z"/>
			<path class="st5" d="M242,283.8c-0.5,1-1.7,2-3.5,2c-2.7,0-4.7-2-4.7-5.3c0-3.2,2-5.3,4.7-5.3c1.8,0,3.1,1.1,3.6,2.1v-1.8h1.7
				v9.8c0,3.4-2.2,4.8-5,4.8c-2.5,0-4.3-1-4.7-3.1h1.8c0.4,1.3,1.5,1.7,2.9,1.7c2.1,0,3.3-1.1,3.3-3.3V283.8z M242.2,280.3
				c0-2.2-1.4-3.7-3.3-3.7c-2.1,0-3.3,1.6-3.3,3.9c0,2.3,1.2,3.9,3.3,3.9c2,0,3.3-1.5,3.3-3.7V280.3z"/>
			<path class="st5" d="M249.6,277.4c0.5-1.3,1.8-2.2,3.4-2.2c2.4,0,3.8,1.5,3.8,4v6.8h-1.7v-6.4c0-2-0.9-3-2.5-3
				c-1.6,0-2.9,1-2.9,3.6v5.8H248v-10.6h1.7V277.4z"/>
			<path class="st5" d="M260.8,271.1h2v2.1h-2V271.1z M260.9,275.5h1.7V286h-1.7V275.5z"/>
			<path class="st5" d="M268.5,277.4c0.5-1.3,1.8-2.2,3.4-2.2c2.4,0,3.8,1.5,3.8,4v6.8H274v-6.4c0-2-0.9-3-2.5-3
				c-1.6,0-2.9,1-2.9,3.6v5.8h-1.7v-10.6h1.7V277.4z"/>
			<path class="st5" d="M287.2,283.8c-0.5,1-1.7,2-3.5,2c-2.7,0-4.7-2-4.7-5.3c0-3.2,2-5.3,4.7-5.3c1.8,0,3.1,1.1,3.6,2.1v-1.8h1.7
				v9.8c0,3.4-2.2,4.8-5,4.8c-2.5,0-4.3-1-4.7-3.1h1.8c0.4,1.3,1.5,1.7,2.9,1.7c2.1,0,3.3-1.1,3.3-3.3V283.8z M287.3,280.3
				c0-2.2-1.4-3.7-3.3-3.7c-2.1,0-3.3,1.6-3.3,3.9c0,2.3,1.2,3.9,3.3,3.9c2,0,3.3-1.5,3.3-3.7V280.3z"/>
			<path class="st5" d="M302.3,275.2c2.4,0,3.9,1.3,4.2,3.6h-1.7c-0.3-1.4-1.2-2.2-2.6-2.2c-2.1,0-3.3,1.7-3.3,4.1s1.2,4.1,3.3,4.1
				c1.4,0,2.3-0.8,2.6-2.2h1.7c-0.3,2.3-1.9,3.6-4.2,3.6c-2.9,0-5-2.1-5-5.5S299.3,275.2,302.3,275.2z"/>
			<path class="st5" d="M314,286.3c-2.9,0-5-2.1-5-5.5s2.1-5.5,5-5.5c2.9,0,5,2.1,5,5.5S317,286.3,314,286.3z M314,284.9
				c2.1,0,3.3-1.6,3.3-4.1s-1.2-4.1-3.3-4.1s-3.3,1.6-3.3,4.1S312,284.9,314,284.9z"/>
			<path class="st5" d="M334.2,275.2c2.4,0,3.6,1.5,3.6,4v6.8h-1.8v-6.4c0-2-0.7-3-2.3-3c-1.6,0-2.8,1.1-2.8,3.6v5.8h-1.8v-6.4
				c0-2-0.7-3-2.3-3s-2.8,1.1-2.8,3.6v5.8h-1.7v-10.6h1.7v1.9c0.5-1.3,1.8-2.2,3.3-2.2c1.8,0,2.8,0.9,3.2,2.3
				C331.3,276.1,332.7,275.2,334.2,275.2z"/>
			<path class="st5" d="M353.7,275.2c2.4,0,3.6,1.5,3.6,4v6.8h-1.8v-6.4c0-2-0.7-3-2.3-3c-1.6,0-2.8,1.1-2.8,3.6v5.8h-1.8v-6.4
				c0-2-0.7-3-2.3-3s-2.8,1.1-2.8,3.6v5.8h-1.7v-10.6h1.7v1.9c0.5-1.3,1.8-2.2,3.3-2.2c1.8,0,2.8,0.9,3.2,2.3
				C350.8,276.1,352.1,275.2,353.7,275.2z"/>
			<path class="st5" d="M368.3,286v-1.9c-0.5,1.3-1.8,2.2-3.4,2.2c-2.4,0-3.7-1.4-3.7-4v-6.8h1.8v6.5c0,2,0.8,3,2.5,3
				c1.6,0,2.8-1.1,2.8-3.6v-5.8h1.8V286H368.3z"/>
			<path class="st5" d="M375.9,277.4c0.5-1.3,1.8-2.2,3.4-2.2c2.4,0,3.8,1.5,3.8,4v6.8h-1.7v-6.4c0-2-0.9-3-2.5-3
				c-1.6,0-2.9,1-2.9,3.6v5.8h-1.7v-10.6h1.7V277.4z"/>
			<path class="st5" d="M387,271.1h2v2.1h-2V271.1z M387.1,275.5h1.7V286h-1.7V275.5z"/>
			<path class="st5" d="M398,285.9c-0.8,0.2-1.4,0.3-1.8,0.3c-1.9,0-2.9-0.9-2.9-2.9v-6.5h-1.6v-1.3h1.6v-2.7h1.7v2.7h2.8v1.3h-2.8
				v6.4c0,1.1,0.6,1.5,1.5,1.5c0.4,0,0.9,0,1.5-0.3V285.9z"/>
			<path class="st5" d="M399.9,275.5h1.8l3.4,8.6h0l3.2-8.6h1.8l-4.3,10.9c-1,2.5-1.8,3.6-3.7,3.6c-0.3,0-0.7,0-1-0.1v-1.4
				c0.3,0.1,0.6,0.1,0.8,0.1c1,0,1.5-0.6,2.2-2.4L399.9,275.5z"/>
			<path class="st5" d="M418.8,282.9c0.1,1.4,1.5,2.1,2.9,2.1c1.4,0,2.5-0.7,2.5-1.8c0-0.8-0.5-1.3-1.8-1.5l-1.9-0.4
				c-1.7-0.3-2.9-1-2.9-2.9c0-1.8,1.6-3.2,3.9-3.2c2.4,0,3.9,1,4.1,3h-1.6c-0.1-1.1-1.1-1.7-2.5-1.7c-1.4,0-2.3,0.7-2.3,1.7
				c0,0.9,0.6,1.3,1.8,1.5l2.1,0.4c1.7,0.3,2.7,1.2,2.7,2.9c0,1.8-1.7,3.2-4.1,3.2c-2.5,0-4.4-1.1-4.6-3.4H418.8z"/>
			<path class="st5" d="M434.2,285.9c-0.8,0.2-1.4,0.3-1.8,0.3c-1.9,0-2.9-0.9-2.9-2.9v-6.5h-1.6v-1.3h1.6v-2.7h1.7v2.7h2.8v1.3
				h-2.8v6.4c0,1.1,0.6,1.5,1.5,1.5c0.4,0,0.9,0,1.5-0.3V285.9z"/>
			<path class="st5" d="M443.7,284.2c-0.5,1.2-1.9,2-3.7,2c-1.8,0-3.4-1.1-3.4-3c0-2,1.5-2.9,3.7-3.2l3.4-0.4V279
				c0-1.7-1-2.4-2.5-2.4c-1.4,0-2.3,0.7-2.4,2h-1.7c0.2-2.1,1.9-3.4,4.1-3.4c2.6,0,4.2,1.2,4.2,3.8v4.9c0,0.8,0,1.5,0.3,2.2h-1.7
				C443.8,285.4,443.7,284.7,443.7,284.2z M443.6,281.9v-0.9l-2.9,0.3c-1.3,0.2-2.4,0.5-2.4,2c0,1,0.7,1.7,2,1.7
				C442,284.9,443.6,283.9,443.6,281.9z"/>
			<path class="st5" d="M452.5,281.1l-1.4,1.3v3.7h-1.7v-15.5h1.7v10l5.2-5.1h2.1l-4.7,4.5l4.9,6.1h-2.1L452.5,281.1z"/>
			<path class="st5" d="M465.6,286.3c-3,0-5.1-2.1-5.1-5.5c0-3.4,2.2-5.6,5-5.6c3.1,0,4.5,2.5,4.5,5.2v0.7h-7.8
				c0.1,2.4,1.4,3.8,3.4,3.8c1.4,0,2.3-0.7,2.7-2h1.6C469.5,285.2,467.6,286.3,465.6,286.3z M462.3,279.9h6c0-1.8-0.9-3.2-2.8-3.2
				C463.8,276.6,462.5,277.7,462.3,279.9z"/>
			<path class="st5" d="M478.5,275.2c2.4,0,3.8,1.5,3.8,4v6.8h-1.7v-6.4c0-2-0.9-3-2.5-3c-1.6,0-2.9,1-2.9,3.6v5.8h-1.7v-15.5h1.7
				v6.8C475.6,276.1,476.9,275.2,478.5,275.2z"/>
			<path class="st5" d="M490.6,286.3c-2.9,0-5-2.1-5-5.5s2.1-5.5,5-5.5c2.9,0,5,2.1,5,5.5S493.5,286.3,490.6,286.3z M490.6,284.9
				c2.1,0,3.3-1.6,3.3-4.1s-1.2-4.1-3.3-4.1s-3.3,1.6-3.3,4.1S488.5,284.9,490.6,284.9z"/>
			<path class="st5" d="M499,286v-15.5h1.7V286H499z"/>
			<path class="st5" d="M512.4,284.2c-0.5,1.1-1.8,2.1-3.6,2.1c-2.7,0-4.7-2.2-4.7-5.5c0-3.4,2-5.5,4.7-5.5c1.8,0,3,1,3.5,2.1v-6.8
				h1.7V286h-1.7V284.2z M512.4,280.6c0-2.4-1.2-4-3.2-4c-2.1,0-3.3,1.7-3.3,4.2c0,2.5,1.2,4.2,3.3,4.2c2.1,0,3.2-1.6,3.2-4V280.6z"
				/>
			<path class="st5" d="M522.5,286.3c-3,0-5.1-2.1-5.1-5.5c0-3.4,2.2-5.6,5-5.6c3.1,0,4.5,2.5,4.5,5.2v0.7h-7.8
				c0.1,2.4,1.4,3.8,3.4,3.8c1.4,0,2.3-0.7,2.7-2h1.6C526.4,285.2,524.6,286.3,522.5,286.3z M519.2,279.9h6c0-1.8-0.9-3.2-2.8-3.2
				C520.8,276.6,519.5,277.7,519.2,279.9z"/>
			<path class="st5" d="M536.2,276.9c-0.3-0.1-0.6-0.1-0.9-0.1c-1.7,0-3.2,1.3-3.2,4v5.2h-1.7v-10.6h1.7v2.5
				c0.5-1.7,1.8-2.7,3.4-2.7c0.3,0,0.6,0,0.8,0.1V276.9z"/>
			<path class="st5" d="M539.6,282.9c0.1,1.4,1.5,2.1,2.9,2.1c1.4,0,2.5-0.7,2.5-1.8c0-0.8-0.5-1.3-1.8-1.5l-1.9-0.4
				c-1.7-0.3-2.9-1-2.9-2.9c0-1.8,1.6-3.2,3.9-3.2c2.4,0,3.9,1,4.1,3h-1.6c-0.1-1.1-1.1-1.7-2.5-1.7c-1.4,0-2.3,0.7-2.3,1.7
				c0,0.9,0.6,1.3,1.8,1.5l2.1,0.4c1.7,0.3,2.7,1.2,2.7,2.9c0,1.8-1.7,3.2-4.1,3.2c-2.5,0-4.4-1.1-4.6-3.4H539.6z"/>
		</g>
	</g>
	<g>
		<path class="st5" d="M276.5,361.1h-4.3V360h9.9v1.2h-4.3v10.3h-1.4V361.1z"/>
		<path class="st5" d="M284.6,360h1.4v5h6.7v-5h1.4v11.4h-1.4v-5.2H286v5.2h-1.4V360z"/>
		<path class="st5" d="M297.3,371.4V360h7.7v1.2h-6.4v4h5.7v1.2h-5.7v4h6.4v1.2H297.3z"/>
		<path class="st5" d="M307.9,371.4V360h4.4c2.6,0,4,1.2,4,3.4c0,1.9-1.3,2.9-2.6,3.2l3.1,4.8h-1.6l-3-4.6h-3v4.6H307.9z
			 M312.3,365.6c1.7,0,2.7-0.8,2.7-2.3c0-1.4-1-2.2-2.7-2.2h-3v4.5H312.3z"/>
		<path class="st5" d="M319.3,371.4V360h7.7v1.2h-6.4v4h5.7v1.2h-5.7v4h6.4v1.2H319.3z"/>
		<path class="st5" d="M287.3,379.8L287.3,379.8l-2.6,9.6h-1.6l-3.2-11.4h1.5l2.6,9.7h0l2.6-9.7h1.5l2.6,9.7h0l2.6-9.7h1.4
			l-3.2,11.4h-1.6L287.3,379.8z"/>
		<path class="st5" d="M296.8,378h1.4v11.4h-1.4V378z"/>
		<path class="st5" d="M301.5,378h1.4v10.3h6.1v1.2h-7.5V378z"/>
		<path class="st5" d="M311.8,378h1.4v10.3h6.1v1.2h-7.5V378z"/>
		<path class="st5" d="M290.6,407.4V396h4c2.5,0,4,1.1,4,3.1c0,1.1-0.8,2.1-1.8,2.4c1.4,0.4,2.3,1.4,2.3,2.7c0,2.1-1.5,3.2-4,3.2
			H290.6z M294.7,401c1.7,0,2.5-0.7,2.5-2c0-1.3-0.8-2-2.5-2H292v3.9H294.7z M292,406.3h3.1c1.7,0,2.7-0.8,2.7-2.1s-1-2.1-2.7-2.1
			H292V406.3z"/>
		<path class="st5" d="M301.7,407.4V396h7.7v1.2h-6.4v4h5.7v1.2h-5.7v4h6.4v1.2H301.7z"/>
	</g>
	<g>
		<path class="st0" d="M516.2,595H83.8c-35.3,0-63.9-28.6-63.9-63.9v0c0-35.3,28.6-63.9,63.9-63.9h432.5c35.3,0,63.9,28.6,63.9,63.9
			v0C580.2,566.3,551.6,595,516.2,595z"/>
		<g>
			<g>
				<path class="st5" d="M101,510.2L101,510.2l0-12h1.7v15h-1.7l-8.5-12.8h0v12.8h-1.8v-15H93L101,510.2z"/>
				<path class="st5" d="M111.4,513.4c-3,0-5.1-2.1-5.1-5.5c0-3.4,2.2-5.6,5-5.6c3.1,0,4.5,2.5,4.5,5.2v0.7H108
					c0.1,2.4,1.4,3.8,3.4,3.8c1.4,0,2.3-0.7,2.7-2h1.6C115.3,512.3,113.5,513.4,111.4,513.4z M108.1,507h6c0-1.8-0.9-3.2-2.8-3.2
					C109.6,503.8,108.4,504.9,108.1,507z"/>
				<path class="st5" d="M124.1,513.1c-0.8,0.2-1.4,0.3-1.8,0.3c-1.9,0-2.9-0.9-2.9-2.9v-6.5h-1.6v-1.3h1.6v-2.7h1.7v2.7h2.8v1.3
					h-2.8v6.4c0,1.1,0.6,1.5,1.5,1.5c0.4,0,0.9,0,1.5-0.3V513.1z"/>
				<path class="st5" d="M136.8,511.3L136.8,511.3l2.5-8.7h1.7l-3.2,10.6H136l-2.4-8.5h-0.1l-2.4,8.5h-1.8l-3.2-10.6h1.7l2.5,8.7
					h0.1l2.4-8.7h1.8L136.8,511.3z"/>
				<path class="st5" d="M147.9,513.4c-2.9,0-5-2.1-5-5.5s2.1-5.5,5-5.5s5,2.1,5,5.5S150.8,513.4,147.9,513.4z M147.9,512
					c2.1,0,3.3-1.6,3.3-4.1c0-2.5-1.2-4.1-3.3-4.1s-3.3,1.6-3.3,4.1C144.6,510.5,145.8,512,147.9,512z"/>
				<path class="st5" d="M162.1,504.1c-0.3-0.1-0.6-0.1-0.9-0.1c-1.7,0-3.2,1.3-3.2,4v5.2h-1.7v-10.6h1.7v2.5
					c0.5-1.7,1.8-2.7,3.4-2.7c0.3,0,0.6,0,0.8,0.1V504.1z"/>
				<path class="st5" d="M167.9,508.2l-1.4,1.3v3.7h-1.7v-15.5h1.7v10l5.2-5.1h2.1l-4.7,4.5l4.9,6.1h-2.1L167.9,508.2z"/>
				<path class="st5" d="M186.1,513.4c-2.9,0-5-2.1-5-5.5s2.1-5.5,5-5.5s5,2.1,5,5.5S189.1,513.4,186.1,513.4z M186.1,512
					c2.1,0,3.3-1.6,3.3-4.1c0-2.5-1.2-4.1-3.3-4.1s-3.3,1.6-3.3,4.1C182.8,510.5,184.1,512,186.1,512z"/>
				<path class="st5" d="M193.3,503.9v-1.3h1.5v-2c0-2,1.3-3,3.1-3c0.4,0,0.9,0,1.2,0.1v1.4c-0.3,0-0.7-0.1-1.1-0.1
					c-0.8,0-1.4,0.4-1.4,1.6v2h2.3v1.3h-2.3v9.2h-1.7v-9.2H193.3z"/>
				<path class="st5" d="M210.7,513.4c-2.9,0-5-2.1-5-5.5s2.1-5.5,5-5.5s5,2.1,5,5.5S213.6,513.4,210.7,513.4z M210.7,512
					c2.1,0,3.3-1.6,3.3-4.1c0-2.5-1.2-4.1-3.3-4.1s-3.3,1.6-3.3,4.1C207.4,510.5,208.6,512,210.7,512z"/>
				<path class="st5" d="M225,504.1c-0.3-0.1-0.6-0.1-0.9-0.1c-1.7,0-3.2,1.3-3.2,4v5.2h-1.7v-10.6h1.7v2.5c0.5-1.7,1.8-2.7,3.4-2.7
					c0.3,0,0.6,0,0.8,0.1V504.1z"/>
				<path class="st5" d="M234.9,511c-0.5,1-1.7,2-3.5,2c-2.7,0-4.7-2-4.7-5.3c0-3.2,2-5.3,4.7-5.3c1.8,0,3.1,1.1,3.6,2.1v-1.8h1.7
					v9.8c0,3.4-2.2,4.8-5,4.8c-2.5,0-4.3-1-4.7-3.1h1.8c0.4,1.3,1.5,1.7,2.9,1.7c2.1,0,3.3-1.1,3.3-3.3V511z M235,507.4
					c0-2.2-1.4-3.7-3.3-3.7c-2.1,0-3.3,1.6-3.3,3.9c0,2.3,1.2,3.9,3.3,3.9c2,0,3.3-1.5,3.3-3.7V507.4z"/>
				<path class="st5" d="M247.1,511.4c-0.5,1.2-1.9,2-3.7,2c-1.8,0-3.4-1.1-3.4-3c0-2,1.5-2.9,3.7-3.2l3.4-0.4v-0.6
					c0-1.7-1-2.4-2.5-2.4c-1.4,0-2.3,0.7-2.4,2h-1.7c0.2-2.1,1.9-3.4,4.1-3.4c2.6,0,4.2,1.2,4.2,3.8v4.9c0,0.8,0,1.5,0.3,2.2h-1.7
					C247.2,512.6,247.1,511.9,247.1,511.4z M247.1,509v-0.9l-2.9,0.3c-1.3,0.2-2.4,0.5-2.4,2c0,1,0.7,1.7,2,1.7
					C245.4,512.1,247.1,511.1,247.1,509z"/>
				<path class="st5" d="M254.5,504.6c0.5-1.3,1.8-2.2,3.4-2.2c2.4,0,3.8,1.5,3.8,4v6.8H260v-6.4c0-2-0.9-3-2.5-3
					c-1.6,0-2.9,1-2.9,3.6v5.8h-1.7v-10.6h1.7V504.6z"/>
				<path class="st5" d="M265.7,498.3h2v2.1h-2V498.3z M265.8,502.6h1.7v10.6h-1.7V502.6z"/>
				<path class="st5" d="M273.1,511.8h6.5v1.3h-8.7v-1.1l6.3-8.1h-6.1v-1.3h8.2v1.3L273.1,511.8z"/>
				<path class="st5" d="M289.2,511.4c-0.5,1.2-1.9,2-3.7,2c-1.8,0-3.4-1.1-3.4-3c0-2,1.5-2.9,3.7-3.2l3.4-0.4v-0.6
					c0-1.7-1-2.4-2.5-2.4c-1.4,0-2.3,0.7-2.4,2h-1.7c0.2-2.1,1.9-3.4,4.1-3.4c2.6,0,4.2,1.2,4.2,3.8v4.9c0,0.8,0,1.5,0.3,2.2h-1.7
					C289.3,512.6,289.2,511.9,289.2,511.4z M289.2,509v-0.9l-2.9,0.3c-1.3,0.2-2.4,0.5-2.4,2c0,1,0.7,1.7,2,1.7
					C287.5,512.1,289.2,511.1,289.2,509z"/>
				<path class="st5" d="M299.8,513.1c-0.8,0.2-1.4,0.3-1.8,0.3c-1.9,0-2.9-0.9-2.9-2.9v-6.5h-1.6v-1.3h1.6v-2.7h1.7v2.7h2.8v1.3
					h-2.8v6.4c0,1.1,0.6,1.5,1.5,1.5c0.4,0,0.9,0,1.5-0.3V513.1z"/>
				<path class="st5" d="M303,498.3h2v2.1h-2V498.3z M303.1,502.6h1.7v10.6h-1.7V502.6z"/>
				<path class="st5" d="M313.2,513.4c-2.9,0-5-2.1-5-5.5s2.1-5.5,5-5.5c2.9,0,5,2.1,5,5.5S316.2,513.4,313.2,513.4z M313.2,512
					c2.1,0,3.3-1.6,3.3-4.1c0-2.5-1.2-4.1-3.3-4.1c-2.1,0-3.3,1.6-3.3,4.1C310,510.5,311.2,512,313.2,512z"/>
				<path class="st5" d="M323.3,504.6c0.5-1.3,1.8-2.2,3.4-2.2c2.4,0,3.8,1.5,3.8,4v6.8h-1.7v-6.4c0-2-0.9-3-2.5-3
					c-1.6,0-2.9,1-2.9,3.6v5.8h-1.7v-10.6h1.7V504.6z"/>
				<path class="st5" d="M335.4,510.1c0.1,1.4,1.5,2.1,2.9,2.1c1.4,0,2.5-0.7,2.5-1.8c0-0.8-0.5-1.3-1.8-1.5l-1.9-0.4
					c-1.7-0.3-2.9-1-2.9-2.9c0-1.8,1.6-3.2,3.9-3.2c2.4,0,3.9,1,4.1,3h-1.6c-0.1-1.1-1.1-1.7-2.5-1.7c-1.4,0-2.3,0.7-2.3,1.7
					c0,0.9,0.6,1.3,1.8,1.5l2.1,0.4c1.7,0.3,2.7,1.2,2.7,2.9c0,1.8-1.7,3.2-4.1,3.2c-2.5,0-4.4-1.1-4.6-3.4H335.4z"/>
				<path class="st5" d="M357.1,511.4c-0.5,1.2-1.9,2-3.7,2c-1.8,0-3.4-1.1-3.4-3c0-2,1.5-2.9,3.7-3.2l3.4-0.4v-0.6
					c0-1.7-1-2.4-2.5-2.4c-1.4,0-2.3,0.7-2.4,2h-1.7c0.2-2.1,1.9-3.4,4.1-3.4c2.6,0,4.2,1.2,4.2,3.8v4.9c0,0.8,0,1.5,0.3,2.2h-1.7
					C357.2,512.6,357.1,511.9,357.1,511.4z M357.1,509v-0.9l-2.9,0.3c-1.3,0.2-2.4,0.5-2.4,2c0,1,0.7,1.7,2,1.7
					C355.4,512.1,357.1,511.1,357.1,509z"/>
				<path class="st5" d="M364.5,504.6c0.5-1.3,1.8-2.2,3.4-2.2c2.4,0,3.8,1.5,3.8,4v6.8H370v-6.4c0-2-0.9-3-2.5-3
					c-1.6,0-2.9,1-2.9,3.6v5.8h-1.7v-10.6h1.7V504.6z"/>
				<path class="st5" d="M383.3,511.3c-0.5,1.1-1.8,2.1-3.6,2.1c-2.7,0-4.7-2.2-4.7-5.5c0-3.4,2-5.5,4.7-5.5c1.8,0,3,1,3.5,2.1v-6.8
					h1.7v15.5h-1.7V511.3z M383.3,507.7c0-2.4-1.2-4-3.2-4c-2.1,0-3.3,1.7-3.3,4.2c0,2.5,1.2,4.2,3.3,4.2c2.1,0,3.2-1.6,3.2-4V507.7
					z"/>
				<path class="st5" d="M394,498.3h2v2.1h-2V498.3z M394.1,502.6h1.7v10.6h-1.7V502.6z"/>
				<path class="st5" d="M401.7,504.6c0.5-1.3,1.8-2.2,3.4-2.2c2.4,0,3.8,1.5,3.8,4v6.8h-1.7v-6.4c0-2-0.9-3-2.5-3
					c-1.6,0-2.9,1-2.9,3.6v5.8H400v-10.6h1.7V504.6z"/>
				<path class="st5" d="M413.8,510.1c0.1,1.4,1.5,2.1,2.9,2.1c1.4,0,2.5-0.7,2.5-1.8c0-0.8-0.5-1.3-1.8-1.5l-1.9-0.4
					c-1.7-0.3-2.9-1-2.9-2.9c0-1.8,1.6-3.2,3.9-3.2c2.4,0,3.9,1,4.1,3h-1.6c-0.1-1.1-1.1-1.7-2.5-1.7c-1.4,0-2.3,0.7-2.3,1.7
					c0,0.9,0.6,1.3,1.8,1.5l2.1,0.4c1.7,0.3,2.7,1.2,2.7,2.9c0,1.8-1.7,3.2-4.1,3.2c-2.5,0-4.4-1.1-4.6-3.4H413.8z"/>
				<path class="st5" d="M429.1,513.1c-0.8,0.2-1.4,0.3-1.8,0.3c-1.9,0-2.9-0.9-2.9-2.9v-6.5h-1.6v-1.3h1.6v-2.7h1.7v2.7h2.8v1.3
					h-2.8v6.4c0,1.1,0.6,1.5,1.5,1.5c0.4,0,0.9,0,1.5-0.3V513.1z"/>
				<path class="st5" d="M432.3,498.3h2v2.1h-2V498.3z M432.4,502.6h1.7v10.6h-1.7V502.6z"/>
				<path class="st5" d="M443.2,513.1c-0.8,0.2-1.4,0.3-1.8,0.3c-1.9,0-2.9-0.9-2.9-2.9v-6.5h-1.6v-1.3h1.6v-2.7h1.7v2.7h2.8v1.3
					h-2.8v6.4c0,1.1,0.6,1.5,1.5,1.5c0.4,0,0.9,0,1.5-0.3V513.1z"/>
				<path class="st5" d="M453.5,513.2v-1.9c-0.5,1.3-1.8,2.2-3.4,2.2c-2.4,0-3.7-1.4-3.7-4v-6.8h1.8v6.5c0,2,0.8,3,2.5,3
					c1.6,0,2.8-1.1,2.8-3.6v-5.8h1.8v10.6H453.5z"/>
				<path class="st5" d="M464.2,513.1c-0.8,0.2-1.4,0.3-1.8,0.3c-1.9,0-2.9-0.9-2.9-2.9v-6.5h-1.6v-1.3h1.6v-2.7h1.7v2.7h2.8v1.3
					h-2.8v6.4c0,1.1,0.6,1.5,1.5,1.5c0.4,0,0.9,0,1.5-0.3V513.1z"/>
				<path class="st5" d="M467.4,498.3h2v2.1h-2V498.3z M467.5,502.6h1.7v10.6h-1.7V502.6z"/>
				<path class="st5" d="M477.6,513.4c-2.9,0-5-2.1-5-5.5s2.1-5.5,5-5.5s5,2.1,5,5.5S480.5,513.4,477.6,513.4z M477.6,512
					c2.1,0,3.3-1.6,3.3-4.1c0-2.5-1.2-4.1-3.3-4.1s-3.3,1.6-3.3,4.1C474.3,510.5,475.6,512,477.6,512z"/>
				<path class="st5" d="M487.7,504.6c0.5-1.3,1.8-2.2,3.4-2.2c2.4,0,3.8,1.5,3.8,4v6.8h-1.7v-6.4c0-2-0.9-3-2.5-3
					c-1.6,0-2.9,1-2.9,3.6v5.8H486v-10.6h1.7V504.6z"/>
				<path class="st5" d="M499.8,510.1c0.1,1.4,1.5,2.1,2.9,2.1c1.4,0,2.5-0.7,2.5-1.8c0-0.8-0.5-1.3-1.8-1.5l-1.9-0.4
					c-1.7-0.3-2.9-1-2.9-2.9c0-1.8,1.6-3.2,3.9-3.2c2.4,0,3.9,1,4.1,3H505c-0.1-1.1-1.1-1.7-2.5-1.7c-1.4,0-2.3,0.7-2.3,1.7
					c0,0.9,0.6,1.3,1.8,1.5l2.1,0.4c1.7,0.3,2.7,1.2,2.7,2.9c0,1.8-1.7,3.2-4.1,3.2c-2.5,0-4.4-1.1-4.6-3.4H499.8z"/>
				<path class="st5" d="M100.4,539.1c-0.8,0.2-1.4,0.3-1.8,0.3c-1.9,0-2.9-0.9-2.9-2.9v-6.5h-1.6v-1.3h1.6v-2.7h1.7v2.7h2.8v1.3
					h-2.8v6.4c0,1.1,0.6,1.5,1.5,1.5c0.4,0,0.9,0,1.5-0.3V539.1z"/>
				<path class="st5" d="M108.8,528.4c2.4,0,3.8,1.5,3.8,4v6.8h-1.7v-6.4c0-2-0.9-3-2.5-3c-1.6,0-2.9,1-2.9,3.6v5.8h-1.7v-15.5h1.7
					v6.8C105.9,529.2,107.2,528.4,108.8,528.4z"/>
				<path class="st5" d="M122.9,537.4c-0.5,1.2-1.9,2-3.7,2c-1.8,0-3.4-1.1-3.4-3c0-2,1.5-2.9,3.7-3.2l3.4-0.4v-0.6
					c0-1.7-1-2.4-2.5-2.4c-1.4,0-2.3,0.7-2.4,2h-1.7c0.2-2.1,1.9-3.4,4.1-3.4c2.6,0,4.2,1.2,4.2,3.8v4.9c0,0.8,0,1.5,0.3,2.2h-1.7
					C123,538.6,122.9,537.9,122.9,537.4z M122.9,535v-0.9l-2.9,0.3c-1.3,0.2-2.4,0.5-2.4,2c0,1,0.7,1.7,2,1.7
					C121.2,538.1,122.9,537.1,122.9,535z"/>
				<path class="st5" d="M133.6,539.1c-0.8,0.2-1.4,0.3-1.8,0.3c-1.9,0-2.9-0.9-2.9-2.9v-6.5h-1.6v-1.3h1.6v-2.7h1.7v2.7h2.8v1.3
					h-2.8v6.4c0,1.1,0.6,1.5,1.5,1.5c0.4,0,0.9,0,1.5-0.3V539.1z"/>
				<path class="st5" d="M148.1,537.4c-0.5,1.2-1.9,2-3.7,2c-1.8,0-3.4-1.1-3.4-3c0-2,1.5-2.9,3.7-3.2l3.4-0.4v-0.6
					c0-1.7-1-2.4-2.5-2.4c-1.4,0-2.3,0.7-2.4,2h-1.7c0.2-2.1,1.9-3.4,4.1-3.4c2.6,0,4.2,1.2,4.2,3.8v4.9c0,0.8,0,1.5,0.3,2.2h-1.7
					C148.1,538.6,148.1,537.9,148.1,537.4z M148,535v-0.9l-2.9,0.3c-1.3,0.2-2.4,0.5-2.4,2c0,1,0.7,1.7,2,1.7
					C146.4,538.1,148,537.1,148,535z"/>
				<path class="st5" d="M159.7,530.1c-0.3-0.1-0.6-0.1-0.9-0.1c-1.7,0-3.2,1.3-3.2,4v5.2h-1.7v-10.6h1.7v2.5
					c0.5-1.7,1.8-2.7,3.4-2.7c0.3,0,0.6,0,0.8,0.1V530.1z"/>
				<path class="st5" d="M166.4,539.4c-3,0-5.1-2.1-5.1-5.5c0-3.4,2.2-5.6,5-5.6c3.1,0,4.5,2.5,4.5,5.2v0.7H163
					c0.1,2.4,1.4,3.8,3.4,3.8c1.4,0,2.3-0.7,2.7-2h1.6C170.3,538.3,168.5,539.4,166.4,539.4z M163.1,533h6c0-1.8-0.9-3.2-2.8-3.2
					C164.6,529.8,163.4,530.9,163.1,533z"/>
				<path class="st5" d="M191,528.4c2.4,0,3.6,1.5,3.6,4v6.8h-1.8v-6.4c0-2-0.7-3-2.3-3s-2.8,1.1-2.8,3.6v5.8H186v-6.4
					c0-2-0.7-3-2.3-3s-2.8,1.1-2.8,3.6v5.8h-1.7v-10.6h1.7v1.9c0.5-1.3,1.8-2.2,3.3-2.2c1.8,0,2.8,0.9,3.2,2.3
					C188.1,529.2,189.4,528.4,191,528.4z"/>
				<path class="st5" d="M202.9,539.4c-2.9,0-5-2.1-5-5.5s2.1-5.5,5-5.5s5,2.1,5,5.5S205.8,539.4,202.9,539.4z M202.9,538
					c2.1,0,3.3-1.6,3.3-4.1c0-2.5-1.2-4.1-3.3-4.1s-3.3,1.6-3.3,4.1C199.6,536.5,200.8,538,202.9,538z"/>
				<path class="st5" d="M217.1,530.1c-0.3-0.1-0.6-0.1-0.9-0.1c-1.7,0-3.2,1.3-3.2,4v5.2h-1.7v-10.6h1.7v2.5
					c0.5-1.7,1.8-2.7,3.4-2.7c0.3,0,0.6,0,0.8,0.1V530.1z"/>
				<path class="st5" d="M223.9,539.4c-3,0-5.1-2.1-5.1-5.5c0-3.4,2.2-5.6,5-5.6c3.1,0,4.5,2.5,4.5,5.2v0.7h-7.8
					c0.1,2.4,1.4,3.8,3.4,3.8c1.4,0,2.3-0.7,2.7-2h1.6C227.8,538.3,225.9,539.4,223.9,539.4z M220.6,533h6c0-1.8-0.9-3.2-2.8-3.2
					C222.1,529.8,220.8,530.9,220.6,533z"/>
				<path class="st5" d="M241,539.4c-3,0-5.1-2.1-5.1-5.5c0-3.4,2.2-5.6,5-5.6c3.1,0,4.5,2.5,4.5,5.2v0.7h-7.8
					c0.1,2.4,1.4,3.8,3.4,3.8c1.4,0,2.3-0.7,2.7-2h1.6C244.9,538.3,243,539.4,241,539.4z M237.6,533h6c0-1.8-0.9-3.2-2.8-3.2
					C239.2,529.8,237.9,530.9,237.6,533z"/>
				<path class="st5" d="M247.5,529.9v-1.3h1.5v-2c0-2,1.3-3,3.1-3c0.4,0,0.9,0,1.2,0.1v1.4c-0.3,0-0.7-0.1-1.1-0.1
					c-0.8,0-1.4,0.4-1.4,1.6v2h2.3v1.3h-2.3v9.2h-1.7v-9.2H247.5z"/>
				<path class="st5" d="M254.5,529.9v-1.3h1.5v-2c0-2,1.3-3,3.1-3c0.4,0,0.9,0,1.2,0.1v1.4c-0.3,0-0.7-0.1-1.1-0.1
					c-0.8,0-1.4,0.4-1.4,1.6v2h2.3v1.3h-2.3v9.2H256v-9.2H254.5z"/>
				<path class="st5" d="M267,539.4c-3,0-5.1-2.1-5.1-5.5c0-3.4,2.2-5.6,5-5.6c3.1,0,4.5,2.5,4.5,5.2v0.7h-7.8
					c0.1,2.4,1.4,3.8,3.4,3.8c1.4,0,2.3-0.7,2.7-2h1.6C270.9,538.3,269,539.4,267,539.4z M263.7,533h6c0-1.8-0.9-3.2-2.8-3.2
					C265.2,529.8,264,530.9,263.7,533z"/>
				<path class="st5" d="M279,528.4c2.4,0,3.9,1.3,4.2,3.6h-1.7c-0.3-1.4-1.2-2.2-2.6-2.2c-2.1,0-3.3,1.7-3.3,4.1s1.2,4.1,3.3,4.1
					c1.4,0,2.3-0.8,2.6-2.2h1.7c-0.3,2.3-1.9,3.6-4.2,3.6c-2.9,0-5-2.1-5-5.5C274,530.5,276.1,528.4,279,528.4z"/>
				<path class="st5" d="M291.5,539.1c-0.8,0.2-1.4,0.3-1.8,0.3c-1.9,0-2.9-0.9-2.9-2.9v-6.5h-1.6v-1.3h1.6v-2.7h1.7v2.7h2.8v1.3
					h-2.8v6.4c0,1.1,0.6,1.5,1.5,1.5c0.4,0,0.9,0,1.5-0.3V539.1z"/>
				<path class="st5" d="M294.6,524.3h2v2.1h-2V524.3z M294.7,528.6h1.7v10.6h-1.7V528.6z"/>
				<path class="st5" d="M299.3,528.6h1.8l3.4,8.8h0l3.3-8.8h1.7l-4.1,10.6h-2L299.3,528.6z"/>
				<path class="st5" d="M316.4,539.4c-3,0-5.1-2.1-5.1-5.5c0-3.4,2.2-5.6,5-5.6c3.1,0,4.5,2.5,4.5,5.2v0.7H313
					c0.1,2.4,1.4,3.8,3.4,3.8c1.4,0,2.3-0.7,2.7-2h1.6C320.3,538.3,318.5,539.4,316.4,539.4z M313.1,533h6c0-1.8-0.9-3.2-2.8-3.2
					C314.7,529.8,313.4,530.9,313.1,533z"/>
				<path class="st5" d="M335.5,537.4c-0.5,1.2-1.9,2-3.7,2c-1.8,0-3.4-1.1-3.4-3c0-2,1.5-2.9,3.7-3.2l3.4-0.4v-0.6
					c0-1.7-1-2.4-2.5-2.4c-1.4,0-2.3,0.7-2.4,2h-1.7c0.2-2.1,1.9-3.4,4.1-3.4c2.6,0,4.2,1.2,4.2,3.8v4.9c0,0.8,0,1.5,0.3,2.2h-1.7
					C335.5,538.6,335.5,537.9,335.5,537.4z M335.4,535v-0.9l-2.9,0.3c-1.3,0.2-2.4,0.5-2.4,2c0,1,0.7,1.7,2,1.7
					C333.8,538.1,335.4,537.1,335.4,535z"/>
				<path class="st5" d="M346.1,539.1c-0.8,0.2-1.4,0.3-1.8,0.3c-1.9,0-2.9-0.9-2.9-2.9v-6.5h-1.6v-1.3h1.6v-2.7h1.7v2.7h2.8v1.3
					h-2.8v6.4c0,1.1,0.6,1.5,1.5,1.5c0.4,0,0.9,0,1.5-0.3V539.1z"/>
				<path class="st5" d="M360.6,537.4c-0.5,1.2-1.9,2-3.7,2c-1.8,0-3.4-1.1-3.4-3c0-2,1.5-2.9,3.7-3.2l3.4-0.4v-0.6
					c0-1.7-1-2.4-2.5-2.4c-1.4,0-2.3,0.7-2.4,2H354c0.2-2.1,1.9-3.4,4.1-3.4c2.6,0,4.2,1.2,4.2,3.8v4.9c0,0.8,0,1.5,0.3,2.2h-1.7
					C360.7,538.6,360.6,537.9,360.6,537.4z M360.6,535v-0.9l-2.9,0.3c-1.3,0.2-2.4,0.5-2.4,2c0,1,0.7,1.7,2,1.7
					C359,538.1,360.6,537.1,360.6,535z"/>
				<path class="st5" d="M370.6,528.4c2.4,0,3.9,1.3,4.2,3.6h-1.7c-0.3-1.4-1.2-2.2-2.6-2.2c-2.1,0-3.3,1.7-3.3,4.1s1.2,4.1,3.3,4.1
					c1.4,0,2.3-0.8,2.6-2.2h1.7c-0.3,2.3-1.9,3.6-4.2,3.6c-2.9,0-5-2.1-5-5.5C365.6,530.5,367.6,528.4,370.6,528.4z"/>
				<path class="st5" d="M383.2,528.4c2.4,0,3.8,1.5,3.8,4v6.8h-1.7v-6.4c0-2-0.9-3-2.5-3c-1.6,0-2.9,1-2.9,3.6v5.8h-1.7v-15.5h1.7
					v6.8C380.4,529.2,381.6,528.4,383.2,528.4z"/>
				<path class="st5" d="M390.9,524.3h2v2.1h-2V524.3z M391.1,528.6h1.7v10.6h-1.7V528.6z"/>
				<path class="st5" d="M401.3,539.4c-3,0-5.1-2.1-5.1-5.5c0-3.4,2.2-5.6,5-5.6c3.1,0,4.5,2.5,4.5,5.2v0.7h-7.8
					c0.1,2.4,1.4,3.8,3.4,3.8c1.4,0,2.3-0.7,2.7-2h1.6C405.2,538.3,403.3,539.4,401.3,539.4z M398,533h6c0-1.8-0.9-3.2-2.8-3.2
					C399.5,529.8,398.3,530.9,398,533z"/>
				<path class="st5" d="M407.6,528.6h1.8l3.4,8.8h0l3.3-8.8h1.7l-4.1,10.6h-2L407.6,528.6z"/>
				<path class="st5" d="M420.6,524.3h2v2.1h-2V524.3z M420.7,528.6h1.7v10.6h-1.7V528.6z"/>
				<path class="st5" d="M428.3,530.6c0.5-1.3,1.8-2.2,3.4-2.2c2.4,0,3.8,1.5,3.8,4v6.8h-1.7v-6.4c0-2-0.9-3-2.5-3
					c-1.6,0-2.9,1-2.9,3.6v5.8h-1.7v-10.6h1.7V530.6z"/>
				<path class="st5" d="M446.9,537c-0.5,1-1.7,2-3.5,2c-2.7,0-4.7-2-4.7-5.3c0-3.2,2-5.3,4.7-5.3c1.8,0,3.1,1.1,3.6,2.1v-1.8h1.7
					v9.8c0,3.4-2.2,4.8-5,4.8c-2.5,0-4.3-1-4.7-3.1h1.8c0.4,1.3,1.5,1.7,2.9,1.7c2.1,0,3.3-1.1,3.3-3.3V537z M447.1,533.4
					c0-2.2-1.4-3.7-3.3-3.7c-2.1,0-3.3,1.6-3.3,3.9c0,2.3,1.2,3.9,3.3,3.9c2,0,3.3-1.5,3.3-3.7V533.4z"/>
				<path class="st5" d="M462.7,539.1c-0.8,0.2-1.4,0.3-1.8,0.3c-1.9,0-2.9-0.9-2.9-2.9v-6.5h-1.6v-1.3h1.6v-2.7h1.7v2.7h2.8v1.3
					h-2.8v6.4c0,1.1,0.6,1.5,1.5,1.5c0.4,0,0.9,0,1.5-0.3V539.1z"/>
				<path class="st5" d="M471.1,528.4c2.4,0,3.8,1.5,3.8,4v6.8h-1.7v-6.4c0-2-0.9-3-2.5-3c-1.6,0-2.9,1-2.9,3.6v5.8H466v-15.5h1.7
					v6.8C468.2,529.2,469.5,528.4,471.1,528.4z"/>
				<path class="st5" d="M483.3,539.4c-3,0-5.1-2.1-5.1-5.5c0-3.4,2.2-5.6,5-5.6c3.1,0,4.5,2.5,4.5,5.2v0.7h-7.8
					c0.1,2.4,1.4,3.8,3.4,3.8c1.4,0,2.3-0.7,2.7-2h1.6C487.1,538.3,485.3,539.4,483.3,539.4z M479.9,533h6c0-1.8-0.9-3.2-2.8-3.2
					C481.5,529.8,480.2,530.9,479.9,533z"/>
				<path class="st5" d="M490.9,524.3h2v2.1h-2V524.3z M491.1,528.6h1.7v10.6h-1.7V528.6z"/>
				<path class="st5" d="M502.8,530.1c-0.3-0.1-0.6-0.1-0.9-0.1c-1.7,0-3.2,1.3-3.2,4v5.2H497v-10.6h1.7v2.5
					c0.5-1.7,1.8-2.7,3.4-2.7c0.3,0,0.6,0,0.8,0.1V530.1z"/>
				<path class="st5" d="M175.8,554.4c2.4,0,3.9,1.3,4.2,3.6h-1.7c-0.3-1.4-1.2-2.2-2.6-2.2c-2.1,0-3.3,1.7-3.3,4.1s1.2,4.1,3.3,4.1
					c1.4,0,2.3-0.8,2.6-2.2h1.7c-0.3,2.3-1.9,3.6-4.2,3.6c-2.9,0-5-2.1-5-5.5C170.8,556.5,172.8,554.4,175.8,554.4z"/>
				<path class="st5" d="M187.6,565.4c-2.9,0-5-2.1-5-5.5s2.1-5.5,5-5.5s5,2.1,5,5.5S190.5,565.4,187.6,565.4z M187.6,564
					c2.1,0,3.3-1.6,3.3-4.1c0-2.5-1.2-4.1-3.3-4.1s-3.3,1.6-3.3,4.1C184.3,562.5,185.5,564,187.6,564z"/>
				<path class="st5" d="M201.8,556.1c-0.3-0.1-0.6-0.1-0.9-0.1c-1.7,0-3.2,1.3-3.2,4v5.2H196v-10.6h1.7v2.5
					c0.5-1.7,1.8-2.7,3.4-2.7c0.3,0,0.6,0,0.8,0.1V556.1z"/>
				<path class="st5" d="M208.6,565.4c-3,0-5.1-2.1-5.1-5.5c0-3.4,2.2-5.6,5-5.6c3.1,0,4.5,2.5,4.5,5.2v0.7h-7.8
					c0.1,2.4,1.4,3.8,3.4,3.8c1.4,0,2.3-0.7,2.7-2h1.6C212.4,564.3,210.6,565.4,208.6,565.4z M205.2,559h6c0-1.8-0.9-3.2-2.8-3.2
					C206.8,555.8,205.5,556.9,205.2,559z"/>
				<path class="st5" d="M233.1,554.4c2.4,0,3.6,1.5,3.6,4v6.8H235v-6.4c0-2-0.7-3-2.3-3s-2.8,1.1-2.8,3.6v5.8h-1.8v-6.4
					c0-2-0.7-3-2.3-3s-2.8,1.1-2.8,3.6v5.8h-1.7v-10.6h1.7v1.9c0.5-1.3,1.8-2.2,3.3-2.2c1.8,0,2.8,0.9,3.2,2.3
					C230.2,555.2,231.6,554.4,233.1,554.4z"/>
				<path class="st5" d="M240.7,550.3h2v2.1h-2V550.3z M240.8,554.6h1.7v10.6h-1.7V554.6z"/>
				<path class="st5" d="M247.5,562.1c0.1,1.4,1.5,2.1,2.9,2.1c1.4,0,2.5-0.7,2.5-1.8c0-0.8-0.5-1.3-1.8-1.5l-1.9-0.4
					c-1.7-0.3-2.9-1-2.9-2.9c0-1.8,1.6-3.2,3.9-3.2c2.4,0,3.9,1,4.1,3h-1.6c-0.1-1.1-1.1-1.7-2.5-1.7c-1.4,0-2.3,0.7-2.3,1.7
					c0,0.9,0.6,1.3,1.8,1.5l2.1,0.4c1.7,0.3,2.7,1.2,2.7,2.9c0,1.8-1.7,3.2-4.1,3.2c-2.5,0-4.4-1.1-4.6-3.4H247.5z"/>
				<path class="st5" d="M258.7,562.1c0.1,1.4,1.5,2.1,2.9,2.1c1.4,0,2.5-0.7,2.5-1.8c0-0.8-0.5-1.3-1.8-1.5l-1.9-0.4
					c-1.7-0.3-2.9-1-2.9-2.9c0-1.8,1.6-3.2,3.9-3.2c2.4,0,3.9,1,4.1,3h-1.6c-0.1-1.1-1.1-1.7-2.5-1.7c-1.4,0-2.3,0.7-2.3,1.7
					c0,0.9,0.6,1.3,1.8,1.5l2.1,0.4c1.7,0.3,2.7,1.2,2.7,2.9c0,1.8-1.7,3.2-4.1,3.2c-2.5,0-4.4-1.1-4.6-3.4H258.7z"/>
				<path class="st5" d="M269.1,550.3h2v2.1h-2V550.3z M269.2,554.6h1.7v10.6h-1.7V554.6z"/>
				<path class="st5" d="M279.3,565.4c-2.9,0-5-2.1-5-5.5s2.1-5.5,5-5.5s5,2.1,5,5.5S282.3,565.4,279.3,565.4z M279.3,564
					c2.1,0,3.3-1.6,3.3-4.1c0-2.5-1.2-4.1-3.3-4.1s-3.3,1.6-3.3,4.1C276,562.5,277.3,564,279.3,564z"/>
				<path class="st5" d="M289.4,556.6c0.5-1.3,1.8-2.2,3.4-2.2c2.4,0,3.8,1.5,3.8,4v6.8h-1.7v-6.4c0-2-0.9-3-2.5-3
					c-1.6,0-2.9,1-2.9,3.6v5.8h-1.7v-10.6h1.7V556.6z"/>
				<path class="st5" d="M301.5,562.1c0.1,1.4,1.5,2.1,2.9,2.1c1.4,0,2.5-0.7,2.5-1.8c0-0.8-0.5-1.3-1.8-1.5l-1.9-0.4
					c-1.7-0.3-2.9-1-2.9-2.9c0-1.8,1.6-3.2,3.9-3.2c2.4,0,3.9,1,4.1,3h-1.6c-0.1-1.1-1.1-1.7-2.5-1.7c-1.4,0-2.3,0.7-2.3,1.7
					c0,0.9,0.6,1.3,1.8,1.5l2.1,0.4c1.7,0.3,2.7,1.2,2.7,2.9c0,1.8-1.7,3.2-4.1,3.2c-2.5,0-4.4-1.1-4.6-3.4H301.5z"/>
				<path class="st5" d="M313.9,550.8c-0.5,1.8-1.4,4-2,5l-1.2,0.1c0.5-1.2,1-3.4,1.2-4.9L313.9,550.8z"/>
				<path class="st5" d="M325.9,565.4c-2.9,0-5-2.1-5-5.5s2.1-5.5,5-5.5c2.9,0,5,2.1,5,5.5S328.9,565.4,325.9,565.4z M325.9,564
					c2.1,0,3.3-1.6,3.3-4.1c0-2.5-1.2-4.1-3.3-4.1c-2.1,0-3.3,1.6-3.3,4.1C322.6,562.5,323.9,564,325.9,564z"/>
				<path class="st5" d="M341.3,565.2v-1.9c-0.5,1.3-1.8,2.2-3.4,2.2c-2.4,0-3.7-1.4-3.7-4v-6.8h1.8v6.5c0,2,0.8,3,2.5,3
					c1.6,0,2.8-1.1,2.8-3.6v-5.8h1.8v10.6H341.3z"/>
				<path class="st5" d="M352.1,565.1c-0.8,0.2-1.4,0.3-1.8,0.3c-1.9,0-2.9-0.9-2.9-2.9v-6.5h-1.6v-1.3h1.6v-2.7h1.7v2.7h2.8v1.3
					H349v6.4c0,1.1,0.6,1.5,1.5,1.5c0.4,0,0.9,0,1.5-0.3V565.1z"/>
				<path class="st5" d="M359.4,554.4c2.4,0,3.9,1.3,4.2,3.6H362c-0.3-1.4-1.2-2.2-2.6-2.2c-2.1,0-3.3,1.7-3.3,4.1s1.2,4.1,3.3,4.1
					c1.4,0,2.3-0.8,2.6-2.2h1.7c-0.3,2.3-1.9,3.6-4.2,3.6c-2.9,0-5-2.1-5-5.5C354.5,556.5,356.5,554.4,359.4,554.4z"/>
				<path class="st5" d="M371.2,565.4c-2.9,0-5-2.1-5-5.5s2.1-5.5,5-5.5c2.9,0,5,2.1,5,5.5S374.1,565.4,371.2,565.4z M371.2,564
					c2.1,0,3.3-1.6,3.3-4.1c0-2.5-1.2-4.1-3.3-4.1c-2.1,0-3.3,1.6-3.3,4.1C367.9,562.5,369.2,564,371.2,564z"/>
				<path class="st5" d="M391.4,554.4c2.4,0,3.6,1.5,3.6,4v6.8h-1.8v-6.4c0-2-0.7-3-2.3-3s-2.8,1.1-2.8,3.6v5.8h-1.8v-6.4
					c0-2-0.7-3-2.3-3s-2.8,1.1-2.8,3.6v5.8h-1.7v-10.6h1.7v1.9c0.5-1.3,1.8-2.2,3.3-2.2c1.8,0,2.8,0.9,3.2,2.3
					C388.5,555.2,389.8,554.4,391.4,554.4z"/>
				<path class="st5" d="M403.4,565.4c-3,0-5.1-2.1-5.1-5.5c0-3.4,2.2-5.6,5-5.6c3.1,0,4.5,2.5,4.5,5.2v0.7H400
					c0.1,2.4,1.4,3.8,3.4,3.8c1.4,0,2.3-0.7,2.7-2h1.6C407.2,564.3,405.4,565.4,403.4,565.4z M400,559h6c0-1.8-0.9-3.2-2.8-3.2
					C401.6,555.8,400.3,556.9,400,559z"/>
				<path class="st5" d="M412.1,562.1c0.1,1.4,1.5,2.1,2.9,2.1c1.4,0,2.5-0.7,2.5-1.8c0-0.8-0.5-1.3-1.8-1.5l-1.9-0.4
					c-1.7-0.3-2.9-1-2.9-2.9c0-1.8,1.6-3.2,3.9-3.2c2.4,0,3.9,1,4.1,3h-1.6c-0.1-1.1-1.1-1.7-2.5-1.7c-1.4,0-2.3,0.7-2.3,1.7
					c0,0.9,0.6,1.3,1.8,1.5l2.1,0.4c1.7,0.3,2.7,1.2,2.7,2.9c0,1.8-1.7,3.2-4.1,3.2c-2.5,0-4.4-1.1-4.6-3.4H412.1z"/>
				<path class="st5" d="M422.7,562.9h2.3v2.3h-2.3V562.9z"/>
			</g>
		</g>
	</g>
</g>
</svg>
