<?xml version="1.0" encoding="utf-8"?>
<!-- Generator: Adobe Illustrator 22.1.0, SVG Export Plug-In . SVG Version: 6.00 Build 0)  -->
<svg version="1.1" id="Layer_1" xmlns="http://www.w3.org/2000/svg" xmlns:xlink="http://www.w3.org/1999/xlink" x="0px" y="0px"
	 viewBox="0 0 750 750" style="enable-background:new 0 0 750 750;" xml:space="preserve">
<style type="text/css">
	.st0{fill:#3F459C;}
	.st1{fill:#B2B5D8;}
	.st2{font-family:'Calibre-Medium';}
	.st3{font-size:18px;}
	.st4{fill:#FFFFFF;}
	.st5{font-family:'UntitledSerif-Regular';}
	.st6{font-size:44px;}
	.st7{fill:#8B8EC5;}
	.st8{fill:none;stroke:#C6C6E1;stroke-width:2;}
	.st9{fill:#C6C6E1;}
	.st10{enable-background:new    ;}
</style>
<g>
	<g>
		<path class="st0" d="M381.9,537.3c98.3,0,178-79.7,178-178s-79.7-178-178-178s-178,79.7-178,178S283.6,537.3,381.9,537.3"/>
	</g>
	<text transform="matrix(1 0 0 1 446.3771 234.9634)" class="st1 st2 st3"> </text>
	<text transform="matrix(1 0 0 1 449.1583 349.3609)" class="st4 st5 st6"> </text>
	<g>
		<path class="st0" d="M227.3,201.2v11.3c-1.5,1.8-3.1,2.6-4.9,2.6c-3.4,0-5.6-3.2-5.6-7.9c0-5,2.5-8.4,6.1-8.4
			C224.9,198.9,226.4,199.7,227.3,201.2 M232,215.1c-0.9-0.4-1-0.6-1-1.4v-28.5h-0.6l-6.1,1.8v0.9l2,0.9c0.9,0.4,1,0.6,1,1.4v8.5
			c-1.2-1.1-3.1-1.8-4.9-1.8c-5.5,0-9.4,4.6-9.4,11.3c0,5.6,3.4,9.8,8,9.8c2.4,0,4.9-1.6,6.3-3.8v3.8h0.6l6.1-0.9V216L232,215.1z
			 M205.7,204.9h-9.6c0.5-3.7,2.6-6,5.3-6C204.3,198.9,205.7,200.8,205.7,204.9 M202.5,215.3c-3.9,0-6.5-3.3-6.5-8.4v-0.1h13.3v-1.4
			c0-5.3-2.8-8.6-7.7-8.6c-2.6,0-5.1,1.2-6.8,3.4c-1.6,2-2.5,4.6-2.5,7.3c0,6.1,4,10.3,9.3,10.3c3.4,0,6.4-1.7,7.7-4.6l-1.6-1.1
			C206.2,214.4,204.7,215.3,202.5,215.3 M185.2,204.9h-9.6c0.5-3.7,2.6-6,5.3-6C183.8,198.9,185.1,200.8,185.2,204.9 M182,215.3
			c-3.9,0-6.5-3.3-6.5-8.4v-0.1h13.3v-1.4c0-5.3-2.8-8.6-7.7-8.6c-2.6,0-5.1,1.2-6.8,3.4c-1.6,2-2.5,4.6-2.5,7.3
			c0,6.1,4,10.3,9.3,10.3c3.4,0,6.4-1.7,7.7-4.6l-1.6-1.1C185.6,214.4,184.2,215.3,182,215.3 M153.5,214.8v-12.6
			c1.5-1.5,3.4-2.5,5.2-2.5c2.6,0,3.9,1.6,3.9,4.7v10.4c0,0.7-0.3,0.8-2.8,0.8v1.8h9.3v-1.8c-2.5,0-2.8-0.1-2.8-0.8V204
			c0-4.5-2.1-7.2-5.8-7.2c-2.5,0-5.3,1.6-7,3.8v-3.8h-0.6l-6.1,1.8v0.9l2,0.9c0.9,0.4,1,0.6,1,1.4v13c0,0.7-0.3,0.8-2.8,0.8v1.8h9.3
			v-1.8C153.8,215.6,153.5,215.5,153.5,214.8 M130.5,204.9h-9.6c0.5-3.7,2.6-6,5.3-6C129,198.9,130.4,200.8,130.5,204.9
			 M127.2,215.3c-3.9,0-6.5-3.3-6.5-8.4v-0.1H134v-1.4c0-5.3-2.8-8.6-7.7-8.6c-2.6,0-5.1,1.2-6.8,3.4c-1.6,2-2.5,4.6-2.5,7.3
			c0,6.1,4,10.3,9.3,10.3c3.4,0,6.4-1.7,7.7-4.6l-1.6-1.1C130.9,214.4,129.5,215.3,127.2,215.3 M112.7,199.9
			c0.2-0.7,0.6-0.8,2.6-0.8v-1.8h-7.5v1.8c2.5,0.1,2.7,0.2,2.7,0.6c0,0.1,0,0.3-0.2,0.6l-3.9,12.2h-0.2l-4.9-15.2h-2.1l-4.8,15.2
			h-0.2l-3.7-12.1c-0.1-0.3-0.2-0.5-0.2-0.6c0-0.4,0.2-0.4,2.7-0.6v-1.8h-9v1.8c2.1,0,2.5,0.1,2.7,0.8l5.9,17.8h2.1l4.8-15.1h0.2
			l4.9,15.1h2.2L112.7,199.9z"/>
		<path class="st0" d="M301.3,175.3c-2.1,0-3.2-1.1-3.2-3.3v-12.6h6.4v-2.1h-6.4V151l-3.7,1.1v5.2h-2.8v2.1h2.8V173
			c0,2.8,2.2,4.9,5.4,4.9c2.6,0,5-1.2,6.6-3.4l-1.1-1.4C303.9,174.6,302.7,175.3,301.3,175.3 M277.5,175.3c-1.7,0-2.8-1.1-2.8-2.8
			c0-2.6,2.2-4.1,8-5.5v5.7C281.1,174.5,279.4,175.3,277.5,175.3 M290.8,175.8l-0.6-1.3c-0.7,0.6-1.2,0.8-1.9,0.8
			c-1,0-1.8-0.9-1.8-2.2v-10.7c0-3.7-2-5.5-6.4-5.5s-8.3,2.4-8.3,5.2c0,1.4,1,2.4,2.2,2.4s2.1-0.9,2.1-2.1c0-0.3,0-0.6-0.2-1.1
			c-0.2-0.3-0.2-0.5-0.2-0.6c0-1,1.5-1.8,3.4-1.8c2.4,0,3.7,1.3,3.7,3.7v2.7c-7.9,1.6-11.6,4.2-11.6,8c0,2.8,2,4.7,5,4.7
			c2.4,0,5.2-1.5,6.8-3.7c0.3,2.2,1.9,3.7,4,3.7C288.3,177.9,289.8,177,290.8,175.8 M252.5,174.8v-12.6c1.5-1.5,3.4-2.5,5.2-2.5
			c2.6,0,3.9,1.6,3.9,4.7v10.4c0,0.7-0.3,0.8-2.8,0.8v1.8h9.3v-1.8c-2.5,0-2.8-0.1-2.8-0.8V164c0-4.5-2.1-7.2-5.8-7.2
			c-2.5,0-5.3,1.6-7,3.8v-15.4h-0.6l-6.1,1.8v0.9l2,0.9c0.9,0.4,1,0.6,1,1.4v24.6c0,0.7-0.3,0.8-2.8,0.8v1.8h9.3v-1.8
			C252.7,175.6,252.5,175.5,252.5,174.8 M241.9,159.9c0.2-0.7,0.6-0.8,2.6-0.8v-1.8H237v1.8c2.5,0.1,2.7,0.2,2.7,0.6
			c0,0.1,0,0.3-0.2,0.6l-3.9,12.2h-0.2l-4.9-15.2h-2.1l-4.8,15.2h-0.2l-3.7-12.1c-0.1-0.3-0.2-0.5-0.2-0.6c0-0.4,0.2-0.4,2.7-0.6
			v-1.8h-9.1v1.8c2.1,0,2.5,0.1,2.7,0.8l5.9,17.8h2.1l4.8-15.1h0.2l4.9,15.1h2.1L241.9,159.9z M198.5,175.3c-2.1,0-3.2-1.1-3.2-3.3
			v-12.6h6.4v-2.1h-6.4V151l-3.7,1.1v5.2h-2.8v2.1h2.8V173c0,2.8,2.2,4.9,5.4,4.9c2.6,0,5-1.2,6.6-3.4l-1.1-1.4
			C201.2,174.6,199.9,175.3,198.5,175.3 M182.3,164.9h-9.6c0.5-3.7,2.6-6,5.3-6C180.9,158.9,182.2,160.8,182.3,164.9 M179.1,175.3
			c-3.9,0-6.5-3.3-6.5-8.4v-0.1h13.3v-1.4c0-5.3-2.8-8.6-7.7-8.6c-2.6,0-5.1,1.2-6.8,3.4c-1.6,2-2.5,4.6-2.5,7.3
			c0,6.1,4,10.3,9.3,10.3c3.4,0,6.4-1.7,7.7-4.6l-1.6-1.1C182.7,174.4,181.3,175.3,179.1,175.3 M154.6,184.9c-4,0-6.5-1.3-6.5-3.7
			c0-1.5,0.9-2.6,2.7-3.4h7.7c2.9,0,4,0.7,4,2.6C162.4,183.1,159.1,184.9,154.6,184.9 M158.9,163.7c0,3.1-1.6,5-4.2,5
			c-2.6,0-4.2-1.9-4.2-5s1.6-5,4.2-5C157.2,158.6,158.9,160.6,158.9,163.7 M158.9,174.3h-8.1c-0.9,0-1.6-0.6-1.6-1.5
			c0-1,0.6-1.7,2.6-2.7c0.8,0.3,1.8,0.4,2.9,0.4c4.4,0,8-3.1,8-6.9c0-1.2-0.4-2.4-1.2-3.5c0.6-0.6,1.2-0.9,1.7-0.9
			c0.2,0,0.3,0,0.7,0.5c0.6,0.7,1.1,0.9,1.8,0.9c1.1,0,2.1-1,2.1-2.2c0-1.5-1-2.5-2.6-2.5c-1.3,0-2.6,0.8-4.5,3.2
			c-1.6-1.5-3.8-2.4-6-2.4c-4.4,0-8.1,3.1-8.1,6.9c0,2.5,1.4,4.6,3.8,5.9c-2.3,1-3.6,2.5-3.6,4.3c0,1.5,1.1,3,2.8,3.5
			c-2.9,0.6-4.9,2.1-4.9,4.1c0,3.4,3.6,5.5,9.5,5.5c6.6,0,11.5-3,11.5-7.5C165.7,176.2,163.2,174.3,158.9,174.3 M118.1,167.3
			c0-5.4,2-8.4,5.4-8.4s5.4,3,5.4,8.4s-2,8.4-5.4,8.4S118.1,172.7,118.1,167.3 M132.9,167.3c0-6.1-4-10.5-9.4-10.5
			s-9.4,4.4-9.4,10.5s4,10.5,9.4,10.5C128.9,177.9,132.9,173.5,132.9,167.3 M107.2,175.3c-2.1,0-3.2-1.1-3.2-3.3v-12.6h6.4v-2.1H104
			V151l-3.7,1.1v5.2h-2.8v2.1h2.8V173c0,2.8,2.2,4.9,5.4,4.9c2.6,0,5-1.2,6.6-3.4l-1.1-1.4C109.8,174.6,108.6,175.3,107.2,175.3
			 M86.9,159.1v-1.8h-7.6v1.8c2.5,0.1,2.7,0.2,2.7,0.6c0,0.1,0,0.3-0.2,0.6l-4.9,12.5h-0.1l-4.9-12.5c-0.1-0.3-0.2-0.5-0.2-0.6
			c0-0.4,0.2-0.4,2.7-0.6v-1.8h-9.3v1.8c2,0,2.4,0.1,2.7,0.8l7.3,17.5c-1.8,4.6-3.3,6.8-4.5,6.8c-0.3,0-0.5-0.1-1-0.8
			c-0.8-1-1.3-1.2-2-1.2c-1.2,0-2.1,0.9-2.1,2.1c0,1.5,1.3,2.7,3.2,2.7c3.2,0,5.5-2.5,8.1-8.7l7.5-18.4
			C84.6,159.2,84.9,159.1,86.9,159.1 M52.2,175.3c-1.7,0-2.8-1.1-2.8-2.8c0-2.6,2.2-4.1,8-5.5v5.7C55.8,174.5,54.1,175.3,52.2,175.3
			 M65.5,175.8l-0.6-1.3c-0.7,0.6-1.2,0.8-1.9,0.8c-1,0-1.8-0.9-1.8-2.2v-10.7c0-3.7-2-5.5-6.4-5.5s-8.3,2.4-8.3,5.2
			c0,1.4,1,2.4,2.2,2.4s2.1-0.9,2.1-2.1c0-0.3,0-0.6-0.2-1.1c-0.2-0.3-0.2-0.5-0.2-0.6c0-1,1.5-1.8,3.4-1.8c2.4,0,3.7,1.3,3.7,3.7
			v2.7c-7.9,1.6-11.6,4.2-11.6,8c0,2.8,2,4.7,5,4.7c2.4,0,5.2-1.5,6.8-3.7c0.3,2.2,1.9,3.7,4,3.7C63,177.9,64.5,177,65.5,175.8
			 M41.1,159.9c0.2-0.7,0.6-0.8,2.6-0.8v-1.8h-7.5v1.8c2.5,0.1,2.7,0.2,2.7,0.6c0,0.1,0,0.3-0.2,0.6l-3.9,12.2h-0.2l-4.9-15.2h-2.1
			l-4.8,15.2h-0.2L19,160.3c-0.1-0.3-0.2-0.5-0.2-0.6c0-0.4,0.2-0.4,2.7-0.6v-1.8h-9.1v1.8c2.1,0,2.4,0.1,2.7,0.8l5.9,17.8h2.1
			l4.8-15.1h0.2l4.9,15.1h2.1L41.1,159.9z"/>
		<path class="st0" d="M272.1,135.3c-1.7,0-2.8-1.1-2.8-2.8c0-2.6,2.2-4.1,8-5.5v5.7C275.7,134.5,274,135.3,272.1,135.3
			 M285.4,135.8l-0.6-1.3c-0.7,0.6-1.2,0.8-1.9,0.8c-1,0-1.8-0.9-1.8-2.2v-10.7c0-3.7-2-5.5-6.4-5.5s-8.3,2.4-8.3,5.2
			c0,1.4,1,2.4,2.2,2.4s2.2-0.9,2.2-2.1c0-0.3,0-0.6-0.2-1.1c-0.2-0.3-0.2-0.5-0.2-0.6c0-1,1.5-1.8,3.4-1.8c2.4,0,3.7,1.3,3.7,3.7
			v2.7c-7.9,1.6-11.6,4.2-11.6,8c0,2.8,2,4.7,5,4.7c2.4,0,5.2-1.5,6.8-3.7c0.3,2.2,1.9,3.7,4,3.7C282.9,137.9,284.4,137,285.4,135.8
			 M246.5,121.2v11.3c-1.5,1.8-3.1,2.6-4.9,2.6c-3.4,0-5.6-3.2-5.6-7.9c0-5,2.5-8.4,6.1-8.4C244.1,118.9,245.6,119.7,246.5,121.2
			 M251.1,135.1c-0.9-0.4-1-0.6-1-1.4v-28.5h-0.6l-6.1,1.8v0.9l2,0.9c0.9,0.4,1,0.6,1,1.4v8.5c-1.2-1.1-3.1-1.8-4.9-1.8
			c-5.5,0-9.4,4.6-9.4,11.3c0,5.6,3.4,9.8,8,9.8c2.4,0,4.9-1.6,6.3-3.8v3.8h0.6l6.1-0.9V136L251.1,135.1z M213.8,134.8v-12.6
			c1.5-1.5,3.4-2.5,5.2-2.5c2.6,0,3.9,1.6,3.9,4.7v10.4c0,0.7-0.3,0.8-2.8,0.8v1.8h9.3v-1.8c-2.5,0-2.8-0.1-2.8-0.8V124
			c0-4.5-2.1-7.2-5.8-7.2c-2.5,0-5.3,1.6-7,3.8v-3.8h-0.6l-6.1,1.8v0.9l2,0.9c0.9,0.4,1,0.6,1,1.4v13c0,0.7-0.3,0.8-2.8,0.8v1.8h9.3
			v-1.8C214,135.6,213.8,135.5,213.8,134.8 M195.3,135.6v1.8h9.3v-1.8c-2.5,0-2.8-0.1-2.8-0.8v-18h-0.6l-6.1,1.8v0.9l2,0.9
			c0.9,0.4,1,0.6,1,1.4v13C198.1,135.5,197.9,135.6,195.3,135.6 M202.6,109.6c0-1.5-1.2-2.7-2.7-2.7s-2.7,1.2-2.7,2.7
			s1.2,2.7,2.7,2.7C201.4,112.3,202.6,111.1,202.6,109.6 M187.7,134.7v-15.3h4.9v-2.1h-4.9v-4c0-3.3,1.5-5.4,3.6-5.4
			c0.6,0,1.1,0.1,2,0.9c0.9,0.7,1.3,0.9,1.9,0.9c1.2,0,2-0.7,2-1.9c0-1.5-1.5-2.5-3.9-2.5c-5.1,0-9.3,4.5-9.3,10.1v1.9h-3.2v2.1h3.2
			v15.4c0,0.7-0.3,0.8-2.8,0.8v1.8h10.6v-1.8c-1.2,0-1.8,0-2.3,0C188.1,135.5,187.7,135.4,187.7,134.7 M159.4,135.6v1.8h9.3v-1.8
			c-2.5,0-2.8-0.1-2.8-0.8v-29.6h-0.6l-6.1,1.8v0.9l2,0.9c0.9,0.4,1,0.6,1,1.4v24.6C162.2,135.5,161.9,135.6,159.4,135.6
			 M147.5,135.6v1.8h9.3v-1.8c-2.5,0-2.8-0.1-2.8-0.8v-29.6h-0.6l-6.1,1.8v0.9l2,0.9c0.9,0.4,1,0.6,1,1.4v24.6
			C150.3,135.5,150,135.6,147.5,135.6 M135.7,135.6v1.8h9.3v-1.8c-2.5,0-2.8-0.1-2.8-0.8v-18h-0.6l-6.1,1.8v0.9l2,0.9
			c0.9,0.4,1,0.6,1,1.4v13C138.5,135.5,138.3,135.6,135.7,135.6 M143,109.6c0-1.5-1.2-2.7-2.7-2.7s-2.7,1.2-2.7,2.7s1.2,2.7,2.7,2.7
			S143,111.1,143,109.6 M131.4,119.9c0.2-0.7,0.6-0.8,2.6-0.8v-1.8h-7.5v1.8c2.5,0.1,2.7,0.2,2.7,0.6c0,0.1,0,0.3-0.2,0.6l-3.9,12.2
			H125l-4.9-15.2H118l-4.8,15.2H113l-3.7-12.1c-0.1-0.3-0.2-0.5-0.2-0.6c0-0.4,0.2-0.4,2.7-0.6v-1.8h-9.1v1.8c2.1,0,2.5,0.1,2.7,0.8
			l5.9,17.8h2.1l4.8-15.1h0.2l4.9,15.1h2.1L131.4,119.9z M87.9,124.9h-9.6c0.5-3.7,2.6-6,5.3-6C86.5,118.9,87.8,120.8,87.9,124.9
			 M84.7,135.3c-3.9,0-6.5-3.3-6.5-8.4v-0.1h13.3v-1.4c0-5.3-2.8-8.6-7.7-8.6c-2.6,0-5.1,1.2-6.8,3.4c-1.6,2-2.5,4.6-2.5,7.3
			c0,6.1,4,10.3,9.3,10.3c3.4,0,6.4-1.7,7.7-4.6l-1.6-1.1C88.3,134.4,86.9,135.3,84.7,135.3 M61.3,137.6h2.6l7.7-25.4
			c0.3-1,0.9-1.3,3.7-1.3V109H65.1v1.9c3.2,0,4,0.2,4,0.8c0,0.2,0,0.4-0.2,0.9l-5.5,19.3h-0.2L56.7,109h-2.3L48,131.9h-0.2
			l-5.5-19.3c-0.2-0.6-0.2-0.6-0.2-0.8c0-0.6,0.9-0.8,4-0.8v-1.9H34.4v1.9c2.8,0,3.4,0.3,3.7,1.3l7.7,25.4h2.6l6.4-22H55L61.3,137.6
			z"/>
		<path class="st7" d="M273.7,84.4c0.4,2.1,2.1,3.2,4.4,3.2s3.9-1.3,3.9-3.3c0-1.7-1.1-2.7-2.9-3.1l-1.9-0.5c-1-0.2-1.5-0.7-1.5-1.4
			c0-0.9,0.8-1.5,2-1.5c1.3,0,2,0.6,2.3,1.5h1.9c-0.4-1.8-1.8-3.1-4.2-3.1c-2.2,0-3.8,1.4-3.8,3.3c0,1.8,1.2,2.6,2.8,3l1.9,0.5
			c1.2,0.3,1.6,0.7,1.6,1.5c0,1-0.8,1.6-2.1,1.6c-1.2,0-2.1-0.5-2.5-1.7H273.7z M264.9,76.4v11.1h7.2v-1.7h-5.4v-3.2h4.9V81h-4.9v-3
			h5.4v-1.7L264.9,76.4L264.9,76.4z M253.2,81.9c0,3.4,2.2,5.7,5,5.7c2.5,0,4.1-1.4,4.5-3.7h-1.8c-0.4,1.2-1.2,2-2.7,2
			c-2,0-3.1-1.7-3.1-4s1.2-4,3.1-4c1.5,0,2.2,0.8,2.7,2h1.8c-0.4-2.2-2-3.7-4.5-3.7C255.4,76.2,253.2,78.5,253.2,81.9 M245.3,78h2.4
			c1.2,0,1.9,0.7,1.9,1.7s-0.7,1.7-1.9,1.7h-2.4V78z M246.7,83l3.1,4.5h2.1l-3.2-4.6c1.7-0.3,2.8-1.3,2.8-3.2c0-2.2-1.5-3.3-3.8-3.3
			h-4.3v11.1h1.9V83H246.7z M236.4,87.6c2.6,0,4.4-1.5,4.4-4.6v-6.7H239v6.4c0,2.1-0.9,3.1-2.6,3.1s-2.6-1-2.6-3.1v-6.4H232v6.6
			C232,86.1,233.8,87.6,236.4,87.6 M228.1,81.9c0,2.3-1.3,4-3.2,4s-3.2-1.7-3.2-4s1.3-4,3.2-4S228.1,79.6,228.1,81.9 M230,81.9
			c0-3.3-2.1-5.7-5.1-5.7s-5.1,2.4-5.1,5.7c0,3.3,2.1,5.7,5.1,5.7C227.8,87.6,230,85.2,230,81.9 M209.8,84.4
			c0.4,2.1,2.1,3.2,4.4,3.2c2.3,0,3.9-1.3,3.9-3.3c0-1.7-1.1-2.7-2.9-3.1l-1.9-0.5c-1-0.2-1.5-0.7-1.5-1.4c0-0.9,0.8-1.5,2-1.5
			c1.3,0,2,0.6,2.3,1.5h1.9c-0.4-1.8-1.8-3.1-4.2-3.1c-2.2,0-3.8,1.4-3.8,3.3c0,1.8,1.2,2.6,2.8,3l1.9,0.5c1.2,0.3,1.6,0.7,1.6,1.5
			c0,1-0.8,1.6-2.1,1.6c-1.2,0-2.1-0.5-2.5-1.7H209.8z M201,76.4v11.1h7.2v-1.7h-5.4v-3.2h4.9V81h-4.9v-3h5.4v-1.7L201,76.4
			L201,76.4z M192.6,78h2.4c1.2,0,1.9,0.7,1.9,1.7s-0.7,1.7-1.9,1.7h-2.4V78z M193.9,83l3.1,4.5h2.1l-3.2-4.6
			c1.7-0.3,2.8-1.3,2.8-3.2c0-2.2-1.5-3.3-3.8-3.3h-4.3v11.1h1.9V83H193.9z M178.9,87.4V83h4.8v-1.6h-4.8V78h5.2v-1.7H177v11.1
			H178.9z M173,81.9c0,2.3-1.3,4-3.2,4s-3.2-1.7-3.2-4s1.3-4,3.2-4S173,79.6,173,81.9 M174.9,81.9c0-3.3-2.1-5.7-5.1-5.7
			s-5.1,2.4-5.1,5.7c0,3.3,2.1,5.7,5.1,5.7S174.9,85.2,174.9,81.9 M151.3,76.4v11.1h7.2v-1.7h-5.4v-3.2h4.9V81h-4.9v-3h5.4v-1.7
			L151.3,76.4L151.3,76.4z M140.7,84.4c0.4,2.1,2.1,3.2,4.4,3.2c2.3,0,3.9-1.3,3.9-3.3c0-1.7-1.1-2.7-2.9-3.1l-1.9-0.5
			c-1-0.2-1.5-0.7-1.5-1.4c0-0.9,0.8-1.5,2-1.5c1.3,0,2,0.6,2.3,1.5h1.9c-0.4-1.8-1.8-3.1-4.2-3.1c-2.2,0-3.8,1.4-3.8,3.3
			c0,1.8,1.2,2.6,2.8,3l1.9,0.5c1.2,0.3,1.6,0.7,1.6,1.5c0,1-0.8,1.6-2.1,1.6c-1.2,0-2.1-0.5-2.5-1.7H140.7z M134.5,87.6
			c2.6,0,4.4-1.5,4.4-4.6v-6.7H137v6.4c0,2.1-0.9,3.1-2.6,3.1s-2.6-1-2.6-3.1v-6.4h-1.9v6.6C130.1,86.1,131.9,87.6,134.5,87.6
			 M114.3,81.9c0,3.4,2.2,5.7,5,5.7c2.5,0,4.1-1.4,4.5-3.7H122c-0.4,1.2-1.2,2-2.7,2c-2,0-3.1-1.7-3.1-4s1.2-4,3.1-4
			c1.5,0,2.2,0.8,2.7,2h1.8c-0.4-2.2-2-3.7-4.5-3.7C116.4,76.2,114.3,78.5,114.3,81.9 M112,76.4h-1.9v11.1h1.9V76.4z M106.2,83.3
			c-0.2,1.5-1.2,2.6-2.9,2.6c-2.1,0-3.3-1.7-3.3-4s1.3-4,3.2-4c1.5,0,2.2,0.8,2.7,1.9h1.9c-0.4-2.2-2-3.6-4.5-3.6
			c-2.9,0-5.1,2.3-5.1,5.7c0,3.4,2.2,5.7,5.2,5.7c2.7,0,4.7-2,4.7-5v-0.9h-4.2v1.6C103.9,83.3,106.2,83.3,106.2,83.3z M89,76.4v11.1
			h7.2v-1.7h-5.4v-3.2h4.9V81h-4.9v-3h5.4v-1.7L89,76.4L89,76.4z M77.7,78h3.7v9.4h1.9V78H87v-1.7h-9.2L77.7,78L77.7,78z M72.4,78.7
			l1.5,4.1h-3L72.4,78.7z M71.5,76.4l-4.2,11.1h1.9l1.1-3.1h4.2l1.1,3.1h1.9l-4.2-11.1H71.5z M59.6,78H62c1.2,0,1.9,0.7,1.9,1.7
			s-0.7,1.7-1.9,1.7h-2.4V78z M60.9,83l3.1,4.5h2.1l-3.2-4.6c1.7-0.3,2.8-1.3,2.8-3.2c0-2.2-1.5-3.3-3.8-3.3h-4.3v11.1h1.9V83H60.9z
			 M46.4,78h3.7v9.4H52V78h3.7v-1.7h-9.2L46.4,78L46.4,78z M36.7,84.4c0.4,2.1,2.1,3.2,4.4,3.2c2.3,0,3.9-1.3,3.9-3.3
			c0-1.7-1.1-2.7-2.9-3.1l-1.9-0.5c-1-0.2-1.5-0.7-1.5-1.4c0-0.9,0.8-1.5,2-1.5c1.3,0,2,0.6,2.3,1.5h2c-0.4-1.8-1.8-3.1-4.2-3.1
			c-2.2,0-3.8,1.4-3.8,3.3c0,1.8,1.2,2.6,2.8,3l1.9,0.5c1.2,0.3,1.6,0.7,1.6,1.5c0,1-0.8,1.6-2.1,1.6c-1.2,0-2.1-0.5-2.5-1.7H36.7z"
			/>
		<path class="st0" d="M273.1,704.1v-10.3c1.5-2.2,3.2-3.9,4.2-4c0.3,0,0.6,0.1,1.2,0.6c0.7,0.6,1,0.7,1.5,0.7
			c1.4,0,2.3-0.9,2.3-2.3c0-1.5-1.1-2.6-2.8-2.6c-2,0-4.4,2.3-6.4,5.7v-5.7h-0.6l-6.1,1.8v0.9l2,0.9c0.9,0.4,1,0.6,1,1.4v13
			c0,0.7-0.3,0.8-2.8,0.8v1.8h10.6V705c-1.2,0-1.8,0-2.3,0C273.4,704.9,273.1,704.7,273.1,704.1 M248.4,696.7c0-5.4,2-8.4,5.4-8.4
			s5.4,3,5.4,8.4s-2,8.4-5.4,8.4C250.4,705.1,248.4,702.1,248.4,696.7 M263.2,696.7c0-6.1-4-10.5-9.4-10.5s-9.4,4.4-9.4,10.5
			s4,10.5,9.4,10.5S263.2,702.8,263.2,696.7 M236.7,704.1v-15.3h4.9v-2.1h-4.9v-4c0-3.3,1.5-5.4,3.6-5.4c0.6,0,1.1,0.1,2,0.9
			c0.9,0.7,1.3,0.9,1.9,0.9c1.2,0,2-0.7,2-1.9c0-1.5-1.5-2.5-3.9-2.5c-5.1,0-9.3,4.5-9.3,10.1v1.9h-3.2v2.1h3.2v15.4
			c0,0.7-0.3,0.8-2.8,0.8v1.8h10.6V705c-1.2,0-1.8,0-2.3,0C237.1,704.9,236.7,704.7,236.7,704.1 M211.2,690.6v11.3
			c-1.5,1.8-3.1,2.6-4.9,2.6c-3.4,0-5.6-3.2-5.6-7.9c0-5,2.4-8.4,6.1-8.4C208.8,688.2,210.3,689,211.2,690.6 M215.9,704.5
			c-0.9-0.4-1-0.6-1-1.4v-28.5h-0.6l-6.1,1.8v0.9l2,0.9c0.9,0.4,1,0.6,1,1.4v8.5c-1.2-1.1-3.1-1.8-4.9-1.8c-5.5,0-9.4,4.6-9.4,11.3
			c0,5.6,3.4,9.8,8,9.8c2.4,0,4.9-1.6,6.3-3.8v3.8h0.6l6.1-0.9v-0.9L215.9,704.5z M189.7,694.2h-9.6c0.5-3.7,2.6-6,5.3-6
			C188.2,688.3,189.6,690.2,189.7,694.2 M186.4,704.7c-3.9,0-6.5-3.3-6.5-8.4v-0.1h13.3v-1.4c0-5.3-2.8-8.6-7.7-8.6
			c-2.6,0-5.1,1.2-6.8,3.4c-1.6,2-2.5,4.6-2.5,7.3c0,6.1,4,10.3,9.3,10.3c3.4,0,6.4-1.7,7.7-4.6l-1.6-1.1
			C190.1,703.8,188.7,704.7,186.4,704.7 M164.8,704.1v-10.3c1.5-2.2,3.2-3.9,4.2-4c0.3,0,0.6,0.1,1.2,0.6c0.7,0.6,1,0.7,1.5,0.7
			c1.4,0,2.3-0.9,2.3-2.3c0-1.5-1.1-2.6-2.8-2.6c-2,0-4.4,2.3-6.4,5.7v-5.7h-0.6l-6.1,1.8v0.9l2,0.9c0.9,0.4,1,0.6,1,1.4v13
			c0,0.7-0.3,0.8-2.8,0.8v1.8h10.6V705c-1.2,0-1.8,0-2.3,0C165.2,704.9,164.8,704.7,164.8,704.1 M143.7,704.7
			c-1.7,0-2.8-1.1-2.8-2.8c0-2.6,2.2-4.1,8-5.5v5.7C147.3,703.9,145.6,704.7,143.7,704.7 M157,705.2l-0.6-1.3
			c-0.7,0.6-1.2,0.8-1.9,0.8c-1,0-1.8-0.9-1.8-2.2v-10.7c0-3.7-2-5.5-6.4-5.5s-8.3,2.4-8.3,5.2c0,1.4,1,2.4,2.2,2.4s2.1-0.9,2.1-2.1
			c0-0.3,0-0.6-0.2-1.1c-0.2-0.3-0.2-0.5-0.2-0.6c0-1,1.5-1.8,3.4-1.8c2.4,0,3.7,1.3,3.7,3.7v2.7c-7.9,1.6-11.6,4.2-11.6,8
			c0,2.8,2,4.7,5,4.7c2.4,0,5.2-1.5,6.8-3.7c0.3,2.2,1.9,3.7,4,3.7C154.5,707.2,156,706.4,157,705.2 M131.7,692.3
			c1.1,0,1.9-0.8,1.9-2c0-2.1-2.9-4.1-6.3-4.1c-2.7,0-5.2,1.2-7.1,3.5c-1.8,2.1-2.8,4.7-2.8,7.6c0,6,3.8,10,9,10
			c3.4,0,6.1-1.8,7.8-5.1l-1.7-1c-1.5,2.5-3.1,3.6-5.4,3.6c-3.4,0-5.9-3.2-5.9-8.2c0-4.7,2.5-8.1,5.6-8.1c1.2,0,2,0.3,2.9,2.1
			C130.4,692,130.9,692.3,131.7,692.3 M98.5,690.6v11.3c-1.5,1.8-3.1,2.6-4.9,2.6c-3.4,0-5.6-3.2-5.6-7.9c0-5,2.4-8.4,6.1-8.4
			C96.1,688.2,97.7,689,98.5,690.6 M103.2,704.5c-0.9-0.4-1-0.6-1-1.4v-28.5h-0.6l-6.1,1.8v0.9l2,0.9c0.9,0.4,1,0.6,1,1.4v8.5
			c-1.2-1.1-3.1-1.8-4.9-1.8c-5.5,0-9.4,4.6-9.4,11.3c0,5.6,3.4,9.8,8,9.8c2.4,0,4.9-1.6,6.3-3.8v3.8h0.6l6.1-0.9v-0.9L103.2,704.5z
			 M65.8,704.1v-12.6c1.5-1.5,3.4-2.5,5.2-2.5c2.6,0,3.9,1.6,3.9,4.7v10.4c0,0.7-0.3,0.8-2.8,0.8v1.8h9.3V705
			c-2.5,0-2.8-0.1-2.8-0.8v-10.8c0-4.5-2.1-7.2-5.8-7.2c-2.5,0-5.3,1.6-7,3.8v-3.8h-0.6l-6.1,1.8v0.9l2,0.9c0.9,0.4,1,0.6,1,1.4v13
			c0,0.7-0.3,0.8-2.8,0.8v1.8h9.3V705C66.1,705,65.8,704.9,65.8,704.1 M44.7,704.7c-1.7,0-2.8-1.1-2.8-2.8c0-2.6,2.2-4.1,8-5.5v5.7
			C48.3,703.9,46.6,704.7,44.7,704.7 M58,705.2l-0.6-1.3c-0.7,0.6-1.2,0.8-1.9,0.8c-1,0-1.8-0.9-1.8-2.2v-10.7c0-3.7-2-5.5-6.4-5.5
			s-8.3,2.4-8.3,5.2c0,1.4,1,2.4,2.2,2.4s2.1-0.9,2.1-2.1c0-0.3,0-0.6-0.2-1.1c-0.2-0.3-0.2-0.5-0.2-0.6c0-1,1.5-1.8,3.4-1.8
			c2.4,0,3.7,1.3,3.7,3.7v2.7c-7.9,1.6-11.6,4.2-11.6,8c0,2.8,2,4.7,5,4.7c2.4,0,5.2-1.5,6.8-3.7c0.3,2.2,1.9,3.7,4,3.7
			C55.5,707.2,57,706.4,58,705.2"/>
		<path class="st0" d="M301.9,650.6v11.3c-1.5,1.8-3.1,2.6-4.9,2.6c-3.4,0-5.6-3.2-5.6-7.9c0-5,2.5-8.4,6.1-8.4
			C299.5,648.2,301,649,301.9,650.6 M306.6,664.5c-0.9-0.4-1-0.6-1-1.4v-28.5H305l-6.1,1.8v0.9l2,0.9c0.9,0.4,1,0.6,1,1.4v8.5
			c-1.2-1.1-3.1-1.8-4.9-1.8c-5.5,0-9.4,4.6-9.4,11.3c0,5.6,3.4,9.8,8,9.8c2.4,0,4.9-1.6,6.3-3.8v3.8h0.6l6.1-0.9v-0.9L306.6,664.5z
			 M280.4,654.2h-9.6c0.5-3.7,2.6-6,5.3-6C278.9,648.3,280.3,650.2,280.4,654.2 M277.1,664.7c-3.9,0-6.5-3.3-6.5-8.4v-0.1H284v-1.4
			c0-5.3-2.8-8.6-7.7-8.6c-2.6,0-5.1,1.2-6.8,3.4c-1.6,2-2.5,4.6-2.5,7.3c0,6.1,4,10.3,9.3,10.3c3.4,0,6.4-1.7,7.7-4.6l-1.6-1.1
			C280.8,663.8,279.4,664.7,277.1,664.7 M262.4,664.5c-0.9-0.4-1-0.6-1-1.4v-16.5h-0.6l-6.1,0.4v1.5l2.1,0.4c0.8,0.2,1,0.5,1,1.4
			V662c-1.5,1.7-3.2,2.5-4.9,2.5c-2.5,0-3.8-1.6-3.8-4.7v-13.2h-0.6l-6.1,0.4v1.5l2.1,0.4c0.8,0.2,1,0.5,1,1.4v9.8
			c0,4.5,2.2,7.2,5.9,7.2c2.4,0,4.8-1.4,6.4-3.6v3.6h0.6l6.1-0.9v-0.9L262.4,664.5z M231.1,665v1.8h9.3V665c-2.5,0-2.8-0.1-2.8-0.8
			v-29.6H237l-6.1,1.8v0.9l2,0.9c0.9,0.4,1,0.6,1,1.4v24.6C233.9,664.9,233.7,665,231.1,665 M216.7,664.7c-1.7,0-2.8-1.1-2.8-2.8
			c0-2.6,2.2-4.1,8-5.5v5.7C220.3,663.9,218.6,664.7,216.7,664.7 M230,665.2l-0.6-1.3c-0.7,0.6-1.2,0.8-1.9,0.8
			c-1,0-1.8-0.9-1.8-2.2v-10.7c0-3.7-2-5.5-6.4-5.5s-8.3,2.4-8.3,5.2c0,1.4,1,2.4,2.2,2.4s2.1-0.9,2.1-2.1c0-0.3,0-0.6-0.2-1.1
			c-0.2-0.3-0.2-0.5-0.2-0.6c0-1,1.5-1.8,3.4-1.8c2.4,0,3.7,1.3,3.7,3.7v2.7c-7.9,1.6-11.6,4.2-11.6,8c0,2.8,2,4.7,5,4.7
			c2.4,0,5.2-1.5,6.8-3.7c0.3,2.2,1.9,3.7,4,3.7C227.5,667.2,229,666.4,230,665.2 M203.3,649c0,0.1,0,0.3-0.2,0.6l-5,13.1H198
			l-4.7-13.1c-0.1-0.3-0.2-0.5-0.2-0.6c0-0.4,0.2-0.4,2.7-0.6v-1.8h-9.3v1.8c2,0,2.4,0.1,2.7,0.8l7.1,17.8h2.2l7.1-17.8
			c0.3-0.7,0.6-0.8,2.6-0.8v-1.8h-7.6v1.8C203.2,648.6,203.3,648.6,203.3,649 M172.7,652.9h1.5v-5.1c-2-1.1-3.8-1.6-5.8-1.6
			c-4.1,0-7.3,2.7-7.3,6.3c0,1.7,0.6,3,2,3.9c0.8,0.6,1.7,1,4.2,1.8c4,1.2,4.8,2.1,4.8,3.7c0,2-1.8,3.4-4.3,3.4
			c-3.3,0-5.1-1.6-5.8-5.1h-1.7l0.4,5.3c2.2,1.2,4.5,1.9,6.7,1.9c4.6,0,8-2.7,8-6.4c0-1.8-0.6-3.1-2.1-4.1c-0.9-0.6-1.8-1-4.4-1.8
			c-4-1.2-4.7-2-4.7-3.4c0-1.9,1.5-3.2,3.8-3.2C170.7,648.2,172.2,649.6,172.7,652.9 M148.3,665v1.8h9.3V665c-2.5,0-2.8-0.1-2.8-0.8
			v-18h-0.6l-6.1,1.8v0.9l2,0.9c0.9,0.4,1,0.6,1,1.4v13C151.1,664.9,150.9,665,148.3,665 M155.6,639c0-1.5-1.2-2.7-2.7-2.7
			s-2.7,1.2-2.7,2.7s1.2,2.7,2.7,2.7C154.4,641.7,155.6,640.5,155.6,639 M120.7,664.1v-12.6c1.5-1.5,3.4-2.5,5.2-2.5
			c2.6,0,3.9,1.6,3.9,4.7v10.4c0,0.7-0.3,0.8-2.8,0.8v1.8h9.3V665c-2.5,0-2.8-0.1-2.8-0.8v-10.8c0-4.5-2.1-7.2-5.8-7.2
			c-2.5,0-5.3,1.6-7,3.8v-3.8h-0.6L114,648v0.9l2,0.9c0.9,0.4,1,0.6,1,1.4v13c0,0.7-0.3,0.8-2.8,0.8v1.8h9.3V665
			C120.9,665,120.7,664.9,120.7,664.1 M95.9,656.7c0-5.4,2-8.4,5.4-8.4c3.4,0,5.4,3,5.4,8.4s-2,8.4-5.4,8.4S95.9,662.1,95.9,656.7
			 M110.7,656.7c0-6.1-4-10.5-9.4-10.5s-9.4,4.4-9.4,10.5s4,10.5,9.4,10.5S110.7,662.8,110.7,656.7 M85.8,652.9h1.5v-5.1
			c-2-1.1-3.8-1.6-5.8-1.6c-4.1,0-7.3,2.7-7.3,6.3c0,1.7,0.6,3,2,3.9c0.8,0.6,1.7,1,4.2,1.8c4,1.2,4.8,2.1,4.8,3.7
			c0,2-1.8,3.4-4.3,3.4c-3.3,0-5.1-1.6-5.8-5.1h-1.7l0.4,5.3c2.2,1.2,4.5,1.9,6.7,1.9c4.6,0,8-2.7,8-6.4c0-1.8-0.6-3.1-2.1-4.1
			c-0.9-0.6-1.8-1-4.4-1.8c-4-1.2-4.7-2-4.7-3.4c0-1.9,1.5-3.2,3.8-3.2C83.9,648.2,85.3,649.6,85.8,652.9 M62.1,664.1v-10.3
			c1.5-2.2,3.2-3.9,4.2-4c0.3,0,0.6,0.1,1.2,0.6c0.7,0.6,1,0.7,1.5,0.7c1.4,0,2.3-0.9,2.3-2.3c0-1.5-1.1-2.6-2.8-2.6
			c-2,0-4.4,2.3-6.4,5.7v-5.7h-0.6l-6.1,1.8v0.9l2,0.9c0.9,0.4,1,0.6,1,1.4v13c0,0.7-0.3,0.8-2.8,0.8v1.8h10.6V665
			c-1.2,0-1.8,0-2.3,0C62.5,664.9,62.1,664.7,62.1,664.1 M48.5,654.2h-9.6c0.5-3.7,2.6-6,5.3-6C47.1,648.3,48.5,650.2,48.5,654.2
			 M45.3,664.7c-3.9,0-6.5-3.3-6.5-8.4v-0.1h13.3v-1.4c0-5.3-2.8-8.6-7.7-8.6c-2.6,0-5.1,1.2-6.8,3.4c-1.6,2-2.5,4.6-2.5,7.3
			c0,6.1,4,10.3,9.3,10.3c3.4,0,6.4-1.7,7.7-4.6l-1.6-1.1C49,663.8,47.5,664.7,45.3,664.7 M21.6,665c-1.9,0-3.5-0.8-4.3-2.2v-11.3
			c1.2-1.5,3.2-2.6,5-2.6c3.4,0,5.5,3.1,5.5,7.8C27.8,661.8,25.4,665,21.6,665 M17.3,673.2v-8.1c1.1,1.3,3,2.2,4.9,2.2
			c5.5,0,9.4-4.6,9.4-11.4c0-5.6-3.2-9.7-8-9.7c-2.4,0-4.9,1.6-6.4,3.8v-3.8h-0.6l-6.1,1.8v0.9l2,0.9c0.9,0.4,1,0.6,1,1.4v22.1
			c0,0.7-0.3,0.8-2.8,0.8v1.8h10.6v-1.8c-1.2,0-1.8,0-2.3,0C17.6,674,17.3,673.9,17.3,673.2"/>
		<path class="st0" d="M301.7,608.4v-1.8h-7.6v1.8c2.5,0.1,2.7,0.2,2.7,0.6c0,0.1,0,0.3-0.2,0.6l-4.9,12.5h-0.1l-4.9-12.5
			c-0.1-0.3-0.2-0.5-0.2-0.6c0-0.4,0.2-0.4,2.7-0.6v-1.8H280v1.8c2,0,2.4,0.1,2.7,0.8l7.3,17.5c-1.8,4.6-3.3,6.8-4.5,6.8
			c-0.3,0-0.5-0.1-1-0.8c-0.8-1-1.3-1.2-2-1.2c-1.2,0-2.1,0.9-2.1,2.1c0,1.5,1.3,2.7,3.2,2.7c3.2,0,5.5-2.5,8.1-8.7l7.5-18.4
			C299.4,608.5,299.7,608.4,301.7,608.4 M269.5,624.1v-10.3c1.5-2.2,3.2-3.9,4.2-4c0.3,0,0.6,0.1,1.2,0.6c0.7,0.6,1,0.7,1.5,0.7
			c1.4,0,2.3-0.9,2.3-2.3c0-1.5-1.1-2.6-2.8-2.6c-2,0-4.4,2.3-6.4,5.7v-5.7h-0.6l-6.1,1.8v0.9l2,0.9c0.9,0.4,1,0.6,1,1.4v13
			c0,0.7-0.3,0.8-2.8,0.8v1.8h10.6V625c-1.2,0-1.8,0-2.3,0C269.8,624.9,269.5,624.7,269.5,624.1 M255.9,614.2h-9.6
			c0.5-3.7,2.6-6,5.3-6C254.5,608.3,255.8,610.2,255.9,614.2 M252.7,624.7c-3.9,0-6.5-3.3-6.5-8.4v-0.1h13.3v-1.4
			c0-5.3-2.8-8.6-7.7-8.6c-2.6,0-5.1,1.2-6.8,3.4c-1.6,2-2.5,4.6-2.5,7.3c0,6.1,4,10.3,9.3,10.3c3.4,0,6.4-1.7,7.7-4.6l-1.6-1.1
			C256.3,623.8,254.9,624.7,252.7,624.7 M235.8,609c0,0.1,0,0.3-0.2,0.6l-5,13.1h-0.2l-4.7-13.1c-0.1-0.3-0.2-0.5-0.2-0.6
			c0-0.4,0.2-0.4,2.7-0.6v-1.8H219v1.8c2,0,2.4,0.1,2.7,0.8l7.1,17.8h2.2l7.1-17.8c0.3-0.7,0.6-0.8,2.6-0.8v-1.8h-7.6v1.8
			C235.7,608.6,235.8,608.6,235.8,609 M213.6,614.2H204c0.5-3.7,2.6-6,5.3-6C212.2,608.3,213.6,610.2,213.6,614.2 M210.4,624.7
			c-3.9,0-6.5-3.3-6.5-8.4v-0.1h13.3v-1.4c0-5.3-2.8-8.6-7.7-8.6c-2.6,0-5.1,1.2-6.8,3.4c-1.6,2-2.5,4.6-2.5,7.3
			c0,6.1,4,10.3,9.3,10.3c3.4,0,6.4-1.7,7.7-4.6l-1.6-1.1C214,623.8,212.6,624.7,210.4,624.7 M181.3,610.6v11.3
			c-1.5,1.8-3.1,2.6-4.9,2.6c-3.4,0-5.6-3.2-5.6-7.9c0-5,2.5-8.4,6.1-8.4C178.9,608.2,180.5,609,181.3,610.6 M186,624.5
			c-0.9-0.4-1-0.6-1-1.4v-28.5h-0.6l-6.1,1.8v0.9l2,0.9c0.9,0.4,1,0.6,1,1.4v8.5c-1.2-1.1-3.1-1.8-4.9-1.8c-5.5,0-9.4,4.6-9.4,11.3
			c0,5.6,3.4,9.8,8,9.8c2.4,0,4.9-1.6,6.3-3.8v3.8h0.6l6.1-0.9v-0.9L186,624.5z M148.7,624.1v-12.6c1.5-1.5,3.4-2.5,5.2-2.5
			c2.6,0,3.9,1.6,3.9,4.7v10.4c0,0.7-0.3,0.8-2.8,0.8v1.8h9.3V625c-2.5,0-2.8-0.1-2.8-0.8v-10.8c0-4.5-2.1-7.2-5.8-7.2
			c-2.5,0-5.3,1.6-7,3.8v-3.8h-0.6L142,608v0.9l2,0.9c0.9,0.4,1,0.6,1,1.4v13c0,0.7-0.3,0.8-2.8,0.8v1.8h9.3V625
			C148.9,625,148.7,624.9,148.7,624.1 M127.6,624.7c-1.7,0-2.8-1.1-2.8-2.8c0-2.6,2.2-4.1,8-5.5v5.7
			C131.1,623.9,129.4,624.7,127.6,624.7 M140.8,625.2l-0.6-1.3c-0.7,0.6-1.2,0.8-1.9,0.8c-1,0-1.8-0.9-1.8-2.2v-10.7
			c0-3.7-2-5.5-6.4-5.5s-8.3,2.4-8.3,5.2c0,1.4,1,2.4,2.2,2.4s2.1-0.9,2.1-2.1c0-0.3,0-0.6-0.2-1.1c-0.2-0.3-0.2-0.5-0.2-0.6
			c0-1,1.5-1.8,3.4-1.8c2.4,0,3.7,1.3,3.7,3.7v2.7c-7.9,1.6-11.6,4.2-11.6,8c0,2.8,2,4.7,5,4.7c2.4,0,5.2-1.5,6.8-3.7
			c0.3,2.2,1.9,3.7,4,3.7C138.3,627.2,139.8,626.4,140.8,625.2 M93,624.1v-12.6c1.5-1.5,3.4-2.5,5.2-2.5c2.6,0,3.9,1.6,3.9,4.7v10.4
			c0,0.7-0.3,0.8-2.8,0.8v1.8h9.3V625c-2.5,0-2.8-0.1-2.8-0.8v-10.8c0-4.5-2.1-7.2-5.8-7.2c-2.5,0-5.3,1.6-7,3.8v-15.4h-0.6
			l-6.1,1.8v0.9l2,0.9c0.9,0.4,1,0.6,1,1.4v24.6c0,0.7-0.3,0.8-2.8,0.8v1.8h9.3V625C93.3,625,93,624.9,93,624.1 M81.6,612.3
			c1.1,0,1.9-0.8,1.9-2c0-2.1-2.9-4.1-6.3-4.1c-2.7,0-5.2,1.2-7.1,3.5c-1.8,2.1-2.8,4.7-2.8,7.6c0,6,3.8,10,9,10
			c3.4,0,6.1-1.8,7.8-5.1l-1.7-1c-1.5,2.5-3.1,3.6-5.4,3.6c-3.4,0-5.9-3.2-5.9-8.2c0-4.7,2.5-8.1,5.6-8.1c1.2,0,2,0.3,2.9,2.1
			C80.2,612,80.7,612.3,81.6,612.3 M52.6,624.7c-1.7,0-2.8-1.1-2.8-2.8c0-2.6,2.2-4.1,8-5.5v5.7C56.1,623.9,54.4,624.7,52.6,624.7
			 M65.9,625.2l-0.6-1.3c-0.7,0.6-1.2,0.8-1.9,0.8c-1,0-1.8-0.9-1.8-2.2v-10.7c0-3.7-2-5.5-6.4-5.5s-8.3,2.4-8.3,5.2
			c0,1.4,1,2.4,2.2,2.4s2.1-0.9,2.1-2.1c0-0.3,0-0.6-0.2-1.1c-0.2-0.3-0.2-0.5-0.2-0.6c0-1,1.5-1.8,3.4-1.8c2.4,0,3.7,1.3,3.7,3.7
			v2.7c-7.9,1.6-11.6,4.2-11.6,8c0,2.8,2,4.7,5,4.7c2.4,0,5.2-1.5,6.8-3.7c0.3,2.2,1.9,3.7,4,3.7C63.3,627.2,64.8,626.4,65.9,625.2
			 M18.6,600.3c3.4,0,3.9,0.1,3.9,1.1v22.4c0,1-0.5,1.1-3.9,1.1v1.9h23.3l0.9-9.6H41c-0.6,3.1-1.4,4.9-2.5,6
			c-1.2,1.2-2.8,1.6-6.2,1.6h-5.8v-11.5h2.8c2.5,0,3.1,0.2,3.6,0.7s0.7,1.2,1,3.7h1.5V607h-1.7c-0.3,2.5-0.5,3.1-0.9,3.7
			c-0.5,0.5-1.1,0.7-3.6,0.7h-2.8v-10.9h6.8c2.5,0,3.6,0.5,4.4,1.8c0.4,0.7,0.6,1.4,1.6,4.8H41l-0.4-8.6h-22V600.3z"/>
		<path class="st7" d="M211.1,570.7l-2.9-4.9h-2l4,6.6v4.4h1.9v-4.4l4-6.6h-2L211.1,570.7z M195.8,567.4h3.7v9.4h1.9v-9.4h3.7v-1.7
			h-9.2L195.8,567.4L195.8,567.4z M193.6,565.8h-1.9v11.1h1.9V565.8z M189,565.8h-1.8v7.7l-5.3-7.7h-1.8v11.1h1.8v-8l5.7,8h1.4
			L189,565.8L189,565.8z M173,577c2.6,0,4.4-1.5,4.4-4.6v-6.7h-1.9v6.4c0,2.1-0.9,3.1-2.6,3.1c-1.7,0-2.6-1-2.6-3.1v-6.4h-1.9v6.6
			C168.6,575.4,170.4,577,173,577 M157.4,567.4h3.7v9.4h1.9v-9.4h3.7v-1.7h-9.2L157.4,567.4L157.4,567.4z M149.8,567.4h2.4
			c1.2,0,1.9,0.7,1.9,1.7s-0.7,1.7-1.9,1.7h-2.4V567.4z M151.1,572.3l3.1,4.5h2.1l-3.2-4.6c1.7-0.3,2.8-1.3,2.8-3.2
			c0-2.2-1.5-3.3-3.8-3.3h-4.3v11.1h1.9v-4.5H151.1z M143.8,571.3c0,2.3-1.3,4-3.2,4s-3.2-1.7-3.2-4s1.3-4,3.2-4
			C142.6,567.2,143.8,568.9,143.8,571.3 M145.7,571.3c0-3.3-2.1-5.7-5.1-5.7s-5.1,2.4-5.1,5.7s2.1,5.7,5.1,5.7
			C143.6,577,145.7,574.6,145.7,571.3 M132.1,569.2c0,1.1-0.7,1.8-2,1.8h-2.4v-3.7h2.4C131.5,567.4,132.1,568.1,132.1,569.2
			 M130.2,572.7c2.3,0,3.8-1.2,3.8-3.5s-1.5-3.5-3.8-3.5h-4.3v11.1h1.9v-4.1H130.2z M122,569.2c0,1.1-0.7,1.8-2,1.8h-2.4v-3.7h2.4
			C121.3,567.4,122,568.1,122,569.2 M120,572.7c2.3,0,3.8-1.2,3.8-3.5s-1.5-3.5-3.8-3.5h-4.3v11.1h1.9v-4.1H120z M111.7,571.3
			c0,2.3-1.3,4-3.2,4s-3.2-1.7-3.2-4s1.3-4,3.2-4S111.7,568.9,111.7,571.3 M113.6,571.3c0-3.3-2.1-5.7-5.1-5.7s-5.1,2.4-5.1,5.7
			s2.1,5.7,5.1,5.7S113.6,574.6,113.6,571.3"/>
		<path class="st7" d="M194.3,555.2h3.7c3.3,0,5.4-2.2,5.4-5.5c0-3.4-2.1-5.5-5.4-5.5h-3.7V555.2z M196.1,553.5v-7.7h1.8
			c2.3,0,3.6,1.5,3.6,3.9s-1.2,3.9-3.6,3.9h-1.8V553.5z M184.7,544.2v11.1h7.2v-1.7h-5.4v-3.2h4.9v-1.6h-4.9v-2.9h5.4v-1.7
			L184.7,544.2L184.7,544.2z M174.1,552.1c0.4,2.1,2.1,3.2,4.4,3.2c2.3,0,3.9-1.3,3.9-3.3c0-1.7-1.1-2.7-2.9-3.1l-1.9-0.5
			c-1-0.2-1.5-0.7-1.5-1.4c0-0.9,0.8-1.5,2-1.5c1.3,0,2,0.6,2.3,1.5h1.9c-0.4-1.8-1.8-3.1-4.2-3.1c-2.2,0-3.8,1.4-3.8,3.3
			c0,1.8,1.2,2.6,2.8,3l1.9,0.5c1.2,0.3,1.6,0.7,1.6,1.5c0,1-0.8,1.6-2.1,1.6c-1.2,0-2.1-0.5-2.5-1.7H174.1z M167.9,546.4l1.5,4.1
			h-3L167.9,546.4z M167.1,544.2l-4.2,11.1h1.9l1.1-3.1h4.2l1.1,3.1h1.9l-4.2-11.1H167.1z M154.1,544.2v11.1h7.2v-1.7h-5.4v-3.2h4.9
			v-1.6h-4.9v-2.9h5.4v-1.7L154.1,544.2L154.1,544.2z M145.6,545.8h2.4c1.2,0,1.9,0.7,1.9,1.7s-0.7,1.7-1.9,1.7h-2.4V545.8z
			 M146.9,550.7l3.1,4.5h2.1l-3.2-4.6c1.7-0.3,2.8-1.3,2.8-3.2c0-2.2-1.5-3.3-3.8-3.3h-4.3v11.1h1.9v-4.5H146.9z M132,549.7
			c0,3.4,2.2,5.7,5,5.7c2.5,0,4.1-1.4,4.5-3.7h-1.8c-0.4,1.2-1.2,2-2.7,2c-2,0-3.1-1.7-3.1-4s1.2-4,3.1-4c1.5,0,2.2,0.8,2.7,2h1.8
			c-0.4-2.2-2-3.7-4.5-3.7C134.2,544,132,546.3,132,549.7 M129.8,544.2H128v7.7l-5.3-7.7h-1.8v11.1h1.8v-8l5.7,8h1.4L129.8,544.2
			L129.8,544.2z M118.1,544.2h-1.9v11.1h1.9V544.2z"/>
		<path class="st0" d="M663,692.9h1.5v-5.1c-2-1.1-3.8-1.6-5.8-1.6c-4.1,0-7.3,2.7-7.3,6.3c0,1.7,0.6,3,2,3.9c0.8,0.6,1.7,1,4.2,1.8
			c4,1.2,4.8,2.1,4.8,3.7c0,2-1.8,3.4-4.3,3.4c-3.3,0-5.1-1.6-5.8-5.1h-1.7l0.4,5.3c2.2,1.2,4.5,1.9,6.7,1.9c4.6,0,8-2.7,8-6.4
			c0-1.8-0.6-3.1-2.1-4.1c-0.9-0.6-1.8-1-4.4-1.8c-4-1.2-4.7-2-4.7-3.4c0-1.9,1.5-3.2,3.8-3.2C661,688.2,662.5,689.6,663,692.9
			 M643.7,704.7c-2.1,0-3.2-1.1-3.2-3.3v-12.6h6.4v-2.1h-6.4v-6.2l-3.7,1.1v5.2H634v2.1h2.8v13.7c0,2.8,2.2,4.9,5.4,4.9
			c2.6,0,5-1.2,6.6-3.4l-1.1-1.4C646.3,704,645.1,704.7,643.7,704.7 M622.4,705v1.8h9.3V705c-2.5,0-2.8-0.1-2.8-0.8v-29.6h-0.6
			l-6.1,1.8v0.9l2,0.9c0.9,0.4,1,0.6,1,1.4v24.6C625.2,704.9,624.9,705,622.4,705 M618.1,704.5c-0.9-0.4-1-0.6-1-1.4v-16.5h-0.6
			l-6.1,0.4v1.5l2.1,0.4c0.8,0.2,1,0.5,1,1.4V702c-1.5,1.7-3.2,2.5-4.9,2.5c-2.5,0-3.8-1.6-3.8-4.7v-13.2h-0.6L598,687v1.5l2.1,0.4
			c0.8,0.2,1,0.5,1,1.4v9.8c0,4.5,2.2,7.2,5.9,7.2c2.4,0,4.8-1.4,6.4-3.6v3.6h0.6l6.1-0.9v-0.9L618.1,704.5z M592.9,692.9h1.5v-5.1
			c-2-1.1-3.8-1.6-5.8-1.6c-4.1,0-7.3,2.7-7.3,6.3c0,1.7,0.6,3,2,3.9c0.8,0.6,1.7,1,4.2,1.8c4,1.2,4.8,2.1,4.8,3.7
			c0,2-1.8,3.4-4.3,3.4c-3.3,0-5.1-1.6-5.8-5.1h-1.7l0.4,5.3c2.2,1.2,4.5,1.9,6.7,1.9c4.6,0,8-2.7,8-6.4c0-1.8-0.6-3.1-2.1-4.1
			c-0.9-0.6-1.8-1-4.4-1.8c-4-1.2-4.7-2-4.7-3.4c0-1.9,1.5-3.2,3.8-3.2C591,688.2,592.4,689.6,592.9,692.9 M573.4,694.2h-9.6
			c0.5-3.7,2.6-6,5.3-6C572,688.3,573.4,690.2,573.4,694.2 M570.2,704.7c-3.9,0-6.5-3.3-6.5-8.4v-0.1H577v-1.4
			c0-5.3-2.8-8.6-7.7-8.6c-2.6,0-5.1,1.2-6.8,3.4c-1.6,2-2.5,4.6-2.5,7.3c0,6.1,4,10.3,9.3,10.3c3.4,0,6.4-1.7,7.7-4.6l-1.6-1.1
			C573.9,703.8,572.4,704.7,570.2,704.7 M548.6,704.1v-10.3c1.5-2.2,3.2-3.9,4.2-4c0.3,0,0.6,0.1,1.2,0.6c0.7,0.6,1,0.7,1.5,0.7
			c1.4,0,2.3-0.9,2.3-2.3c0-1.5-1.1-2.6-2.8-2.6c-2,0-4.4,2.3-6.4,5.7v-5.7H548l-6.1,1.8v0.9l2,0.9c0.9,0.4,1,0.6,1,1.4v13
			c0,0.7-0.3,0.8-2.8,0.8v1.8h10.6V705c-1.2,0-1.8,0-2.3,0C549,704.9,548.6,704.7,548.6,704.1"/>
		<path class="st0" d="M739.4,648.4v-1.8h-7.6v1.8c2.5,0.1,2.7,0.2,2.7,0.6c0,0.1,0,0.3-0.2,0.6l-4.9,12.5h-0.1l-4.9-12.5
			c-0.1-0.3-0.2-0.5-0.2-0.6c0-0.4,0.2-0.4,2.7-0.6v-1.8h-9.3v1.8c2,0,2.4,0.1,2.7,0.8l7.3,17.5c-1.8,4.6-3.3,6.8-4.5,6.8
			c-0.3,0-0.5-0.1-1-0.8c-0.8-1-1.3-1.2-2-1.2c-1.2,0-2.1,0.9-2.1,2.1c0,1.5,1.3,2.7,3.2,2.7c3.2,0,5.5-2.5,8.1-8.7l7.5-18.4
			C737.1,648.5,737.4,648.4,739.4,648.4 M707.1,664.1v-10.3c1.5-2.2,3.2-3.9,4.2-4c0.3,0,0.6,0.1,1.2,0.6c0.7,0.6,1,0.7,1.5,0.7
			c1.4,0,2.3-0.9,2.3-2.3c0-1.5-1.1-2.6-2.8-2.6c-2,0-4.4,2.3-6.4,5.7v-5.7h-0.6l-6.1,1.8v0.9l2,0.9c0.9,0.4,1,0.6,1,1.4v13
			c0,0.7-0.3,0.8-2.8,0.8v1.8h10.6V665c-1.2,0-1.8,0-2.3,0C707.5,664.9,707.1,664.7,707.1,664.1 M686,664.7c-1.7,0-2.8-1.1-2.8-2.8
			c0-2.6,2.2-4.1,8-5.5v5.7C689.6,663.9,687.9,664.7,686,664.7 M699.3,665.2l-0.6-1.3c-0.7,0.6-1.2,0.8-1.9,0.8
			c-1,0-1.8-0.9-1.8-2.2v-10.7c0-3.7-2-5.5-6.4-5.5s-8.3,2.4-8.3,5.2c0,1.4,1,2.4,2.2,2.4s2.1-0.9,2.1-2.1c0-0.3,0-0.6-0.2-1.1
			c-0.2-0.3-0.2-0.5-0.2-0.6c0-1,1.5-1.8,3.4-1.8c2.4,0,3.7,1.3,3.7,3.7v2.7c-7.9,1.6-11.6,4.2-11.6,8c0,2.8,2,4.7,5,4.7
			c2.4,0,5.2-1.5,6.8-3.7c0.3,2.2,1.9,3.7,4,3.7C696.8,667.2,698.3,666.4,699.3,665.2 M661,664.1v-12.6c1.5-1.5,3.4-2.5,5.2-2.5
			c2.6,0,3.9,1.6,3.9,4.7v10.4c0,0.7-0.3,0.8-2.8,0.8v1.8h9.3V665c-2.5,0-2.8-0.1-2.8-0.8v-10.8c0-4.5-2.1-7.2-5.8-7.2
			c-2.5,0-5.3,1.6-7,3.8v-3.8h-0.6l-6.1,1.8v0.9l2,0.9c0.9,0.4,1,0.6,1,1.4v13c0,0.7-0.3,0.8-2.8,0.8v1.8h9.3V665
			C661.2,665,661,664.9,661,664.1 M642.5,665v1.8h9.3V665c-2.5,0-2.8-0.1-2.8-0.8v-18h-0.6l-6.1,1.8v0.9l2,0.9c0.9,0.4,1,0.6,1,1.4
			v13C645.3,664.9,645.1,665,642.5,665 M649.8,639c0-1.5-1.2-2.7-2.7-2.7s-2.7,1.2-2.7,2.7s1.2,2.7,2.7,2.7S649.8,640.5,649.8,639
			 M633.2,650.6v11.3c-1.5,1.8-3.1,2.6-4.9,2.6c-3.4,0-5.6-3.2-5.6-7.9c0-5,2.4-8.4,6.1-8.4C630.8,648.2,632.3,649,633.2,650.6
			 M637.9,664.5c-0.9-0.4-1-0.6-1-1.4v-28.5h-0.6l-6.1,1.8v0.9l2,0.9c0.9,0.4,1,0.6,1,1.4v8.5c-1.2-1.1-3.1-1.8-4.9-1.8
			c-5.5,0-9.4,4.6-9.4,11.3c0,5.6,3.4,9.8,8,9.8c2.4,0,4.9-1.6,6.3-3.8v3.8h0.6l6.1-0.9v-0.9L637.9,664.5z M607.4,664.1v-10.3
			c1.5-2.2,3.2-3.9,4.2-4c0.3,0,0.6,0.1,1.2,0.6c0.7,0.6,1,0.7,1.5,0.7c1.4,0,2.3-0.9,2.3-2.3c0-1.5-1.1-2.6-2.8-2.6
			c-2,0-4.4,2.3-6.4,5.7v-5.7h-0.6l-6.1,1.8v0.9l2,0.9c0.9,0.4,1,0.6,1,1.4v13c0,0.7-0.3,0.8-2.8,0.8v1.8h10.6V665
			c-1.2,0-1.8,0-2.3,0C607.7,664.9,607.4,664.7,607.4,664.1 M582.7,656.7c0-5.4,2-8.4,5.4-8.4s5.4,3,5.4,8.4s-2,8.4-5.4,8.4
			C584.6,665.1,582.7,662.1,582.7,656.7 M597.4,656.7c0-6.1-4-10.5-9.4-10.5s-9.4,4.4-9.4,10.5s4,10.5,9.4,10.5
			S597.4,662.8,597.4,656.7 M564,664.7c-1.7,0-2.8-1.1-2.8-2.8c0-2.6,2.2-4.1,8-5.5v5.7C567.5,663.9,565.8,664.7,564,664.7
			 M577.3,665.2l-0.6-1.3c-0.7,0.6-1.2,0.8-1.9,0.8c-1,0-1.8-0.9-1.8-2.2v-10.7c0-3.7-2-5.5-6.4-5.5s-8.3,2.4-8.3,5.2
			c0,1.4,1,2.4,2.2,2.4s2.1-0.9,2.1-2.1c0-0.3,0-0.6-0.2-1.1c-0.2-0.3-0.2-0.5-0.2-0.6c0-1,1.5-1.8,3.4-1.8c2.4,0,3.7,1.3,3.7,3.7
			v2.7c-7.9,1.6-11.6,4.2-11.6,8c0,2.8,2,4.7,5,4.7c2.4,0,5.2-1.5,6.8-3.7c0.3,2.2,1.9,3.7,4,3.7
			C574.7,667.2,576.3,666.4,577.3,665.2 M545.8,664.1v-10.3c1.5-2.2,3.2-3.9,4.2-4c0.3,0,0.6,0.1,1.2,0.6c0.7,0.6,1,0.7,1.5,0.7
			c1.4,0,2.3-0.9,2.3-2.3c0-1.5-1.1-2.6-2.8-2.6c-2,0-4.4,2.3-6.4,5.7v-5.7h-0.6l-6.1,1.8v0.9l2,0.9c0.9,0.4,1,0.6,1,1.4v13
			c0,0.7-0.3,0.8-2.8,0.8v1.8h10.6V665c-1.2,0-1.8,0-2.3,0C546.2,664.9,545.8,664.7,545.8,664.1 M532.4,664.7
			c-2.1,0-3.2-1.1-3.2-3.3v-12.6h6.4v-2.1h-6.4v-6.2l-3.7,1.1v5.2h-2.8v2.1h2.8v13.7c0,2.8,2.2,4.9,5.4,4.9c2.6,0,5-1.2,6.6-3.4
			l-1.1-1.4C535,664,533.8,664.7,532.4,664.7 M504.7,663.7l4.5-5.7l4.3,5.7c0.2,0.2,0.3,0.4,0.3,0.6c0,0.5-0.3,0.6-2.5,0.6v1.8h9.9
			V665c-2.2,0-2.8-0.1-3.3-0.8l-6.2-8.2l5.4-6.7c0.6-0.7,1.2-0.8,3.1-0.8v-1.8h-7.8v1.8c1.9,0,2.2,0.1,2.2,0.6
			c0,0.2-0.1,0.3-0.3,0.6l-3.7,4.9l-3.7-4.9c-0.2-0.3-0.3-0.4-0.3-0.6c0-0.4,0.3-0.5,2.3-0.6v-1.8h-9.3v1.8c1.8,0,2.3,0.1,2.9,0.8
			l5.5,7.3l-6.1,7.6c-0.6,0.7-1.1,0.8-3.3,0.8v1.8h8V665c-1.9,0-2.2-0.1-2.2-0.6C504.5,664.2,504.5,664.1,504.7,663.7 M493,654.2
			h-9.6c0.5-3.7,2.6-6,5.3-6C491.6,648.3,493,650.2,493,654.2 M489.8,664.7c-3.9,0-6.5-3.3-6.5-8.4v-0.1h13.3v-1.4
			c0-5.3-2.8-8.6-7.7-8.6c-2.6,0-5.1,1.2-6.8,3.4c-1.6,2-2.5,4.6-2.5,7.3c0,6.1,4,10.3,9.3,10.3c3.4,0,6.4-1.7,7.7-4.6l-1.6-1.1
			C493.5,663.8,492,664.7,489.8,664.7"/>
		<path class="st0" d="M690.5,624.7c-2.1,0-3.2-1.1-3.2-3.3v-12.6h6.4v-2.1h-6.4v-6.2l-3.7,1.1v5.2h-2.8v2.1h2.8v13.7
			c0,2.8,2.2,4.9,5.4,4.9c2.6,0,5-1.2,6.6-3.4l-1.1-1.4C693.1,624,691.9,624.7,690.5,624.7 M676.1,612.3c1.1,0,1.9-0.8,1.9-2
			c0-2.2-2.9-4.1-6.3-4.1c-2.7,0-5.2,1.2-7.1,3.5c-1.8,2.1-2.8,4.7-2.8,7.6c0,6,3.8,10,9,10c3.4,0,6.1-1.8,7.8-5.1l-1.7-1
			c-1.5,2.5-3.1,3.6-5.4,3.6c-3.4,0-5.9-3.2-5.9-8.2c0-4.7,2.5-8.1,5.6-8.1c1.2,0,2,0.3,2.9,2.1C674.8,612,675.3,612.3,676.1,612.3
			 M654.7,614.2h-9.6c0.5-3.7,2.6-6,5.3-6C653.3,608.3,654.6,610.2,654.7,614.2 M651.5,624.7c-3.9,0-6.5-3.3-6.5-8.4v-0.1h13.3v-1.4
			c0-5.3-2.8-8.6-7.7-8.6c-2.6,0-5.1,1.2-6.8,3.4c-1.6,2-2.5,4.6-2.5,7.3c0,6.1,4,10.3,9.3,10.3c3.4,0,6.4-1.7,7.7-4.6l-1.6-1.1
			C655.1,623.8,653.7,624.7,651.5,624.7 M627.8,625c-1.9,0-3.5-0.8-4.3-2.2v-11.3c1.2-1.5,3.2-2.6,5-2.6c3.4,0,5.5,3.1,5.5,7.8
			C634,621.8,631.5,625,627.8,625 M623.4,633.2v-8.1c1.1,1.3,3,2.1,4.9,2.1c5.5,0,9.4-4.6,9.4-11.4c0-5.6-3.2-9.7-8-9.7
			c-2.4,0-4.9,1.6-6.4,3.8v-3.8h-0.6l-6.1,1.8v0.9l2,0.9c0.9,0.4,1,0.6,1,1.4v22.1c0,0.7-0.3,0.8-2.8,0.8v1.8h10.6V634
			c-1.2,0-1.8,0-2.3,0C623.8,634,623.4,633.9,623.4,633.2 M598.7,623.8l4.5-5.7l4.3,5.7c0.2,0.2,0.3,0.4,0.3,0.6
			c0,0.5-0.3,0.6-2.5,0.6v1.8h9.9V625c-2.1,0-2.8-0.1-3.3-0.8l-6.2-8.2l5.4-6.7c0.6-0.7,1.2-0.8,3.1-0.8v-1.8h-7.8v1.8
			c1.9,0,2.2,0.1,2.2,0.6c0,0.2-0.1,0.3-0.3,0.6l-3.7,4.9l-3.7-4.9c-0.2-0.3-0.3-0.4-0.3-0.6c0-0.4,0.3-0.5,2.3-0.6v-1.8h-9.3v1.8
			c1.8,0,2.3,0.1,2.9,0.8l5.5,7.3l-6.1,7.6c-0.6,0.7-1.1,0.8-3.3,0.8v1.8h8V625c-1.9,0-2.2-0.1-2.2-0.6
			C598.5,624.2,598.5,624.1,598.7,623.8 M587,614.2h-9.6c0.5-3.7,2.6-6,5.3-6C585.6,608.3,587,610.2,587,614.2 M583.8,624.7
			c-3.9,0-6.5-3.3-6.5-8.4v-0.1h13.3v-1.4c0-5.3-2.8-8.6-7.7-8.6c-2.6,0-5.1,1.2-6.8,3.4c-1.6,2-2.5,4.6-2.5,7.3
			c0,6.1,4,10.3,9.3,10.3c3.4,0,6.4-1.7,7.7-4.6l-1.6-1.1C587.5,623.8,586,624.7,583.8,624.7 M557,614.2h-9.6c0.5-3.7,2.6-6,5.3-6
			C555.6,608.3,557,610.2,557,614.2 M553.8,624.7c-3.9,0-6.5-3.3-6.5-8.4v-0.1h13.3v-1.4c0-5.3-2.8-8.6-7.7-8.6
			c-2.6,0-5.1,1.2-6.8,3.4c-1.6,2-2.5,4.6-2.5,7.3c0,6.1,4,10.3,9.3,10.3c3.4,0,6.4-1.7,7.7-4.6l-1.6-1.1
			C557.4,623.8,556,624.7,553.8,624.7 M530.5,627h2.6l7.7-25.4c0.3-1,0.9-1.3,3.7-1.3v-1.9h-10.3v1.9c3.2,0,4,0.2,4,0.8
			c0,0.2,0,0.4-0.2,0.9l-5.5,19.3h-0.2l-6.5-22.9h-2.3l-6.3,22.8H517l-5.5-19.3c-0.2-0.6-0.2-0.6-0.2-0.8c0-0.6,0.9-0.8,4-0.8v-1.9
			h-11.8v1.9c2.8,0,3.4,0.3,3.7,1.3L515,627h2.6l6.4-22h0.2L530.5,627z"/>
		<path class="st7" d="M659.1,565.8h-1.8v7.7l-5.3-7.7h-1.8v11.1h1.8v-8l5.7,8h1.4L659.1,565.8L659.1,565.8z M646.1,571.3
			c0,2.3-1.3,4-3.2,4s-3.2-1.7-3.2-4s1.3-4,3.2-4C644.9,567.2,646.1,568.9,646.1,571.3 M648,571.3c0-3.3-2.1-5.7-5.1-5.7
			s-5.1,2.4-5.1,5.7s2.1,5.7,5.1,5.7S648,574.6,648,571.3 M635.6,565.8h-1.9v11.1h1.9V565.8z M623.2,573.7c0.4,2.1,2.1,3.2,4.4,3.2
			c2.3,0,3.9-1.3,3.9-3.3c0-1.7-1.1-2.7-2.9-3.1l-1.9-0.5c-1-0.2-1.5-0.7-1.5-1.4c0-0.9,0.8-1.5,2-1.5c1.3,0,2,0.6,2.3,1.5h1.9
			c-0.4-1.8-1.8-3.1-4.2-3.1c-2.2,0-3.8,1.4-3.8,3.3c0,1.8,1.2,2.6,2.8,3l1.9,0.5c1.2,0.3,1.6,0.7,1.6,1.5c0,1-0.8,1.6-2.1,1.6
			c-1.2,0-2.1-0.5-2.5-1.7H623.2z M613.5,573.7c0.4,2.1,2.1,3.2,4.4,3.2c2.3,0,3.9-1.3,3.9-3.3c0-1.7-1.1-2.7-2.9-3.1L617,570
			c-1-0.2-1.5-0.7-1.5-1.4c0-0.9,0.8-1.5,2-1.5c1.3,0,2,0.6,2.3,1.5h1.9c-0.4-1.8-1.8-3.1-4.2-3.1c-2.2,0-3.8,1.4-3.8,3.3
			c0,1.8,1.2,2.6,2.8,3l1.9,0.5c1.2,0.3,1.6,0.7,1.6,1.5c0,1-0.8,1.6-2.1,1.6c-1.2,0-2.1-0.5-2.5-1.7H613.5z M611.5,565.8h-1.9v11.1
			h1.9V565.8z M602.1,576.8l3-7.7v7.7h1.8v-11.1h-2.1l-3.3,8.5l-3.4-8.5H596v11.1h1.8v-7.7l3,7.7H602.1z M582,565.8v11.1h7.2v-1.7
			h-5.4V572h4.9v-1.6h-4.9v-2.9h5.4v-1.7H582z M573.5,567.4h2.4c1.2,0,1.9,0.7,1.9,1.7s-0.7,1.7-1.9,1.7h-2.4V567.4z M574.8,572.3
			l3.1,4.5h2.1l-3.2-4.6c1.7-0.3,2.8-1.3,2.8-3.2c0-2.2-1.5-3.3-3.8-3.3h-4.3v11.1h1.9v-4.5H574.8z M567.5,571.3c0,2.3-1.3,4-3.2,4
			s-3.2-1.7-3.2-4s1.3-4,3.2-4C566.2,567.2,567.5,568.9,567.5,571.3 M569.4,571.3c0-3.3-2.1-5.7-5.1-5.7s-5.1,2.4-5.1,5.7
			s2.1,5.7,5.1,5.7C567.3,577,569.4,574.6,569.4,571.3 M548.1,571.3c0,3.4,2.2,5.7,5,5.7c2.5,0,4.1-1.4,4.5-3.7h-1.8
			c-0.4,1.2-1.2,2-2.7,2c-2,0-3.1-1.7-3.1-4s1.2-4,3.1-4c1.5,0,2.2,0.8,2.7,2h1.8c-0.4-2.2-2-3.7-4.5-3.7
			C550.3,565.6,548.1,567.9,548.1,571.3"/>
		<path class="st7" d="M703.1,551.1c-0.2,1.5-1.2,2.6-2.9,2.6c-2.1,0-3.3-1.7-3.3-4s1.3-4,3.2-4c1.5,0,2.2,0.8,2.7,1.9h1.9
			c-0.4-2.2-2-3.6-4.5-3.6c-2.9,0-5.1,2.3-5.1,5.7s2.2,5.7,5.2,5.7c2.7,0,4.7-2,4.7-5v-0.9h-4.2v1.6H703.1z M692.8,544.2H691v7.7
			l-5.3-7.7h-1.8v11.1h1.8v-8l5.7,8h1.4L692.8,544.2L692.8,544.2z M681.1,544.2h-1.9v11.1h1.9V544.2z M673.1,555.2l4.2-11.1h-1.9
			l-3.1,8.6l-3.1-8.6h-2l4.2,11.1H673.1z M658.4,544.2v11.1h7.2v-1.7h-5.4v-3.2h4.9v-1.6h-4.9v-2.9h5.4v-1.7L658.4,544.2
			L658.4,544.2z M655.6,544.2h-1.9v11.1h1.9V544.2z M649.1,544.2v4.6h-5.6v-4.6h-1.9v11.1h1.9v-4.8h5.6v4.8h1.9v-11.1H649.1z
			 M629.9,549.7c0,3.4,2.2,5.7,5,5.7c2.5,0,4.1-1.4,4.5-3.7h-1.8c-0.4,1.2-1.2,2-2.7,2c-2,0-3.1-1.7-3.1-4s1.2-4,3.1-4
			c1.5,0,2.2,0.8,2.7,2h1.8c-0.4-2.2-2-3.7-4.5-3.7C632.1,544,629.9,546.3,629.9,549.7 M623.9,546.4l1.5,4.1h-3L623.9,546.4z
			 M623,544.2l-4.2,11.1h1.9l1.1-3.1h4.2l1.1,3.1h1.9l-4.2-11.1H623z M604.7,552.1c0.4,2.1,2.1,3.2,4.4,3.2c2.3,0,3.9-1.3,3.9-3.3
			c0-1.7-1.1-2.7-2.9-3.1l-1.9-0.5c-1-0.2-1.5-0.7-1.5-1.4c0-0.9,0.8-1.5,2-1.5c1.3,0,2,0.6,2.3,1.5h1.9c-0.4-1.8-1.8-3.1-4.2-3.1
			c-2.2,0-3.8,1.4-3.8,3.3c0,1.8,1.2,2.6,2.8,3l1.9,0.5c1.2,0.3,1.6,0.7,1.6,1.5c0,1-0.8,1.6-2.1,1.6c-1.2,0-2.1-0.5-2.5-1.7H604.7z
			 M602.7,544.2h-1.8v7.7l-5.3-7.7h-1.8v11.1h1.8v-8l5.7,8h1.4L602.7,544.2L602.7,544.2z M589.7,549.7c0,2.3-1.3,4-3.2,4
			s-3.2-1.7-3.2-4s1.3-4,3.2-4C588.5,545.6,589.7,547.3,589.7,549.7 M591.6,549.7c0-3.3-2.1-5.7-5.1-5.7s-5.1,2.4-5.1,5.7
			s2.1,5.7,5.1,5.7S591.6,553,591.6,549.7 M579.2,544.2h-1.9v11.1h1.9V544.2z M566,545.8h3.7v9.4h1.9v-9.4h3.7v-1.7H566V545.8z
			 M559.6,555.4c2.6,0,4.4-1.5,4.4-4.6v-6.7h-1.9v6.4c0,2.1-0.9,3.1-2.6,3.1s-2.6-1-2.6-3.1v-6.4H555v6.6
			C555.2,553.8,557,555.4,559.6,555.4 M544,545.8h3.7v9.4h1.9v-9.4h3.7v-1.7H544V545.8z M541.9,544.2H540v11.1h1.9V544.2z
			 M528.7,545.8h3.7v9.4h1.9v-9.4h3.7v-1.7h-9.2v1.7H528.7z M519,552.1c0.4,2.1,2.1,3.2,4.4,3.2c2.3,0,3.9-1.3,3.9-3.3
			c0-1.7-1.1-2.7-2.9-3.1l-1.9-0.5c-1-0.2-1.5-0.7-1.5-1.4c0-0.9,0.8-1.5,2-1.5c1.3,0,2,0.6,2.3,1.5h1.9c-0.4-1.8-1.8-3.1-4.2-3.1
			c-2.2,0-3.8,1.4-3.8,3.3c0,1.8,1.2,2.6,2.8,3l1.9,0.5c1.2,0.3,1.6,0.7,1.6,1.5c0,1-0.8,1.6-2.1,1.6c-1.2,0-2.1-0.5-2.5-1.7H519z
			 M517.1,544.2h-1.8v7.7l-5.3-7.7h-1.8v11.1h1.8v-8l5.7,8h1.4L517.1,544.2L517.1,544.2z M505.4,544.2h-1.9v11.1h1.9V544.2z"/>
		<path class="st0" d="M693.4,164.9h-9.6c0.5-3.7,2.6-6,5.3-6C692,158.9,693.4,160.8,693.4,164.9 M690.2,175.3
			c-3.9,0-6.5-3.3-6.5-8.4v-0.1H697v-1.4c0-5.3-2.8-8.6-7.7-8.6c-2.6,0-5.1,1.2-6.8,3.4c-1.6,2-2.5,4.6-2.5,7.3
			c0,6.1,4,10.3,9.3,10.3c3.4,0,6.4-1.7,7.7-4.6l-1.6-1.1C693.9,174.4,692.4,175.3,690.2,175.3 M668.6,174.7v-10.3
			c1.5-2.2,3.2-3.9,4.2-4c0.3,0,0.6,0.1,1.2,0.6c0.7,0.6,1,0.7,1.5,0.7c1.4,0,2.3-0.9,2.3-2.3c0-1.5-1.1-2.6-2.8-2.6
			c-2,0-4.4,2.3-6.4,5.7v-5.7H668l-6.1,1.8v0.9l2,0.9c0.9,0.4,1,0.6,1,1.4v13c0,0.7-0.3,0.8-2.8,0.8v1.8h10.6v-1.8
			c-1.2,0-1.8,0-2.3,0C669,175.5,668.6,175.4,668.6,174.7 M657.7,175.1c-0.9-0.4-1-0.6-1-1.4v-16.5h-0.6l-6.1,0.4v1.5l2.1,0.4
			c0.8,0.2,1,0.5,1,1.4v11.7c-1.5,1.7-3.2,2.5-4.9,2.5c-2.5,0-3.8-1.6-3.8-4.7v-13.2h-0.6l-6.1,0.4v1.5l2.1,0.4c0.8,0.2,1,0.5,1,1.4
			v9.8c0,4.5,2.2,7.2,5.9,7.2c2.4,0,4.8-1.4,6.4-3.6v3.6h0.6l6.1-0.9v-1L657.7,175.1z M631.6,175.3c-2.1,0-3.2-1.1-3.2-3.3v-12.6
			h6.4v-2.1h-6.4V151l-3.7,1.1v5.2h-2.8v2.1h2.8V173c0,2.8,2.2,4.9,5.4,4.9c2.6,0,5-1.2,6.6-3.4l-1.1-1.4
			C634.2,174.6,633,175.3,631.6,175.3 M618,175.1c-0.9-0.4-1-0.6-1-1.4v-16.5h-0.6l-6.1,0.4v1.5l2.1,0.4c0.8,0.2,1,0.5,1,1.4v11.7
			c-1.5,1.7-3.2,2.5-4.9,2.5c-2.5,0-3.8-1.6-3.8-4.7v-13.2H604l-6.1,0.4v1.5l2.1,0.4c0.8,0.2,1,0.5,1,1.4v9.8c0,4.5,2.2,7.2,5.9,7.2
			c2.4,0,4.8-1.4,6.4-3.6v3.6h0.6l6.1-0.9v-1L618,175.1z M591.2,174.7v-15.3h4.9v-2.1h-4.9v-4c0-3.3,1.5-5.4,3.6-5.4
			c0.6,0,1.1,0.1,2,0.9c0.9,0.7,1.3,0.9,1.9,0.9c1.2,0,2-0.7,2-1.9c0-1.5-1.5-2.5-3.9-2.5c-5.1,0-9.3,4.5-9.3,10.1v1.9h-3.2v2.1h3.2
			v15.4c0,0.7-0.3,0.8-2.8,0.8v1.8h10.6v-1.8c-1.2,0-1.8,0-2.3,0C591.6,175.5,591.2,175.4,591.2,174.7 M563.7,174.7v-10.3
			c1.5-2.2,3.2-3.9,4.2-4c0.3,0,0.6,0.1,1.2,0.6c0.7,0.6,1,0.7,1.5,0.7c1.4,0,2.3-0.9,2.3-2.3c0-1.5-1.1-2.6-2.8-2.6
			c-2,0-4.4,2.3-6.4,5.7v-5.7h-0.6l-6.1,1.8v0.9l2,0.9c0.9,0.4,1,0.6,1,1.4v13c0,0.7-0.3,0.8-2.8,0.8v1.8h10.6v-1.8
			c-1.2,0-1.8,0-2.3,0C564.1,175.5,563.7,175.4,563.7,174.7 M552.8,175.1c-0.9-0.4-1-0.6-1-1.4v-16.5h-0.6l-6.1,0.4v1.5l2.1,0.4
			c0.8,0.2,1,0.5,1,1.4v11.7c-1.5,1.7-3.2,2.5-4.9,2.5c-2.5,0-3.8-1.6-3.8-4.7v-13.2h-0.6l-6.1,0.4v1.5l2.1,0.4c0.8,0.2,1,0.5,1,1.4
			v9.8c0,4.5,2.2,7.2,5.9,7.2c2.4,0,4.8-1.4,6.4-3.6v3.6h0.6l6.1-0.9v-1L552.8,175.1z M515.4,167.3c0-5.4,2-8.4,5.4-8.4
			s5.4,3,5.4,8.4s-2,8.4-5.4,8.4S515.4,172.7,515.4,167.3 M530.2,167.3c0-6.1-4-10.5-9.4-10.5s-9.4,4.4-9.4,10.5s4,10.5,9.4,10.5
			C526.2,177.9,530.2,173.5,530.2,167.3"/>
		<path class="st0" d="M729.6,124.9H720c0.5-3.7,2.6-6,5.3-6C728.2,118.9,729.6,120.8,729.6,124.9 M726.4,135.3
			c-3.9,0-6.5-3.3-6.5-8.4v-0.1h13.3v-1.4c0-5.3-2.8-8.6-7.7-8.6c-2.6,0-5.1,1.2-6.8,3.4c-1.6,2-2.5,4.6-2.5,7.3
			c0,6.1,4,10.3,9.3,10.3c3.4,0,6.4-1.7,7.7-4.6l-1.6-1.1C730.1,134.4,728.6,135.3,726.4,135.3 M697.9,134.8v-12.6
			c1.5-1.5,3.4-2.5,5.2-2.5c2.6,0,3.9,1.6,3.9,4.7v10.4c0,0.7-0.3,0.8-2.8,0.8v1.8h9.3v-1.8c-2.5,0-2.8-0.1-2.8-0.8V124
			c0-4.5-2.1-7.2-5.8-7.2c-2.5,0-5.3,1.6-7,3.8v-3.8h-0.6l-6.1,1.8v0.9l2,0.9c0.9,0.4,1,0.6,1,1.4v13c0,0.7-0.3,0.8-2.8,0.8v1.8h9.3
			v-1.8C698.2,135.6,697.9,135.5,697.9,134.8 M679.5,135.6v1.8h9.3v-1.8c-2.5,0-2.8-0.1-2.8-0.8v-18h-0.6l-6.1,1.8v0.9l2,0.9
			c0.9,0.4,1,0.6,1,1.4v13C682.3,135.5,682,135.6,679.5,135.6 M686.8,109.6c0-1.5-1.2-2.7-2.7-2.7s-2.7,1.2-2.7,2.7s1.2,2.7,2.7,2.7
			S686.8,111.1,686.8,109.6 M649.3,134.8v-12.6c1.5-1.6,3.3-2.5,4.9-2.5c2.5,0,3.7,1.5,3.7,4.7v10.4c0,0.7-0.3,0.8-2.8,0.8v1.8h9.3
			v-1.8c-2.5,0-2.8-0.1-2.8-0.8V124c0-0.6-0.1-1.2-0.1-1.8c1.5-1.6,3.4-2.6,5.1-2.6c2.5,0,3.7,1.5,3.7,4.7v10.4
			c0,0.7-0.3,0.8-2.8,0.8v1.8h9.3v-1.8c-2.5,0-2.8-0.1-2.8-0.8V124c0-4.6-1.9-7.2-5.6-7.2c-2.4,0-5.1,1.5-7.1,4
			c-0.7-2.7-2.5-4-5.2-4c-2.4,0-5,1.6-6.7,3.8v-3.8h-0.6l-6.1,1.8v0.9l2,0.9c0.9,0.4,1,0.6,1,1.4v13c0,0.7-0.3,0.8-2.8,0.8v1.8h9.3
			v-1.8C649.6,135.6,649.3,135.5,649.3,134.8 M631.5,134.7v-10.3c1.5-2.2,3.2-3.9,4.2-4c0.3,0,0.6,0.1,1.2,0.6
			c0.7,0.6,1,0.7,1.5,0.7c1.4,0,2.3-0.9,2.3-2.3c0-1.5-1.1-2.6-2.8-2.6c-2,0-4.4,2.3-6.4,5.7v-5.7h-0.6l-6.1,1.8v0.9l2,0.9
			c0.9,0.4,1,0.6,1,1.4v13c0,0.7-0.3,0.8-2.8,0.8v1.8h10.6v-1.8c-1.2,0-1.8,0-2.3,0C631.8,135.5,631.5,135.4,631.5,134.7
			 M617.9,124.9h-9.6c0.5-3.7,2.6-6,5.3-6C616.5,118.9,617.9,120.8,617.9,124.9 M614.7,135.3c-3.9,0-6.5-3.3-6.5-8.4v-0.1h13.3v-1.4
			c0-5.3-2.8-8.6-7.7-8.6c-2.6,0-5.1,1.2-6.8,3.4c-1.6,2-2.5,4.6-2.5,7.3c0,6.1,4,10.3,9.3,10.3c3.4,0,6.4-1.7,7.7-4.6l-1.6-1.1
			C618.3,134.4,616.9,135.3,614.7,135.3 M597.5,135.3c-2.1,0-3.2-1.1-3.2-3.3v-12.6h6.4v-2.1h-6.4V111l-3.7,1.1v5.2h-2.8v2.1h2.8
			V133c0,2.8,2.2,4.9,5.4,4.9c2.6,0,5-1.2,6.6-3.4l-1.1-1.4C600.1,134.6,598.9,135.3,597.5,135.3 M581.3,124.9h-9.6
			c0.5-3.7,2.6-6,5.3-6C579.9,118.9,581.2,120.8,581.3,124.9 M578,135.3c-3.9,0-6.5-3.3-6.5-8.4v-0.1h13.3v-1.4
			c0-5.3-2.8-8.6-7.7-8.6c-2.6,0-5.1,1.2-6.8,3.4c-1.6,2-2.5,4.6-2.5,7.3c0,6.1,4,10.3,9.3,10.3c3.4,0,6.4-1.7,7.7-4.6l-1.6-1.1
			C581.7,134.4,580.3,135.3,578,135.3 M558.4,121.2v11.3c-1.5,1.8-3.1,2.6-4.9,2.6c-3.4,0-5.6-3.2-5.6-7.9c0-5,2.4-8.4,6.1-8.4
			C556,118.9,557.6,119.7,558.4,121.2 M563.1,135.1c-0.9-0.4-1-0.6-1-1.4v-28.5h-0.6l-6.1,1.8v0.9l2,0.9c0.9,0.4,1,0.6,1,1.4v8.5
			c-1.2-1.1-3.1-1.8-4.9-1.8c-5.5,0-9.4,4.6-9.4,11.3c0,5.6,3.4,9.8,8,9.8c2.4,0,4.9-1.6,6.3-3.8v3.8h0.6l6.1-0.9V136L563.1,135.1z
			 M527.5,124.9h-9.6c0.5-3.7,2.6-6,5.3-6C526,118.9,527.4,120.8,527.5,124.9 M524.2,135.3c-3.9,0-6.5-3.3-6.5-8.4v-0.1H531v-1.4
			c0-5.3-2.8-8.6-7.7-8.6c-2.6,0-5.1,1.2-6.8,3.4c-1.6,2-2.5,4.6-2.5,7.3c0,6.1,4,10.3,9.3,10.3c3.4,0,6.4-1.7,7.7-4.6l-1.6-1.1
			C527.9,134.4,526.5,135.3,524.2,135.3 M500.9,137.6h2.6l7.7-25.4c0.3-1,0.9-1.3,3.7-1.3V109h-10.3v1.9c3.2,0,4,0.2,4,0.8
			c0,0.2,0,0.4-0.2,0.9l-5.5,19.3h-0.2l-6.5-22.9h-2.3l-6.3,22.8h-0.2l-5.5-19.3c-0.2-0.6-0.2-0.6-0.2-0.8c0-0.6,0.9-0.8,4-0.8V109
			h-11.8v1.9c2.8,0,3.4,0.3,3.7,1.3l7.7,25.4h2.6l6.4-22h0.2L500.9,137.6z"/>
		<path class="st7" d="M689.4,81.3l-2.9-5h-2l4,6.6v4.4h1.9V83l4-6.6h-2L689.4,81.3z M674.1,81.9c0,3.4,2.2,5.7,5,5.7
			c2.5,0,4.1-1.4,4.5-3.7h-1.8c-0.4,1.2-1.2,2-2.7,2c-2,0-3.1-1.7-3.1-4s1.2-4,3.1-4c1.5,0,2.2,0.8,2.7,2h1.8
			c-0.4-2.2-2-3.7-4.5-3.7C676.3,76.2,674.1,78.5,674.1,81.9 M668.1,78.7l1.5,4.1h-3L668.1,78.7z M667.2,76.4L663,87.5h1.9l1.1-3.1
			h4.2l1.1,3.1h1.9L669,76.4H667.2z M652.4,81.9c0,3.4,2.2,5.7,5,5.7c2.5,0,4.1-1.4,4.5-3.7h-1.8c-0.4,1.2-1.2,2-2.7,2
			c-2,0-3.1-1.7-3.1-4s1.2-4,3.1-4c1.5,0,2.2,0.8,2.7,2h1.8c-0.4-2.2-2-3.7-4.5-3.7C654.5,76.2,652.4,78.5,652.4,81.9 M648.8,81.9
			c0,2.3-1.3,4-3.2,4s-3.2-1.7-3.2-4s1.3-4,3.2-4S648.8,79.6,648.8,81.9 M650.7,81.9c0-3.3-2.1-5.7-5.1-5.7s-5.1,2.4-5.1,5.7
			c0,3.3,2.1,5.7,5.1,5.7C648.5,87.6,650.7,85.2,650.7,81.9 M635.4,87.4l4.2-11.1h-1.9l-3.1,8.6l-3.1-8.6h-2l4.2,11.1H635.4z
			 M619.4,87.4h3.7c3.3,0,5.4-2.2,5.4-5.5c0-3.4-2.1-5.5-5.4-5.5h-3.7V87.4z M621.3,85.8V78h1.8c2.3,0,3.6,1.5,3.6,3.9
			s-1.2,3.9-3.6,3.9H621.3z M612.3,78.7l1.5,4.1h-3L612.3,78.7z M611.4,76.4l-4.2,11.1h1.9l1.1-3.1h4.2l1.1,3.1h1.9l-4.2-11.1H611.4
			z M592.4,87.4h3.7c3.3,0,5.4-2.2,5.4-5.5c0-3.4-2.1-5.5-5.4-5.5h-3.7V87.4z M594.3,85.8V78h1.8c2.3,0,3.6,1.5,3.6,3.9
			s-1.2,3.9-3.6,3.9H594.3z M582.8,76.4v11.1h7.2v-1.7h-5.4v-3.2h4.9V81h-4.9v-3h5.4v-1.7L582.8,76.4L582.8,76.4z M571.1,81.9
			c0,3.4,2.2,5.7,5,5.7c2.5,0,4.1-1.4,4.5-3.7h-1.8c-0.4,1.2-1.2,2-2.7,2c-2,0-3.1-1.7-3.1-4s1.2-4,3.1-4c1.5,0,2.2,0.8,2.7,2h1.8
			c-0.4-2.2-2-3.7-4.5-3.7C573.3,76.2,571.1,78.5,571.1,81.9 M568.9,76.4h-1.8v7.7l-5.3-7.7H560v11.1h1.8v-8l5.7,8h1.4V76.4z
			 M552.9,78.7l1.5,4.1h-3L552.9,78.7z M552,76.4l-4.2,11.1h1.9l1.1-3.1h4.2l1.1,3.1h1.9l-4.2-11.1H552z M543.9,76.4V81h-5.6v-4.6
			h-1.9v11.1h1.9v-4.8h5.6v4.8h1.9V76.4H543.9z M533.7,76.4h-1.8v7.7l-5.3-7.7h-1.8v11.1h1.8v-8l5.7,8h1.4L533.7,76.4L533.7,76.4z
			 M515.2,76.4v11.1h7.2v-1.7H517v-3.2h4.9V81H517v-3h5.4v-1.7L515.2,76.4L515.2,76.4z"/>
	</g>
	<g>
		<path class="st8" d="M487.8,63.4c-70.2-27.2-140.4-25.2-211.1-0.1"/>
		<polygon class="st9" points="495.6,66.5 484.5,56.7 480.8,66.2 		"/>
		<path class="st8" d="M654.6,515.4c58.1-95.3,56.4-207.7,3.7-305.3"/>
		<polygon class="st9" points="650.2,522.5 661.7,513.3 653.1,508 		"/>
		<path class="st8" d="M88.1,248c-38.5,94-26.3,195.1,30.3,282.2"/>
		<polygon class="st9" points="91.2,240.2 81.3,251.1 90.7,255 		"/>
		<path class="st8" d="M326.4,668.5c44.2,9.1,81.8,6.9,125.8-3.1"/>
		<polygon class="st9" points="318.2,666.8 330.7,674.5 332.8,664.6 		"/>
	</g>
</g>
<g class="st10">
	<path class="st1" d="M309.8,464.1l4.2,11.1h-1.9l-1.1-3.1h-4.2l-1.1,3.1h-1.9l4.2-11.1H309.8z M307.4,470.5h3l-1.5-4.1L307.4,470.5
		z"/>
	<path class="st1" d="M320.7,463.9c2.5,0,4.1,1.4,4.5,3.7h-1.8c-0.4-1.2-1.2-2-2.7-2c-1.9,0-3.1,1.7-3.1,4s1.2,4,3.1,4
		c1.5,0,2.2-0.8,2.7-2h1.8c-0.4,2.2-2,3.7-4.5,3.7c-2.8,0-5-2.3-5-5.7C315.7,466.2,317.8,463.9,320.7,463.9z"/>
	<path class="st1" d="M337.4,464.1v11.1h-1.9v-4.8H330v4.8h-1.9v-11.1h1.9v4.6h5.6v-4.6H337.4z"/>
	<path class="st1" d="M342.8,475.2h-1.9v-11.1h1.9V475.2z"/>
	<path class="st1" d="M353.5,464.1v1.7h-5.4v2.9h4.9v1.6h-4.9v3.2h5.4v1.7h-7.2v-11.1L353.5,464.1L353.5,464.1z"/>
	<path class="st1" d="M360,475.2l-4.2-11.1h2l3.1,8.6l3.1-8.6h1.9l-4.2,11.1H360z"/>
	<path class="st1" d="M375.8,464.1v1.7h-5.4v2.9h4.9v1.6h-4.9v3.2h5.4v1.7h-7.2v-11.1L375.8,464.1L375.8,464.1z"/>
	<path class="st1" d="M385,472.1c0.4,1.1,1.3,1.7,2.5,1.7c1.3,0,2.1-0.6,2.1-1.6c0-0.8-0.5-1.2-1.6-1.5l-1.9-0.5
		c-1.5-0.4-2.8-1.2-2.8-3c0-1.9,1.5-3.3,3.8-3.3c2.4,0,3.8,1.2,4.2,3.1h-1.9c-0.3-0.8-1-1.5-2.3-1.5c-1.2,0-2,0.6-2,1.5
		c0,0.7,0.5,1.2,1.5,1.4l1.9,0.5c1.7,0.4,2.9,1.4,2.9,3.1c0,2.1-1.7,3.3-3.9,3.3c-2.3,0-4-1.2-4.4-3.2H385z"/>
	<path class="st1" d="M394.2,470.7v-6.6h1.9v6.4c0,2.1,0.9,3.1,2.6,3.1s2.6-1,2.6-3.1v-6.4h1.9v6.7c0,3-1.8,4.6-4.4,4.6
		C396,475.3,394.2,473.8,394.2,470.7z"/>
	<path class="st1" d="M410.8,463.9c2.5,0,4.1,1.4,4.5,3.7h-1.8c-0.4-1.2-1.2-2-2.7-2c-1.9,0-3.1,1.7-3.1,4s1.2,4,3.1,4
		c1.5,0,2.2-0.8,2.7-2h1.8c-0.4,2.2-2,3.7-4.5,3.7c-2.8,0-5-2.3-5-5.7C405.8,466.2,408,463.9,410.8,463.9z"/>
	<path class="st1" d="M422.7,463.9c2.5,0,4.1,1.4,4.5,3.7h-1.8c-0.4-1.2-1.2-2-2.7-2c-1.9,0-3.1,1.7-3.1,4s1.2,4,3.1,4
		c1.5,0,2.2-0.8,2.7-2h1.8c-0.4,2.2-2,3.7-4.5,3.7c-2.8,0-5-2.3-5-5.7C417.6,466.2,419.8,463.9,422.7,463.9z"/>
	<path class="st1" d="M437.3,464.1v1.7h-5.4v2.9h4.9v1.6h-4.9v3.2h5.4v1.7h-7.2v-11.1L437.3,464.1L437.3,464.1z"/>
	<path class="st1" d="M441.4,472.1c0.4,1.1,1.3,1.7,2.5,1.7c1.3,0,2.1-0.6,2.1-1.6c0-0.8-0.5-1.2-1.6-1.5l-1.9-0.5
		c-1.5-0.4-2.8-1.2-2.8-3c0-1.9,1.5-3.3,3.8-3.3c2.4,0,3.8,1.2,4.2,3.1h-1.9c-0.3-0.8-1-1.5-2.3-1.5c-1.2,0-2,0.6-2,1.5
		c0,0.7,0.5,1.2,1.5,1.4l1.9,0.5c1.7,0.4,2.9,1.4,2.9,3.1c0,2.1-1.7,3.3-3.9,3.3c-2.3,0-4-1.2-4.4-3.2H441.4z"/>
	<path class="st1" d="M451.9,472.1c0.4,1.1,1.3,1.7,2.5,1.7c1.3,0,2.1-0.6,2.1-1.6c0-0.8-0.5-1.2-1.6-1.5l-1.9-0.5
		c-1.5-0.4-2.8-1.2-2.8-3c0-1.9,1.5-3.3,3.8-3.3c2.4,0,3.8,1.2,4.2,3.1h-1.9c-0.3-0.8-1-1.5-2.3-1.5c-1.2,0-2,0.6-2,1.5
		c0,0.7,0.5,1.2,1.5,1.4l1.9,0.5c1.7,0.4,2.9,1.4,2.9,3.1c0,2.1-1.7,3.3-3.9,3.3c-2.3,0-4-1.2-4.4-3.2H451.9z"/>
</g>
<g class="st10">
	<path class="st4" d="M335.4,326.9h-0.2l-6.4,22h-2.6l-7.7-25.4c-0.3-1-1-1.3-3.7-1.3v-1.9h11.8v1.9c-3.1,0-4,0.2-4,0.8
		c0,0.2,0,0.3,0.2,0.8l5.5,19.3h0.2l6.3-22.8h2.3l6.5,22.9h0.2l5.5-19.3c0.1-0.5,0.2-0.7,0.2-0.9c0-0.6-0.8-0.8-4-0.8v-1.9h10.3v1.9
		c-2.8,0-3.4,0.3-3.7,1.3l-7.7,25.4h-2.6L335.4,326.9z"/>
	<path class="st4" d="M370.5,343.4l1.6,1.1c-1.4,2.8-4.4,4.6-7.7,4.6c-5.3,0-9.3-4.3-9.3-10.3c0-2.8,0.9-5.3,2.5-7.3
		c1.7-2.2,4.2-3.4,6.8-3.4c4.9,0,7.7,3.3,7.7,8.6v1.4h-13.3v0.1c0,5.1,2.6,8.4,6.5,8.4C367.4,346.5,368.8,345.7,370.5,343.4z
		 M364.1,330.1c-2.7,0-4.8,2.3-5.3,6h9.6C368.3,332.1,367,330.1,364.1,330.1z"/>
	<path class="st4" d="M397.3,332.4c-0.9-1.8-1.6-2.1-2.9-2.1c-3.2,0-5.6,3.4-5.6,8.1c0,4.9,2.5,8.2,5.9,8.2c2.3,0,3.9-1,5.4-3.6
		l1.7,1c-1.6,3.3-4.4,5.1-7.8,5.1c-5.2,0-9-4-9-10c0-2.8,0.9-5.5,2.8-7.6c1.9-2.2,4.5-3.5,7.1-3.5c3.4,0,6.3,1.9,6.3,4.1
		c0,1.2-0.9,2-1.9,2C398.5,334.1,397.9,333.8,397.3,332.4z"/>
	<path class="st4" d="M420.7,349.1c-2.1,0-3.7-1.5-4-3.7c-1.6,2.1-4.4,3.7-6.8,3.7c-3,0-5-1.8-5-4.7c0-3.9,3.7-6.4,11.6-8v-2.7
		c0-2.4-1.2-3.7-3.7-3.7c-1.8,0-3.4,0.9-3.4,1.8c0,0.2,0,0.3,0.2,0.6c0.2,0.5,0.2,0.7,0.2,1.1c0,1.2-0.9,2.1-2.1,2.1s-2.2-1-2.2-2.4
		c0-2.9,3.9-5.2,8.3-5.2s6.4,1.8,6.4,5.5v10.7c0,1.3,0.7,2.2,1.8,2.2c0.7,0,1.2-0.2,1.9-0.8l0.6,1.3
		C423.6,348.3,422.1,349.1,420.7,349.1z M416.6,343.9v-5.7c-5.8,1.3-8,2.9-8,5.5c0,1.7,1.1,2.8,2.8,2.8
		C413.2,346.5,414.8,345.7,416.6,343.9z"/>
	<path class="st4" d="M435.2,346.8v1.8h-9.3v-1.8c2.5,0,2.8-0.1,2.8-0.8v-13c0-0.7-0.1-1-1-1.4l-2-0.9v-0.9l6.1-1.8h0.6v3.8
		c1.7-2.2,4.5-3.8,7-3.8c3.7,0,5.8,2.7,5.8,7.2V346c0,0.7,0.3,0.8,2.8,0.8v1.8h-9.3v-1.8c2.5,0,2.8-0.1,2.8-0.8v-10.4
		c0-3.1-1.3-4.7-3.9-4.7c-1.8,0-3.7,1-5.2,2.5V346C432.4,346.7,432.7,346.8,435.2,346.8z"/>
	<path class="st4" d="M295.7,389.9c-2.1,0-3.7-1.5-4-3.7c-1.6,2.1-4.4,3.7-6.8,3.7c-3,0-5-1.8-5-4.7c0-3.9,3.7-6.4,11.6-8v-2.7
		c0-2.4-1.2-3.7-3.7-3.7c-1.8,0-3.4,0.9-3.4,1.8c0,0.2,0,0.3,0.2,0.6c0.2,0.5,0.2,0.7,0.2,1.1c0,1.2-0.9,2.1-2.1,2.1s-2.2-1-2.2-2.4
		c0-2.9,3.9-5.2,8.3-5.2s6.4,1.8,6.4,5.5V385c0,1.3,0.7,2.2,1.8,2.2c0.7,0,1.2-0.2,1.9-0.8l0.6,1.3
		C298.5,389.1,297,389.9,295.7,389.9z M291.5,384.7V379c-5.8,1.3-8,2.9-8,5.5c0,1.7,1.1,2.8,2.8,2.8
		C288.1,387.3,289.8,386.5,291.5,384.7z"/>
	<path class="st4" d="M310.2,387.6v1.8h-9.3v-1.8c2.5,0,2.8-0.1,2.8-0.8v-13c0-0.7-0.1-1-1-1.4l-2-0.9v-0.9l6.1-1.8h0.6v3.8
		c1.7-2.2,4.5-3.8,7-3.8c3.7,0,5.8,2.7,5.8,7.2v10.8c0,0.7,0.3,0.8,2.8,0.8v1.8h-9.3v-1.8c2.5,0,2.8-0.1,2.8-0.8v-10.4
		c0-3.1-1.3-4.7-3.9-4.7c-1.8,0-3.7,1-5.2,2.5v12.6C307.4,387.5,307.6,387.6,310.2,387.6z"/>
	<path class="st4" d="M346.7,388v0.9l-6.1,0.9H340V386c-1.4,2.2-3.9,3.8-6.3,3.8c-4.7,0-8-4.2-8-9.8c0-6.7,3.9-11.3,9.4-11.3
		c1.8,0,3.8,0.8,4.9,1.8V362c0-0.7-0.1-1-1-1.4l-2-0.9V359l6.1-1.8h0.6v28.5c0,0.7,0.1,1,1,1.4L346.7,388z M335.7,370.9
		c-3.7,0-6.1,3.4-6.1,8.4c0,4.7,2.2,7.9,5.6,7.9c1.8,0,3.4-0.8,4.9-2.6v-11.3C339.2,371.7,337.6,370.9,335.7,370.9z"/>
	<path class="st4" d="M380,389.7h-2.1l-4.9-15.1h-0.2l-4.8,15.1h-2.1l-5.9-17.8c-0.2-0.7-0.6-0.8-2.7-0.8v-1.8h9.1v1.8
		c-2.5,0.1-2.7,0.2-2.7,0.6c0,0.1,0,0.3,0.2,0.6l3.7,12.1h0.2l4.8-15.2h2.1l4.9,15.2h0.2l3.9-12.2c0.1-0.3,0.2-0.5,0.2-0.6
		c0-0.4-0.2-0.4-2.7-0.6v-1.8h7.5v1.8c-2,0-2.4,0.1-2.6,0.8L380,389.7z"/>
	<path class="st4" d="M405.7,384.2l1.6,1.1c-1.4,2.8-4.4,4.6-7.7,4.6c-5.3,0-9.3-4.3-9.3-10.3c0-2.8,0.9-5.3,2.5-7.3
		c1.7-2.2,4.2-3.4,6.8-3.4c4.9,0,7.7,3.3,7.7,8.6v1.4H394v0.1c0,5.1,2.6,8.4,6.5,8.4C402.6,387.3,404.1,386.5,405.7,384.2z
		 M399.4,370.9c-2.7,0-4.8,2.3-5.3,6h9.6C403.6,372.9,402.2,370.9,399.4,370.9z"/>
	<path class="st4" d="M441.3,389.7h-2.1l-4.9-15.1H434l-4.8,15.1h-2.1l-5.9-17.8c-0.2-0.7-0.6-0.8-2.7-0.8v-1.8h9.1v1.8
		c-2.5,0.1-2.7,0.2-2.7,0.6c0,0.1,0,0.3,0.2,0.6l3.7,12.1h0.2l4.8-15.2h2.1l4.9,15.2h0.2l3.9-12.2c0.1-0.3,0.2-0.5,0.2-0.6
		c0-0.4-0.2-0.4-2.7-0.6v-1.8h7.5v1.8c-2,0-2.4,0.1-2.6,0.8L441.3,389.7z"/>
	<path class="st4" d="M454.3,386.8v-13c0-0.7-0.1-1-1-1.4l-2-0.9v-0.9l6.1-1.8h0.6v18c0,0.7,0.3,0.8,2.8,0.8v1.8h-9.3v-1.8
		C454,387.6,454.3,387.5,454.3,386.8z M456,364.4c-1.5,0-2.7-1.2-2.7-2.7s1.2-2.7,2.7-2.7s2.7,1.2,2.7,2.7
		C458.7,363.2,457.5,364.4,456,364.4z"/>
	<path class="st4" d="M466,386.8v-24.6c0-0.7-0.1-1-1-1.4l-2-0.9V359l6.1-1.8h0.6v29.6c0,0.7,0.3,0.8,2.8,0.8v1.8h-9.3v-1.8
		C465.7,387.6,466,387.5,466,386.8z"/>
	<path class="st4" d="M477.9,386.8v-24.6c0-0.7-0.1-1-1-1.4l-2-0.9V359l6.1-1.8h0.6v29.6c0,0.7,0.3,0.8,2.8,0.8v1.8h-9.3v-1.8
		C477.7,387.6,477.9,387.5,477.9,386.8z"/>
</g>
<g class="st10">
	<path class="st1" d="M319.2,234.5v-11.1h7.1v1.7H321v3.3h4.8v1.6H321v4.5H319.2z"/>
	<path class="st1" d="M329,230.1v-6.6h1.9v6.4c0,2.1,0.9,3.1,2.6,3.1s2.6-1,2.6-3.1v-6.4h1.9v6.7c0,3-1.8,4.6-4.4,4.6
		C330.8,234.7,329,233.1,329,230.1z"/>
	<path class="st1" d="M350.1,234.5h-1.4l-5.7-8v8h-1.8v-11.1h1.8l5.3,7.7v-7.7h1.8L350.1,234.5L350.1,234.5z"/>
	<path class="st1" d="M353.6,223.4h3.7c3.3,0,5.4,2.2,5.4,5.5c0,3.3-2.1,5.5-5.4,5.5h-3.7V223.4z M357.3,232.8
		c2.3,0,3.6-1.5,3.6-3.9s-1.2-3.9-3.6-3.9h-1.8v7.7L357.3,232.8L357.3,232.8z"/>
	<path class="st1" d="M370.4,223.4l4.2,11.1h-1.9l-1.1-3.1h-4.2l-1.1,3.1h-1.9l4.2-11.1H370.4z M367.9,229.8h3l-1.5-4.1L367.9,229.8
		z"/>
	<path class="st1" d="M382.1,234.5l-3-7.7v7.7h-1.8v-11.1h2.1l3.4,8.5l3.3-8.5h2.1v11.1h-1.8v-7.7l-3,7.7H382.1z"/>
	<path class="st1" d="M398.9,223.4v1.7h-5.4v2.9h4.9v1.6h-4.9v3.2h5.4v1.7h-7.2v-11.1H398.9z"/>
	<path class="st1" d="M411,234.5h-1.4l-5.7-8v8h-1.8v-11.1h1.8l5.3,7.7v-7.7h1.8L411,234.5L411,234.5z"/>
	<path class="st1" d="M413.8,223.4h9.2v1.7h-3.7v9.4h-1.9v-9.4h-3.7v-1.7H413.8z"/>
	<path class="st1" d="M430,223.4l4.2,11.1h-1.9l-1.1-3.1H427l-1.1,3.1H424l4.2-11.1H430z M427.5,229.8h3l-1.5-4.1L427.5,229.8z"/>
	<path class="st1" d="M436.9,223.4h1.9v9.4h5.3v1.7h-7.2L436.9,223.4L436.9,223.4z"/>
	<path class="st1" d="M301.2,252.9c0,2.1-1.4,3.2-3.7,3.2h-4.2V245h3.9c2.3,0,3.7,1,3.7,3c0,1.2-0.6,2.1-1.4,2.3
		C300.5,250.7,301.2,251.7,301.2,252.9z M297.1,249.7c1.3,0,2-0.5,2-1.5s-0.7-1.5-2-1.5h-2v3H297.1z M295.1,254.5h2.4
		c1.3,0,1.9-0.6,1.9-1.6s-0.7-1.6-1.9-1.6h-2.4V254.5z"/>
	<path class="st1" d="M309.2,245l4.2,11.1h-1.9l-1.1-3.1h-4.2l-1.1,3.1h-1.9l4.2-11.1H309.2z M306.7,251.4h3l-1.5-4.1L306.7,251.4z"
		/>
	<path class="st1" d="M320,244.9c2.5,0,4.1,1.4,4.5,3.7h-1.8c-0.4-1.2-1.2-2-2.7-2c-1.9,0-3.1,1.7-3.1,4s1.2,4,3.1,4
		c1.5,0,2.2-0.8,2.7-2h1.8c-0.4,2.2-2,3.7-4.5,3.7c-2.8,0-5-2.3-5-5.7C315,247.2,317.2,244.9,320,244.9z"/>
	<path class="st1" d="M329.3,250.3l4.6-5.3h2.4l-4.5,5l4.6,6h-2.3l-3.6-4.7l-1.1,1.3v3.4h-1.9v-11h1.9v5.3H329.3z"/>
	<path class="st1" d="M343.5,252v-1.6h4.2v0.9c0,3.1-2,5-4.7,5c-3,0-5.2-2.3-5.2-5.7c0-3.4,2.3-5.7,5.1-5.7c2.5,0,4.1,1.4,4.5,3.6
		h-1.9c-0.5-1.2-1.2-1.9-2.7-1.9c-2,0-3.2,1.7-3.2,4s1.3,4.1,3.3,4.1c1.7,0,2.7-1.1,2.9-2.6L343.5,252L343.5,252z"/>
	<path class="st1" d="M352.5,251.6v4.5h-1.9V245h4.3c2.3,0,3.8,1.2,3.8,3.3c0,1.9-1.1,2.9-2.8,3.2l3.2,4.6H357l-3.1-4.5H352.5z
		 M352.5,250h2.4c1.2,0,1.9-0.7,1.9-1.7s-0.7-1.7-1.9-1.7h-2.4V250z"/>
	<path class="st1" d="M366.2,256.3c-3,0-5.1-2.4-5.1-5.7c0-3.3,2.1-5.7,5.1-5.7s5.1,2.4,5.1,5.7
		C371.3,253.9,369.2,256.3,366.2,256.3z M366.2,246.5c-1.9,0-3.2,1.7-3.2,4s1.3,4,3.2,4c1.9,0,3.2-1.7,3.2-4
		S368.1,246.5,366.2,246.5z"/>
	<path class="st1" d="M374,251.7V245h1.9v6.4c0,2.1,0.9,3.1,2.6,3.1s2.6-1,2.6-3.1V245h1.9v6.7c0,3-1.8,4.6-4.4,4.6
		C375.8,256.3,374,254.7,374,251.7z"/>
	<path class="st1" d="M395.1,256.1h-1.4l-5.7-8v8h-1.8V245h1.8l5.3,7.7V245h1.8L395.1,256.1L395.1,256.1z"/>
	<path class="st1" d="M398.7,245h3.7c3.3,0,5.4,2.2,5.4,5.5s-2.1,5.5-5.4,5.5h-3.7V245z M402.3,254.4c2.3,0,3.6-1.5,3.6-3.9
		s-1.2-3.9-3.6-3.9h-1.8v7.7L402.3,254.4L402.3,254.4z"/>
	<path class="st1" d="M423.7,252.9c0,2.1-1.4,3.2-3.7,3.2h-4.2V245h3.9c2.3,0,3.7,1,3.7,3c0,1.2-0.6,2.1-1.4,2.3
		C423,250.7,423.7,251.7,423.7,252.9z M419.6,249.7c1.3,0,2-0.5,2-1.5s-0.7-1.5-2-1.5h-2v3H419.6z M417.6,254.5h2.4
		c1.3,0,1.9-0.6,1.9-1.6s-0.7-1.6-1.9-1.6h-2.4V254.5z"/>
	<path class="st1" d="M434,245v1.7h-5.4v2.9h4.9v1.6h-4.9v3.2h5.4v1.7h-7.2V245H434z"/>
	<path class="st1" d="M437.1,245h1.9v9.4h5.3v1.7h-7.2L437.1,245L437.1,245z"/>
	<path class="st1" d="M449.1,256.1h-1.9V245h1.9V256.1z"/>
	<path class="st1" d="M459.9,245v1.7h-5.4v2.9h4.9v1.6h-4.9v3.2h5.4v1.7h-7.2V245H459.9z"/>
	<path class="st1" d="M463,256.1V245h7.1v1.7h-5.2v3.3h4.8v1.6h-4.8v4.5H463z"/>
</g>
</svg>
