<?xml version="1.0" encoding="utf-8"?>
<!-- Generator: Adobe Illustrator 22.1.0, SVG Export Plug-In . SVG Version: 6.00 Build 0)  -->
<svg version="1.1" id="Layer_1" xmlns="http://www.w3.org/2000/svg" xmlns:xlink="http://www.w3.org/1999/xlink" x="0px" y="0px"
	 viewBox="0 0 750 750" style="enable-background:new 0 0 750 750;" xml:space="preserve">
<style type="text/css">
	.st0{fill:#78B0BD;}
	.st1{enable-background:new    ;}
	.st2{fill:#FFFFFF;}
	.st3{clip-path:url(#SVGID_2_);fill:#78B0BD;}
	.st4{clip-path:url(#SVGID_4_);fill:#78B0BD;}
	.st5{clip-path:url(#SVGID_6_);fill:#78B0BD;}
	.st6{clip-path:url(#SVGID_8_);fill:#78B0BD;}
	.st7{clip-path:url(#SVGID_10_);fill:#78B0BD;}
	.st8{clip-path:url(#SVGID_12_);fill:#78B0BD;}
	.st9{clip-path:url(#SVGID_14_);fill:#78B0BD;}
	.st10{clip-path:url(#SVGID_16_);fill:#78B0BD;}
	.st11{clip-path:url(#SVGID_18_);fill:#78B0BD;}
	.st12{clip-path:url(#SVGID_20_);fill:#78B0BD;}
	.st13{clip-path:url(#SVGID_22_);fill:none;stroke:#BCC9D6;stroke-width:2;}
	.st14{clip-path:url(#SVGID_24_);fill:#BCC9D6;}
	.st15{clip-path:url(#SVGID_26_);fill:none;stroke:#BCC9D6;stroke-width:2;}
	.st16{clip-path:url(#SVGID_28_);fill:#BCC9D6;}
	.st17{clip-path:url(#SVGID_30_);fill:none;stroke:#BCC9D6;stroke-width:2;}
	.st18{clip-path:url(#SVGID_32_);fill:#BCC9D6;}
	.st19{clip-path:url(#SVGID_34_);fill:none;stroke:#BCC9D6;stroke-width:2;}
	.st20{clip-path:url(#SVGID_36_);fill:#BCC9D6;}
	.st21{fill:#C9E0E4;}
</style>
<path class="st0" d="M381.7,536.8c98.3,0,178-79.7,178-178s-79.7-178-178-178s-178,79.7-178,178S283.4,536.8,381.7,536.8"/>
<g class="st1">
	<path class="st2" d="M290.4,346.2V328c0-1-0.5-1.1-3.9-1.1V325h10.2v1.9c-3.4,0-3.9,0.1-3.9,1.1v25.7h-2.1l-16.2-25.1h-0.2v21.8
		c0,1,0.5,1.1,3.9,1.1v1.9H268v-1.9c3.4,0,3.9-0.1,3.9-1.1V328c0-1-0.5-1.2-3.9-1.1V325h8.9l13.3,21.2H290.4z"/>
	<path class="st2" d="M308.6,353.8c-5.4,0-9.4-4.4-9.4-10.5s4-10.5,9.4-10.5s9.4,4.4,9.4,10.5S314,353.8,308.6,353.8z M308.6,351.6
		c3.4,0,5.4-3,5.4-8.4s-2-8.4-5.4-8.4s-5.4,3-5.4,8.4S305.2,351.6,308.6,351.6z"/>
	<path class="st2" d="M334.5,349l1.1,1.4c-1.5,2.1-4,3.4-6.6,3.4c-3.2,0-5.4-2-5.4-4.9v-13.7h-2.8v-2.1h2.8V328l3.7-1.1v6.2h6.4v2.1
		h-6.4v12.6c0,2.2,1.1,3.3,3.2,3.3C332,351.2,333.2,350.5,334.5,349z"/>
	<path class="st2" d="M346.6,351.5v1.8h-9.3v-1.8c2.5,0,2.8-0.1,2.8-0.8v-24.6c0-0.7-0.1-1-1-1.4l-2-0.9v-0.9l6.1-1.8h0.6v15.4
		c1.7-2.2,4.5-3.8,7-3.8c3.7,0,5.8,2.7,5.8,7.2v10.8c0,0.7,0.3,0.8,2.8,0.8v1.8h-9.3v-1.8c2.5,0,2.8-0.1,2.8-0.8v-10.4
		c0-3.1-1.3-4.7-3.9-4.7c-1.8,0-3.7,1-5.2,2.5v12.6C343.8,351.4,344,351.5,346.6,351.5z"/>
	<path class="st2" d="M364.8,350.7v-13c0-0.7-0.1-1-1-1.4l-2-0.9v-0.9l6.1-1.8h0.6v18c0,0.7,0.3,0.8,2.8,0.8v1.8H362v-1.8
		C364.5,351.5,364.8,351.4,364.8,350.7z M366.6,328.2c-1.5,0-2.7-1.2-2.7-2.7s1.2-2.7,2.7-2.7s2.7,1.2,2.7,2.7
		C369.3,327,368.1,328.2,366.6,328.2z"/>
	<path class="st2" d="M383.2,351.5v1.8H374v-1.8c2.5,0,2.8-0.1,2.8-0.8v-13c0-0.7-0.1-1-1-1.4l-2-0.9v-0.9l6.1-1.8h0.6v3.8
		c1.7-2.2,4.5-3.8,7-3.8c3.7,0,5.8,2.7,5.8,7.2v10.8c0,0.7,0.3,0.8,2.8,0.8v1.8h-9.3v-1.8c2.5,0,2.8-0.1,2.8-0.8v-10.4
		c0-3.1-1.3-4.7-3.9-4.7c-1.8,0-3.7,1-5.2,2.5v12.6C380.5,351.4,380.7,351.5,383.2,351.5z"/>
	<path class="st2" d="M418.6,355.4c0,4.5-4.9,7.5-11.5,7.5c-5.9,0-9.5-2-9.5-5.5c0-2,1.9-3.6,4.9-4.1c-1.7-0.6-2.8-2-2.8-3.5
		c0-1.8,1.2-3.3,3.6-4.3c-2.4-1.2-3.8-3.4-3.8-5.9c0-3.7,3.7-6.9,8.1-6.9c2.2,0,4.4,0.9,6,2.4c1.9-2.4,3.2-3.2,4.5-3.2
		c1.6,0,2.6,0.9,2.6,2.5c0,1.2-1,2.2-2.1,2.2c-0.7,0-1.1-0.2-1.8-0.9c-0.4-0.5-0.5-0.5-0.7-0.5c-0.5,0-1.1,0.3-1.7,0.9
		c0.7,1.1,1.2,2.3,1.2,3.5c0,3.7-3.7,6.9-8,6.9c-1.1,0-2.1-0.1-2.9-0.4c-2,1-2.6,1.6-2.6,2.7c0,0.9,0.7,1.5,1.6,1.5h8.1
		C416.1,350.2,418.6,352.1,418.6,355.4z M415.3,356.4c0-1.9-1.1-2.6-4-2.6h-7.7c-1.8,0.7-2.7,1.8-2.7,3.4c0,2.4,2.5,3.7,6.5,3.7
		C412,360.8,415.3,359,415.3,356.4z M407.5,334.6c-2.6,0-4.2,1.9-4.2,5s1.6,5,4.2,5c2.5,0,4.2-1.9,4.2-5S410.1,334.6,407.5,334.6z"
		/>
	<path class="st2" d="M452.2,353.6h-2.1l-4.9-15.1H445l-4.8,15.1H438l-5.9-17.8c-0.2-0.7-0.6-0.8-2.7-0.8v-1.8h9.1v1.8
		c-2.5,0.1-2.7,0.2-2.7,0.6c0,0.1,0,0.3,0.2,0.6l3.7,12.1h0.2l4.8-15.2h2.1l4.9,15.2h0.2l3.9-12.2c0.1-0.3,0.2-0.5,0.2-0.6
		c0-0.4-0.2-0.4-2.7-0.6v-1.8h7.5v1.8c-2,0-2.4,0.1-2.6,0.8L452.2,353.6z"/>
	<path class="st2" d="M465.2,350.7v-13c0-0.7-0.1-1-1-1.4l-2-0.9v-0.9l6.1-1.8h0.6v18c0,0.7,0.3,0.8,2.8,0.8v1.8h-9.3v-1.8
		C465,351.5,465.2,351.4,465.2,350.7z M467,328.2c-1.5,0-2.7-1.2-2.7-2.7s1.2-2.7,2.7-2.7s2.7,1.2,2.7,2.7S468.5,328.2,467,328.2z"
		/>
	<path class="st2" d="M477,350.7v-24.6c0-0.7-0.1-1-1-1.4l-2-0.9v-0.9l6.1-1.8h0.6v29.6c0,0.7,0.3,0.8,2.8,0.8v1.8h-9.3v-1.8
		C476.7,351.5,477,351.4,477,350.7z"/>
	<path class="st2" d="M488.9,350.7v-24.6c0-0.7-0.1-1-1-1.4l-2-0.9v-0.9l6.1-1.8h0.6v29.6c0,0.7,0.3,0.8,2.8,0.8v1.8h-9.3v-1.8
		C488.7,351.5,488.9,351.4,488.9,350.7z"/>
	<path class="st2" d="M328.8,377.9c-0.9-1.8-1.6-2.1-2.9-2.1c-3.2,0-5.6,3.4-5.6,8.1c0,4.9,2.5,8.2,5.9,8.2c2.3,0,3.9-1,5.4-3.6
		l1.7,1c-1.6,3.3-4.4,5.1-7.8,5.1c-5.2,0-9-4-9-10c0-2.8,0.9-5.5,2.8-7.6c1.9-2.2,4.5-3.5,7.1-3.5c3.4,0,6.3,1.9,6.3,4.1
		c0,1.2-0.9,2-1.9,2C330,379.6,329.5,379.3,328.8,377.9z"/>
	<path class="st2" d="M345.1,392.3v1.8h-9.3v-1.8c2.5,0,2.8-0.1,2.8-0.8v-24.6c0-0.7-0.1-1-1-1.4l-2-0.9v-0.9l6.1-1.8h0.6v15.4
		c1.7-2.2,4.5-3.8,7-3.8c3.7,0,5.8,2.7,5.8,7.2v10.8c0,0.7,0.3,0.8,2.8,0.8v1.8h-9.3v-1.8c2.5,0,2.8-0.1,2.8-0.8V381
		c0-3.1-1.3-4.7-3.9-4.7c-1.8,0-3.7,1-5.2,2.5v12.6C342.3,392.2,342.6,392.3,345.1,392.3z"/>
	<path class="st2" d="M376.8,394.6c-2.1,0-3.7-1.5-4-3.7c-1.6,2.1-4.4,3.7-6.8,3.7c-3,0-5-1.8-5-4.7c0-3.9,3.7-6.4,11.6-8v-2.7
		c0-2.4-1.2-3.7-3.7-3.7c-1.8,0-3.4,0.9-3.4,1.8c0,0.2,0,0.3,0.2,0.6c0.2,0.5,0.2,0.7,0.2,1.1c0,1.2-0.9,2.1-2.1,2.1s-2.2-1-2.2-2.4
		c0-2.9,3.9-5.2,8.3-5.2s6.4,1.8,6.4,5.5v10.7c0,1.3,0.7,2.2,1.8,2.2c0.7,0,1.2-0.2,1.9-0.8l0.6,1.3
		C379.6,393.8,378.1,394.6,376.8,394.6z M372.6,389.4v-5.7c-5.8,1.3-8,2.9-8,5.5c0,1.7,1.1,2.8,2.8,2.8
		C369.2,392,370.9,391.2,372.6,389.4z"/>
	<path class="st2" d="M391.3,392.3v1.8H382v-1.8c2.5,0,2.8-0.1,2.8-0.8v-13c0-0.7-0.1-1-1-1.4l-2-0.9v-0.9l6.1-1.8h0.6v3.8
		c1.7-2.2,4.5-3.8,7-3.8c3.7,0,5.8,2.7,5.8,7.2v10.8c0,0.7,0.3,0.8,2.8,0.8v1.8h-9.3v-1.8c2.5,0,2.8-0.1,2.8-0.8V381
		c0-3.1-1.3-4.7-3.9-4.7c-1.8,0-3.7,1-5.2,2.5v12.6C388.5,392.2,388.7,392.3,391.3,392.3z"/>
	<path class="st2" d="M426.6,396.2c0,4.5-4.9,7.5-11.5,7.5c-5.9,0-9.5-2-9.5-5.5c0-2,1.9-3.6,4.9-4.1c-1.7-0.6-2.8-2-2.8-3.5
		c0-1.8,1.2-3.3,3.6-4.3c-2.4-1.2-3.8-3.4-3.8-5.9c0-3.7,3.7-6.9,8.1-6.9c2.2,0,4.4,0.9,6,2.4c1.9-2.4,3.2-3.2,4.5-3.2
		c1.6,0,2.6,0.9,2.6,2.5c0,1.2-1,2.2-2.1,2.2c-0.7,0-1.1-0.2-1.8-0.9c-0.4-0.5-0.5-0.5-0.7-0.5c-0.5,0-1.1,0.3-1.7,0.9
		c0.7,1.1,1.2,2.3,1.2,3.5c0,3.7-3.7,6.9-8,6.9c-1.1,0-2.1-0.1-2.9-0.4c-2,1-2.6,1.6-2.6,2.7c0,0.9,0.7,1.5,1.6,1.5h8.1
		C424.1,391,426.6,392.9,426.6,396.2z M423.3,397.2c0-1.9-1.1-2.6-4-2.6h-7.7c-1.8,0.7-2.7,1.8-2.7,3.4c0,2.4,2.5,3.7,6.5,3.7
		C420,401.6,423.3,399.8,423.3,397.2z M415.6,375.4c-2.6,0-4.2,1.9-4.2,5s1.6,5,4.2,5c2.5,0,4.2-1.9,4.2-5
		C419.7,377.3,418.1,375.4,415.6,375.4z"/>
	<path class="st2" d="M445.3,388.9l1.6,1.1c-1.4,2.8-4.4,4.6-7.7,4.6c-5.3,0-9.3-4.3-9.3-10.3c0-2.8,0.9-5.3,2.5-7.3
		c1.7-2.2,4.2-3.4,6.8-3.4c4.9,0,7.7,3.3,7.7,8.6v1.4h-13.3v0.1c0,5.1,2.6,8.4,6.5,8.4C442.2,392,443.6,391.1,445.3,388.9z
		 M438.9,375.6c-2.7,0-4.8,2.3-5.3,6h9.6C443.1,377.5,441.8,375.6,438.9,375.6z"/>
</g>
<g>
	<g>
		<g>
			<g>
				<defs>
					<rect id="SVGID_1_" x="38.5" y="42.1" width="695.1" height="633.9"/>
				</defs>
				<clipPath id="SVGID_2_">
					<use xlink:href="#SVGID_1_"  style="overflow:visible;"/>
				</clipPath>
				<path class="st3" d="M716.9,602.1v-4.2l3.3-3.1l4.9,6.7c0.4,0.6,0.4,0.6,0.4,0.8c0,0.5-0.5,0.6-2.5,0.6v1.8h10.5v-1.8
					c-2.6,0-3.4-0.2-4-1.1l-6.9-9.2l5.8-5.3c0.7-0.6,1.3-0.8,3.7-0.8v-1.8h-10v1.8c2.5,0,3.3,0.1,3.3,0.7c0,0.2-0.1,0.4-0.4,0.7
					l-8.2,7.8v-23.1h-0.6l-6.1,1.8v0.9l2,0.9c0.9,0.4,1,0.6,1,1.4v24.6c0,0.7-0.3,0.8-2.8,0.8v1.8h9.3V603
					C717.1,602.9,716.9,602.8,716.9,602.1 M699.2,602v-10.3c1.5-2.2,3.2-3.9,4.2-4c0.3,0,0.6,0.1,1.2,0.6c0.7,0.6,1,0.7,1.5,0.7
					c1.4,0,2.3-0.9,2.3-2.3c0-1.5-1.1-2.6-2.8-2.6c-2,0-4.4,2.3-6.4,5.7v-5.7h-0.6l-6.1,1.8v0.9l2,0.9c0.9,0.4,1,0.6,1,1.4v13
					c0,0.7-0.3,0.8-2.8,0.8v1.8h10.6v-1.8c-1.2,0-1.8,0-2.3,0C699.6,602.8,699.2,602.7,699.2,602 M674.5,594.6c0-5.4,2-8.4,5.4-8.4
					s5.4,3,5.4,8.4s-2,8.4-5.4,8.4S674.5,600,674.5,594.6 M689.3,594.6c0-6.1-4-10.5-9.4-10.5s-9.4,4.4-9.4,10.5s4,10.5,9.4,10.5
					C685.3,605.2,689.3,600.8,689.3,594.6 M666.2,587.2c0.2-0.7,0.6-0.8,2.6-0.8v-1.8h-7.5v1.8c2.5,0.1,2.7,0.2,2.7,0.6
					c0,0.1,0,0.3-0.2,0.6l-3.9,12.2h-0.2l-4.9-15.2h-2.1l-4.8,15.2h-0.2l-3.7-12.1c-0.1-0.3-0.2-0.5-0.2-0.6c0-0.4,0.2-0.4,2.7-0.6
					v-1.8h-9.1v1.8c2.1,0,2.5,0.1,2.7,0.8l5.9,17.8h2.1l4.8-15.1h0.2l4.9,15.1h2.2L666.2,587.2z M622.8,602.6
					c-2.1,0-3.2-1.1-3.2-3.3v-12.6h6.4v-2.1h-6.4v-6.2l-3.7,1.1v5.2h-2.8v2.1h2.8v13.7c0,2.8,2.2,4.9,5.4,4.9c2.6,0,5-1.2,6.6-3.4
					l-1.1-1.4C625.4,601.9,624.2,602.6,622.8,602.6 M603.1,582.8l0.4,1.5c4.1-0.6,6.6-3.5,6.6-7.6c0-2.5-1.3-4.3-3.2-4.3
					c-1.7,0-2.8,1-2.8,2.6c0,1,0.3,1.6,1.9,2.4c1.1,0.6,1.3,0.9,1.3,1.4C607.3,580.8,606,582,603.1,582.8 M587,602.1v-12.6
					c1.5-1.5,3.4-2.5,5.2-2.5c2.6,0,3.9,1.6,3.9,4.7v10.4c0,0.7-0.3,0.8-2.8,0.8v1.8h9.3v-1.8c-2.5,0-2.8-0.1-2.8-0.8v-10.8
					c0-4.5-2.1-7.2-5.8-7.2c-2.5,0-5.3,1.6-7,3.8v-3.8h-0.6l-6.1,1.8v0.9l2,0.9c0.9,0.4,1,0.6,1,1.4v13c0,0.7-0.3,0.8-2.8,0.8v1.8
					h9.3v-1.8C587.3,602.9,587,602.8,587,602.1 M574.4,590.8h1.5v-5.1c-2-1.1-3.8-1.6-5.8-1.6c-4.1,0-7.3,2.7-7.3,6.3
					c0,1.7,0.6,3,2,3.9c0.8,0.6,1.7,1,4.2,1.8c4,1.2,4.8,2.1,4.8,3.7c0,2-1.8,3.4-4.3,3.4c-3.3,0-5.1-1.6-5.8-5.1H562l0.4,5.3
					c2.2,1.2,4.5,1.9,6.7,1.9c4.6,0,8-2.7,8-6.4c0-1.8-0.6-3.1-2.1-4.1c-0.9-0.6-1.8-1-4.4-1.8c-4-1.2-4.7-2-4.7-3.4
					c0-1.9,1.5-3.2,3.8-3.2C572.5,586.2,573.9,587.5,574.4,590.8 M555,592.2h-9.6c0.5-3.7,2.6-6,5.3-6
					C553.6,586.2,554.9,588.1,555,592.2 M551.8,602.6c-3.9,0-6.5-3.3-6.5-8.4v-0.1h13.3v-1.4c0-5.3-2.8-8.6-7.7-8.6
					c-2.6,0-5.1,1.2-6.8,3.4c-1.6,2-2.5,4.6-2.5,7.3c0,6.1,4,10.3,9.3,10.3c3.4,0,6.4-1.7,7.7-4.6l-1.6-1.1
					C555.4,601.7,554,602.6,551.8,602.6 M523.3,594.6c0-5.4,2-8.4,5.4-8.4s5.4,3,5.4,8.4s-2,8.4-5.4,8.4S523.3,600,523.3,594.6
					 M538.1,594.6c0-6.1-4-10.5-9.4-10.5s-9.4,4.4-9.4,10.5s4,10.5,9.4,10.5C534.1,605.2,538.1,600.8,538.1,594.6 M509.9,588.5v11.3
					c-1.5,1.8-3.1,2.6-4.9,2.6c-3.4,0-5.6-3.2-5.6-7.9c0-5,2.5-8.4,6.1-8.4C507.5,586.2,509,587,509.9,588.5 M514.6,602.4
					c-0.9-0.4-1-0.6-1-1.4v-28.5H513l-6.1,1.8v0.9l2,0.9c0.9,0.4,1,0.6,1,1.4v8.5c-1.2-1.1-3.1-1.8-4.9-1.8c-5.5,0-9.4,4.6-9.4,11.3
					c0,5.6,3.4,9.8,8,9.8c2.4,0,4.9-1.6,6.3-3.8v3.8h0.6l6.1-0.9v-0.9L514.6,602.4z M479.1,602.6c-2.1,0-3.2-1.1-3.2-3.3v-12.6h6.4
					v-2.1h-6.4v-6.2l-3.7,1.1v5.2h-2.8v2.1h2.8v13.7c0,2.8,2.2,4.9,5.4,4.9c2.6,0,5-1.2,6.6-3.4l-1.1-1.4
					C481.7,601.9,480.4,602.6,479.1,602.6 M463.1,601.7v-22.4c0-1,0.5-1.1,3.9-1.1v-1.9h-11.8v1.9c3.4,0,3.9,0.1,3.9,1.1v22.4
					c0,1-0.5,1.1-3.9,1.1v1.9H467v-1.9C463.5,602.8,463.1,602.7,463.1,601.7"/>
			</g>
		</g>
		<g>
			<g>
				<defs>
					<rect id="SVGID_3_" x="38.5" y="42.1" width="695.1" height="633.9"/>
				</defs>
				<clipPath id="SVGID_4_">
					<use xlink:href="#SVGID_3_"  style="overflow:visible;"/>
				</clipPath>
				<path class="st4" d="M711.4,551.7c0.4,2.1,2.1,3.2,4.4,3.2c2.3,0,3.9-1.3,3.9-3.3c0-1.7-1.1-2.7-2.9-3.1L715,548
					c-1-0.2-1.5-0.7-1.5-1.4c0-0.9,0.8-1.5,2-1.5c1.3,0,2,0.6,2.3,1.5h1.9c-0.4-1.8-1.8-3.1-4.2-3.1c-2.2,0-3.8,1.4-3.8,3.3
					c0,1.8,1.2,2.6,2.8,3l1.9,0.5c1.2,0.3,1.6,0.7,1.6,1.5c0,1-0.8,1.6-2.1,1.6c-1.2,0-2.1-0.5-2.5-1.7L711.4,551.7L711.4,551.7z
					 M709.5,543.7h-1.8v7.7l-5.3-7.7h-1.8v11.1h1.8v-8l5.7,8h1.4L709.5,543.7L709.5,543.7z M696.5,549.2c0,2.3-1.3,4-3.2,4
					s-3.2-1.7-3.2-4s1.3-4,3.2-4S696.5,546.9,696.5,549.2 M698.4,549.2c0-3.3-2.1-5.7-5.1-5.7s-5.1,2.4-5.1,5.7s2.1,5.7,5.1,5.7
					C696.3,554.9,698.4,552.5,698.4,549.2 M686,543.7h-1.9v11.1h1.9V543.7z M672.7,545.3h3.7v9.4h1.9v-9.4h3.7v-1.7h-9.2v1.7H672.7z
					 M666.4,554.9c2.6,0,4.4-1.5,4.4-4.6v-6.7h-1.9v6.4c0,2.1-0.9,3.1-2.6,3.1s-2.6-1-2.6-3.1v-6.4h-1.9v6.6
					C661.9,553.4,663.7,554.9,666.4,554.9 M650.8,545.3h3.7v9.4h1.9v-9.4h3.7v-1.7h-9.2v1.7H650.8z M648.7,543.7h-1.9v11.1h1.9
					V543.7z M635.5,545.3h3.7v9.4h1.9v-9.4h3.7v-1.7h-9.2v1.7H635.5z M625.7,551.7c0.4,2.1,2.1,3.2,4.4,3.2c2.3,0,3.9-1.3,3.9-3.3
					c0-1.7-1.1-2.7-2.9-3.1l-1.9-0.5c-1-0.2-1.5-0.7-1.5-1.4c0-0.9,0.8-1.5,2-1.5c1.3,0,2,0.6,2.3,1.5h1.9c-0.4-1.8-1.8-3.1-4.2-3.1
					c-2.2,0-3.8,1.4-3.8,3.3c0,1.8,1.2,2.6,2.8,3l1.9,0.5c1.2,0.3,1.6,0.7,1.6,1.5c0,1-0.8,1.6-2.1,1.6c-1.2,0-2.1-0.5-2.5-1.7
					H625.7z M623.8,543.7H622v7.7l-5.3-7.7h-1.8v11.1h1.8v-8l5.7,8h1.4L623.8,543.7L623.8,543.7z M612.1,543.7h-1.9v11.1h1.9V543.7z
					 M601.9,550.6c-0.2,1.5-1.2,2.6-2.9,2.6c-2.1,0-3.3-1.7-3.3-4.1c0-2.3,1.3-4,3.2-4c1.5,0,2.2,0.8,2.7,1.9h1.9
					c-0.4-2.2-2-3.6-4.5-3.6c-2.9,0-5.1,2.3-5.1,5.7s2.2,5.7,5.2,5.7c2.7,0,4.7-2,4.7-5V549h-4.2v1.6H601.9z M591.6,543.7h-1.8v7.7
					l-5.3-7.7h-1.8v11.1h1.8v-8l5.7,8h1.4L591.6,543.7L591.6,543.7z M578.6,549.2c0,2.3-1.3,4-3.2,4s-3.2-1.7-3.2-4s1.3-4,3.2-4
					S578.6,546.9,578.6,549.2 M580.5,549.2c0-3.3-2.1-5.7-5.1-5.7s-5.1,2.4-5.1,5.7s2.1,5.7,5.1,5.7
					C578.3,554.9,580.5,552.5,580.5,549.2 M562.4,545.3h2.4c1.2,0,1.9,0.7,1.9,1.7s-0.7,1.7-1.9,1.7h-2.4V545.3z M563.7,550.2
					l3.1,4.5h2.1l-3.2-4.6c1.7-0.3,2.8-1.3,2.8-3.2c0-2.2-1.5-3.3-3.8-3.3h-4.3v11.1h1.9v-4.5H563.7z M549.2,545.3h3.7v9.4h1.9v-9.4
					h3.7v-1.7h-9.2v1.7H549.2z M539.5,551.7c0.4,2.1,2.1,3.2,4.4,3.2c2.3,0,3.9-1.3,3.9-3.3c0-1.7-1.1-2.7-2.9-3.1L543,548
					c-1-0.2-1.5-0.7-1.5-1.4c0-0.9,0.8-1.5,2-1.5c1.3,0,2,0.6,2.3,1.5h1.9c-0.4-1.8-1.8-3.1-4.2-3.1c-2.2,0-3.8,1.4-3.8,3.3
					c0,1.8,1.2,2.6,2.8,3l1.9,0.5c1.2,0.3,1.6,0.7,1.6,1.5c0,1-0.8,1.6-2.1,1.6c-1.2,0-2.1-0.5-2.5-1.7L539.5,551.7L539.5,551.7z
					 M528.6,554.7v-4.5h4.8v-1.6h-4.8v-3.3h5.2v-1.7h-7.1v11.1H528.6z M522.6,549.2c0,2.3-1.3,4-3.2,4s-3.2-1.7-3.2-4s1.3-4,3.2-4
					S522.6,546.9,522.6,549.2 M524.5,549.2c0-3.3-2.1-5.7-5.1-5.7s-5.1,2.4-5.1,5.7s2.1,5.7,5.1,5.7S524.5,552.5,524.5,549.2
					 M501.6,543.7h-1.9v11.1h1.9v-3.4l1.1-1.3l3.6,4.7h2.3l-4.6-6l4.5-5h-2.4l-4.6,5.3v-5.4L501.6,543.7L501.6,543.7z M488,549.2
					c0,3.4,2.2,5.7,5,5.7c2.5,0,4.1-1.4,4.5-3.7h-1.8c-0.4,1.2-1.2,2-2.7,2c-2,0-3.1-1.7-3.1-4s1.2-4,3.1-4c1.5,0,2.2,0.8,2.7,2h1.8
					c-0.4-2.2-2-3.7-4.5-3.7C490.2,543.5,488,545.8,488,549.2 M481.9,546l1.5,4.1h-3L481.9,546z M481.1,543.7l-4.2,11.1h1.9l1.1-3.1
					h4.2l1.1,3.1h1.9l-4.2-11.1H481.1z M468.2,554.7h7.2V553h-5.3v-9.4h-1.9L468.2,554.7L468.2,554.7z"/>
			</g>
		</g>
		<g>
			<g>
				<defs>
					<rect id="SVGID_5_" x="38.5" y="42.1" width="695.1" height="633.9"/>
				</defs>
				<clipPath id="SVGID_6_">
					<use xlink:href="#SVGID_5_"  style="overflow:visible;"/>
				</clipPath>
				<path class="st5" d="M224,641.6v-10.3c1.5-2.2,3.2-3.9,4.2-4c0.3,0,0.6,0.1,1.2,0.6c0.7,0.6,1,0.7,1.5,0.7
					c1.4,0,2.3-0.9,2.3-2.3c0-1.5-1.1-2.6-2.8-2.6c-2,0-4.4,2.3-6.4,5.7v-5.7h-0.6l-6.1,1.8v0.9l2,0.9c0.9,0.4,1,0.6,1,1.4v13
					c0,0.7-0.3,0.8-2.8,0.8v1.8H228v-1.8c-1.2,0-1.8,0-2.3,0C224.3,642.4,224,642.3,224,641.6 M210.4,631.8h-9.6
					c0.5-3.7,2.6-6,5.3-6C208.9,625.8,210.3,627.8,210.4,631.8 M207.1,642.2c-3.9,0-6.5-3.3-6.5-8.4v-0.1H214v-1.4
					c0-5.3-2.8-8.6-7.7-8.6c-2.6,0-5.1,1.2-6.8,3.4c-1.6,2-2.5,4.6-2.5,7.3c0,6.1,4,10.3,9.3,10.3c3.4,0,6.4-1.7,7.7-4.6l-1.6-1.1
					C210.8,641.4,209.4,642.2,207.1,642.2 M190,642.2c-2.2,0-3.2-1.1-3.2-3.3v-12.6h6.4v-2.1h-6.4V618l-3.7,1.1v5.2h-2.8v2.1h2.8
					v13.7c0,2.8,2.2,4.9,5.4,4.9c2.6,0,5-1.2,6.6-3.4l-1.1-1.4C192.6,641.6,191.4,642.2,190,642.2 M173.9,642.2
					c-2.1,0-3.2-1.1-3.2-3.3v-12.6h6.4v-2.1h-6.4V618l-3.7,1v5.2h-2.8v2.1h2.8V640c0,2.8,2.2,4.9,5.4,4.9c2.6,0,5-1.2,6.6-3.4
					l-1.1-1.4C176.5,641.6,175.3,642.2,173.9,642.2 M150.1,642.2c-1.7,0-2.8-1.1-2.8-2.8c0-2.6,2.2-4.1,8-5.5v5.7
					C153.7,641.4,152,642.2,150.1,642.2 M163.4,642.8l-0.6-1.3c-0.7,0.6-1.2,0.8-1.9,0.8c-1,0-1.8-0.9-1.8-2.2v-10.7
					c0-3.7-2-5.5-6.4-5.5s-8.3,2.4-8.3,5.2c0,1.4,1,2.4,2.2,2.4s2.1-0.9,2.1-2.1c0-0.3,0-0.6-0.2-1.1c-0.2-0.3-0.2-0.5-0.2-0.6
					c0-1,1.5-1.8,3.4-1.8c2.4,0,3.7,1.3,3.7,3.7v2.7c-7.9,1.6-11.6,4.2-11.6,8c0,2.8,2,4.7,5,4.7c2.4,0,5.2-1.5,6.8-3.7
					c0.3,2.2,1.9,3.7,4,3.7C160.9,644.8,162.4,644,163.4,642.8 M113.1,641.7v-12.6c1.5-1.6,3.3-2.5,4.9-2.5c2.5,0,3.7,1.5,3.7,4.7
					v10.4c0,0.7-0.3,0.8-2.8,0.8v1.8h9.3v-1.8c-2.5,0-2.8-0.1-2.8-0.8v-10.8c0-0.6-0.1-1.2-0.1-1.8c1.5-1.6,3.4-2.6,5.1-2.6
					c2.5,0,3.7,1.5,3.7,4.7v10.4c0,0.7-0.3,0.8-2.8,0.8v1.8h9.3v-1.8c-2.5,0-2.8-0.1-2.8-0.8v-10.8c0-4.6-1.9-7.2-5.6-7.2
					c-2.4,0-5.1,1.5-7.1,4c-0.7-2.7-2.5-4-5.2-4c-2.4,0-5,1.6-6.7,3.8v-3.8h-0.6l-6.1,1.8v0.9l2,0.9c0.9,0.4,1,0.6,1,1.4v13
					c0,0.7-0.3,0.8-2.8,0.8v1.8h9.3v-1.8C113.4,642.5,113.1,642.4,113.1,641.7"/>
			</g>
		</g>
		<g>
			<g>
				<defs>
					<rect id="SVGID_7_" x="38.5" y="42.1" width="695.1" height="633.9"/>
				</defs>
				<clipPath id="SVGID_8_">
					<use xlink:href="#SVGID_7_"  style="overflow:visible;"/>
				</clipPath>
				<path class="st6" d="M251.1,602.2c-2.1,0-3.2-1.1-3.2-3.3v-12.6h6.4v-2.1h-6.4V578l-3.7,1.1v5.2h-2.8v2.1h2.8v13.7
					c0,2.8,2.2,4.9,5.4,4.9c2.6,0,5-1.2,6.6-3.4l-1.1-1.4C253.8,601.6,252.5,602.2,251.1,602.2 M231.5,582.5l0.4,1.5
					c4.1-0.6,6.6-3.5,6.6-7.6c0-2.5-1.3-4.3-3.2-4.3c-1.7,0-2.8,1-2.8,2.6c0,1,0.3,1.6,1.9,2.4c1.1,0.6,1.3,0.9,1.3,1.4
					C235.7,580.4,234.3,581.6,231.5,582.5 M215.3,601.7v-12.6c1.5-1.5,3.4-2.5,5.2-2.5c2.6,0,3.9,1.6,3.9,4.7v10.4
					c0,0.7-0.3,0.8-2.8,0.8v1.8h9.3v-1.8c-2.5,0-2.8-0.1-2.8-0.8v-10.8c0-4.5-2.1-7.2-5.8-7.2c-2.5,0-5.3,1.6-7,3.8v-3.8h-0.6
					l-6.1,1.8v0.9l2,0.9c0.9,0.4,1,0.6,1,1.4v13c0,0.7-0.3,0.8-2.8,0.8v1.8h9.3v-1.8C215.6,602.5,215.3,602.4,215.3,601.7
					 M202.8,590.4h1.5v-5.1c-2-1.1-3.8-1.6-5.8-1.6c-4.1,0-7.3,2.7-7.3,6.3c0,1.7,0.6,3,2,3.9c0.8,0.6,1.7,1,4.2,1.8
					c4,1.2,4.8,2.1,4.8,3.7c0,2-1.8,3.4-4.3,3.4c-3.3,0-5.1-1.6-5.8-5.1h-1.7l0.4,5.3c2.2,1.2,4.5,1.9,6.7,1.9c4.6,0,8-2.7,8-6.4
					c0-1.8-0.6-3.1-2.1-4.1c-0.9-0.6-1.8-1-4.4-1.8c-4-1.2-4.7-2-4.7-3.4c0-1.9,1.5-3.2,3.8-3.2
					C200.8,585.8,202.3,587.2,202.8,590.4 M183.3,591.8h-9.6c0.5-3.7,2.6-6,5.3-6C181.9,585.8,183.3,587.8,183.3,591.8 M180.1,602.2
					c-3.9,0-6.5-3.3-6.5-8.4v-0.1h13.3v-1.4c0-5.3-2.8-8.6-7.7-8.6c-2.6,0-5.1,1.2-6.8,3.4c-1.6,2-2.5,4.6-2.5,7.3
					c0,6.1,4,10.3,9.3,10.3c3.4,0,6.4-1.7,7.7-4.6l-1.6-1.1C183.7,601.4,182.3,602.2,180.1,602.2 M151.6,594.3c0-5.4,2-8.4,5.4-8.4
					s5.4,3,5.4,8.4s-2,8.4-5.4,8.4S151.6,599.6,151.6,594.3 M166.4,594.3c0-6.1-4-10.5-9.4-10.5s-9.4,4.4-9.4,10.5s4,10.5,9.4,10.5
					S166.4,600.4,166.4,594.3 M138.2,588.1v11.3c-1.5,1.8-3.1,2.6-4.9,2.6c-3.4,0-5.6-3.2-5.6-7.9c0-5,2.4-8.4,6.1-8.4
					C135.8,585.8,137.4,586.6,138.2,588.1 M142.9,602.1c-0.9-0.4-1-0.6-1-1.4v-28.5h-0.6l-6.1,1.8v0.9l2,0.9c0.9,0.4,1,0.6,1,1.4
					v8.5c-1.2-1.1-3.1-1.8-4.9-1.8c-5.5,0-9.4,4.6-9.4,11.3c0,5.6,3.4,9.8,8,9.8c2.4,0,4.9-1.6,6.3-3.8v3.8h0.6l6.1-0.9V603
					L142.9,602.1z M107.4,602.2c-2.1,0-3.2-1.1-3.2-3.3v-12.6h6.4v-2.1h-6.4V578l-3.7,1.1v5.2h-2.8v2.1h2.8v13.7
					c0,2.8,2.2,4.9,5.4,4.9c2.6,0,5-1.2,6.6-3.4l-1.1-1.4C110,601.6,108.8,602.2,107.4,602.2 M91.4,601.4V579c0-1,0.5-1.1,3.9-1.1
					V576H83.5v1.9c3.4,0,3.9,0.1,3.9,1.1v22.4c0,1-0.5,1.1-3.9,1.1v1.9h11.8v-1.9C91.9,602.5,91.4,602.4,91.4,601.4"/>
			</g>
		</g>
		<g>
			<g>
				<defs>
					<rect id="SVGID_9_" x="38.5" y="42.1" width="695.1" height="633.9"/>
				</defs>
				<clipPath id="SVGID_10_">
					<use xlink:href="#SVGID_9_"  style="overflow:visible;"/>
				</clipPath>
				<path class="st7" d="M257,548.3l-2.9-4.9h-2l4,6.6v4.4h1.9V550l4-6.6h-2L257,548.3z M241.6,545h3.7v9.4h1.9V545h3.7v-1.7h-9.2
					v1.7H241.6z M239.5,543.3h-1.9v11.1h1.9V543.3z M234.8,543.3H233v7.7l-5.3-7.7h-1.8v11.1h1.8v-8l5.7,8h1.4V543.3z M218.8,554.6
					c2.6,0,4.4-1.5,4.4-4.6v-6.7h-1.9v6.4c0,2.1-0.9,3.1-2.6,3.1c-1.7,0-2.6-1-2.6-3.1v-6.4h-1.9v6.6
					C214.4,553,216.2,554.6,218.8,554.6 M203.3,545h3.7v9.4h1.9V545h3.7v-1.7h-9.2L203.3,545L203.3,545z M195.6,544.9h2.4
					c1.2,0,1.9,0.7,1.9,1.7s-0.7,1.7-1.9,1.7h-2.4V544.9z M197,549.9l3.1,4.5h2.1l-3.2-4.6c1.7-0.3,2.8-1.3,2.8-3.2
					c0-2.2-1.5-3.3-3.8-3.3h-4.3v11.1h1.9v-4.5H197z M189.7,548.8c0,2.3-1.3,4-3.2,4s-3.2-1.7-3.2-4s1.3-4,3.2-4
					S189.7,546.5,189.7,548.8 M191.6,548.8c0-3.3-2.1-5.7-5.1-5.7s-5.1,2.4-5.1,5.7s2.1,5.7,5.1,5.7
					C189.4,554.6,191.6,552.1,191.6,548.8 M178,546.8c0,1.1-0.7,1.8-2,1.8h-2.4v-3.7h2.4C177.3,544.9,178,545.7,178,546.8
					 M176,550.3c2.3,0,3.8-1.2,3.8-3.5s-1.5-3.5-3.8-3.5h-4.3v11.1h1.9v-4.1H176z M167.8,546.8c0,1.1-0.7,1.8-2,1.8h-2.4v-3.7h2.4
					C167.1,544.9,167.8,545.7,167.8,546.8 M165.9,550.3c2.3,0,3.8-1.2,3.8-3.5s-1.5-3.5-3.8-3.5h-4.3v11.1h1.9v-4.1H165.9z
					 M157.5,548.8c0,2.3-1.3,4-3.2,4s-3.2-1.7-3.2-4s1.3-4,3.2-4S157.5,546.5,157.5,548.8 M159.4,548.8c0-3.3-2.1-5.7-5.1-5.7
					s-5.1,2.4-5.1,5.7s2.1,5.7,5.1,5.7S159.4,552.1,159.4,548.8 M138,554.4v-4.5h4.8v-1.6H138V545h5.2v-1.7h-7.1v11.1L138,554.4
					L138,554.4z M132.1,548.8c0,2.3-1.3,4-3.2,4s-3.2-1.7-3.2-4s1.3-4,3.2-4S132.1,546.5,132.1,548.8 M134,548.8
					c0-3.3-2.1-5.7-5.1-5.7s-5.1,2.4-5.1,5.7s2.1,5.7,5.1,5.7C131.8,554.6,134,552.1,134,548.8 M111,543.3h-1.9v11.1h1.9V551
					l1.1-1.3l3.6,4.7h2.3l-4.6-6l4.5-5h-2.4l-4.6,5.3L111,543.3L111,543.3z M97.5,548.8c0,3.4,2.2,5.7,5,5.7c2.5,0,4.1-1.4,4.5-3.7
					h-1.8c-0.4,1.2-1.2,2-2.7,2c-2,0-3.1-1.7-3.1-4s1.2-4,3.1-4c1.5,0,2.2,0.8,2.7,2h1.8c-0.4-2.2-2-3.7-4.5-3.7
					C99.7,543.1,97.5,545.4,97.5,548.8 M91.4,545.6l1.5,4.1h-3L91.4,545.6z M90.5,543.3l-4.2,11.1h1.9l1.1-3.1h4.2l1.1,3.1h1.9
					l-4.2-11.1H90.5z M77.7,554.4h7.2v-1.7h-5.3v-9.4h-1.9C77.7,543.3,77.7,554.4,77.7,554.4z"/>
			</g>
		</g>
		<g>
			<g>
				<defs>
					<rect id="SVGID_11_" x="38.5" y="42.1" width="695.1" height="633.9"/>
				</defs>
				<clipPath id="SVGID_12_">
					<use xlink:href="#SVGID_11_"  style="overflow:visible;"/>
				</clipPath>
				<path class="st8" d="M221.7,184.3v-12.6c1.5-1.5,3.4-2.5,5.2-2.5c2.6,0,3.9,1.6,3.9,4.7v10.4c0,0.7-0.3,0.8-2.8,0.8v1.8h9.3
					v-1.8c-2.5,0-2.8-0.1-2.8-0.8v-10.8c0-4.5-2.1-7.2-5.8-7.2c-2.5,0-5.3,1.6-7,3.8v-15.4h-0.6l-6.1,1.8v0.9l2,0.9
					c0.9,0.4,1,0.6,1,1.4v24.6c0,0.7-0.3,0.8-2.8,0.8v1.8h9.3v-1.8C222,185.1,221.7,185,221.7,184.3 M201.2,194.4
					c-4,0-6.5-1.3-6.5-3.7c0-1.5,0.9-2.6,2.7-3.4h7.7c2.9,0,4,0.7,4,2.6C209,192.6,205.7,194.4,201.2,194.4 M205.5,173.2
					c0,3.1-1.6,5-4.2,5c-2.6,0-4.2-1.9-4.2-5s1.6-5,4.2-5C203.8,168.2,205.5,170.1,205.5,173.2 M205.5,183.9h-8.1
					c-0.9,0-1.6-0.6-1.6-1.5c0-1,0.6-1.7,2.6-2.7c0.8,0.3,1.8,0.4,2.9,0.4c4.4,0,8-3.1,8-6.9c0-1.2-0.4-2.4-1.2-3.5
					c0.6-0.6,1.2-0.9,1.7-0.9c0.2,0,0.3,0,0.7,0.5c0.6,0.7,1.1,0.9,1.8,0.9c1.1,0,2.1-1,2.1-2.2c0-1.5-1-2.5-2.6-2.5
					c-1.3,0-2.6,0.8-4.5,3.2c-1.6-1.5-3.8-2.4-6-2.4c-4.4,0-8.1,3.1-8.1,6.9c0,2.5,1.4,4.6,3.8,5.9c-2.3,1-3.6,2.5-3.6,4.3
					c0,1.5,1.1,3,2.8,3.5c-2.9,0.6-4.9,2.1-4.9,4.1c0,3.4,3.6,5.5,9.5,5.5c6.6,0,11.5-3,11.5-7.5
					C212.3,185.7,209.8,183.9,205.5,183.9 M188,184.6c-0.9-0.4-1-0.6-1-1.4v-16.5h-0.6l-6.1,0.4v1.5l2.1,0.4c0.8,0.2,1,0.5,1,1.4
					v11.7c-1.5,1.7-3.2,2.5-4.9,2.5c-2.5,0-3.8-1.6-3.8-4.7v-13.2H174l-6.1,0.4v1.5l2.1,0.4c0.8,0.2,1,0.5,1,1.4v9.8
					c0,4.5,2.2,7.2,5.9,7.2c2.4,0,4.8-1.4,6.4-3.6v3.6h0.6l6.1-0.9v-0.9L188,184.6z M150.6,176.9c0-5.4,2-8.4,5.4-8.4s5.4,3,5.4,8.4
					s-2,8.4-5.4,8.4S150.6,182.2,150.6,176.9 M165.4,176.9c0-6.1-4-10.5-9.4-10.5s-9.4,4.4-9.4,10.5s4,10.5,9.4,10.5
					S165.4,183,165.4,176.9 M128.3,184.3v-12.6c1.5-1.5,3.4-2.5,5.2-2.5c2.6,0,3.9,1.6,3.9,4.7v10.4c0,0.7-0.3,0.8-2.8,0.8v1.8h9.3
					v-1.8c-2.5,0-2.8-0.1-2.8-0.8v-10.8c0-4.5-2.1-7.2-5.8-7.2c-2.5,0-5.3,1.6-7,3.8v-3.8h-0.6l-6.1,1.8v0.9l2,0.9
					c0.9,0.4,1,0.6,1,1.4v13c0,0.7-0.3,0.8-2.8,0.8v1.8h9.3v-1.8C128.6,185.1,128.3,185,128.3,184.3 M114.8,174.4h-9.6
					c0.5-3.7,2.6-6,5.3-6C113.3,168.4,114.7,170.4,114.8,174.4 M111.5,184.8c-3.9,0-6.5-3.3-6.5-8.4v-0.1h13.3v-1.4
					c0-5.3-2.8-8.6-7.7-8.6c-2.6,0-5.1,1.2-6.8,3.4c-1.6,2-2.5,4.6-2.5,7.3c0,6.1,4,10.3,9.3,10.3c3.4,0,6.4-1.7,7.7-4.6l-1.6-1.1
					C115.2,183.9,113.8,184.8,111.5,184.8"/>
			</g>
		</g>
		<g>
			<g>
				<defs>
					<rect id="SVGID_13_" x="38.5" y="42.1" width="695.1" height="633.9"/>
				</defs>
				<clipPath id="SVGID_14_">
					<use xlink:href="#SVGID_13_"  style="overflow:visible;"/>
				</clipPath>
				<path class="st9" d="M294.4,134.4h-9.6c0.5-3.7,2.6-6,5.3-6C293,128.4,294.4,130.4,294.4,134.4 M291.2,144.8
					c-3.9,0-6.5-3.3-6.5-8.4v-0.1H298v-1.4c0-5.3-2.8-8.6-7.7-8.6c-2.6,0-5.1,1.2-6.8,3.4c-1.6,2-2.5,4.6-2.5,7.3
					c0,6.1,4,10.3,9.3,10.3c3.4,0,6.4-1.7,7.7-4.6l-1.6-1.1C294.9,143.9,293.4,144.8,291.2,144.8 M274.4,129.2c0,0.1,0,0.3-0.2,0.6
					l-5,13.1H269l-4.7-13.1c-0.1-0.3-0.2-0.5-0.2-0.6c0-0.4,0.2-0.4,2.7-0.6v-1.8h-9.3v1.8c2,0,2.4,0.1,2.7,0.8l7.1,17.8h2.2
					l7.1-17.8c0.3-0.7,0.6-0.8,2.6-0.8v-1.8h-7.6v1.8C274.2,128.7,274.4,128.8,274.4,129.2 M244.6,144.8c-1.7,0-2.8-1.1-2.8-2.8
					c0-2.6,2.2-4.1,8-5.5v5.7C248.2,144,246.5,144.8,244.6,144.8 M257.9,145.4l-0.6-1.3c-0.7,0.6-1.2,0.8-1.9,0.8
					c-1,0-1.8-0.9-1.8-2.2V132c0-3.7-2-5.5-6.4-5.5s-8.3,2.4-8.3,5.2c0,1.4,1,2.4,2.2,2.4s2.1-0.9,2.1-2.1c0-0.3,0-0.6-0.2-1.1
					c-0.2-0.3-0.2-0.5-0.2-0.6c0-1,1.5-1.8,3.4-1.8c2.4,0,3.7,1.3,3.7,3.7v2.7c-7.9,1.6-11.6,4.2-11.6,8c0,2.8,2,4.7,5,4.7
					c2.4,0,5.2-1.5,6.8-3.7c0.3,2.2,1.9,3.7,4,3.7C255.4,147.4,256.9,146.6,257.9,145.4 M219.6,144.3v-12.6c1.5-1.5,3.4-2.5,5.2-2.5
					c2.6,0,3.9,1.6,3.9,4.7v10.4c0,0.7-0.3,0.8-2.8,0.8v1.8h9.3v-1.8c-2.5,0-2.8-0.1-2.8-0.8v-10.8c0-4.5-2.1-7.2-5.8-7.2
					c-2.5,0-5.3,1.6-7,3.8v-15.4H219l-6.1,1.8v0.9l2,0.9c0.9,0.4,1,0.6,1,1.4v24.6c0,0.7-0.3,0.8-2.8,0.8v1.8h9.3v-1.8
					C219.8,145.1,219.6,145,219.6,144.3 M196.9,144.8c-2.2,0-3.2-1.1-3.2-3.3v-12.6h6.4v-2.1h-6.4v-6.2l-3.7,1.1v5.2h-2.8v2.1h2.8
					v13.7c0,2.8,2.2,4.9,5.4,4.9c2.6,0,5-1.2,6.6-3.4l-1.1-1.4C199.5,144.2,198.3,144.8,196.9,144.8 M177.2,125.1l0.4,1.5
					c4.1-0.6,6.6-3.5,6.6-7.6c0-2.5-1.3-4.3-3.2-4.3c-1.7,0-2.8,1-2.8,2.6c0,1,0.3,1.6,1.9,2.4c1.1,0.6,1.3,0.9,1.3,1.4
					C181.4,123,180.1,124.2,177.2,125.1 M161.1,144.3v-12.6c1.5-1.5,3.4-2.5,5.2-2.5c2.6,0,3.9,1.6,3.9,4.7v10.4
					c0,0.7-0.3,0.8-2.8,0.8v1.8h9.3v-1.8c-2.5,0-2.8-0.1-2.8-0.8v-10.8c0-4.5-2.1-7.2-5.8-7.2c-2.5,0-5.3,1.6-7,3.8v-3.8h-0.6
					l-6.1,1.8v0.9l2,0.9c0.9,0.4,1,0.6,1,1.4v13c0,0.7-0.3,0.8-2.8,0.8v1.8h9.3v-1.8C161.4,145.1,161.1,145,161.1,144.3
					 M136.4,136.9c0-5.4,2-8.4,5.4-8.4s5.4,3,5.4,8.4s-2,8.4-5.4,8.4S136.4,142.2,136.4,136.9 M151.2,136.9c0-6.1-4-10.5-9.4-10.5
					s-9.4,4.4-9.4,10.5s4,10.5,9.4,10.5S151.2,143,151.2,136.9 M123,130.7V142c-1.5,1.8-3.1,2.6-4.9,2.6c-3.4,0-5.6-3.2-5.6-7.9
					c0-5,2.4-8.4,6.1-8.4C120.6,128.4,122.1,129.2,123,130.7 M127.7,144.6c-0.9-0.4-1-0.6-1-1.4v-28.5h-0.6l-6.1,1.8v0.9l2,0.9
					c0.9,0.4,1,0.6,1,1.4v8.5c-1.2-1.1-3.1-1.8-4.9-1.8c-5.5,0-9.4,4.6-9.4,11.3c0,5.6,3.4,9.8,8,9.8c2.4,0,4.9-1.6,6.3-3.8v3.8h0.6
					l6.1-0.9v-0.9L127.7,144.6z M92,134.4h-9.6c0.5-3.7,2.6-6,5.3-6C90.6,128.4,91.9,130.4,92,134.4 M88.8,144.8
					c-3.9,0-6.5-3.3-6.5-8.4v-0.1h13.3v-1.4c0-5.3-2.8-8.6-7.7-8.6c-2.6,0-5.1,1.2-6.8,3.4c-1.6,2-2.5,4.6-2.5,7.3
					c0,6.1,4,10.3,9.3,10.3c3.4,0,6.4-1.7,7.7-4.6l-1.6-1.1C92.4,143.9,91,144.8,88.8,144.8 M65.4,147.2H68l7.7-25.4
					c0.3-1,0.9-1.3,3.7-1.3v-1.9H69.2v1.9c3.2,0,4,0.2,4,0.8c0,0.2,0,0.4-0.2,0.9l-5.5,19.3h-0.2l-6.5-22.9h-2.3l-6.3,22.8H52
					l-5.5-19.3c-0.2-0.6-0.2-0.6-0.2-0.8c0-0.6,0.9-0.8,4-0.8v-1.9H38.5v1.9c2.8,0,3.4,0.3,3.7,1.3l7.7,25.4h2.6l6.4-22h0.2
					L65.4,147.2z"/>
			</g>
		</g>
		<g>
			<g>
				<defs>
					<rect id="SVGID_15_" x="38.5" y="42.1" width="695.1" height="633.9"/>
				</defs>
				<clipPath id="SVGID_16_">
					<use xlink:href="#SVGID_15_"  style="overflow:visible;"/>
				</clipPath>
				<path class="st10" d="M242.6,93.9c0.4,2.1,2.1,3.2,4.4,3.2s3.9-1.3,3.9-3.3c0-1.7-1.1-2.7-2.9-3.1l-1.9-0.5
					c-1-0.2-1.5-0.7-1.5-1.4c0-0.9,0.8-1.5,2-1.5c1.3,0,2,0.6,2.3,1.5h1.9c-0.4-1.8-1.8-3.1-4.2-3.1c-2.2,0-3.8,1.4-3.8,3.3
					c0,1.8,1.2,2.6,2.8,3l1.9,0.5c1.2,0.3,1.6,0.7,1.6,1.5c0,1-0.8,1.6-2.1,1.6c-1.2,0-2.1-0.5-2.5-1.7H242.6z M233.9,85.9V97h7.2
					v-1.7h-5.4v-3.2h4.9v-1.6h-4.9v-2.9h5.4v-1.7C241.1,85.9,233.9,85.9,233.9,85.9z M222.2,91.4c0,3.4,2.2,5.7,5,5.7
					c2.5,0,4.1-1.4,4.5-3.7h-1.8c-0.4,1.2-1.2,2-2.7,2c-2,0-3.1-1.7-3.1-4s1.2-4,3.1-4c1.5,0,2.2,0.8,2.7,2h1.8
					c-0.4-2.2-2-3.7-4.5-3.7C224.3,85.7,222.2,88,222.2,91.4 M214.3,87.5h2.4c1.2,0,1.9,0.7,1.9,1.7s-0.7,1.7-1.9,1.7h-2.4V87.5z
					 M215.6,92.5l3.1,4.5h2.1l-3.2-4.6c1.7-0.3,2.8-1.3,2.8-3.2c0-2.2-1.5-3.3-3.8-3.3h-4.3V97h1.9v-4.5H215.6z M205.3,97.1
					c2.6,0,4.4-1.5,4.4-4.6v-6.7h-1.9v6.4c0,2.1-0.9,3.1-2.6,3.1s-2.6-1-2.6-3.1v-6.4h-1.9v6.6C200.9,95.6,202.7,97.1,205.3,97.1
					 M197,91.4c0,2.3-1.3,4-3.2,4s-3.2-1.7-3.2-4s1.3-4,3.2-4S197,89.1,197,91.4 M198.9,91.4c0-3.3-2.1-5.7-5.1-5.7
					s-5.1,2.4-5.1,5.7c0,3.3,2.1,5.7,5.1,5.7C196.8,97.1,198.9,94.7,198.9,91.4 M178.7,93.9c0.4,2.1,2.1,3.2,4.4,3.2
					c2.3,0,3.9-1.3,3.9-3.3c0-1.7-1.1-2.7-2.9-3.1l-1.9-0.5c-1-0.2-1.5-0.7-1.5-1.4c0-0.9,0.8-1.5,2-1.5c1.3,0,2,0.6,2.3,1.5h1.9
					c-0.4-1.8-1.8-3.1-4.2-3.1c-2.2,0-3.8,1.4-3.8,3.3c0,1.8,1.2,2.6,2.8,3l1.9,0.5c1.2,0.3,1.6,0.7,1.6,1.5c0,1-0.8,1.6-2.1,1.6
					c-1.2,0-2.1-0.5-2.5-1.7H178.7z M170,85.9V97h7.2v-1.7h-5.4v-3.2h4.9v-1.6h-4.9v-2.9h5.4v-1.7C177.2,85.9,170,85.9,170,85.9z
					 M161.5,87.5h2.4c1.2,0,1.9,0.7,1.9,1.7s-0.7,1.7-1.9,1.7h-2.4V87.5z M162.8,92.5l3.1,4.5h2.1l-3.2-4.6c1.7-0.3,2.8-1.3,2.8-3.2
					c0-2.2-1.5-3.3-3.8-3.3h-4.3V97h1.9v-4.5H162.8z M147.9,97v-4.5h4.8v-1.6h-4.8v-3.3h5.2v-1.7H146V97H147.9z M141.9,91.4
					c0,2.3-1.3,4-3.2,4s-3.2-1.7-3.2-4s1.3-4,3.2-4S141.9,89.1,141.9,91.4 M143.8,91.4c0-3.3-2.1-5.7-5.1-5.7s-5.1,2.4-5.1,5.7
					c0,3.3,2.1,5.7,5.1,5.7S143.8,94.7,143.8,91.4 M120.9,85.9H119V97h1.9v-3.4l1.1-1.3l3.6,4.7h2.3l-4.6-6l4.5-5h-2.4l-4.6,5.3
					L120.9,85.9L120.9,85.9z M107.3,91.4c0,3.4,2.2,5.7,5,5.7c2.5,0,4.1-1.4,4.5-3.7H115c-0.4,1.2-1.2,2-2.7,2c-2,0-3.1-1.7-3.1-4
					s1.2-4,3.1-4c1.5,0,2.2,0.8,2.7,2h1.8c-0.4-2.2-2-3.7-4.5-3.7C109.5,85.7,107.3,88,107.3,91.4 M101.2,88.2l1.5,4.1h-3
					L101.2,88.2z M100.4,85.9L96.2,97h1.9l1.1-3.1h4.2l1.1,3.1h1.9l-4.2-11.1H100.4z M87.5,97h7.2v-1.7h-5.3v-9.4h-1.9
					C87.5,85.9,87.5,97,87.5,97z"/>
			</g>
		</g>
	</g>
	<g>
		<g>
			<g>
				<defs>
					<rect id="SVGID_17_" x="38.5" y="42.1" width="695.1" height="633.9"/>
				</defs>
				<clipPath id="SVGID_18_">
					<use xlink:href="#SVGID_17_"  style="overflow:visible;"/>
				</clipPath>
				<path class="st11" d="M715.4,133h1.5v-5.1c-2-1.1-3.8-1.6-5.8-1.6c-4.1,0-7.3,2.7-7.3,6.3c0,1.7,0.6,3,2,3.9
					c0.8,0.6,1.7,1,4.2,1.8c4,1.2,4.8,2.1,4.8,3.7c0,2-1.8,3.4-4.3,3.4c-3.3,0-5.1-1.6-5.8-5.1H703l0.4,5.3c2.2,1.2,4.5,1.9,6.7,1.9
					c4.6,0,8-2.7,8-6.4c0-1.8-0.6-3.1-2.1-4.1c-0.9-0.6-1.8-1-4.4-1.8c-4-1.2-4.7-2-4.7-3.4c0-1.9,1.5-3.2,3.8-3.2
					C713.4,128.4,714.8,129.8,715.4,133 M695.9,134.4h-9.6c0.5-3.7,2.6-6,5.3-6C694.5,128.4,695.8,130.4,695.9,134.4 M692.7,144.8
					c-3.9,0-6.5-3.3-6.5-8.4v-0.1h13.3v-1.4c0-5.3-2.8-8.6-7.7-8.6c-2.6,0-5.1,1.2-6.8,3.4c-1.6,2-2.5,4.6-2.5,7.3
					c0,6.1,4,10.3,9.3,10.3c3.4,0,6.4-1.7,7.7-4.6l-1.6-1.1C696.3,143.9,694.9,144.8,692.7,144.8 M671.1,144.2v-10.3
					c1.5-2.2,3.2-3.9,4.2-4c0.3,0,0.6,0.1,1.2,0.6c0.7,0.6,1,0.7,1.5,0.7c1.4,0,2.3-0.9,2.3-2.3c0-1.5-1.1-2.6-2.8-2.6
					c-2,0-4.4,2.3-6.4,5.7v-5.7h-0.6l-6.1,1.8v0.9l2,0.9c0.9,0.4,1,0.6,1,1.4v13c0,0.7-0.3,0.8-2.8,0.8v1.8h10.6v-1.8
					c-1.2,0-1.8,0-2.3,0C671.4,145,671.1,144.9,671.1,144.2 M650,144.8c-1.7,0-2.8-1.1-2.8-2.8c0-2.6,2.2-4.1,8-5.5v5.7
					C653.5,144,651.8,144.8,650,144.8 M663.3,145.4l-0.6-1.3c-0.7,0.6-1.2,0.8-1.9,0.8c-1,0-1.8-0.9-1.8-2.2V132
					c0-3.7-2-5.5-6.4-5.5s-8.3,2.4-8.3,5.2c0,1.4,1,2.4,2.2,2.4s2.1-0.9,2.1-2.1c0-0.3,0-0.6-0.2-1.1c-0.2-0.3-0.2-0.5-0.2-0.6
					c0-1,1.5-1.8,3.4-1.8c2.4,0,3.7,1.3,3.7,3.7v2.7c-7.9,1.6-11.6,4.2-11.6,8c0,2.8,2,4.7,5,4.7c2.4,0,5.2-1.5,6.8-3.7
					c0.3,2.2,1.9,3.7,4,3.7C660.7,147.4,662.2,146.6,663.3,145.4 M637.9,132.4c1.1,0,1.9-0.8,1.9-2c0-2.2-2.9-4.1-6.3-4.1
					c-2.7,0-5.2,1.2-7.1,3.5c-1.8,2.1-2.8,4.7-2.8,7.6c0,6,3.8,10,9,10c3.4,0,6.1-1.8,7.8-5.1l-1.7-1c-1.5,2.5-3.1,3.6-5.4,3.6
					c-3.4,0-5.9-3.2-5.9-8.2c0-4.7,2.5-8.1,5.6-8.1c1.2,0,2,0.3,2.9,2.2C636.6,132.1,637.1,132.4,637.9,132.4 M612.4,128.6v-1.8
					h-7.6v1.8c2.5,0.1,2.7,0.2,2.7,0.6c0,0.1,0,0.3-0.2,0.6l-4.9,12.5h-0.1l-4.9-12.5c-0.1-0.3-0.2-0.5-0.2-0.6
					c0-0.4,0.2-0.4,2.7-0.6v-1.8h-9.3v1.8c2,0,2.4,0.1,2.7,0.8l7.3,17.5c-1.8,4.6-3.3,6.8-4.5,6.8c-0.3,0-0.5-0.1-1-0.8
					c-0.8-1-1.3-1.2-2-1.2c-1.2,0-2.1,0.9-2.1,2.1c0,1.5,1.3,2.7,3.2,2.7c3.2,0,5.5-2.5,8.1-8.7l7.5-18.4
					C610.1,128.7,610.4,128.6,612.4,128.6 M583,130.7V142c-1.5,1.8-3.1,2.6-4.9,2.6c-3.4,0-5.6-3.2-5.6-7.9c0-5,2.5-8.4,6.1-8.4
					C580.6,128.4,582.2,129.2,583,130.7 M587.7,144.6c-0.9-0.4-1-0.6-1-1.4v-28.5h-0.6l-6.1,1.8v0.9l2,0.9c0.9,0.4,1,0.6,1,1.4v8.5
					c-1.2-1.1-3.1-1.8-4.9-1.8c-5.5,0-9.4,4.6-9.4,11.3c0,5.6,3.4,9.8,8,9.8c2.4,0,4.9-1.6,6.3-3.8v3.8h0.6l6.1-0.9v-0.9
					L587.7,144.6z M550.4,136.9c0-5.4,2-8.4,5.4-8.4s5.4,3,5.4,8.4s-2,8.4-5.4,8.4C552.3,145.2,550.4,142.2,550.4,136.9
					 M565.2,136.9c0-6.1-4-10.5-9.4-10.5s-9.4,4.4-9.4,10.5s4,10.5,9.4,10.5S565.2,143,565.2,136.9 M532.7,145.2
					c-1.9,0-3.5-0.8-4.3-2.2v-11.3c1.2-1.5,3.2-2.6,5-2.6c3.4,0,5.5,3.1,5.5,7.8C538.9,141.9,536.5,145.2,532.7,145.2 M528.4,130.1
					v-15.4h-0.6l-6.1,1.8v0.9l2,0.9c0.9,0.4,1,0.6,1,1.4V147h1.1l2.5-1.8c1.1,1.3,3.1,2.2,5.1,2.2c5.5,0,9.4-4.6,9.4-11.4
					c0-5.6-3.2-9.7-8-9.7C532.4,126.3,529.9,128,528.4,130.1 M504.8,136.9c0-5.4,2-8.4,5.4-8.4s5.4,3,5.4,8.4s-2,8.4-5.4,8.4
					C506.8,145.2,504.8,142.2,504.8,136.9 M519.6,136.9c0-6.1-4-10.5-9.4-10.5s-9.4,4.4-9.4,10.5s4,10.5,9.4,10.5
					S519.6,143,519.6,136.9 M491.9,139.8l-13.3-21.2h-8.9v1.9c3.4,0,3.9,0.1,3.9,1.1v22.3c0,1-0.5,1.1-3.9,1.1v1.9h10.2V145
					c-3.4,0-3.9-0.1-3.9-1.1v-21.8h0.2l16.2,25.1h2.1v-25.7c0-1,0.5-1.1,3.9-1.1v-1.9h-10.2v1.9c3.4,0,3.9,0.1,3.9,1.1v18.2
					L491.9,139.8L491.9,139.8z"/>
			</g>
		</g>
		<g>
			<g>
				<defs>
					<rect id="SVGID_19_" x="38.5" y="42.1" width="695.1" height="633.9"/>
				</defs>
				<clipPath id="SVGID_20_">
					<use xlink:href="#SVGID_19_"  style="overflow:visible;"/>
				</clipPath>
				<path class="st12" d="M668.8,90.9l-2.9-4.9h-2l4,6.6V97h1.9v-4.4l4-6.6h-2L668.8,90.9z M653.5,91.4c0,3.4,2.2,5.7,5,5.7
					c2.5,0,4.1-1.4,4.5-3.7h-1.8c-0.4,1.2-1.2,2-2.7,2c-2,0-3.1-1.7-3.1-4s1.2-4,3.1-4c1.5,0,2.2,0.8,2.7,2h1.8
					c-0.4-2.2-2-3.7-4.5-3.7C655.7,85.7,653.5,88,653.5,91.4 M647.5,88.2l1.5,4.1h-3L647.5,88.2z M646.6,85.9L642.4,97h1.9l1.1-3.1
					h4.2l1.1,3.1h1.9l-4.2-11.1H646.6z M631.8,91.4c0,3.4,2.2,5.7,5,5.7c2.5,0,4.1-1.4,4.5-3.7h-1.8c-0.4,1.2-1.2,2-2.7,2
					c-2,0-3.1-1.7-3.1-4s1.2-4,3.1-4c1.5,0,2.2,0.8,2.7,2h1.8c-0.4-2.2-2-3.7-4.5-3.7C634,85.7,631.8,88,631.8,91.4 M628.2,91.4
					c0,2.3-1.3,4-3.2,4s-3.2-1.7-3.2-4s1.3-4,3.2-4S628.2,89.1,628.2,91.4 M630.1,91.4c0-3.3-2.1-5.7-5.1-5.7s-5.1,2.4-5.1,5.7
					c0,3.3,2.1,5.7,5.1,5.7S630.1,94.7,630.1,91.4 M614.8,97l4.2-11.1h-1.9l-3.1,8.6l-3.1-8.6h-2L613,97H614.8z M598.8,97h3.7
					c3.3,0,5.4-2.2,5.4-5.5c0-3.4-2.1-5.5-5.4-5.5h-3.7V97z M600.7,95.3v-7.7h1.8c2.3,0,3.6,1.5,3.6,3.9s-1.2,3.9-3.6,3.9h-1.8V95.3
					z M591.7,88.2l1.5,4.1h-3L591.7,88.2z M590.8,85.9L586.6,97h1.9l1.1-3.1h4.2l1.1,3.1h1.9l-4.2-11.1H590.8z M575.7,97v-4.5h4.8
					v-1.6h-4.8v-3.3h5.2v-1.7h-7.1V97H575.7z M569.8,91.4c0,2.3-1.3,4-3.2,4s-3.2-1.7-3.2-4s1.3-4,3.2-4S569.8,89.1,569.8,91.4
					 M571.6,91.4c0-3.3-2.1-5.7-5.1-5.7s-5.1,2.4-5.1,5.7c0,3.3,2.1,5.7,5.1,5.7S571.6,94.7,571.6,91.4 M548.7,85.9h-1.9V97h1.9
					v-3.4l1.1-1.3l3.6,4.7h2.3l-4.6-6l4.5-5h-2.4l-4.6,5.3v-5.4C548.6,85.9,548.7,85.9,548.7,85.9z M535.2,91.4c0,3.4,2.2,5.7,5,5.7
					c2.5,0,4.1-1.4,4.5-3.7h-1.8c-0.4,1.2-1.2,2-2.7,2c-2,0-3.1-1.7-3.1-4s1.2-4,3.1-4c1.5,0,2.2,0.8,2.7,2h1.8
					c-0.4-2.2-2-3.7-4.5-3.7C537.3,85.7,535.2,88,535.2,91.4 M529.1,88.2l1.5,4.1h-3L529.1,88.2z M528.2,85.9L524,97h1.9l1.1-3.1
					h4.2l1.1,3.1h1.9L530,85.9H528.2z M515.4,97h7.2v-1.7h-5.3v-9.4h-1.9V97z"/>
			</g>
		</g>
	</g>
	<g>
		<g>
			<g>
				<defs>
					<rect id="SVGID_21_" x="38.5" y="42.1" width="695.1" height="633.9"/>
				</defs>
				<clipPath id="SVGID_22_">
					<use xlink:href="#SVGID_21_"  style="overflow:visible;"/>
				</clipPath>
				<path class="st13" d="M497.2,66.6C417.8,32.8,335,36.4,255.8,71"/>
			</g>
		</g>
		<g>
			<g>
				<defs>
					<rect id="SVGID_23_" x="38.5" y="42.1" width="695.1" height="633.9"/>
				</defs>
				<clipPath id="SVGID_24_">
					<use xlink:href="#SVGID_23_"  style="overflow:visible;"/>
				</clipPath>
				<polygon class="st14" points="505,69.9 494.2,59.8 490.2,69.1 				"/>
			</g>
		</g>
		<g>
			<g>
				<defs>
					<rect id="SVGID_25_" x="38.5" y="42.1" width="695.1" height="633.9"/>
				</defs>
				<clipPath id="SVGID_26_">
					<use xlink:href="#SVGID_25_"  style="overflow:visible;"/>
				</clipPath>
				<path class="st15" d="M659.3,506c58.9-104.2,49.5-227.6-20.2-327"/>
			</g>
		</g>
		<g>
			<g>
				<defs>
					<rect id="SVGID_27_" x="38.5" y="42.1" width="695.1" height="633.9"/>
				</defs>
				<clipPath id="SVGID_28_">
					<use xlink:href="#SVGID_27_"  style="overflow:visible;"/>
				</clipPath>
				<polygon class="st16" points="655.1,513.3 666.4,503.7 657.6,498.7 				"/>
			</g>
		</g>
		<g>
			<g>
				<defs>
					<rect id="SVGID_29_" x="38.5" y="42.1" width="695.1" height="633.9"/>
				</defs>
				<clipPath id="SVGID_30_">
					<use xlink:href="#SVGID_29_"  style="overflow:visible;"/>
				</clipPath>
				<path class="st17" d="M258.9,648c95.3,43.5,200.2,33.4,290.1-23.4"/>
			</g>
		</g>
		<g>
			<g>
				<defs>
					<rect id="SVGID_31_" x="38.5" y="42.1" width="695.1" height="633.9"/>
				</defs>
				<clipPath id="SVGID_32_">
					<use xlink:href="#SVGID_31_"  style="overflow:visible;"/>
				</clipPath>
				<polygon class="st18" points="251.2,644.5 261.8,654.9 266,645.7 				"/>
			</g>
		</g>
		<g>
			<g>
				<defs>
					<rect id="SVGID_33_" x="38.5" y="42.1" width="695.1" height="633.9"/>
				</defs>
				<clipPath id="SVGID_34_">
					<use xlink:href="#SVGID_33_"  style="overflow:visible;"/>
				</clipPath>
				<path class="st19" d="M101.9,215.8c-51.5,94.4-46.9,202.3,5.7,296.3"/>
			</g>
		</g>
		<g>
			<g>
				<defs>
					<rect id="SVGID_35_" x="38.5" y="42.1" width="695.1" height="633.9"/>
				</defs>
				<clipPath id="SVGID_36_">
					<use xlink:href="#SVGID_35_"  style="overflow:visible;"/>
				</clipPath>
				<polygon class="st20" points="105.9,208.5 94.8,218.2 103.7,223.1 				"/>
			</g>
		</g>
	</g>
</g>
<g class="st1">
	<path class="st21" d="M319.2,234.5v-11.1h7.1v1.7H321v3.3h4.8v1.6H321v4.5H319.2z"/>
	<path class="st21" d="M329,230.1v-6.6h1.9v6.4c0,2.1,0.9,3.1,2.6,3.1s2.6-1,2.6-3.1v-6.4h1.9v6.7c0,3-1.8,4.6-4.4,4.6
		C330.8,234.7,329,233.1,329,230.1z"/>
	<path class="st21" d="M350.1,234.5h-1.4l-5.7-8v8h-1.8v-11.1h1.8l5.3,7.7v-7.7h1.8L350.1,234.5L350.1,234.5z"/>
	<path class="st21" d="M353.6,223.4h3.7c3.3,0,5.4,2.2,5.4,5.5c0,3.3-2.1,5.5-5.4,5.5h-3.7V223.4z M357.3,232.8
		c2.3,0,3.6-1.5,3.6-3.9s-1.2-3.9-3.6-3.9h-1.8v7.7L357.3,232.8L357.3,232.8z"/>
	<path class="st21" d="M370.4,223.4l4.2,11.1h-1.9l-1.1-3.1h-4.2l-1.1,3.1h-1.9l4.2-11.1H370.4z M367.9,229.8h3l-1.5-4.1
		L367.9,229.8z"/>
	<path class="st21" d="M382.1,234.5l-3-7.7v7.7h-1.8v-11.1h2.1l3.4,8.5l3.3-8.5h2.1v11.1h-1.8v-7.7l-3,7.7H382.1z"/>
	<path class="st21" d="M398.9,223.4v1.7h-5.4v2.9h4.9v1.6h-4.9v3.2h5.4v1.7h-7.2v-11.1H398.9z"/>
	<path class="st21" d="M411,234.5h-1.4l-5.7-8v8h-1.8v-11.1h1.8l5.3,7.7v-7.7h1.8L411,234.5L411,234.5z"/>
	<path class="st21" d="M413.8,223.4h9.2v1.7h-3.7v9.4h-1.9v-9.4h-3.7v-1.7H413.8z"/>
	<path class="st21" d="M430,223.4l4.2,11.1h-1.9l-1.1-3.1H427l-1.1,3.1H424l4.2-11.1H430z M427.5,229.8h3l-1.5-4.1L427.5,229.8z"/>
	<path class="st21" d="M436.9,223.4h1.9v9.4h5.3v1.7h-7.2L436.9,223.4L436.9,223.4z"/>
	<path class="st21" d="M301.2,252.9c0,2.1-1.4,3.2-3.7,3.2h-4.2V245h3.9c2.3,0,3.7,1,3.7,3c0,1.2-0.6,2.1-1.4,2.3
		C300.5,250.7,301.2,251.7,301.2,252.9z M297.1,249.7c1.3,0,2-0.5,2-1.5s-0.7-1.5-2-1.5h-2v3H297.1z M295.1,254.5h2.4
		c1.3,0,1.9-0.6,1.9-1.6s-0.7-1.6-1.9-1.6h-2.4V254.5z"/>
	<path class="st21" d="M309.2,245l4.2,11.1h-1.9l-1.1-3.1h-4.2l-1.1,3.1h-1.9l4.2-11.1H309.2z M306.7,251.4h3l-1.5-4.1L306.7,251.4z
		"/>
	<path class="st21" d="M320,244.9c2.5,0,4.1,1.4,4.5,3.7h-1.8c-0.4-1.2-1.2-2-2.7-2c-1.9,0-3.1,1.7-3.1,4s1.2,4,3.1,4
		c1.5,0,2.2-0.8,2.7-2h1.8c-0.4,2.2-2,3.7-4.5,3.7c-2.8,0-5-2.3-5-5.7C315,247.2,317.2,244.9,320,244.9z"/>
	<path class="st21" d="M329.3,250.3l4.6-5.3h2.4l-4.5,5l4.6,6h-2.3l-3.6-4.7l-1.1,1.3v3.4h-1.9v-11h1.9v5.3H329.3z"/>
	<path class="st21" d="M343.5,252v-1.6h4.2v0.9c0,3.1-2,5-4.7,5c-3,0-5.2-2.3-5.2-5.7c0-3.4,2.3-5.7,5.1-5.7c2.5,0,4.1,1.4,4.5,3.6
		h-1.9c-0.5-1.2-1.2-1.9-2.7-1.9c-2,0-3.2,1.7-3.2,4s1.3,4.1,3.3,4.1c1.7,0,2.7-1.1,2.9-2.6L343.5,252L343.5,252z"/>
	<path class="st21" d="M352.5,251.6v4.5h-1.9V245h4.3c2.3,0,3.8,1.2,3.8,3.3c0,1.9-1.1,2.9-2.8,3.2l3.2,4.6H357l-3.1-4.5H352.5z
		 M352.5,250h2.4c1.2,0,1.9-0.7,1.9-1.7s-0.7-1.7-1.9-1.7h-2.4V250z"/>
	<path class="st21" d="M366.2,256.3c-3,0-5.1-2.4-5.1-5.7c0-3.3,2.1-5.7,5.1-5.7s5.1,2.4,5.1,5.7
		C371.3,253.9,369.2,256.3,366.2,256.3z M366.2,246.5c-1.9,0-3.2,1.7-3.2,4s1.3,4,3.2,4c1.9,0,3.2-1.7,3.2-4
		S368.1,246.5,366.2,246.5z"/>
	<path class="st21" d="M374,251.7V245h1.9v6.4c0,2.1,0.9,3.1,2.6,3.1s2.6-1,2.6-3.1V245h1.9v6.7c0,3-1.8,4.6-4.4,4.6
		C375.8,256.3,374,254.7,374,251.7z"/>
	<path class="st21" d="M395.1,256.1h-1.4l-5.7-8v8h-1.8V245h1.8l5.3,7.7V245h1.8L395.1,256.1L395.1,256.1z"/>
	<path class="st21" d="M398.7,245h3.7c3.3,0,5.4,2.2,5.4,5.5s-2.1,5.5-5.4,5.5h-3.7V245z M402.3,254.4c2.3,0,3.6-1.5,3.6-3.9
		s-1.2-3.9-3.6-3.9h-1.8v7.7L402.3,254.4L402.3,254.4z"/>
	<path class="st21" d="M423.7,252.9c0,2.1-1.4,3.2-3.7,3.2h-4.2V245h3.9c2.3,0,3.7,1,3.7,3c0,1.2-0.6,2.1-1.4,2.3
		C423,250.7,423.7,251.7,423.7,252.9z M419.6,249.7c1.3,0,2-0.5,2-1.5s-0.7-1.5-2-1.5h-2v3H419.6z M417.6,254.5h2.4
		c1.3,0,1.9-0.6,1.9-1.6s-0.7-1.6-1.9-1.6h-2.4V254.5z"/>
	<path class="st21" d="M434,245v1.7h-5.4v2.9h4.9v1.6h-4.9v3.2h5.4v1.7h-7.2V245H434z"/>
	<path class="st21" d="M437.1,245h1.9v9.4h5.3v1.7h-7.2L437.1,245L437.1,245z"/>
	<path class="st21" d="M449.1,256.1h-1.9V245h1.9V256.1z"/>
	<path class="st21" d="M459.9,245v1.7h-5.4v2.9h4.9v1.6h-4.9v3.2h5.4v1.7h-7.2V245H459.9z"/>
	<path class="st21" d="M463,256.1V245h7.1v1.7h-5.2v3.3h4.8v1.6h-4.8v4.5H463z"/>
</g>
<g class="st1">
	<path class="st21" d="M315.8,464.1l4.2,11.1h-1.9l-1.1-3.1h-4.2l-1.1,3.1h-1.9l4.2-11.1H315.8z M313.3,470.5h3l-1.5-4.1
		L313.3,470.5z"/>
	<path class="st21" d="M323.6,472.1c0.4,1.1,1.3,1.7,2.5,1.7c1.3,0,2.1-0.6,2.1-1.6c0-0.8-0.5-1.2-1.6-1.5l-1.9-0.5
		c-1.5-0.4-2.8-1.2-2.8-3c0-1.9,1.5-3.3,3.8-3.3c2.4,0,3.8,1.2,4.2,3.1H328c-0.3-0.8-1-1.5-2.3-1.5c-1.2,0-2,0.6-2,1.5
		c0,0.7,0.5,1.2,1.5,1.4l1.9,0.5c1.7,0.4,2.9,1.4,2.9,3.1c0,2.1-1.7,3.3-3.9,3.3c-2.3,0-4-1.2-4.4-3.2H323.6z"/>
	<path class="st21" d="M334,472.1c0.4,1.1,1.3,1.7,2.5,1.7c1.3,0,2.1-0.6,2.1-1.6c0-0.8-0.5-1.2-1.6-1.5l-1.9-0.5
		c-1.5-0.4-2.8-1.2-2.8-3c0-1.9,1.5-3.3,3.8-3.3c2.4,0,3.8,1.2,4.2,3.1h-1.9c-0.3-0.8-1-1.5-2.3-1.5c-1.2,0-2,0.6-2,1.5
		c0,0.7,0.5,1.2,1.5,1.4l1.9,0.5c1.7,0.4,2.9,1.4,2.9,3.1c0,2.1-1.7,3.3-3.9,3.3c-2.3,0-4-1.2-4.4-3.2H334z"/>
	<path class="st21" d="M343.2,470.7v-6.6h1.9v6.4c0,2.1,0.9,3.1,2.6,3.1s2.6-1,2.6-3.1v-6.4h1.9v6.7c0,3-1.8,4.6-4.4,4.6
		C345,475.3,343.2,473.8,343.2,470.7z"/>
	<path class="st21" d="M360.3,475.2l-3-7.7v7.7h-1.8v-11.1h2.1l3.4,8.5l3.3-8.5h2.1v11.1h-1.8v-7.7l-3,7.7H360.3z"/>
	<path class="st21" d="M377.1,464.1v1.7h-5.4v2.9h4.9v1.6h-4.9v3.2h5.4v1.7h-7.2v-11.1L377.1,464.1L377.1,464.1z"/>
	<path class="st21" d="M385.3,475.2v-11.1h7.1v1.7h-5.2v3.3h4.8v1.6h-4.8v4.5H385.3z"/>
	<path class="st21" d="M399.8,464.1l4.2,11.1h-1.9l-1.1-3.1h-4.2l-1.1,3.1h-1.9l4.2-11.1H399.8z M397.4,470.5h3l-1.5-4.1
		L397.4,470.5z"/>
	<path class="st21" d="M408.6,475.2h-1.9v-11.1h1.9V475.2z"/>
	<path class="st21" d="M412.1,464.1h1.9v9.4h5.3v1.7h-7.2L412.1,464.1L412.1,464.1z"/>
	<path class="st21" d="M421.7,470.7v-6.6h1.9v6.4c0,2.1,0.9,3.1,2.6,3.1s2.6-1,2.6-3.1v-6.4h1.9v6.7c0,3-1.8,4.6-4.4,4.6
		C423.5,475.3,421.7,473.8,421.7,470.7z"/>
	<path class="st21" d="M435.8,470.7v4.5h-1.9v-11.1h4.3c2.3,0,3.8,1.2,3.8,3.3c0,1.9-1.1,2.9-2.8,3.2l3.2,4.6h-2.1l-3.1-4.5H435.8z
		 M435.8,469.1h2.4c1.2,0,1.9-0.7,1.9-1.7s-0.7-1.7-1.9-1.7h-2.4V469.1z"/>
	<path class="st21" d="M452.2,464.1v1.7h-5.4v2.9h4.9v1.6h-4.9v3.2h5.4v1.7H445v-11.1L452.2,464.1L452.2,464.1z"/>
</g>
</svg>
