<?xml version="1.0" encoding="utf-8"?>
<!-- Generator: Adobe Illustrator 22.1.0, SVG Export Plug-In . SVG Version: 6.00 Build 0)  -->
<svg version="1.1" id="Layer_1" xmlns="http://www.w3.org/2000/svg" xmlns:xlink="http://www.w3.org/1999/xlink" x="0px" y="0px"
	 viewBox="0 0 800 800" style="enable-background:new 0 0 800 800;" xml:space="preserve">
<style type="text/css">
	.st0{fill:#404040;}
	.st1{font-family:'UntitledSansTest-Regular';}
	.st2{font-size:22px;}
	.st3{fill:#E4A087;}
	.st4{fill:#FFFFFF;}
	.st5{font-size:20px;}
	.st6{fill:none;stroke:#404040;stroke-miterlimit:10;}
</style>
<g>
	<g>
		<text transform="matrix(1 0 0 1 328.1289 396.3298)"><tspan x="0" y="0" class="st0 st1 st2">COMMUNITY </tspan><tspan x="-37.3" y="28" class="st0 st1 st2">TRANSFORMATION</tspan></text>
	</g>
	<g>
		<path class="st3" d="M197.9,275.8H77.7c-19.2,0-34.8-15.6-34.8-34.8v0c0-19.2,15.6-34.8,34.8-34.8h120.2
			c19.2,0,34.8,15.6,34.8,34.8v0C232.6,260.2,217.1,275.8,197.9,275.8z"/>
		<g>
			<text transform="matrix(1 0 0 1 88.4385 248.3298)" class="st4 st1 st5">Education</text>
		</g>
		<path class="st3" d="M197.9,381.8H77.7c-19.2,0-34.8-15.6-34.8-34.8v0c0-19.2,15.6-34.8,34.8-34.8h120.2
			c19.2,0,34.8,15.6,34.8,34.8v0C232.6,366.2,217.1,381.8,197.9,381.8z"/>
		<g>
			<text transform="matrix(1 0 0 1 64.3188 354.3298)" class="st4 st1 st5">Transportation</text>
		</g>
		<path class="st3" d="M197.9,487.8H77.7c-19.2,0-34.8-15.6-34.8-34.8v0c0-19.2,15.6-34.8,34.8-34.8h120.2
			c19.2,0,34.8,15.6,34.8,34.8v0C232.6,472.2,217.1,487.8,197.9,487.8z"/>
		<g>
			<text transform="matrix(1 0 0 1 73.8989 460.3298)" class="st4 st1 st5">Public Safety</text>
		</g>
		<path class="st3" d="M197.9,593.8H77.7c-19.2,0-34.8-15.6-34.8-34.8v0c0-19.2,15.6-34.8,34.8-34.8h120.2
			c19.2,0,34.8,15.6,34.8,34.8v0C232.6,578.2,217.1,593.8,197.9,593.8z"/>
		<g>
			<text transform="matrix(1 0 0 1 75.1587 566.3298)" class="st4 st1 st5">Environment</text>
		</g>
		<path class="st3" d="M722.3,275.8H602.1c-19.2,0-34.8-15.6-34.8-34.8v0c0-19.2,15.6-34.8,34.8-34.8h120.2
			c19.2,0,34.8,15.6,34.8,34.8v0C757.1,260.2,741.5,275.8,722.3,275.8z"/>
		<g>
			<text transform="matrix(1 0 0 1 601.7939 248.3298)" class="st4 st1 st5">Government</text>
		</g>
		<path class="st3" d="M722.3,381.8H602.1c-19.2,0-34.8-15.6-34.8-34.8v0c0-19.2,15.6-34.8,34.8-34.8h120.2
			c19.2,0,34.8,15.6,34.8,34.8v0C757.1,366.2,741.5,381.8,722.3,381.8z"/>
		<g>
			<text transform="matrix(1 0 0 1 614.1138 343.3204)"><tspan x="0" y="0" class="st4 st1 st5">Economic </tspan><tspan x="-17" y="22" class="st4 st1 st5">Development</tspan></text>
		</g>
		<path class="st3" d="M722.3,487.8H602.1c-19.2,0-34.8-15.6-34.8-34.8v0c0-19.2,15.6-34.8,34.8-34.8h120.2
			c19.2,0,34.8,15.6,34.8,34.8v0C757.1,472.2,741.5,487.8,722.3,487.8z"/>
		<path class="st3" d="M722.3,593.8H602.1c-19.2,0-34.8-15.6-34.8-34.8v0c0-19.2,15.6-34.8,34.8-34.8h120.2
			c19.2,0,34.8,15.6,34.8,34.8v0C757.1,578.2,741.5,593.8,722.3,593.8z"/>
		<g>
			<text transform="matrix(1 0 0 1 621.4136 566.3298)" class="st4 st1 st5">Housing</text>
		</g>
		<g>
			<text transform="matrix(1 0 0 1 609.2637 449.3221)"><tspan x="0" y="0" class="st4 st1 st5">Health and </tspan><tspan x="9" y="22" class="st4 st1 st5">Wellness</tspan></text>
		</g>
	</g>
	<g>
		<g>
			<polyline class="st6" points="242.7,241 257.7,241 257.7,559 242.7,559 			"/>
			<line class="st6" x1="257.7" y1="453" x2="242.7" y2="453"/>
			<line class="st6" x1="257.7" y1="347" x2="242.7" y2="347"/>
		</g>
		<line class="st6" x1="272.7" y1="400" x2="257.7" y2="400"/>
	</g>
	<g>
		<g>
			<polyline class="st6" points="557.3,559 542.3,559 542.3,241 557.3,241 			"/>
			<line class="st6" x1="542.3" y1="347" x2="557.3" y2="347"/>
			<line class="st6" x1="542.3" y1="453" x2="557.3" y2="453"/>
		</g>
		<line class="st6" x1="542.3" y1="400" x2="527.3" y2="400"/>
	</g>
</g>
</svg>
