<?xml version="1.0" encoding="utf-8"?>
<!-- Generator: Adobe Illustrator 22.1.0, SVG Export Plug-In . SVG Version: 6.00 Build 0)  -->
<svg version="1.1" id="Layer_1" xmlns="http://www.w3.org/2000/svg" xmlns:xlink="http://www.w3.org/1999/xlink" x="0px" y="0px"
	 viewBox="0 0 600 700" style="enable-background:new 0 0 600 700;" xml:space="preserve">
<style type="text/css">
	.st0{fill:#3D429D;}
	.st1{fill:#404040;}
	.st2{fill:#FFFFFF;}
	.st3{fill:#9EA0CE;}
</style>
<path class="st0" d="M480,245.5l-74.6-74.6c-15.8-15.8-15.8-41.5,0-57.3l0,0c15.8-15.8,41.5-15.8,57.3,0l74.6,74.6
	c15.8,15.8,15.8,41.5,0,57.3l0,0C521.5,261.3,495.8,261.3,480,245.5z"/>
<path class="st0" d="M196.3,171.7l-74.6,74.6c-15.8,15.8-41.5,15.8-57.3,0l0,0c-15.8-15.8-15.8-41.5,0-57.3l74.6-74.6
	c15.8-15.8,41.5-15.8,57.3,0l0,0C212.1,130.3,212.1,155.9,196.3,171.7z"/>
<path class="st0" d="M539.9,507.2l-82.7,82.7c-13.6,13.6-35.6,13.6-49.2,0l-8.1-8.1c-13.6-13.6-13.6-35.6,0-49.2l82.7-82.7
	c13.6-13.6,35.6-13.6,49.2,0l8.1,8.1C553.5,471.6,553.5,493.6,539.9,507.2z"/>
<path class="st0" d="M352.6,150.7H247.2c-22.4,0-40.5-18.1-40.5-40.5v0c0-22.4,18.1-40.5,40.5-40.5h105.4
	c22.4,0,40.5,18.1,40.5,40.5v0C393.1,132.6,375,150.7,352.6,150.7z"/>
<path class="st0" d="M100.9,297.2v105.4c0,22.4-18.1,40.5-40.5,40.5h0c-22.4,0-40.5-18.1-40.5-40.5V297.2
	c0-22.4,18.1-40.5,40.5-40.5h0C82.7,256.7,100.9,274.9,100.9,297.2z"/>
<path class="st0" d="M500.4,402.7V297.2c0-22.4,18.1-40.5,40.5-40.5h0c22.4,0,40.5,18.1,40.5,40.5v105.4c0,22.4-18.1,40.5-40.5,40.5
	h0C518.6,443.2,500.4,425.1,500.4,402.7z"/>
<path class="st0" d="M352.6,630.8H247.2c-22.4,0-40.5-18.1-40.5-40.5v0c0-22.4,18.1-40.5,40.5-40.5h105.4
	c22.4,0,40.5,18.1,40.5,40.5v0C393.1,612.7,375,630.8,352.6,630.8z"/>
<path class="st0" d="M139.4,586.1l-74.6-74.6C49,495.7,49,470,64.8,454.2l0,0c15.8-15.8,41.5-15.8,57.3,0l74.6,74.6
	c15.8,15.8,15.8,41.5,0,57.3l0,0C180.9,601.9,155.2,601.9,139.4,586.1z"/>
<g>
	<g>
		<path class="st1" d="M225.6,340.6c3.1,0,4.4-1.7,4.8-3.8h2.2c-0.6,3.3-3,5.6-7,5.6c-4.7,0-8.2-3.7-8.2-9.5c0-5.7,3.5-9.4,8.2-9.4
			c4,0,6.4,2.3,7,5.6h-2.2c-0.4-2.1-1.7-3.8-4.8-3.8c-3.8,0-6,3-6,7.6C219.7,337.6,221.9,340.6,225.6,340.6z"/>
		<path class="st1" d="M243.9,342.5c-5.1,0-8.3-3.9-8.3-9.5c0-5.5,3.3-9.5,8.3-9.5c5.1,0,8.3,4,8.3,9.5
			C252.2,338.5,248.9,342.5,243.9,342.5z M243.9,325.4c-4,0-6.1,3.2-6.1,7.6c0,4.4,2.1,7.6,6.1,7.6c4,0,6.1-3.2,6.1-7.6
			C249.9,328.6,247.9,325.4,243.9,325.4z"/>
		<path class="st1" d="M264.5,342.2l-6-16.1h-0.1v16.1h-2.1v-18.3h3.4l5.6,15.4h0.1l5.6-15.4h3.3v18.3h-2.1v-16.1h-0.1l-6,16.1
			H264.5z"/>
		<path class="st1" d="M287.8,342.2l-6-16.1h-0.1v16.1h-2.1v-18.3h3.4l5.6,15.4h0.1l5.6-15.4h3.3v18.3h-2.1v-16.1h-0.1l-6,16.1
			H287.8z"/>
		<path class="st1" d="M310.1,342.5c-4.7,0-7.4-2.8-7.4-7.8v-10.8h2.2v11c0,3.9,2,5.8,5.2,5.8c3.2,0,5.2-1.9,5.2-5.8v-11h2.2v10.8
			C317.5,339.7,314.8,342.5,310.1,342.5z"/>
		<path class="st1" d="M335,338.5L335,338.5l0.1-14.6h2.1v18.3h-2.1l-10.4-15.6h-0.1v15.6h-2.2v-18.3h2.7L335,338.5z"/>
		<path class="st1" d="M342.5,323.9h2.2v18.3h-2.2V323.9z"/>
		<path class="st1" d="M355.5,325.7h-6.8v-1.8h15.9v1.8h-6.8v16.5h-2.2V325.7z"/>
		<path class="st1" d="M373.5,342.2v-7.6l-7-10.7h2.4l5.7,8.7h0.1l5.5-8.7h2.4l-7,10.7v7.6H373.5z"/>
		<path class="st1" d="M181.4,358.4h-6.8v-1.8h15.9v1.8h-6.8v16.5h-2.2V358.4z"/>
		<path class="st1" d="M194.4,374.8v-18.3h7.1c4.1,0,6.4,1.9,6.4,5.4c0,3-2.1,4.6-4.2,5.1l5,7.7h-2.5l-4.7-7.4h-4.9v7.4H194.4z
			 M201.3,365.6c2.8,0,4.3-1.2,4.3-3.6c0-2.3-1.6-3.6-4.3-3.6h-4.7v7.2H201.3z"/>
		<path class="st1" d="M223.6,369.7h-8.8l-2,5.1h-2.2l7.4-18.3h2.5l7.4,18.3h-2.3L223.6,369.7z M215.6,367.9h7.3l-3.6-9.2h-0.1
			L215.6,367.9z"/>
		<path class="st1" d="M243.8,371.1L243.8,371.1l0.1-14.6h2.1v18.3h-2.1l-10.4-15.6h-0.1v15.6h-2.2v-18.3h2.7L243.8,371.1z"/>
		<path class="st1" d="M252.2,369.4c0.3,2.9,2.7,3.9,5.4,3.9c2.6,0,4.5-1.3,4.5-3.5c0-1.5-0.8-2.5-3.3-3l-3.5-0.7
			c-2.5-0.5-4.7-1.6-4.7-4.7c0-3,2.6-5.3,6.4-5.3c3.9,0,6.5,1.7,6.9,5h-2.1c-0.3-2.1-2.1-3.2-4.7-3.2c-2.7,0-4.3,1.5-4.3,3.4
			c0,1.8,1,2.5,3.3,2.9l3.6,0.7c2.8,0.6,4.6,1.9,4.6,4.8c0,3.1-2.8,5.3-6.6,5.3c-4,0-7.3-1.7-7.6-5.7H252.2z"/>
		<path class="st1" d="M268.6,356.5h11.7v1.8h-9.5v6.7h8.6v1.8h-8.6v7.9h-2.2V356.5z"/>
		<path class="st1" d="M291.8,375.1c-5.1,0-8.3-3.9-8.3-9.5c0-5.5,3.3-9.5,8.3-9.5c5.1,0,8.3,4,8.3,9.5
			C300.1,371.2,296.8,375.1,291.8,375.1z M291.8,358.1c-4,0-6.1,3.2-6.1,7.6c0,4.4,2.1,7.6,6.1,7.6c4,0,6.1-3.2,6.1-7.6
			C297.8,361.2,295.8,358.1,291.8,358.1z"/>
		<path class="st1" d="M304.3,374.8v-18.3h7.1c4.1,0,6.4,1.9,6.4,5.4c0,3-2.1,4.6-4.2,5.1l5,7.7h-2.5l-4.7-7.4h-4.9v7.4H304.3z
			 M311.2,365.6c2.8,0,4.3-1.2,4.3-3.6c0-2.3-1.6-3.6-4.3-3.6h-4.7v7.2H311.2z"/>
		<path class="st1" d="M330.5,374.8l-5.9-16.1h-0.1v16.1h-2.1v-18.3h3.4l5.6,15.4h0.1l5.6-15.4h3.3v18.3h-2.1v-16.1h-0.1l-5.9,16.1
			H330.5z"/>
		<path class="st1" d="M356.8,369.7H348l-2,5.1h-2.2l7.4-18.3h2.5l7.4,18.3h-2.3L356.8,369.7z M348.8,367.9h7.3l-3.6-9.2h-0.1
			L348.8,367.9z"/>
		<path class="st1" d="M368.4,358.4h-6.8v-1.8h15.9v1.8h-6.8v16.5h-2.2V358.4z"/>
		<path class="st1" d="M381.4,356.5h2.2v18.3h-2.2V356.5z"/>
		<path class="st1" d="M396.1,375.1c-5.1,0-8.3-3.9-8.3-9.5c0-5.5,3.3-9.5,8.3-9.5c5.1,0,8.3,4,8.3,9.5
			C404.5,371.2,401.2,375.1,396.1,375.1z M396.1,358.1c-4,0-6.1,3.2-6.1,7.6c0,4.4,2.1,7.6,6.1,7.6c4,0,6.1-3.2,6.1-7.6
			C402.2,361.2,400.1,358.1,396.1,358.1z"/>
		<path class="st1" d="M421.1,371.1L421.1,371.1l0.1-14.6h2.1v18.3h-2.1l-10.4-15.6h-0.1v15.6h-2.2v-18.3h2.7L421.1,371.1z"/>
	</g>
</g>
<g>
	<g>
		<g>
			<path class="st2" d="M427.5,124.3l-3.9-3.9l1.1-1.1l9.2,9.2l-1.1,1.1l-4-4l-9.5,9.5l-1.3-1.3L427.5,124.3z"/>
			<path class="st2" d="M434.7,137.7c-0.1-0.2-0.4-0.5-0.6-0.7c-1.2-1.2-3.2-1.3-5.1,0.5l-3.7,3.7l-1.2-1.2l7.5-7.5l1.2,1.2
				l-1.8,1.8c1.6-0.9,3.2-0.7,4.3,0.4c0.2,0.2,0.4,0.4,0.5,0.6L434.7,137.7z"/>
			<path class="st2" d="M435.9,149.2c-1.2,0.5-2.8,0.1-4-1.2c-1.3-1.3-1.7-3.2-0.3-4.6c1.4-1.4,3.1-1,4.8,0.3l2.7,2.1l0.4-0.4
				c1.2-1.2,1-2.4-0.1-3.4c-1-1-2.1-1.1-3.1-0.3l-1.2-1.2c1.7-1.4,3.7-1,5.3,0.5c1.8,1.8,2.1,3.8,0.3,5.6l-3.4,3.4
				c-0.5,0.5-1,1.1-1.4,1.7l-1.2-1.2C435.1,150,435.5,149.5,435.9,149.2z M437.5,147.4l0.7-0.7l-2.3-1.8c-1.1-0.8-2.1-1.3-3.1-0.3
				c-0.7,0.7-0.7,1.7,0.2,2.7C434.2,148.5,436.1,148.9,437.5,147.4z"/>
			<path class="st2" d="M445.9,149.6c1.3-0.6,2.8-0.3,4,0.9c1.7,1.7,1.6,3.7-0.2,5.5l-4.8,4.8l-1.2-1.2l4.5-4.5
				c1.4-1.4,1.5-2.7,0.3-3.9c-1.1-1.1-2.8-1.3-4.6,0.5l-4.1,4.1l-1.2-1.2l7.5-7.5l1.2,1.2L445.9,149.6z"/>
			<path class="st2" d="M450.6,162c-0.9,1.1-0.4,2.5,0.6,3.5c1,1,2.2,1.3,3,0.5c0.5-0.5,0.5-1.3-0.2-2.4l-1.1-1.6
				c-1-1.4-1.4-2.8-0.1-4.1c1.3-1.3,3.4-1.1,5,0.5c1.7,1.7,2,3.5,0.8,5.1l-1.1-1.1c0.7-0.8,0.4-2-0.6-3c-1-1-2.1-1.1-2.8-0.4
				c-0.6,0.6-0.5,1.4,0.2,2.4l1.2,1.8c1,1.5,1.1,2.8-0.1,4c-1.3,1.3-3.5,1-5.2-0.6c-1.8-1.8-2.3-3.9-0.9-5.6L450.6,162z"/>
			<path class="st2" d="M454.4,175.4l-1.2-1.2l10.1-10.1l1.2,1.2l-1.4,1.4c1.1-0.4,2.8-0.3,4.1,1c1.9,1.9,1.8,4.9-0.6,7.2
				c-2.4,2.4-5.3,2.5-7.2,0.6c-1.2-1.2-1.4-2.8-1-4L454.4,175.4z M460.6,169.1c-1.7,1.7-2,3.7-0.6,5.1c1.5,1.5,3.5,1.1,5.3-0.6
				c1.7-1.8,2.1-3.8,0.6-5.3c-1.5-1.5-3.4-1.1-5.1,0.6L460.6,169.1z"/>
			<path class="st2" d="M468,184.2c-2.1-2.1-2-5,0.4-7.4c2.4-2.4,5.4-2.4,7.5-0.4c2.1,2.1,2,5.1-0.4,7.5
				C473.1,186.2,470.1,186.2,468,184.2z M469,183.2c1.5,1.5,3.4,1.2,5.2-0.6c1.8-1.8,2-3.8,0.6-5.3c-1.5-1.5-3.5-1.2-5.3,0.6
				C467.8,179.7,467.6,181.7,469,183.2z"/>
			<path class="st2" d="M484.7,187.6c-0.1-0.2-0.4-0.5-0.6-0.7c-1.2-1.2-3.2-1.3-5.1,0.5l-3.7,3.7l-1.2-1.2l7.5-7.5l1.2,1.2
				l-1.8,1.8c1.6-0.9,3.2-0.7,4.3,0.4c0.2,0.2,0.4,0.4,0.5,0.6L484.7,187.6z"/>
			<path class="st2" d="M484,199.6c-0.7-0.4-1.2-0.8-1.5-1.1c-1.4-1.4-1.4-2.7,0-4.1l4.6-4.6l-1.1-1.1l0.9-0.9l1.1,1.1l1.9-1.9
				l1.2,1.2l-1.9,1.9l2,2l-0.9,0.9l-2-2l-4.6,4.6c-0.8,0.8-0.7,1.5,0,2.1c0.3,0.3,0.6,0.6,1.3,0.9L484,199.6z"/>
			<path class="st2" d="M491.9,205.2c-1.2,0.5-2.8,0.1-4-1.2c-1.3-1.3-1.7-3.2-0.3-4.6c1.4-1.4,3.1-1,4.8,0.3l2.7,2.1l0.4-0.4
				c1.2-1.2,1-2.4-0.1-3.4c-1-1-2.1-1.1-3.1-0.3l-1.2-1.2c1.7-1.4,3.7-1,5.3,0.5c1.8,1.8,2.1,3.8,0.3,5.6l-3.4,3.4
				c-0.5,0.5-1,1.1-1.4,1.7l-1.2-1.2C491.1,206.1,491.6,205.6,491.9,205.2z M493.6,203.5l0.7-0.7L492,201c-1.1-0.8-2.1-1.3-3.1-0.3
				c-0.7,0.7-0.7,1.7,0.2,2.7C490.3,204.5,492.1,204.9,493.6,203.5z"/>
			<path class="st2" d="M498.3,213.9c-0.7-0.4-1.2-0.8-1.5-1.1c-1.4-1.4-1.4-2.7,0-4.1l4.6-4.6l-1.1-1.1l0.9-0.9l1.1,1.1l1.9-1.9
				l1.2,1.2l-1.9,1.9l2,2l-0.9,0.9l-2-2l-4.6,4.6c-0.8,0.8-0.7,1.5,0,2.1c0.3,0.3,0.6,0.6,1.3,0.9L498.3,213.9z"/>
			<path class="st2" d="M507.9,208.8l1.2,1.2l-7.5,7.5l-1.2-1.2L507.9,208.8z M510.9,205.7l1.4,1.4l-1.5,1.5l-1.4-1.4L510.9,205.7z"
				/>
			<path class="st2" d="M507.5,223.6c-2.1-2.1-2-5,0.4-7.4c2.4-2.4,5.4-2.4,7.5-0.4c2.1,2.1,2,5.1-0.4,7.5
				C512.5,225.7,509.5,225.7,507.5,223.6z M508.5,222.6c1.5,1.5,3.4,1.2,5.2-0.6c1.8-1.8,2-3.8,0.6-5.3c-1.5-1.5-3.5-1.2-5.3,0.6
				C507.3,219.2,507,221.2,508.5,222.6z"/>
			<path class="st2" d="M520.9,224.5c1.3-0.6,2.8-0.3,4,0.9c1.7,1.7,1.6,3.7-0.2,5.5l-4.8,4.8l-1.2-1.2l4.5-4.5
				c1.4-1.4,1.5-2.7,0.3-3.9c-1.1-1.1-2.8-1.3-4.6,0.5l-4.1,4.1l-1.2-1.2l7.5-7.5l1.2,1.2L520.9,224.5z"/>
		</g>
	</g>
</g>
<g>
	<g>
		<g>
			<path class="st2" d="M89.3,229.2l-10.6-10.6l7.2-7.2l1.1,1.1l-5.9,5.9l3.7,3.7l5.2-5.2l1.1,1.1l-5.2,5.2l3.7,3.7l5.9-5.9l1.1,1.1
				L89.3,229.2z"/>
			<path class="st2" d="M94.2,212.2c-0.6-1.3-0.3-2.8,0.9-4c1.7-1.7,3.7-1.6,5.5,0.2l4.8,4.8l-1.2,1.2l-4.5-4.5
				c-1.4-1.4-2.7-1.5-3.9-0.3c-1.1,1.1-1.3,2.8,0.5,4.6l4.1,4.1l-1.2,1.2l-7.5-7.5l1.2-1.2L94.2,212.2z"/>
			<path class="st2" d="M99.7,203.9l1.3-1.3l8.6,3.8l0,0l-3.9-8.5l1.2-1.2l4.6,10.3l-1.4,1.4L99.7,203.9z"/>
			<path class="st2" d="M105.8,191.7l1.4-1.4l1.5,1.5l-1.4,1.4L105.8,191.7z M109,194.7l1.2-1.2l7.5,7.5l-1.2,1.2L109,194.7z"/>
			<path class="st2" d="M118.3,187.4c-0.2,0.1-0.5,0.4-0.7,0.6c-1.2,1.2-1.3,3.2,0.5,5.1l3.7,3.7l-1.2,1.2l-7.5-7.5l1.2-1.2l1.8,1.8
				c-0.9-1.6-0.7-3.2,0.4-4.3c0.2-0.2,0.4-0.4,0.6-0.5L118.3,187.4z"/>
			<path class="st2" d="M129.6,189.3c-2.1,2.1-5,2-7.4-0.4c-2.4-2.4-2.4-5.4-0.4-7.5c2.1-2.1,5.1-2,7.5,0.4
				C131.7,184.2,131.7,187.2,129.6,189.3z M128.6,188.3c1.5-1.5,1.2-3.4-0.6-5.2c-1.8-1.8-3.8-2-5.3-0.6c-1.5,1.5-1.2,3.5,0.6,5.3
				C125.2,189.5,127.2,189.7,128.6,188.3z"/>
			<path class="st2" d="M130.5,175.9c-0.6-1.3-0.3-2.8,0.9-4c1.7-1.7,3.7-1.6,5.5,0.2l4.8,4.8l-1.2,1.2l-4.5-4.5
				c-1.4-1.4-2.7-1.5-3.9-0.3c-1.1,1.1-1.3,2.8,0.5,4.6l4.1,4.1l-1.2,1.2l-7.5-7.5l1.2-1.2L130.5,175.9z"/>
			<path class="st2" d="M145.2,158c1.7-1.7,3.7-1.5,5.4,0.3l4.8,4.8l-1.2,1.2l-4.5-4.5c-1.4-1.4-2.6-1.6-3.7-0.5
				c-1.1,1.1-1.2,2.8,0.6,4.5l4.1,4.1l-1.2,1.2l-4.5-4.5c-1.4-1.4-2.6-1.6-3.7-0.5c-1.1,1.1-1.2,2.8,0.5,4.5l4.1,4.1l-1.2,1.2
				l-7.5-7.5l1.2-1.2l1.4,1.4c-0.6-1.3-0.3-2.8,0.8-3.9c1.3-1.3,2.6-1.3,3.9-0.7C143.8,160.7,144.1,159.1,145.2,158z"/>
			<path class="st2" d="M161.5,157.4c-2.1,2.1-5.1,2.1-7.5-0.3c-2.4-2.4-2.4-5.5-0.4-7.5c2.2-2.2,5-1.4,6.9,0.5l0.5,0.5l-5.5,5.5
				c1.8,1.7,3.6,1.7,5.1,0.3c1-1,1.1-2.1,0.5-3.3l1.2-1.2C163.5,153.9,162.9,156,161.5,157.4z M154.6,155.2l4.3-4.3
				c-1.3-1.3-3-1.6-4.3-0.3C153.4,151.8,153.3,153.5,154.6,155.2z"/>
			<path class="st2" d="M161.9,144.4c-0.6-1.3-0.3-2.8,0.9-4c1.7-1.7,3.7-1.6,5.5,0.2l4.8,4.8l-1.2,1.2l-4.5-4.5
				c-1.4-1.4-2.7-1.5-3.9-0.3c-1.1,1.1-1.3,2.8,0.5,4.6l4.1,4.1l-1.2,1.2l-7.5-7.5l1.2-1.2L161.9,144.4z"/>
			<path class="st2" d="M179.4,139c-0.4,0.7-0.8,1.2-1.1,1.5c-1.4,1.4-2.7,1.4-4.1,0l-4.6-4.6l-1.1,1.1l-0.9-0.9l1.1-1.1l-1.9-1.9
				l1.2-1.2l1.9,1.9l2-2l0.9,0.9l-2,2l4.6,4.6c0.8,0.8,1.5,0.7,2.1,0c0.3-0.3,0.6-0.6,0.9-1.3L179.4,139z"/>
		</g>
	</g>
</g>
<g>
	<g>
		<g>
			<path class="st2" d="M423.7,551.6c2.4-2.4,5.1-2.5,7.4-0.9l-1.3,1.3c-1.6-1-3.4-0.9-5,0.7c-2.3,2.3-1.9,5.3,0.8,8s5.7,3.1,8,0.9
				c1.8-1.8,2-4.2,0.3-5.9l-0.5-0.5l-2.5,2.5l-1-1l3.8-3.8l5.3,5.3l-1,1l-1.9-1.6c0.7,1.5,0.1,3.8-1.3,5.2c-2.8,2.8-7,2.7-10.3-0.7
				C420.9,558.7,420.9,554.4,423.7,551.6z"/>
			<path class="st2" d="M444.8,552.4c-2.1,2.1-5,2-7.4-0.4c-2.4-2.4-2.4-5.4-0.4-7.5c2.1-2.1,5.1-2,7.5,0.4
				C446.9,547.3,446.9,550.3,444.8,552.4z M443.9,551.4c1.5-1.5,1.2-3.4-0.6-5.2c-1.8-1.8-3.8-2-5.3-0.6c-1.5,1.5-1.2,3.5,0.6,5.3
				C440.4,552.6,442.4,552.8,443.9,551.4z"/>
			<path class="st2" d="M442,540l1.3-1.3l8.7,3.8l0,0L448,534l1.2-1.2l4.6,10.3l-1.4,1.4L442,540z"/>
			<path class="st2" d="M461.7,535.5c-2.1,2.1-5.1,2.1-7.5-0.3c-2.4-2.4-2.4-5.5-0.4-7.5c2.2-2.2,5-1.4,6.9,0.5l0.5,0.5l-5.5,5.5
				c1.8,1.7,3.6,1.7,5.1,0.3c1-1,1.1-2.1,0.5-3.3l1.2-1.2C463.6,532,463.1,534.1,461.7,535.5z M454.8,533.3l4.3-4.3
				c-1.3-1.3-3-1.6-4.3-0.3C453.6,530,453.5,531.6,454.8,533.3z"/>
			<path class="st2" d="M464.7,519.3c-0.2,0.1-0.5,0.4-0.7,0.6c-1.2,1.2-1.3,3.2,0.5,5.1l3.7,3.7l-1.2,1.2l-7.5-7.5l1.2-1.2l1.8,1.8
				c-0.9-1.6-0.7-3.2,0.4-4.3c0.2-0.2,0.4-0.4,0.6-0.5L464.7,519.3z"/>
			<path class="st2" d="M468.1,516.5c-0.6-1.3-0.3-2.8,0.9-4c1.7-1.7,3.7-1.6,5.5,0.2l4.8,4.8l-1.2,1.2l-4.5-4.5
				c-1.4-1.4-2.7-1.5-3.9-0.3c-1.1,1.1-1.3,2.8,0.5,4.6l4.1,4.1l-1.2,1.2l-7.5-7.5l1.2-1.2L468.1,516.5z"/>
			<path class="st2" d="M482.9,498.7c1.7-1.7,3.7-1.5,5.4,0.3l4.8,4.8l-1.2,1.2l-4.5-4.5c-1.4-1.4-2.6-1.6-3.7-0.5
				c-1.1,1.1-1.2,2.8,0.6,4.5l4.1,4.1l-1.2,1.2l-4.5-4.5c-1.4-1.4-2.6-1.6-3.7-0.5c-1.1,1.1-1.2,2.8,0.5,4.5l4.1,4.1l-1.2,1.2
				l-7.5-7.5l1.2-1.2l1.4,1.4c-0.6-1.3-0.3-2.8,0.8-3.9c1.3-1.3,2.6-1.3,3.9-0.7C481.4,501.4,481.8,499.8,482.9,498.7z"/>
			<path class="st2" d="M499.1,498.1c-2.1,2.1-5.1,2.1-7.5-0.3c-2.4-2.4-2.4-5.5-0.4-7.5c2.2-2.2,5-1.4,6.9,0.5l0.5,0.5l-5.5,5.5
				c1.8,1.7,3.6,1.7,5.1,0.3c1-1,1.1-2.1,0.5-3.3l1.2-1.2C501.1,494.5,500.6,496.6,499.1,498.1z M492.3,495.9l4.3-4.3
				c-1.3-1.3-3-1.6-4.3-0.3C491.1,492.5,490.9,494.1,492.3,495.9z"/>
			<path class="st2" d="M499.6,485.1c-0.6-1.3-0.3-2.8,0.9-4c1.7-1.7,3.7-1.6,5.5,0.2l4.8,4.8l-1.2,1.2l-4.5-4.5
				c-1.4-1.4-2.7-1.5-3.9-0.3c-1.1,1.1-1.3,2.8,0.5,4.6l4.1,4.1l-1.2,1.2l-7.5-7.5l1.2-1.2L499.6,485.1z"/>
			<path class="st2" d="M517,479.7c-0.4,0.7-0.8,1.2-1.1,1.5c-1.4,1.4-2.7,1.4-4.1,0l-4.6-4.6l-1.1,1.1l-0.9-0.9l1.1-1.1l-1.9-1.9
				l1.2-1.2l1.9,1.9l2-2l0.9,0.9l-2,2l4.6,4.6c0.8,0.8,1.5,0.7,2.1,0c0.3-0.3,0.6-0.6,0.9-1.3L517,479.7z"/>
		</g>
	</g>
</g>
<g>
	<g>
		<g>
			<path class="st2" d="M250.1,115.6v-15h10.1v1.5h-8.3v5.2h7.4v1.5h-7.4v5.2h8.4v1.5H250.1z"/>
			<path class="st2" d="M271.4,113.7c-0.5,1.1-1.8,2.1-3.6,2.1c-2.7,0-4.7-2.2-4.7-5.5c0-3.4,2-5.5,4.7-5.5c1.8,0,3,1,3.5,2.1v-6.8
				h1.7v15.4h-1.7V113.7z M271.4,110.1c0-2.4-1.2-4-3.2-4c-2.1,0-3.3,1.7-3.3,4.2c0,2.5,1.2,4.2,3.3,4.2c2.1,0,3.2-1.6,3.2-4V110.1z
				"/>
			<path class="st2" d="M284.2,115.6v-1.9c-0.5,1.3-1.8,2.2-3.4,2.2c-2.4,0-3.7-1.4-3.7-4V105h1.8v6.5c0,2,0.8,3,2.5,3
				c1.6,0,2.8-1.1,2.8-3.6V105h1.8v10.6H284.2z"/>
			<path class="st2" d="M294.2,104.8c2.3,0,3.9,1.3,4.2,3.6h-1.7c-0.3-1.4-1.2-2.2-2.6-2.2c-2.1,0-3.3,1.7-3.3,4.1
				c0,2.5,1.2,4.1,3.3,4.1c1.4,0,2.3-0.8,2.6-2.2h1.7c-0.3,2.3-1.9,3.6-4.2,3.6c-2.9,0-5-2.1-5-5.5
				C289.3,106.9,291.3,104.8,294.2,104.8z"/>
			<path class="st2" d="M308,113.8c-0.5,1.2-1.9,2-3.7,2c-1.8,0-3.4-1.1-3.4-3c0-2,1.5-2.9,3.7-3.2l3.4-0.4v-0.6
				c0-1.7-1-2.4-2.5-2.4c-1.4,0-2.3,0.7-2.4,2h-1.7c0.2-2.1,1.9-3.4,4.1-3.4c2.6,0,4.2,1.2,4.2,3.8v4.8c0,0.8,0,1.5,0.3,2.2h-1.7
				C308.1,115,308,114.3,308,113.8z M308,111.4v-0.9l-2.9,0.3c-1.3,0.2-2.4,0.5-2.4,2c0,1,0.7,1.7,2,1.7
				C306.4,114.5,308,113.5,308,111.4z"/>
			<path class="st2" d="M318.7,115.4c-0.8,0.2-1.4,0.3-1.8,0.3c-1.9,0-2.9-0.9-2.9-2.9v-6.5h-1.6V105h1.6v-2.7h1.7v2.7h2.8v1.3h-2.8
				v6.4c0,1.1,0.6,1.5,1.5,1.5c0.4,0,0.9,0,1.5-0.3V115.4z"/>
			<path class="st2" d="M321.8,100.7h2v2.1h-2V100.7z M321.9,105h1.7v10.6h-1.7V105z"/>
			<path class="st2" d="M332,115.8c-2.9,0-5-2.1-5-5.5c0-3.4,2.1-5.5,5-5.5c2.9,0,5,2.1,5,5.5C337.1,113.7,335,115.8,332,115.8z
				 M332,114.4c2.1,0,3.3-1.6,3.3-4.1c0-2.5-1.2-4.1-3.3-4.1c-2.1,0-3.3,1.6-3.3,4.1C328.8,112.8,330,114.4,332,114.4z"/>
			<path class="st2" d="M342.1,106.9c0.5-1.3,1.8-2.2,3.4-2.2c2.4,0,3.8,1.5,3.8,4v6.8h-1.7v-6.4c0-2-0.9-3-2.5-3
				c-1.6,0-2.9,1-2.9,3.6v5.8h-1.7V105h1.7V106.9z"/>
		</g>
	</g>
</g>
<g>
	<g>
		<g>
			<path class="st2" d="M61.1,413.2h6v1.8h-15v-5.5c0-3.3,1.5-5.3,4.5-5.3c3,0,4.5,1.9,4.5,5.2V413.2z M59.5,409.5
				c0-2.3-0.9-3.5-3-3.5c-2,0-3,1.2-3,3.5v3.7h5.9V409.5z"/>
			<path class="st2" d="M67.1,394h-1.9c1.3,0.5,2.2,1.8,2.2,3.4c0,2.4-1.4,3.7-4,3.7h-6.8v-1.8H63c2,0,3-0.8,3-2.5
				c0-1.6-1.1-2.8-3.6-2.8h-5.8v-1.8h10.6V394z"/>
			<path class="st2" d="M67.1,386.5v1.7H51.6v-1.7h6.8c-1.1-0.5-2.1-1.7-2.1-3.5c0-2.7,2.2-4.7,5.5-4.7c3.3,0,5.5,2,5.5,4.7
				c0,1.7-1,3-2.1,3.6H67.1z M61.9,386.5c2.4,0,4-1.2,4-3.2c0-2.1-1.7-3.3-4.2-3.3c-2.5,0-4.2,1.2-4.2,3.3c0,2.1,1.6,3.2,4,3.2H61.9
				z"/>
			<path class="st2" d="M67.1,374.8H51.6v-1.7h15.4V374.8z"/>
			<path class="st2" d="M52.2,369.1v-2h2.1v2H52.2z M56.5,368.9v-1.7h10.6v1.7H56.5z"/>
			<path class="st2" d="M56.3,358.8c0-2.3,1.3-3.9,3.6-4.2v1.7c-1.4,0.3-2.2,1.2-2.2,2.6c0,2.1,1.7,3.3,4.1,3.3s4.1-1.2,4.1-3.3
				c0-1.4-0.8-2.3-2.2-2.6v-1.7c2.3,0.3,3.6,1.9,3.6,4.2c0,2.9-2.1,5-5.5,5C58.4,363.8,56.3,361.8,56.3,358.8z"/>
			<path class="st2" d="M62.6,345.5c2.4-0.2,3.2-2.2,3.2-4.4c0-2.1-1-3.7-2.8-3.7c-1.3,0-2.1,0.7-2.5,2.7l-0.6,2.9
				c-0.4,2-1.3,3.8-3.9,3.8c-2.5,0-4.3-2.1-4.3-5.2c0-3.2,1.4-5.3,4.1-5.6v1.7c-1.7,0.3-2.6,1.7-2.6,3.9c0,2.2,1.2,3.5,2.8,3.5
				c1.5,0,2-0.8,2.4-2.7l0.6-2.9c0.5-2.3,1.5-3.8,3.9-3.8c2.6,0,4.4,2.3,4.4,5.4c0,3.3-1.4,6-4.7,6.2V345.5z"/>
			<path class="st2" d="M65.3,325.8c1.2,0.5,2,1.9,2,3.7c0,1.8-1.1,3.4-3,3.4c-2,0-2.9-1.5-3.2-3.7l-0.4-3.4h-0.6
				c-1.7,0-2.4,1-2.4,2.5c0,1.4,0.7,2.3,2,2.4v1.7c-2.1-0.2-3.4-1.9-3.4-4.1c0-2.6,1.2-4.2,3.8-4.2h4.8c0.8,0,1.5,0,2.2-0.3v1.7
				C66.5,325.8,65.8,325.8,65.3,325.8z M62.9,325.9H62l0.3,2.9c0.2,1.3,0.5,2.4,2,2.4c1,0,1.7-0.7,1.7-2
				C66,327.5,65,325.9,62.9,325.9z"/>
			<path class="st2" d="M57.8,321.4h-1.3v-1.5h-2c-2,0-3-1.3-3-3.1c0-0.4,0-0.9,0.1-1.2h1.4c0,0.3-0.1,0.7-0.1,1.1
				c0,0.8,0.4,1.4,1.6,1.4h2v-2.3h1.3v2.3h9.2v1.7h-9.2V321.4z"/>
			<path class="st2" d="M67.3,308.9c0,3-2.1,5.1-5.5,5.1c-3.4,0-5.6-2.2-5.6-5c0-3.1,2.5-4.5,5.2-4.5h0.7v7.8
				c2.4-0.1,3.8-1.4,3.8-3.4c0-1.4-0.7-2.3-2-2.7v-1.6C66.2,305,67.3,306.8,67.3,308.9z M60.9,312.2v-6c-1.8,0-3.2,0.9-3.2,2.8
				C57.7,310.6,58.7,311.9,60.9,312.2z"/>
			<path class="st2" d="M66.9,296.1c0.2,0.8,0.3,1.4,0.3,1.8c0,1.9-0.9,2.9-2.9,2.9h-6.5v1.6h-1.3v-1.6h-2.7v-1.7h2.7v-2.8h1.3v2.8
				h6.4c1.1,0,1.5-0.6,1.5-1.5c0-0.4,0-0.9-0.3-1.5H66.9z"/>
			<path class="st2" d="M56.5,294.2v-1.8l8.6-3.4v0l-8.6-3.2V284l10.9,4.3c2.5,1,3.6,1.8,3.6,3.7c0,0.3,0,0.7-0.1,1h-1.4
				c0.1-0.3,0.1-0.6,0.1-0.8c0-1-0.6-1.5-2.4-2.2L56.5,294.2z"/>
		</g>
	</g>
</g>
<g>
	<g>
		<g>
			<path class="st2" d="M548.1,301.5h15v10.1h-1.5v-8.3h-5.2v7.4h-1.5v-7.4h-5.2v8.4h-1.5V301.5z"/>
			<path class="st2" d="M558.9,319.4c0,2.3-1.3,3.9-3.6,4.2V322c1.4-0.3,2.2-1.2,2.2-2.6c0-2.1-1.7-3.3-4.1-3.3
				c-2.5,0-4.1,1.2-4.1,3.3c0,1.4,0.8,2.3,2.2,2.6v1.7c-2.3-0.3-3.6-1.9-3.6-4.2c0-2.9,2.1-5,5.5-5
				C556.7,314.5,558.9,316.5,558.9,319.4z"/>
			<path class="st2" d="M547.8,331.2c0-2.9,2.1-5,5.5-5s5.5,2.1,5.5,5c0,2.9-2.1,5-5.5,5S547.8,334.1,547.8,331.2z M549.2,331.2
				c0,2.1,1.6,3.3,4.1,3.3c2.5,0,4.1-1.2,4.1-3.3c0-2.1-1.6-3.3-4.1-3.3C550.8,327.9,549.2,329.2,549.2,331.2z"/>
			<path class="st2" d="M556.7,341.3c1.3,0.5,2.2,1.8,2.2,3.4c0,2.4-1.5,3.8-4,3.8h-6.8v-1.7h6.4c2,0,3-0.9,3-2.5
				c0-1.6-1-2.9-3.6-2.9h-5.8v-1.7h10.6v1.7H556.7z"/>
			<path class="st2" d="M547.8,356.8c0-2.9,2.1-5,5.5-5s5.5,2.1,5.5,5c0,2.9-2.1,5-5.5,5S547.8,359.7,547.8,356.8z M549.2,356.8
				c0,2.1,1.6,3.3,4.1,3.3c2.5,0,4.1-1.2,4.1-3.3c0-2.1-1.6-3.3-4.1-3.3C550.8,353.5,549.2,354.7,549.2,356.8z"/>
			<path class="st2" d="M558.9,376.9c0,2.4-1.5,3.6-4,3.6h-6.8v-1.8h6.4c2,0,3-0.7,3-2.3c0-1.6-1.1-2.8-3.6-2.8h-5.8V372h6.4
				c2,0,3-0.7,3-2.3c0-1.6-1.1-2.8-3.6-2.8h-5.8v-1.7h10.6v1.7h-1.9c1.3,0.5,2.2,1.8,2.2,3.3c0,1.8-0.9,2.7-2.3,3.2
				C558,374,558.9,375.4,558.9,376.9z"/>
			<path class="st2" d="M558.6,384.6v1.7h-10.6v-1.7H558.6z M562.9,384.5v2h-2.1v-2H562.9z"/>
			<path class="st2" d="M558.9,394.7c0,2.3-1.3,3.9-3.6,4.2v-1.7c1.4-0.3,2.2-1.2,2.2-2.6c0-2.1-1.7-3.3-4.1-3.3
				c-2.5,0-4.1,1.2-4.1,3.3c0,1.4,0.8,2.3,2.2,2.6v1.7c-2.3-0.3-3.6-1.9-3.6-4.2c0-2.9,2.1-5,5.5-5
				C556.7,389.7,558.9,391.8,558.9,394.7z"/>
			<path class="st2" d="M532.5,296.5c-4.5,0-7.5-3-7.5-7.3v-5.3h15v5.3C540,293.6,537,296.5,532.5,296.5z M538.5,285.7h-12v3.5
				c0,3.5,2.3,5.4,6,5.4c3.6,0,6-2,6-5.4V285.7z"/>
			<path class="st2" d="M524.7,304.2c0-3,2.1-5.1,5.5-5.1c3.4,0,5.6,2.2,5.6,5c0,3.1-2.5,4.5-5.2,4.5h-0.7v-7.8
				c-2.4,0.1-3.8,1.4-3.8,3.4c0,1.4,0.7,2.3,2,2.7v1.6C525.8,308.1,524.7,306.2,524.7,304.2z M531.2,300.9v6c1.8,0,3.2-0.9,3.2-2.8
				C534.4,302.4,533.3,301.1,531.2,300.9z"/>
			<path class="st2" d="M535.5,310.4v1.8l-8.8,3.4v0l8.8,3.3v1.7l-10.6-4v-2L535.5,310.4z"/>
			<path class="st2" d="M524.7,327.5c0-3,2.1-5.1,5.5-5.1c3.4,0,5.6,2.2,5.6,5c0,3.1-2.5,4.5-5.2,4.5h-0.7v-7.8
				c-2.4,0.1-3.8,1.4-3.8,3.4c0,1.4,0.7,2.3,2,2.7v1.6C525.8,331.4,524.7,329.6,524.7,327.5z M531.2,324.2v6c1.8,0,3.2-0.9,3.2-2.8
				C534.4,325.7,533.3,324.5,531.2,324.2z"/>
			<path class="st2" d="M525,335.3h15.4v1.7H525V335.3z"/>
			<path class="st2" d="M524.7,345.4c0-2.9,2.1-5,5.5-5s5.5,2.1,5.5,5c0,2.9-2.1,5-5.5,5S524.7,348.4,524.7,345.4z M526.1,345.4
				c0,2.1,1.6,3.3,4.1,3.3s4.1-1.2,4.1-3.3c0-2.1-1.6-3.3-4.1-3.3S526.1,343.4,526.1,345.4z"/>
			<path class="st2" d="M521.3,355.6v-1.7h14.3v1.7h-1.9c1.1,0.5,2.2,1.7,2.2,3.6c0,2.7-2.2,4.7-5.5,4.7c-3.3,0-5.5-2-5.5-4.7
				c0-1.7,1-3,2.1-3.5H521.3z M530.1,355.5c-2.4,0-4,1.2-4,3.2c0,2.1,1.7,3.3,4.2,3.3c2.5,0,4.2-1.2,4.2-3.3c0-2.1-1.6-3.2-4-3.2
				H530.1z"/>
			<path class="st2" d="M535.8,378.9c0,2.4-1.5,3.6-4,3.6H525v-1.8h6.4c2,0,3-0.7,3-2.3c0-1.6-1.1-2.8-3.6-2.8H525V374h6.4
				c2,0,3-0.7,3-2.3c0-1.6-1.1-2.8-3.6-2.8H525v-1.7h10.6v1.7h-1.9c1.3,0.5,2.2,1.8,2.2,3.3c0,1.8-0.9,2.7-2.3,3.2
				C535,376,535.8,377.4,535.8,378.9z"/>
			<path class="st2" d="M524.7,390.9c0-3,2.1-5.1,5.5-5.1c3.4,0,5.6,2.2,5.6,5c0,3.1-2.5,4.5-5.2,4.5h-0.7v-7.8
				c-2.4,0.1-3.8,1.4-3.8,3.4c0,1.4,0.7,2.3,2,2.7v1.6C525.8,394.8,524.7,392.9,524.7,390.9z M531.2,387.6v6c1.8,0,3.2-0.9,3.2-2.8
				C534.4,389.1,533.3,387.9,531.2,387.6z"/>
			<path class="st2" d="M533.6,400.4c1.3,0.5,2.2,1.8,2.2,3.4c0,2.4-1.5,3.8-4,3.8H525v-1.7h6.4c2,0,3-0.9,3-2.5
				c0-1.6-1-2.9-3.6-2.9H525v-1.7h10.6v1.7H533.6z"/>
			<path class="st2" d="M525.1,416.5c-0.2-0.8-0.3-1.4-0.3-1.8c0-1.9,0.9-2.9,2.9-2.9h6.5v-1.6h1.3v1.6h2.7v1.7h-2.7v2.8h-1.3v-2.8
				h-6.4c-1.1,0-1.5,0.6-1.5,1.5c0,0.4,0,0.9,0.3,1.5H525.1z"/>
		</g>
	</g>
</g>
<g>
	<g>
		<g>
			<path class="st2" d="M259,580.9h1.8v6.6h8.8v-6.6h1.8v15h-1.8V589h-8.8v6.9H259V580.9z"/>
			<path class="st2" d="M279.9,596.1c-2.9,0-5-2.1-5-5.5c0-3.4,2.1-5.5,5-5.5c2.9,0,5,2.1,5,5.5C284.9,594,282.8,596.1,279.9,596.1z
				 M279.9,594.7c2.1,0,3.3-1.6,3.3-4.1c0-2.5-1.2-4.1-3.3-4.1c-2.1,0-3.3,1.6-3.3,4.1C276.6,593.2,277.8,594.7,279.9,594.7z"/>
			<path class="st2" d="M295.2,595.9V594c-0.5,1.3-1.8,2.2-3.4,2.2c-2.4,0-3.7-1.4-3.7-4v-6.8h1.8v6.5c0,2,0.8,3,2.5,3
				c1.6,0,2.8-1.1,2.8-3.6v-5.8h1.8v10.6H295.2z"/>
			<path class="st2" d="M301.9,592.8c0.1,1.4,1.5,2.1,2.9,2.1c1.4,0,2.5-0.7,2.5-1.8c0-0.8-0.5-1.3-1.8-1.5l-1.9-0.4
				c-1.7-0.3-2.9-1-2.9-2.9c0-1.8,1.6-3.2,3.9-3.2c2.4,0,3.9,1,4.1,3H307c-0.1-1.1-1.1-1.7-2.5-1.7c-1.4,0-2.3,0.7-2.3,1.7
				c0,0.9,0.6,1.3,1.8,1.5l2.1,0.4c1.7,0.3,2.7,1.2,2.7,2.9c0,1.8-1.7,3.2-4.1,3.2c-2.5,0-4.4-1.1-4.6-3.4H301.9z"/>
			<path class="st2" d="M312.2,581h2v2.1h-2V581z M312.3,585.3h1.7v10.6h-1.7V585.3z"/>
			<path class="st2" d="M319.9,587.3c0.5-1.3,1.8-2.2,3.4-2.2c2.4,0,3.8,1.5,3.8,4v6.8h-1.7v-6.4c0-2-0.9-3-2.5-3
				c-1.6,0-2.9,1-2.9,3.6v5.8h-1.7v-10.6h1.7V587.3z"/>
			<path class="st2" d="M338.6,593.7c-0.5,1-1.7,2-3.5,2c-2.7,0-4.7-2-4.7-5.3c0-3.2,2-5.3,4.7-5.3c1.8,0,3.1,1.1,3.6,2.1v-1.8h1.7
				v9.8c0,3.4-2.2,4.8-5,4.8c-2.5,0-4.3-1-4.7-3.1h1.8c0.4,1.3,1.5,1.7,2.9,1.7c2.1,0,3.3-1.1,3.3-3.3V593.7z M338.7,590.1
				c0-2.2-1.4-3.7-3.3-3.7c-2.1,0-3.3,1.6-3.3,3.9c0,2.3,1.2,3.9,3.3,3.9c2,0,3.3-1.5,3.3-3.7V590.1z"/>
		</g>
	</g>
</g>
<g>
	<g>
		<g>
			<path class="st2" d="M107.4,467.6l1.3,1.3l-4.7,4.7l6.2,6.2l4.7-4.7l1.3,1.3l-10.6,10.6l-1.3-1.3l4.9-4.9l-6.2-6.2l-4.9,4.9
				l-1.3-1.3L107.4,467.6z"/>
			<path class="st2" d="M111.4,493.1c-2.1-2.1-2.1-5.1,0.3-7.5c2.4-2.4,5.5-2.4,7.5-0.4c2.2,2.2,1.4,5-0.5,6.9l-0.5,0.5l-5.5-5.5
				c-1.7,1.8-1.7,3.6-0.3,5.1c1,1,2.1,1.1,3.3,0.5l1.2,1.2C115,495.1,112.9,494.6,111.4,493.1z M113.6,486.2l4.3,4.3
				c1.3-1.3,1.6-3,0.3-4.3C117,485,115.4,484.9,113.6,486.2z"/>
			<path class="st2" d="M123,501.8c-1.2,0.5-2.8,0.1-4-1.2c-1.3-1.3-1.7-3.2-0.3-4.6c1.4-1.4,3.1-1,4.8,0.3l2.7,2.1l0.4-0.4
				c1.2-1.2,1-2.4-0.1-3.4c-1-1-2.1-1.1-3.1-0.3l-1.2-1.2c1.7-1.4,3.7-1,5.3,0.5c1.8,1.8,2.1,3.8,0.3,5.6l-3.4,3.4
				c-0.5,0.5-1,1.1-1.4,1.7l-1.2-1.2C122.2,502.7,122.6,502.2,123,501.8z M124.6,500.1l0.7-0.7l-2.3-1.8c-1.1-0.8-2.1-1.3-3.1-0.3
				c-0.7,0.7-0.7,1.7,0.2,2.7C121.3,501.1,123.2,501.5,124.6,500.1z"/>
			<path class="st2" d="M125.8,507.1l10.9-10.9l1.2,1.2L127,508.3L125.8,507.1z"/>
			<path class="st2" d="M133.5,514.7c-0.7-0.4-1.2-0.8-1.5-1.1c-1.4-1.4-1.4-2.7,0-4.1l4.6-4.6l-1.1-1.1l0.9-0.9l1.1,1.1l1.9-1.9
				l1.2,1.2l-1.9,1.9l2,2l-0.9,0.9l-2-2l-4.6,4.6c-0.8,0.8-0.7,1.5,0,2.1c0.3,0.3,0.6,0.6,1.3,0.9L133.5,514.7z"/>
			<path class="st2" d="M147,513c1.7,1.7,1.6,3.7-0.2,5.5l-4.8,4.8l-1.2-1.2l4.5-4.5c1.4-1.4,1.5-2.7,0.3-3.9
				c-1.1-1.1-2.8-1.3-4.6,0.5l-4.1,4.1l-1.2-1.2l10.9-10.9l1.2,1.2l-4.8,4.8C144.3,511.6,145.8,511.9,147,513z"/>
			<path class="st2" d="M154.1,532.9c-1.2,0.6-2.8,0.1-4-1.2c-1.3-1.3-1.7-3.2-0.3-4.6c1.4-1.4,3.1-1,4.8,0.3l2.7,2.1l0.4-0.4
				c1.2-1.2,1-2.4-0.1-3.4c-1-1-2.1-1.1-3.1-0.3l-1.2-1.2c1.7-1.4,3.7-1,5.3,0.5c1.8,1.8,2.1,3.8,0.3,5.6l-3.4,3.4
				c-0.5,0.5-1,1.1-1.4,1.7l-1.2-1.2C153.3,533.8,153.7,533.2,154.1,532.9z M155.7,531.2l0.7-0.7l-2.3-1.8c-1.1-0.8-2.1-1.3-3.1-0.3
				c-0.7,0.7-0.7,1.7,0.2,2.7C152.4,532.2,154.3,532.6,155.7,531.2z"/>
			<path class="st2" d="M164.1,533.3c1.3-0.6,2.8-0.3,4,0.9c1.7,1.7,1.6,3.7-0.2,5.5l-4.8,4.8l-1.2-1.2l4.5-4.5
				c1.4-1.4,1.5-2.7,0.3-3.9c-1.1-1.1-2.8-1.3-4.6,0.5l-4.1,4.1l-1.2-1.2l7.5-7.5l1.2,1.2L164.1,533.3z"/>
			<path class="st2" d="M172.6,551.3c-1.1,0.4-2.8,0.2-4-1c-1.9-1.9-1.8-4.9,0.6-7.2c2.4-2.4,5.3-2.5,7.2-0.6c1.3,1.3,1.4,2.9,1,4
				l4.8-4.8l1.2,1.2l-10.9,10.9l-1.2-1.2L172.6,551.3z M175.2,548.8c1.7-1.7,2-3.7,0.6-5.1c-1.5-1.5-3.5-1.1-5.3,0.6
				c-1.7,1.7-2.1,3.8-0.6,5.3c1.5,1.5,3.4,1.1,5.1-0.6L175.2,548.8z"/>
			<path class="st2" d="M102.2,498.4L102.2,498.4l-11.3,6.5l-1.4-1.4l7.6-13.6l1.4,1.4l-6.6,11.4l0,0l11.4-6.6l1.4,1.4L98,508.8l0,0
				l11.4-6.6l1.3,1.3l-13.6,7.6l-1.5-1.5L102.2,498.4z"/>
			<path class="st2" d="M104.4,518.8c-2.1-2.1-2.1-5.1,0.3-7.5c2.4-2.4,5.5-2.4,7.5-0.4c2.2,2.2,1.4,5-0.5,6.9l-0.5,0.5l-5.5-5.5
				c-1.7,1.8-1.7,3.6-0.3,5.1c1,1,2.1,1.1,3.3,0.5l1.2,1.2C108,520.7,105.9,520.2,104.4,518.8z M106.6,511.9l4.3,4.3
				c1.3-1.3,1.6-3,0.3-4.3C110,510.7,108.4,510.6,106.6,511.9z"/>
			<path class="st2" d="M110.1,524.1l10.9-10.9l1.2,1.2l-10.9,10.9L110.1,524.1z"/>
			<path class="st2" d="M114.3,528.3l10.9-10.9l1.2,1.2l-10.9,10.9L114.3,528.3z"/>
			<path class="st2" d="M125.7,527.5c1.3-0.6,2.8-0.3,4,0.9c1.7,1.7,1.6,3.7-0.2,5.5l-4.8,4.8l-1.2-1.2l4.5-4.5
				c1.4-1.4,1.5-2.7,0.3-3.9c-1.1-1.1-2.8-1.3-4.6,0.5l-4.1,4.1l-1.2-1.2l7.5-7.5l1.2,1.2L125.7,527.5z"/>
			<path class="st2" d="M130.5,544.8c-2.1-2.1-2.1-5.1,0.3-7.5c2.4-2.4,5.5-2.4,7.5-0.4c2.2,2.2,1.4,5-0.5,6.9l-0.5,0.5l-5.5-5.5
				c-1.7,1.8-1.7,3.6-0.3,5.1c1,1,2.1,1.1,3.3,0.5l1.2,1.2C134,546.8,131.9,546.3,130.5,544.8z M132.7,537.9l4.3,4.3
				c1.3-1.3,1.6-3,0.3-4.3C136.1,536.7,134.4,536.6,132.7,537.9z"/>
			<path class="st2" d="M139,548.6c-0.9,1.1-0.4,2.5,0.6,3.5c1,1,2.2,1.3,3,0.5c0.5-0.5,0.5-1.3-0.2-2.4l-1.1-1.6
				c-1-1.4-1.4-2.8-0.1-4.1c1.3-1.3,3.4-1.1,5,0.5c1.7,1.7,2,3.5,0.8,5.1l-1.1-1.1c0.7-0.8,0.4-2-0.6-3c-1-1-2.1-1.1-2.8-0.4
				c-0.6,0.6-0.5,1.4,0.2,2.4l1.2,1.8c1,1.5,1.1,2.8-0.1,4c-1.3,1.3-3.5,1-5.2-0.6c-1.8-1.8-2.3-3.9-0.9-5.6L139,548.6z"/>
			<path class="st2" d="M147,556.5c-0.9,1.1-0.4,2.5,0.6,3.5c1,1,2.2,1.3,3,0.5c0.5-0.5,0.5-1.3-0.2-2.4l-1.1-1.6
				c-1-1.4-1.4-2.8-0.1-4.1c1.3-1.3,3.4-1.1,5,0.5c1.7,1.7,2,3.5,0.8,5.1l-1.1-1.1c0.7-0.8,0.4-2-0.6-3c-1-1-2.1-1.1-2.8-0.4
				c-0.6,0.6-0.5,1.4,0.2,2.4l1.2,1.8c1,1.5,1.1,2.8-0.1,4c-1.3,1.3-3.5,1-5.2-0.6c-1.8-1.8-2.3-3.9-0.9-5.6L147,556.5z"/>
		</g>
	</g>
</g>
<g>
	<polygon class="st3" points="297.7,158.8 290.9,170.7 304.6,170.7 	"/>
	<polygon class="st3" points="297.7,540.5 304.6,528.7 290.9,528.7 	"/>
	<polygon class="st3" points="488.6,349.7 476.7,342.8 476.7,356.5 	"/>
	<polygon class="st3" points="106.9,349.7 118.7,356.5 118.7,342.8 	"/>
	<polygon class="st3" points="432.7,214.7 419.4,218.3 429.1,228 	"/>
	<polygon class="st3" points="162.8,484.6 176,481.1 166.3,471.4 	"/>
	<polygon class="st3" points="432.7,484.6 429.1,471.4 419.4,481.1 	"/>
	<polygon class="st3" points="162.8,214.7 166.3,228 176,218.3 	"/>
</g>
</svg>
