<?xml version="1.0" encoding="utf-8"?>
<!-- Generator: Adobe Illustrator 22.1.0, SVG Export Plug-In . SVG Version: 6.00 Build 0)  -->
<svg version="1.1" id="Layer_1" xmlns="http://www.w3.org/2000/svg" xmlns:xlink="http://www.w3.org/1999/xlink" x="0px" y="0px"
	 viewBox="0 0 750 650" style="enable-background:new 0 0 750 650;" xml:space="preserve">
<style type="text/css">
	.st0{fill:#3E449C;}
	.st1{enable-background:new    ;}
	.st2{fill:#FFFFFF;}
	.st3{fill:#6E73B5;}
	.st4{fill:#CFD0E6;}
	.st5{fill:none;stroke:#DB595A;stroke-miterlimit:10;}
	.st6{fill:none;stroke:#3E449C;stroke-miterlimit:10;}
</style>
<path class="st0" d="M389.3,502c98.3,0,178-79.7,178-178s-79.7-178-178-178s-178,79.7-178,178S291,502,389.3,502"/>
<g class="st1">
	<path class="st2" d="M338.8,294.8h-0.2l-6.9,24h-2.8l-8.4-27.7c-0.3-1.1-1.1-1.4-4.1-1.4v-2.1h12.8v2.1c-3.3,0-4.3,0.2-4.3,0.9
		c0,0.2,0,0.3,0.2,0.9l6,21.1h0.2l6.9-24.9h2.5l7.1,24.9h0.2l6-21.1c0.1-0.5,0.2-0.8,0.2-0.9c0-0.7-0.9-0.9-4.4-0.9v-2.1H361v2.1
		c-3,0-3.7,0.3-4,1.4l-8.4,27.7h-2.8L338.8,294.8z"/>
	<path class="st2" d="M377,312.8l1.7,1.2c-1.5,3.1-4.8,5-8.4,5c-5.8,0-10.2-4.6-10.2-11.3c0-3,0.9-5.8,2.7-8
		c1.9-2.4,4.6-3.8,7.4-3.8c5.3,0,8.4,3.6,8.4,9.4v1.5h-14.5v0.1c0,5.6,2.9,9.1,7.1,9.1C373.6,316.2,375.2,315.3,377,312.8z
		 M370.1,298.4c-3,0-5.3,2.5-5.8,6.5h10.5C374.7,300.5,373.2,298.4,370.1,298.4z"/>
	<path class="st2" d="M406.2,300.8c-1-2-1.8-2.3-3.1-2.3c-3.5,0-6.1,3.7-6.1,8.8c0,5.4,2.7,8.9,6.5,8.9c2.5,0,4.3-1.1,5.9-3.9
		l1.8,1.1c-1.8,3.6-4.8,5.6-8.5,5.6c-5.7,0-9.8-4.4-9.8-10.9c0-3.1,1-6,3-8.3c2.1-2.4,4.9-3.8,7.8-3.8c3.8,0,6.9,2.1,6.9,4.5
		c0,1.3-0.9,2.2-2.1,2.2C407.5,302.7,407,302.4,406.2,300.8z"/>
	<path class="st2" d="M431.8,319c-2.2,0-4-1.6-4.4-4c-1.8,2.3-4.8,4-7.5,4c-3.3,0-5.4-2-5.4-5.1c0-4.2,4.1-7,12.7-8.8v-2.9
		c0-2.6-1.4-4-4-4c-2,0-3.7,0.9-3.7,2c0,0.2,0,0.3,0.2,0.7c0.2,0.5,0.2,0.8,0.2,1.2c0,1.3-1,2.2-2.3,2.2c-1.4,0-2.4-1.1-2.4-2.6
		c0-3.1,4.2-5.7,9-5.7c4.8,0,7,2,7,6v11.7c0,1.5,0.8,2.4,1.9,2.4c0.8,0,1.3-0.2,2.1-0.8l0.7,1.5C434.9,318.1,433.3,319,431.8,319z
		 M427.3,313.4v-6.2c-6.3,1.5-8.7,3.1-8.7,6c0,1.9,1.2,3.1,3,3.1C423.6,316.2,425.4,315.4,427.3,313.4z"/>
	<path class="st2" d="M447.6,316.6v2h-10.1v-2c2.8,0,3-0.1,3-0.9v-14.2c0-0.8-0.1-1.1-1.1-1.5l-2.2-1v-1l6.6-1.9h0.7v4.2
		c1.8-2.4,4.9-4.2,7.6-4.2c4,0,6.3,2.9,6.3,7.8v11.8c0,0.8,0.3,0.9,3,0.9v2h-10.1v-2c2.8,0,3-0.1,3-0.9v-11.4c0-3.4-1.5-5.2-4.3-5.2
		c-2,0-4.1,1.1-5.7,2.8v13.8C444.6,316.5,444.9,316.6,447.6,316.6z"/>
	<path class="st2" d="M295.4,359c-2.3,0-4-1.6-4.4-4c-1.8,2.3-4.8,4-7.5,4c-3.3,0-5.4-2-5.4-5.1c0-4.2,4.1-7,12.7-8.8v-2.9
		c0-2.6-1.4-4-4-4c-2,0-3.7,0.9-3.7,2c0,0.2,0,0.3,0.2,0.7c0.2,0.5,0.2,0.8,0.2,1.2c0,1.3-1,2.2-2.3,2.2s-2.4-1.1-2.4-2.6
		c0-3.1,4.2-5.7,9-5.7c4.8,0,7,2,7,6v11.7c0,1.5,0.8,2.4,1.9,2.4c0.8,0,1.3-0.2,2.1-0.8l0.7,1.5C298.5,358.1,296.9,359,295.4,359z
		 M290.9,353.4v-6.2c-6.3,1.5-8.7,3.1-8.7,6c0,1.9,1.2,3.1,3,3.1C287.2,356.2,289,355.4,290.9,353.4z"/>
	<path class="st2" d="M311.2,356.6v2h-10.1v-2c2.8,0,3-0.1,3-0.9v-14.2c0-0.8-0.1-1.1-1.1-1.5l-2.2-1v-1l6.6-1.9h0.7v4.2
		c1.8-2.4,4.9-4.2,7.6-4.2c4,0,6.3,2.9,6.3,7.8v11.8c0,0.8,0.3,0.9,3,0.9v2h-10.1v-2c2.8,0,3-0.1,3-0.9v-11.4c0-3.4-1.5-5.2-4.3-5.2
		c-2,0-4.1,1.1-5.7,2.8v13.8C308.2,356.5,308.5,356.6,311.2,356.6z"/>
	<path class="st2" d="M351.1,357v1l-6.6,1h-0.7v-4.2c-1.5,2.4-4.3,4.2-6.9,4.2c-5.1,0-8.8-4.5-8.8-10.6c0-7.4,4.2-12.3,10.3-12.3
		c2,0,4.1,0.8,5.4,2v-9.2c0-0.8-0.1-1.1-1.1-1.5l-2.2-1v-1l6.6-1.9h0.7v31.1c0,0.8,0.1,1.1,1.1,1.5L351.1,357z M339,338.3
		c-4,0-6.7,3.7-6.7,9.1c0,5.1,2.4,8.6,6.1,8.6c2,0,3.7-0.9,5.3-2.9v-12.4C342.9,339.2,341.2,338.3,339,338.3z"/>
	<path class="st2" d="M387.4,358.8H385l-5.4-16.5h-0.2l-5.3,16.5h-2.3l-6.4-19.4c-0.2-0.8-0.7-0.9-2.9-0.9v-2h9.9v2
		c-2.8,0.1-3,0.2-3,0.6c0,0.1,0,0.4,0.2,0.7l4.1,13.2h0.2l5.2-16.6h2.3l5.3,16.6h0.2l4.3-13.3c0.1-0.3,0.2-0.6,0.2-0.7
		c0-0.4-0.2-0.5-3-0.6v-2h8.2v2c-2.2,0-2.6,0.1-2.9,0.9L387.4,358.8z"/>
	<path class="st2" d="M415.5,352.8l1.7,1.2c-1.5,3.1-4.8,5-8.4,5c-5.8,0-10.2-4.6-10.2-11.3c0-3,0.9-5.8,2.7-8
		c1.9-2.4,4.6-3.8,7.4-3.8c5.3,0,8.4,3.6,8.4,9.4v1.5h-14.5v0.1c0,5.6,2.9,9.1,7.1,9.1C412.1,356.2,413.6,355.3,415.5,352.8z
		 M408.5,338.4c-3,0-5.3,2.5-5.8,6.5h10.5C413.1,340.5,411.6,338.4,408.5,338.4z"/>
	<path class="st2" d="M454.3,358.8h-2.3l-5.4-16.5h-0.2l-5.3,16.5h-2.3l-6.4-19.4c-0.2-0.8-0.7-0.9-2.9-0.9v-2h9.9v2
		c-2.8,0.1-3,0.2-3,0.6c0,0.1,0,0.4,0.2,0.7l4.1,13.2h0.2l5.2-16.6h2.3l5.3,16.6h0.2l4.3-13.3c0.1-0.3,0.2-0.6,0.2-0.7
		c0-0.4-0.2-0.5-3-0.6v-2h8.2v2c-2.2,0-2.6,0.1-2.9,0.9L454.3,358.8z"/>
	<path class="st2" d="M468.4,355.7v-14.2c0-0.8-0.1-1.1-1.1-1.5l-2.2-1v-1l6.6-1.9h0.7v19.6c0,0.8,0.3,0.9,3,0.9v2h-10.1v-2
		C468.1,356.6,468.4,356.5,468.4,355.7z M470.3,331.2c-1.6,0-3-1.3-3-3c0-1.6,1.3-3,3-3s3,1.3,3,3
		C473.3,329.9,472,331.2,470.3,331.2z"/>
	<path class="st2" d="M481.2,355.7v-26.8c0-0.8-0.1-1.1-1.1-1.5l-2.2-1v-1l6.6-1.9h0.7v32.3c0,0.8,0.3,0.9,3,0.9v2h-10.1v-2
		C480.9,356.6,481.2,356.5,481.2,355.7z"/>
	<path class="st2" d="M494.3,355.7v-26.8c0-0.8-0.1-1.1-1.1-1.5l-2.2-1v-1l6.6-1.9h0.7v32.3c0,0.8,0.3,0.9,3,0.9v2h-10.1v-2
		C494,356.6,494.3,356.5,494.3,355.7z"/>
</g>
<g>
	<g class="st1">
		<path class="st3" d="M499.1,41.7v2.1h-6.9v3.7h6.2v2.1h-6.2v4h6.9v2.1h-9.2V41.7H499.1z"/>
		<path class="st3" d="M514,55.8h-1.8l-7.2-10.3v10.3h-2.3V41.7h2.3l6.8,9.8v-9.8h2.3V55.8z"/>
		<path class="st3" d="M529.9,41.7v14.1h-2.4v-6.2h-7.1v6.2H518V41.7h2.4v5.8h7.1v-5.8H529.9z"/>
		<path class="st3" d="M540.6,41.7l5.4,14.1h-2.4l-1.4-3.9h-5.4l-1.4,3.9h-2.4l5.4-14.1H540.6z M537.5,49.9h3.9l-1.9-5.2L537.5,49.9
			z"/>
		<path class="st3" d="M560.3,55.8h-1.8l-7.2-10.3v10.3H549V41.7h2.3l6.8,9.8v-9.8h2.3V55.8z"/>
		<path class="st3" d="M570,41.5c3.2,0,5.2,1.8,5.7,4.7h-2.3c-0.6-1.5-1.5-2.5-3.4-2.5c-2.5,0-4,2.2-4,5.1c0,2.9,1.5,5.1,4,5.1
			c1.9,0,2.9-1,3.4-2.5h2.3c-0.5,2.9-2.6,4.7-5.7,4.7c-3.6,0-6.4-2.9-6.4-7.3S566.4,41.5,570,41.5z"/>
		<path class="st3" d="M588.2,41.7v2.1h-6.9v3.7h6.2v2.1h-6.2v4h6.9v2.1H579V41.7H588.2z"/>
		<path class="st3" d="M591.8,41.7h4.8c4.2,0,6.9,2.8,6.9,7.1s-2.7,7.1-6.9,7.1h-4.8V41.7z M596.4,53.7c3,0,4.6-1.9,4.6-4.9
			c0-3-1.6-4.9-4.6-4.9h-2.3v9.9H596.4z"/>
		<path class="st3" d="M619.3,41.7l5.4,14.1h-2.4l-1.4-3.9h-5.4l-1.4,3.9h-2.4l5.4-14.1H619.3z M616.2,49.9h3.9l-1.9-5.2L616.2,49.9
			z"/>
		<path class="st3" d="M627.7,41.7h4.8c4.2,0,6.9,2.8,6.9,7.1s-2.7,7.1-6.9,7.1h-4.8V41.7z M632.3,53.7c3,0,4.6-1.9,4.6-4.9
			c0-3-1.6-4.9-4.6-4.9h-2.3v9.9H632.3z"/>
		<path class="st3" d="M646.2,55.8l-5.3-14.1h2.5l4,11l4-11h2.4l-5.3,14.1H646.2z"/>
		<path class="st3" d="M662,56.1c-3.8,0-6.5-3.1-6.5-7.3c0-4.2,2.7-7.3,6.5-7.3s6.5,3.1,6.5,7.3C668.5,53,665.8,56.1,662,56.1z
			 M662,43.6c-2.5,0-4.1,2.2-4.1,5.2s1.6,5.2,4.1,5.2s4.1-2.2,4.1-5.2S664.4,43.6,662,43.6z"/>
		<path class="st3" d="M677.5,41.5c3.2,0,5.2,1.8,5.7,4.7H681c-0.6-1.5-1.5-2.5-3.4-2.5c-2.5,0-4,2.2-4,5.1c0,2.9,1.5,5.1,4,5.1
			c1.9,0,2.9-1,3.4-2.5h2.3c-0.5,2.9-2.6,4.7-5.7,4.7c-3.6,0-6.4-2.9-6.4-7.3S673.9,41.5,677.5,41.5z"/>
		<path class="st3" d="M692.8,41.7l5.4,14.1h-2.4l-1.4-3.9H689l-1.4,3.9h-2.4l5.4-14.1H692.8z M689.7,49.9h3.9l-1.9-5.2L689.7,49.9z
			"/>
		<path class="st3" d="M706.3,41.5c3.2,0,5.2,1.8,5.7,4.7h-2.3c-0.6-1.5-1.5-2.5-3.4-2.5c-2.5,0-4,2.2-4,5.1c0,2.9,1.5,5.1,4,5.1
			c1.9,0,2.9-1,3.4-2.5h2.3c-0.5,2.9-2.6,4.7-5.7,4.7c-3.6,0-6.4-2.9-6.4-7.3S702.6,41.5,706.3,41.5z"/>
		<path class="st3" d="M723.5,41.7h2.5l-5.1,8.5v5.6h-2.4v-5.6l-5.1-8.5h2.6l3.7,6.3L723.5,41.7z"/>
	</g>
	<g class="st1">
		<path class="st3" d="M6.7,51.9c0.5,1.4,1.7,2.1,3.2,2.1c1.7,0,2.7-0.8,2.7-2.1c0-1-0.6-1.6-2-1.9l-2.4-0.6c-2-0.5-3.5-1.5-3.5-3.8
			c0-2.4,2-4.2,4.8-4.2c3.1,0,4.9,1.6,5.4,3.9h-2.4c-0.4-1.1-1.3-1.9-2.9-1.9c-1.5,0-2.6,0.8-2.6,2c0,0.9,0.6,1.5,1.9,1.8l2.5,0.6
			c2.2,0.5,3.7,1.8,3.7,3.9c0,2.6-2.1,4.3-5,4.3c-3,0-5.1-1.5-5.6-4.1H6.7z"/>
		<path class="st3" d="M17.1,41.7h11.8v2.1h-4.7v12h-2.4v-12h-4.7V41.7z"/>
		<path class="st3" d="M34.5,50.1v5.7h-2.4V41.7h5.5c2.9,0,4.8,1.5,4.8,4.2c0,2.4-1.4,3.7-3.6,4.1l4.1,5.8h-2.7l-3.9-5.7H34.5z
			 M34.5,48.1h3c1.6,0,2.5-0.9,2.5-2.2s-0.9-2.2-2.5-2.2h-3V48.1z"/>
		<path class="st3" d="M52.4,41.7l5.4,14.1h-2.4l-1.4-3.9h-5.4l-1.4,3.9h-2.4l5.4-14.1H52.4z M49.3,49.9h3.9l-1.9-5.2L49.3,49.9z"/>
		<path class="st3" d="M58.5,41.7h11.8v2.1h-4.7v12h-2.4v-12h-4.7V41.7z"/>
		<path class="st3" d="M82.7,41.7v2.1h-6.9v3.7H82v2.1h-6.2v4h6.9v2.1h-9.2V41.7H82.7z"/>
		<path class="st3" d="M92.7,50.6v-2h5.4v1.1c0,3.9-2.6,6.4-6,6.4c-3.8,0-6.6-2.9-6.6-7.3s2.9-7.3,6.6-7.3c3.2,0,5.2,1.8,5.8,4.6
			h-2.4c-0.6-1.5-1.5-2.5-3.4-2.5c-2.5,0-4.1,2.1-4.1,5.1s1.6,5.2,4.2,5.2c2.1,0,3.4-1.4,3.7-3.4H92.7z"/>
		<path class="st3" d="M103.8,55.8h-2.4V41.7h2.4V55.8z"/>
		<path class="st3" d="M113.5,41.5c3.2,0,5.2,1.8,5.7,4.7h-2.3c-0.6-1.5-1.5-2.5-3.4-2.5c-2.5,0-4,2.2-4,5.1c0,2.9,1.5,5.1,4,5.1
			c1.9,0,2.9-1,3.4-2.5h2.3c-0.5,2.9-2.6,4.7-5.7,4.7c-3.6,0-6.4-2.9-6.4-7.3S109.8,41.5,113.5,41.5z"/>
		<path class="st3" d="M128.2,50.2v-8.5h2.4V50c0,2.7,1.1,4,3.3,4c2.1,0,3.3-1.3,3.3-4v-8.2h2.4v8.5c0,3.9-2.3,5.8-5.7,5.8
			C130.5,56.1,128.2,54.1,128.2,50.2z"/>
		<path class="st3" d="M144.7,51.9c0.5,1.4,1.7,2.1,3.2,2.1c1.7,0,2.7-0.8,2.7-2.1c0-1-0.6-1.6-2-1.9l-2.4-0.6
			c-2-0.5-3.5-1.5-3.5-3.8c0-2.4,2-4.2,4.8-4.2c3.1,0,4.9,1.6,5.4,3.9h-2.4c-0.4-1.1-1.3-1.9-2.9-1.9c-1.5,0-2.6,0.8-2.6,2
			c0,0.9,0.6,1.5,1.9,1.8l2.5,0.6c2.2,0.5,3.7,1.8,3.7,3.9c0,2.6-2.1,4.3-5,4.3c-3,0-5.1-1.5-5.6-4.1H144.7z"/>
		<path class="st3" d="M165.5,41.7v2.1h-6.9v3.7h6.2v2.1h-6.2v4h6.9v2.1h-9.2V41.7H165.5z"/>
		<path class="st3" d="M180.7,56.1c-3.8,0-6.5-3.1-6.5-7.3c0-4.2,2.7-7.3,6.5-7.3c3.8,0,6.5,3.1,6.5,7.3
			C187.3,53,184.5,56.1,180.7,56.1z M180.7,43.6c-2.5,0-4.1,2.2-4.1,5.2s1.6,5.2,4.1,5.2s4.1-2.2,4.1-5.2S183.2,43.6,180.7,43.6z"/>
		<path class="st3" d="M190.5,55.8V41.7h9v2.1h-6.6V48h6.2v2.1h-6.2v5.7H190.5z"/>
		<path class="st3" d="M211.2,50.1v5.7h-2.4V41.7h5.5c2.9,0,4.8,1.5,4.8,4.2c0,2.4-1.4,3.7-3.6,4.1l4.1,5.8h-2.7l-3.9-5.7H211.2z
			 M211.2,48.1h3c1.6,0,2.5-0.9,2.5-2.2s-0.9-2.2-2.5-2.2h-3V48.1z"/>
		<path class="st3" d="M231.8,41.7v2.1h-6.9v3.7h6.2v2.1h-6.2v4h6.9v2.1h-9.2V41.7H231.8z"/>
		<path class="st3" d="M236.6,51.9c0.5,1.4,1.7,2.1,3.2,2.1c1.7,0,2.7-0.8,2.7-2.1c0-1-0.6-1.6-2-1.9l-2.4-0.6
			c-2-0.5-3.5-1.5-3.5-3.8c0-2.4,2-4.2,4.8-4.2c3.1,0,4.9,1.6,5.4,3.9h-2.4c-0.4-1.1-1.3-1.9-2.9-1.9c-1.5,0-2.6,0.8-2.6,2
			c0,0.9,0.6,1.5,1.9,1.8l2.5,0.6c2.2,0.5,3.7,1.8,3.7,3.9c0,2.6-2.1,4.3-5,4.3c-3,0-5.1-1.5-5.6-4.1H236.6z"/>
		<path class="st3" d="M253.9,56.1c-3.8,0-6.5-3.1-6.5-7.3c0-4.2,2.7-7.3,6.5-7.3c3.8,0,6.5,3.1,6.5,7.3
			C260.4,53,257.7,56.1,253.9,56.1z M253.9,43.6c-2.5,0-4.1,2.2-4.1,5.2s1.6,5.2,4.1,5.2s4.1-2.2,4.1-5.2S256.4,43.6,253.9,43.6z"/>
		<path class="st3" d="M263.5,50.2v-8.5h2.4V50c0,2.7,1.1,4,3.3,4c2.1,0,3.3-1.3,3.3-4v-8.2h2.4v8.5c0,3.9-2.3,5.8-5.7,5.8
			C265.8,56.1,263.5,54.1,263.5,50.2z"/>
		<path class="st3" d="M281,50.1v5.7h-2.4V41.7h5.5c2.9,0,4.8,1.5,4.8,4.2c0,2.4-1.4,3.7-3.6,4.1l4.1,5.8h-2.7l-3.9-5.7H281z
			 M281,48.1h3c1.6,0,2.5-0.9,2.5-2.2s-0.9-2.2-2.5-2.2h-3V48.1z"/>
		<path class="st3" d="M298,41.5c3.2,0,5.2,1.8,5.7,4.7h-2.3c-0.6-1.5-1.5-2.5-3.4-2.5c-2.5,0-4,2.2-4,5.1c0,2.9,1.5,5.1,4,5.1
			c1.9,0,2.9-1,3.4-2.5h2.3c-0.5,2.9-2.6,4.7-5.7,4.7c-3.6,0-6.4-2.9-6.4-7.3S294.3,41.5,298,41.5z"/>
		<path class="st3" d="M316.2,41.7v2.1h-6.9v3.7h6.2v2.1h-6.2v4h6.9v2.1H307V41.7H316.2z"/>
		<path class="st3" d="M321,51.9c0.5,1.4,1.7,2.1,3.2,2.1c1.7,0,2.7-0.8,2.7-2.1c0-1-0.6-1.6-2-1.9l-2.4-0.6c-2-0.5-3.5-1.5-3.5-3.8
			c0-2.4,2-4.2,4.8-4.2c3.1,0,4.9,1.6,5.4,3.9h-2.4c-0.4-1.1-1.3-1.9-2.9-1.9c-1.5,0-2.6,0.8-2.6,2c0,0.9,0.6,1.5,1.9,1.8l2.5,0.6
			c2.2,0.5,3.7,1.8,3.7,3.9c0,2.6-2.1,4.3-5,4.3c-3,0-5.1-1.5-5.6-4.1H321z"/>
	</g>
	<g class="st1">
		<path class="st3" d="M109.2,493.8h-2.4v-14.1h2.4V493.8z"/>
		<path class="st3" d="M124.6,493.8h-1.8l-7.2-10.3v10.3h-2.3v-14.1h2.3l6.8,9.8v-9.8h2.3V493.8z"/>
		<path class="st3" d="M134.3,479.4c3.2,0,5.2,1.8,5.7,4.7h-2.3c-0.6-1.5-1.5-2.5-3.4-2.5c-2.5,0-4,2.2-4,5.1c0,2.9,1.5,5.1,4,5.1
			c1.9,0,2.9-1,3.4-2.5h2.3c-0.5,2.9-2.6,4.7-5.7,4.7c-3.6,0-6.4-2.9-6.4-7.3S130.7,479.4,134.3,479.4z"/>
		<path class="st3" d="M145.7,488v5.7h-2.4v-14.1h5.5c2.9,0,4.8,1.5,4.8,4.2c0,2.4-1.4,3.7-3.6,4.1l4.1,5.8h-2.7l-3.9-5.7H145.7z
			 M145.7,486h3c1.6,0,2.5-0.9,2.5-2.2s-0.9-2.2-2.5-2.2h-3V486z"/>
		<path class="st3" d="M166.2,479.6v2.1h-6.9v3.7h6.2v2.1h-6.2v4h6.9v2.1H157v-14.1H166.2z"/>
		<path class="st3" d="M176.4,479.6l5.4,14.1h-2.4l-1.4-3.9h-5.4l-1.4,3.9h-2.4l5.4-14.1H176.4z M173.3,487.8h3.9l-1.9-5.2
			L173.3,487.8z"/>
		<path class="st3" d="M186,489.9c0.5,1.4,1.7,2.1,3.2,2.1c1.7,0,2.7-0.8,2.7-2.1c0-1-0.6-1.6-2-1.9l-2.4-0.6
			c-2-0.5-3.5-1.5-3.5-3.8c0-2.4,2-4.2,4.8-4.2c3.1,0,4.9,1.6,5.4,3.9h-2.4c-0.4-1.1-1.3-1.9-2.9-1.9c-1.5,0-2.6,0.8-2.6,2
			c0,0.9,0.6,1.5,1.9,1.8l2.5,0.6c2.2,0.5,3.7,1.8,3.7,3.9c0,2.6-2.1,4.3-5,4.3c-3,0-5.1-1.5-5.6-4.1H186z"/>
		<path class="st3" d="M206.7,479.6v2.1h-6.9v3.7h6.2v2.1h-6.2v4h6.9v2.1h-9.2v-14.1H206.7z"/>
		<path class="st3" d="M210.2,479.6h4.8c4.2,0,6.9,2.8,6.9,7.1s-2.7,7.1-6.9,7.1h-4.8V479.6z M214.9,491.6c3,0,4.6-1.9,4.6-4.9
			c0-3-1.6-4.9-4.6-4.9h-2.3v9.9H214.9z"/>
		<path class="st3" d="M99.4,516c-3.8,0-6.5-3.1-6.5-7.3c0-4.2,2.7-7.3,6.5-7.3c3.8,0,6.5,3.1,6.5,7.3
			C105.9,512.9,103.2,516,99.4,516z M99.4,503.6c-2.5,0-4.1,2.2-4.1,5.2s1.6,5.2,4.1,5.2s4.1-2.2,4.1-5.2S101.9,503.6,99.4,503.6z"
			/>
		<path class="st3" d="M111.6,510.5v5.3h-2.4v-14.1h5.5c2.9,0,4.8,1.5,4.8,4.4c0,2.9-1.9,4.4-4.8,4.4H111.6z M114.6,503.7h-3v4.7h3
			c1.7,0,2.5-1,2.5-2.3C117.1,504.7,116.3,503.7,114.6,503.7z"/>
		<path class="st3" d="M125.1,510.5v5.3h-2.4v-14.1h5.5c2.9,0,4.8,1.5,4.8,4.4c0,2.9-1.9,4.4-4.8,4.4H125.1z M128.1,503.7h-3v4.7h3
			c1.7,0,2.5-1,2.5-2.3C130.6,504.7,129.7,503.7,128.1,503.7z"/>
		<path class="st3" d="M141.9,516c-3.8,0-6.5-3.1-6.5-7.3c0-4.2,2.7-7.3,6.5-7.3c3.8,0,6.5,3.1,6.5,7.3
			C148.4,512.9,145.7,516,141.9,516z M141.9,503.6c-2.5,0-4.1,2.2-4.1,5.2s1.6,5.2,4.1,5.2s4.1-2.2,4.1-5.2S144.4,503.6,141.9,503.6
			z"/>
		<path class="st3" d="M154.1,510v5.7h-2.4v-14.1h5.5c2.9,0,4.8,1.5,4.8,4.2c0,2.4-1.4,3.7-3.6,4.1l4.1,5.8h-2.7l-3.9-5.7H154.1z
			 M154.1,508h3c1.6,0,2.5-0.9,2.5-2.2s-0.9-2.2-2.5-2.2h-3V508z"/>
		<path class="st3" d="M164.3,501.6h11.8v2.1h-4.7v12H169v-12h-4.7V501.6z"/>
		<path class="st3" d="M179,510.1v-8.5h2.4v8.2c0,2.7,1.1,4,3.3,4c2.1,0,3.3-1.3,3.3-4v-8.2h2.4v8.5c0,3.9-2.3,5.8-5.7,5.8
			C181.3,516,179,514,179,510.1z"/>
		<path class="st3" d="M205.5,515.8h-1.8l-7.2-10.3v10.3h-2.3v-14.1h2.3l6.8,9.8v-9.8h2.3V515.8z"/>
		<path class="st3" d="M211.9,515.8h-2.4v-14.1h2.4V515.8z"/>
		<path class="st3" d="M215.1,501.6h11.8v2.1h-4.7v12h-2.4v-12h-4.7V501.6z"/>
		<path class="st3" d="M238.9,501.6h2.5l-5.1,8.5v5.6h-2.4v-5.6l-5.1-8.5h2.6l3.7,6.3L238.9,501.6z"/>
	</g>
	<g class="st1">
		<path class="st3" d="M534.6,493.8h-2.4v-14.1h2.4V493.8z"/>
		<path class="st3" d="M550,493.8h-1.8l-7.2-10.3v10.3h-2.3v-14.1h2.3l6.8,9.8v-9.8h2.3V493.8z"/>
		<path class="st3" d="M555.4,489.9c0.5,1.4,1.7,2.1,3.2,2.1c1.7,0,2.7-0.8,2.7-2.1c0-1-0.6-1.6-2-1.9l-2.4-0.6
			c-2-0.5-3.5-1.5-3.5-3.8c0-2.4,2-4.2,4.8-4.2c3.1,0,4.9,1.6,5.4,3.9h-2.4c-0.4-1.1-1.3-1.9-2.9-1.9c-1.5,0-2.6,0.8-2.6,2
			c0,0.9,0.6,1.5,1.9,1.8l2.5,0.6c2.2,0.5,3.7,1.8,3.7,3.9c0,2.6-2.1,4.3-5,4.3c-3,0-5.1-1.5-5.6-4.1H555.4z"/>
		<path class="st3" d="M565.8,479.6h11.8v2.1h-4.7v12h-2.4v-12h-4.7V479.6z"/>
		<path class="st3" d="M583.2,493.8h-2.4v-14.1h2.4V493.8z"/>
		<path class="st3" d="M586.3,479.6h11.8v2.1h-4.7v12H591v-12h-4.7V479.6z"/>
		<path class="st3" d="M601.1,488.1v-8.5h2.4v8.2c0,2.7,1.1,4,3.3,4c2.1,0,3.3-1.3,3.3-4v-8.2h2.4v8.5c0,3.9-2.3,5.8-5.7,5.8
			C603.4,494,601.1,492,601.1,488.1z"/>
		<path class="st3" d="M615.3,479.6h11.8v2.1h-4.7v12H620v-12h-4.7V479.6z"/>
		<path class="st3" d="M632.7,493.8h-2.4v-14.1h2.4V493.8z"/>
		<path class="st3" d="M642.5,494c-3.8,0-6.5-3.1-6.5-7.3c0-4.2,2.7-7.3,6.5-7.3c3.8,0,6.5,3.1,6.5,7.3
			C649,490.9,646.3,494,642.5,494z M642.5,481.6c-2.5,0-4.1,2.2-4.1,5.2s1.6,5.2,4.1,5.2s4.1-2.2,4.1-5.2S644.9,481.6,642.5,481.6z"
			/>
		<path class="st3" d="M663.6,493.8h-1.8l-7.2-10.3v10.3h-2.3v-14.1h2.3l6.8,9.8v-9.8h2.3V493.8z"/>
		<path class="st3" d="M669,489.9c0.5,1.4,1.7,2.1,3.2,2.1c1.7,0,2.7-0.8,2.7-2.1c0-1-0.6-1.6-2-1.9l-2.4-0.6
			c-2-0.5-3.5-1.5-3.5-3.8c0-2.4,2-4.2,4.8-4.2c3.1,0,4.9,1.6,5.4,3.9h-2.4c-0.4-1.1-1.3-1.9-2.9-1.9c-1.5,0-2.6,0.8-2.6,2
			c0,0.9,0.6,1.5,1.9,1.8l2.5,0.6c2.2,0.5,3.7,1.8,3.7,3.9c0,2.6-2.1,4.3-5,4.3c-3,0-5.1-1.5-5.6-4.1H669z"/>
		<path class="st3" d="M479.9,501.6l5.4,14.1h-2.4l-1.4-3.9H476l-1.4,3.9h-2.4l5.4-14.1H479.9z M476.8,509.8h3.9l-1.9-5.2
			L476.8,509.8z"/>
		<path class="st3" d="M493.3,501.4c3.2,0,5.2,1.8,5.7,4.7h-2.3c-0.6-1.5-1.5-2.5-3.4-2.5c-2.5,0-4,2.2-4,5.1c0,2.9,1.5,5.1,4,5.1
			c1.9,0,2.9-1,3.4-2.5h2.3c-0.5,2.9-2.6,4.7-5.7,4.7c-3.6,0-6.4-2.9-6.4-7.3S489.7,501.4,493.3,501.4z"/>
		<path class="st3" d="M514.2,501.6v14.1h-2.4v-6.2h-7.1v6.2h-2.4v-14.1h2.4v5.8h7.1v-5.8H514.2z"/>
		<path class="st3" d="M520.7,515.8h-2.4v-14.1h2.4V515.8z"/>
		<path class="st3" d="M533.9,501.6v2.1h-6.9v3.7h6.2v2.1h-6.2v4h6.9v2.1h-9.2v-14.1H533.9z"/>
		<path class="st3" d="M541.7,515.8l-5.3-14.1h2.5l4,11l4-11h2.4l-5.3,14.1H541.7z"/>
		<path class="st3" d="M554.6,515.8h-2.4v-14.1h2.4V515.8z"/>
		<path class="st3" d="M570,515.8h-1.8l-7.2-10.3v10.3h-2.3v-14.1h2.3l6.8,9.8v-9.8h2.3V515.8z"/>
		<path class="st3" d="M580.6,510.5v-2h5.4v1.1c0,3.9-2.6,6.4-6,6.4c-3.8,0-6.6-2.9-6.6-7.3s2.9-7.3,6.6-7.3c3.2,0,5.2,1.8,5.8,4.6
			h-2.4c-0.6-1.5-1.5-2.5-3.4-2.5c-2.5,0-4.1,2.1-4.1,5.1s1.6,5.2,4.2,5.2c2.1,0,3.4-1.4,3.7-3.4H580.6z"/>
		<path class="st3" d="M600.9,501.4c3.2,0,5.2,1.8,5.7,4.7h-2.3c-0.6-1.5-1.5-2.5-3.4-2.5c-2.5,0-4,2.2-4,5.1c0,2.9,1.5,5.1,4,5.1
			c1.9,0,2.9-1,3.4-2.5h2.3c-0.5,2.9-2.6,4.7-5.7,4.7c-3.6,0-6.4-2.9-6.4-7.3S597.3,501.4,600.9,501.4z"/>
		<path class="st3" d="M615.7,516c-3.8,0-6.5-3.1-6.5-7.3c0-4.2,2.7-7.3,6.5-7.3c3.8,0,6.5,3.1,6.5,7.3
			C622.2,512.9,619.5,516,615.7,516z M615.7,503.6c-2.5,0-4.1,2.2-4.1,5.2s1.6,5.2,4.1,5.2s4.1-2.2,4.1-5.2S618.2,503.6,615.7,503.6
			z"/>
		<path class="st3" d="M627.9,510v5.7h-2.4v-14.1h5.5c2.9,0,4.8,1.5,4.8,4.2c0,2.4-1.4,3.7-3.6,4.1l4.1,5.8h-2.7l-3.9-5.7H627.9z
			 M627.9,508h3c1.6,0,2.5-0.9,2.5-2.2s-0.9-2.2-2.5-2.2h-3V508z"/>
		<path class="st3" d="M648.4,501.6v2.1h-6.9v3.7h6.2v2.1h-6.2v4h6.9v2.1h-9.2v-14.1H648.4z"/>
		<path class="st3" d="M664.1,515.8l-3.9-9.8v9.8h-2.3v-14.1h2.7l4.3,10.9l4.3-10.9h2.7v14.1h-2.3v-9.8l-3.8,9.8H664.1z"/>
		<path class="st3" d="M678.3,515.8h-2.4v-14.1h2.4V515.8z"/>
		<path class="st3" d="M683.7,511.9c0.5,1.4,1.7,2.1,3.2,2.1c1.7,0,2.7-0.8,2.7-2.1c0-1-0.6-1.6-2-1.9l-2.4-0.6
			c-2-0.5-3.5-1.5-3.5-3.8c0-2.4,2-4.2,4.8-4.2c3.1,0,4.9,1.6,5.4,3.9h-2.4c-0.4-1.1-1.3-1.9-2.9-1.9c-1.5,0-2.6,0.8-2.6,2
			c0,0.9,0.6,1.5,1.9,1.8l2.5,0.6c2.2,0.5,3.7,1.8,3.7,3.9c0,2.6-2.1,4.3-5,4.3c-3,0-5.1-1.5-5.6-4.1H683.7z"/>
		<path class="st3" d="M696.6,511.9c0.5,1.4,1.7,2.1,3.2,2.1c1.7,0,2.7-0.8,2.7-2.1c0-1-0.6-1.6-2-1.9l-2.4-0.6
			c-2-0.5-3.5-1.5-3.5-3.8c0-2.4,2-4.2,4.8-4.2c3.1,0,4.9,1.6,5.4,3.9h-2.4c-0.4-1.1-1.3-1.9-2.9-1.9c-1.5,0-2.6,0.8-2.6,2
			c0,0.9,0.6,1.5,1.9,1.8l2.5,0.6c2.2,0.5,3.7,1.8,3.7,3.9c0,2.6-2.1,4.3-5,4.3c-3,0-5.1-1.5-5.6-4.1H696.6z"/>
		<path class="st3" d="M710.5,515.8h-2.4v-14.1h2.4V515.8z"/>
		<path class="st3" d="M720.3,516c-3.8,0-6.5-3.1-6.5-7.3c0-4.2,2.7-7.3,6.5-7.3s6.5,3.1,6.5,7.3C726.8,512.9,724.1,516,720.3,516z
			 M720.3,503.6c-2.5,0-4.1,2.2-4.1,5.2s1.6,5.2,4.1,5.2s4.1-2.2,4.1-5.2S722.8,503.6,720.3,503.6z"/>
		<path class="st3" d="M741.5,515.8h-1.8l-7.2-10.3v10.3h-2.3v-14.1h2.3l6.8,9.8v-9.8h2.3V515.8z"/>
	</g>
</g>
<g>
	<g class="st1">
		<path class="st4" d="M311.8,199.7v-14.1h9v2.1h-6.6v4.2h6.2v2.1h-6.2v5.7H311.8z"/>
		<path class="st4" d="M323.8,194.1v-8.5h2.4v8.2c0,2.7,1.1,4,3.3,4c2.1,0,3.3-1.3,3.3-4v-8.2h2.4v8.5c0,3.9-2.3,5.8-5.7,5.8
			C326.1,199.9,323.8,198,323.8,194.1z"/>
		<path class="st4" d="M350.3,199.7h-1.8l-7.2-10.3v10.3H339v-14.1h2.3l6.8,9.8v-9.8h2.3V199.7z"/>
		<path class="st4" d="M354.4,185.6h4.8c4.2,0,6.9,2.8,6.9,7.1s-2.7,7.1-6.9,7.1h-4.8V185.6z M359,197.6c3,0,4.6-1.9,4.6-4.9
			c0-3-1.6-4.9-4.6-4.9h-2.3v9.9H359z"/>
		<path class="st4" d="M375.3,185.6l5.4,14.1h-2.4l-1.4-3.9h-5.4l-1.4,3.9h-2.4l5.4-14.1H375.3z M372.2,193.7h3.9l-1.9-5.2
			L372.2,193.7z"/>
		<path class="st4" d="M389.9,199.7l-3.9-9.8v9.8h-2.3v-14.1h2.7l4.3,10.9l4.3-10.9h2.7v14.1h-2.3v-9.8l-3.8,9.8H389.9z"/>
		<path class="st4" d="M410.9,185.6v2.1h-6.9v3.7h6.2v2.1h-6.2v4h6.9v2.1h-9.2v-14.1H410.9z"/>
		<path class="st4" d="M425.8,199.7H424l-7.2-10.3v10.3h-2.3v-14.1h2.3l6.8,9.8v-9.8h2.3V199.7z"/>
		<path class="st4" d="M429,185.6h11.8v2.1h-4.7v12h-2.4v-12H429V185.6z"/>
		<path class="st4" d="M449.2,185.6l5.4,14.1h-2.4l-1.4-3.9h-5.4l-1.4,3.9h-2.4l5.4-14.1H449.2z M446.1,193.7h3.9l-1.9-5.2
			L446.1,193.7z"/>
		<path class="st4" d="M457.6,185.6h2.4v12h6.8v2.1h-9.2V185.6z"/>
		<path class="st4" d="M290.2,217.7c0,2.6-1.8,4-4.8,4H280v-14.1h4.9c2.9,0,4.8,1.3,4.8,3.8c0,1.5-0.8,2.6-1.8,3
			C289.2,214.9,290.2,216.2,290.2,217.7z M284.9,213.5c1.6,0,2.5-0.6,2.5-2s-0.9-1.9-2.5-1.9h-2.6v3.9H284.9z M282.3,219.6h3
			c1.6,0,2.5-0.8,2.5-2.1c0-1.3-0.9-2.1-2.5-2.1h-3V219.6z"/>
		<path class="st4" d="M299.9,207.6l5.4,14.1h-2.4l-1.4-3.9H296l-1.4,3.9h-2.4l5.4-14.1H299.9z M296.8,215.7h3.9l-1.9-5.2
			L296.8,215.7z"/>
		<path class="st4" d="M313.3,207.4c3.2,0,5.2,1.8,5.7,4.7h-2.3c-0.6-1.5-1.5-2.5-3.4-2.5c-2.5,0-4,2.2-4,5.1c0,2.9,1.5,5.1,4,5.1
			c1.9,0,2.9-1,3.4-2.5h2.3c-0.5,2.9-2.6,4.7-5.7,4.7c-3.6,0-6.4-2.9-6.4-7.3S309.7,207.4,313.3,207.4z"/>
		<path class="st4" d="M324.7,214.4l5.9-6.8h3l-5.7,6.4l5.9,7.7h-3l-4.6-6l-1.4,1.7v4.4h-2.4v-14.1h2.4V214.4z"/>
		<path class="st4" d="M342.4,216.5v-2h5.4v1.1c0,3.9-2.6,6.4-6,6.4c-3.8,0-6.6-2.9-6.6-7.3s2.9-7.3,6.6-7.3c3.2,0,5.2,1.8,5.8,4.6
			H345c-0.6-1.5-1.5-2.5-3.4-2.5c-2.5,0-4.1,2.1-4.1,5.1s1.6,5.2,4.2,5.2c2.1,0,3.4-1.4,3.7-3.4H342.4z"/>
		<path class="st4" d="M353.4,216v5.7H351v-14.1h5.5c2.9,0,4.8,1.5,4.8,4.2c0,2.4-1.4,3.7-3.6,4.1l4.1,5.8H359l-3.9-5.7H353.4z
			 M353.4,214h3c1.6,0,2.5-0.9,2.5-2.2s-0.9-2.2-2.5-2.2h-3V214z"/>
		<path class="st4" d="M370.4,221.9c-3.8,0-6.5-3.1-6.5-7.3c0-4.2,2.7-7.3,6.5-7.3c3.8,0,6.5,3.1,6.5,7.3
			C377,218.9,374.3,221.9,370.4,221.9z M370.4,209.5c-2.5,0-4.1,2.2-4.1,5.2s1.6,5.2,4.1,5.2s4.1-2.2,4.1-5.2
			S372.9,209.5,370.4,209.5z"/>
		<path class="st4" d="M380,216.1v-8.5h2.4v8.2c0,2.7,1.1,4,3.3,4c2.1,0,3.3-1.3,3.3-4v-8.2h2.4v8.5c0,3.9-2.3,5.8-5.7,5.8
			C382.3,221.9,380,220,380,216.1z"/>
		<path class="st4" d="M406.5,221.7h-1.8l-7.2-10.3v10.3h-2.3v-14.1h2.3l6.8,9.8v-9.8h2.3V221.7z"/>
		<path class="st4" d="M410.6,207.6h4.8c4.2,0,6.9,2.8,6.9,7.1s-2.7,7.1-6.9,7.1h-4.8V207.6z M415.2,219.6c3,0,4.6-1.9,4.6-4.9
			c0-3-1.6-4.9-4.6-4.9H413v9.9H415.2z"/>
		<path class="st4" d="M441.7,217.7c0,2.6-1.8,4-4.8,4h-5.4v-14.1h4.9c2.9,0,4.8,1.3,4.8,3.8c0,1.5-0.8,2.6-1.8,3
			C440.7,214.9,441.7,216.2,441.7,217.7z M436.4,213.5c1.6,0,2.5-0.6,2.5-2s-0.9-1.9-2.5-1.9h-2.6v3.9H436.4z M433.8,219.6h3
			c1.6,0,2.5-0.8,2.5-2.1c0-1.3-0.9-2.1-2.5-2.1h-3V219.6z"/>
		<path class="st4" d="M454.3,207.6v2.1h-6.9v3.7h6.2v2.1h-6.2v4h6.9v2.1h-9.2v-14.1H454.3z"/>
		<path class="st4" d="M457.8,207.6h2.4v12h6.8v2.1h-9.2V207.6z"/>
		<path class="st4" d="M472.7,221.7h-2.4v-14.1h2.4V221.7z"/>
		<path class="st4" d="M486,207.6v2.1h-6.9v3.7h6.2v2.1h-6.2v4h6.9v2.1h-9.2v-14.1H486z"/>
		<path class="st4" d="M489.5,221.7v-14.1h9v2.1h-6.6v4.2h6.2v2.1h-6.2v5.7H489.5z"/>
	</g>
</g>
<g>
	<g class="st1">
		<path class="st4" d="M300.7,426.3l5.4,14.1h-2.4l-1.4-3.9h-5.4l-1.4,3.9H293l5.4-14.1H300.7z M297.6,434.4h3.9l-1.9-5.2
			L297.6,434.4z"/>
		<path class="st4" d="M314.2,426c3.2,0,5.2,1.8,5.7,4.7h-2.3c-0.6-1.5-1.5-2.5-3.4-2.5c-2.5,0-4,2.2-4,5.1c0,2.9,1.5,5.1,4,5.1
			c1.9,0,2.9-1,3.4-2.5h2.3c-0.5,2.9-2.6,4.7-5.7,4.7c-3.6,0-6.4-2.9-6.4-7.3S310.6,426,314.2,426z"/>
		<path class="st4" d="M335.1,426.3v14.1h-2.4v-6.2h-7.1v6.2h-2.4v-14.1h2.4v5.8h7.1v-5.8H335.1z"/>
		<path class="st4" d="M341.5,440.4h-2.4v-14.1h2.4V440.4z"/>
		<path class="st4" d="M354.8,426.3v2.1h-6.9v3.7h6.2v2.1h-6.2v4h6.9v2.1h-9.2v-14.1H354.8z"/>
		<path class="st4" d="M362.5,440.4l-5.3-14.1h2.5l4,11l4-11h2.4l-5.3,14.1H362.5z"/>
		<path class="st4" d="M382.3,426.3v2.1h-6.9v3.7h6.2v2.1h-6.2v4h6.9v2.1h-9.2v-14.1H382.3z"/>
		<path class="st4" d="M393.2,436.5c0.5,1.4,1.7,2.1,3.2,2.1c1.7,0,2.7-0.8,2.7-2.1c0-1-0.6-1.6-2-1.9l-2.4-0.6
			c-2-0.5-3.5-1.5-3.5-3.8c0-2.4,2-4.2,4.8-4.2c3.1,0,4.9,1.6,5.4,3.9h-2.4c-0.4-1.1-1.3-1.9-2.9-1.9c-1.5,0-2.6,0.8-2.6,2
			c0,0.9,0.6,1.5,1.9,1.8l2.5,0.6c2.2,0.5,3.7,1.8,3.7,3.9c0,2.6-2.1,4.3-5,4.3c-3,0-5.1-1.5-5.6-4.1H393.2z"/>
		<path class="st4" d="M404.5,434.8v-8.5h2.4v8.2c0,2.7,1.2,4,3.3,4s3.3-1.3,3.3-4v-8.2h2.4v8.5c0,3.9-2.3,5.8-5.7,5.8
			C406.8,440.6,404.5,438.6,404.5,434.8z"/>
		<path class="st4" d="M425.3,426c3.2,0,5.2,1.8,5.7,4.7h-2.3c-0.6-1.5-1.5-2.5-3.4-2.5c-2.5,0-4,2.2-4,5.1c0,2.9,1.5,5.1,4,5.1
			c1.9,0,2.9-1,3.4-2.5h2.3c-0.5,2.9-2.6,4.7-5.7,4.7c-3.6,0-6.4-2.9-6.4-7.3S421.6,426,425.3,426z"/>
		<path class="st4" d="M439.9,426c3.2,0,5.2,1.8,5.7,4.7h-2.3c-0.6-1.5-1.5-2.5-3.4-2.5c-2.5,0-4,2.2-4,5.1c0,2.9,1.5,5.1,4,5.1
			c1.9,0,2.9-1,3.4-2.5h2.3c-0.5,2.9-2.6,4.7-5.7,4.7c-3.6,0-6.4-2.9-6.4-7.3S436.3,426,439.9,426z"/>
		<path class="st4" d="M458.1,426.3v2.1h-6.9v3.7h6.2v2.1h-6.2v4h6.9v2.1h-9.2v-14.1H458.1z"/>
		<path class="st4" d="M463,436.5c0.5,1.4,1.7,2.1,3.2,2.1c1.7,0,2.7-0.8,2.7-2.1c0-1-0.6-1.6-2-1.9l-2.4-0.6
			c-2-0.5-3.5-1.5-3.5-3.8c0-2.4,2-4.2,4.8-4.2c3.1,0,4.9,1.6,5.4,3.9h-2.4c-0.4-1.1-1.3-1.9-2.9-1.9c-1.5,0-2.6,0.8-2.6,2
			c0,0.9,0.6,1.5,1.9,1.8l2.5,0.6c2.2,0.5,3.7,1.8,3.7,3.9c0,2.6-2.1,4.3-5,4.3c-3,0-5.1-1.5-5.6-4.1H463z"/>
		<path class="st4" d="M475.8,436.5c0.5,1.4,1.7,2.1,3.2,2.1c1.7,0,2.7-0.8,2.7-2.1c0-1-0.6-1.6-2-1.9l-2.4-0.6
			c-2-0.5-3.5-1.5-3.5-3.8c0-2.4,2-4.2,4.8-4.2c3.1,0,4.9,1.6,5.4,3.9h-2.4c-0.4-1.1-1.3-1.9-2.9-1.9c-1.5,0-2.6,0.8-2.6,2
			c0,0.9,0.6,1.5,1.9,1.8l2.5,0.6c2.2,0.5,3.7,1.8,3.7,3.9c0,2.6-2.1,4.3-5,4.3c-3,0-5.1-1.5-5.6-4.1H475.8z"/>
	</g>
</g>
<g class="st1">
	<path class="st0" d="M493.6,80.1h-0.2l-6.7,23h-2.7L476,76.5c-0.3-1-1-1.3-3.9-1.3v-2h12.3v2c-3.2,0-4.1,0.2-4.1,0.9
		c0,0.2,0,0.3,0.2,0.9l5.8,20.2h0.2l6.6-23.9h2.4l6.8,23.9h0.2l5.8-20.2c0.1-0.5,0.2-0.7,0.2-0.9c0-0.7-0.9-0.9-4.2-0.9v-2h10.7v2
		c-2.9,0-3.5,0.3-3.9,1.3L503,103h-2.7L493.6,80.1z"/>
	<path class="st0" d="M530.3,97.3l1.7,1.2c-1.4,3-4.6,4.8-8.1,4.8c-5.5,0-9.8-4.4-9.8-10.8c0-2.9,0.9-5.6,2.6-7.6
		c1.8-2.3,4.4-3.6,7.1-3.6c5.1,0,8,3.5,8,9v1.4h-13.9v0.1c0,5.3,2.7,8.8,6.8,8.8C527,100.6,528.5,99.7,530.3,97.3z M523.6,83.5
		c-2.8,0-5,2.4-5.6,6.2h10C528,85.5,526.6,83.5,523.6,83.5z"/>
	<path class="st0" d="M567.4,101.3v1l-6.3,0.9h-0.6v-4c-1.4,2.3-4.1,4-6.6,4c-4.9,0-8.4-4.4-8.4-10.2c0-7.1,4-11.8,9.8-11.8
		c1.9,0,4,0.8,5.2,1.9v-8.9c0-0.8-0.1-1-1-1.4l-2.1-0.9v-1l6.3-1.8h0.6V99c0,0.8,0.1,1,1,1.4L567.4,101.3z M555.9,83.4
		c-3.9,0-6.4,3.5-6.4,8.8c0,4.9,2.3,8.3,5.9,8.3c1.9,0,3.5-0.9,5.1-2.7V85.8C559.6,84.3,557.9,83.4,555.9,83.4z"/>
	<path class="st0" d="M586.5,97.3l1.7,1.2c-1.4,3-4.6,4.8-8.1,4.8c-5.5,0-9.8-4.4-9.8-10.8c0-2.9,0.9-5.6,2.6-7.6
		c1.8-2.3,4.4-3.6,7.1-3.6c5.1,0,8,3.5,8,9v1.4h-13.9v0.1c0,5.3,2.7,8.8,6.8,8.8C583.3,100.6,584.8,99.7,586.5,97.3z M579.9,83.5
		c-2.8,0-5,2.4-5.6,6.2h10C584.3,85.5,582.8,83.5,579.9,83.5z"/>
	<path class="st0" d="M605.4,98.3l1.2,1.4c-1.6,2.2-4.2,3.5-6.9,3.5c-3.3,0-5.7-2.1-5.7-5.1V83.9h-2.9v-2.2h2.9v-5.4l3.9-1.1v6.5
		h6.7v2.2h-6.7v13.2c0,2.3,1.1,3.5,3.4,3.5C602.7,100.6,604,99.9,605.4,98.3z"/>
	<path class="st0" d="M624.8,97.3l1.7,1.2c-1.4,3-4.6,4.8-8.1,4.8c-5.5,0-9.8-4.4-9.8-10.8c0-2.9,0.9-5.6,2.6-7.6
		c1.8-2.3,4.4-3.6,7.1-3.6c5.1,0,8,3.5,8,9v1.4h-13.9v0.1c0,5.3,2.7,8.8,6.8,8.8C621.6,100.6,623.1,99.7,624.8,97.3z M618.2,83.5
		c-2.8,0-5,2.4-5.6,6.2h10C622.6,85.5,621.1,83.5,618.2,83.5z"/>
	<path class="st0" d="M638.7,100.8c0.5,0,1.2,0,2.4,0v1.9H630v-1.9c2.7,0,2.9-0.1,2.9-0.9V86.5c0-0.8-0.1-1-1-1.4l-2.1-0.9v-1
		l6.3-1.8h0.6v6c2.1-3.6,4.6-6,6.7-6c1.8,0,3,1.1,3,2.7c0,1.5-1,2.4-2.4,2.4c-0.5,0-0.8-0.1-1.6-0.7c-0.7-0.5-0.9-0.6-1.3-0.6
		c-1.1,0-2.8,1.8-4.4,4.1v10.7C636.8,100.7,637.2,100.8,638.7,100.8z"/>
	<path class="st0" d="M658.4,100.9v1.9h-9.7v-1.9c2.7,0,2.9-0.1,2.9-0.9V86.5c0-0.8-0.1-1-1-1.4l-2.1-0.9v-1l6.3-1.8h0.6v4
		c1.8-2.3,4.6-4,7.1-4c2.8,0,4.7,1.4,5.5,4.2c2.2-2.6,4.9-4.2,7.5-4.2c3.9,0,5.9,2.7,5.9,7.5V100c0,0.8,0.3,0.9,2.9,0.9v1.9h-9.7
		v-1.9c2.7,0,2.9-0.1,2.9-0.9V89.1c0-3.3-1.3-4.9-3.9-4.9c-1.7,0-3.7,1-5.3,2.7c0,0.6,0.1,1.2,0.1,1.8V100c0,0.8,0.3,0.9,2.9,0.9
		v1.9h-9.7v-1.9c2.7,0,2.9-0.1,2.9-0.9V89.1c0-3.3-1.3-4.9-3.9-4.9c-1.7,0-3.6,0.9-5.2,2.7V100C655.5,100.8,655.7,100.9,658.4,100.9
		z"/>
	<path class="st0" d="M689.9,100V86.5c0-0.8-0.1-1-1-1.4l-2.1-0.9v-1l6.3-1.8h0.6V100c0,0.8,0.3,0.9,2.9,0.9v1.9H687v-1.9
		C689.7,100.9,689.9,100.8,689.9,100z M691.8,76.6c-1.6,0-2.8-1.3-2.8-2.8c0-1.6,1.3-2.8,2.8-2.8s2.8,1.3,2.8,2.8
		C694.6,75.3,693.3,76.6,691.8,76.6z"/>
	<path class="st0" d="M709.2,100.9v1.9h-9.7v-1.9c2.7,0,2.9-0.1,2.9-0.9V86.5c0-0.8-0.1-1-1-1.4l-2.1-0.9v-1l6.3-1.8h0.6v4
		c1.8-2.3,4.7-4,7.3-4c3.9,0,6.1,2.8,6.1,7.5V100c0,0.8,0.3,0.9,2.9,0.9v1.9h-9.7v-1.9c2.7,0,2.9-0.1,2.9-0.9V89.1
		c0-3.2-1.4-4.9-4.1-4.9c-1.9,0-3.9,1-5.4,2.7V100C706.3,100.8,706.6,100.9,709.2,100.9z"/>
	<path class="st0" d="M741.6,97.3l1.7,1.2c-1.4,3-4.6,4.8-8.1,4.8c-5.5,0-9.8-4.4-9.8-10.8c0-2.9,0.9-5.6,2.6-7.6
		c1.8-2.3,4.4-3.6,7.1-3.6c5.1,0,8,3.5,8,9v1.4h-13.9v0.1c0,5.3,2.7,8.8,6.8,8.8C738.4,100.6,739.9,99.7,741.6,97.3z M735,83.5
		c-2.8,0-5,2.4-5.6,6.2h10C739.4,85.5,737.9,83.5,735,83.5z"/>
	<path class="st0" d="M521.1,143.3c-5.6,0-9.8-4.6-9.8-11c0-6.4,4.2-11,9.8-11s9.8,4.6,9.8,11C530.9,138.7,526.8,143.3,521.1,143.3z
		 M521.1,141c3.6,0,5.7-3.1,5.7-8.8c0-5.6-2.1-8.8-5.7-8.8s-5.7,3.1-5.7,8.8C515.5,137.9,517.5,141,521.1,141z"/>
	<path class="st0" d="M556.6,141.3v1l-6.3,0.9h-0.6v-3.8c-1.8,2.3-4.3,3.8-6.7,3.8c-3.9,0-6.2-2.8-6.2-7.5v-10.2
		c0-0.9-0.2-1.3-1-1.4l-2.2-0.4v-1.6l6.4-0.4h0.6v13.8c0,3.2,1.3,4.9,4,4.9c1.8,0,3.5-0.9,5.1-2.7v-12.2c0-0.9-0.2-1.3-1-1.4
		l-2.2-0.4v-1.6l6.4-0.4h0.6V139c0,0.8,0.1,1,1,1.4L556.6,141.3z"/>
	<path class="st0" d="M567.8,140.8c0.5,0,1.2,0,2.4,0v1.9h-11.1v-1.9c2.7,0,2.9-0.1,2.9-0.9v-13.6c0-0.8-0.1-1-1-1.4l-2.1-0.9v-1
		l6.3-1.8h0.6v6c2.1-3.6,4.6-6,6.7-6c1.8,0,3,1.1,3,2.7c0,1.5-1,2.4-2.4,2.4c-0.5,0-0.8-0.1-1.6-0.7c-0.7-0.5-0.9-0.6-1.3-0.6
		c-1.1,0-2.8,1.8-4.4,4.1v10.7C566,140.7,566.3,140.8,567.8,140.8z"/>
	<path class="st0" d="M596.6,140.8c0.5,0,1.2,0,2.4,0v1.9H588v-1.9c2.7,0,2.9-0.1,2.9-0.9v-16.1h-3.3v-2.2h3.3v-2
		c0-5.9,4.4-10.6,9.8-10.6c2.5,0,4.1,1,4.1,2.6c0,1.3-0.9,2-2.1,2c-0.6,0-1.1-0.2-2-0.9c-0.9-0.9-1.4-1-2.1-1
		c-2.2,0-3.8,2.2-3.8,5.7v4.2h5.1v2.2h-5.1v16C594.7,140.7,595.1,140.8,596.6,140.8z"/>
	<path class="st0" d="M624.8,141.3v1l-6.3,0.9h-0.6v-3.8c-1.8,2.3-4.3,3.8-6.7,3.8c-3.9,0-6.2-2.8-6.2-7.5v-10.2
		c0-0.9-0.2-1.3-1-1.4l-2.2-0.4v-1.6l6.4-0.4h0.6v13.8c0,3.2,1.3,4.9,4,4.9c1.8,0,3.5-0.9,5.1-2.7v-12.2c0-0.9-0.2-1.3-1-1.4
		l-2.2-0.4v-1.6l6.4-0.4h0.6V139c0,0.8,0.1,1,1,1.4L624.8,141.3z"/>
	<path class="st0" d="M641.1,138.3l1.2,1.4c-1.6,2.2-4.2,3.5-6.9,3.5c-3.3,0-5.7-2.1-5.7-5.1v-14.3h-2.9v-2.2h2.9v-5.4l3.9-1.1v6.5
		h6.7v2.2h-6.7v13.2c0,2.3,1.1,3.5,3.4,3.5C638.4,140.6,639.7,139.9,641.1,138.3z"/>
	<path class="st0" d="M666.2,141.3v1l-6.3,0.9h-0.6v-3.8c-1.8,2.3-4.3,3.8-6.7,3.8c-3.9,0-6.2-2.8-6.2-7.5v-10.2
		c0-0.9-0.2-1.3-1-1.4l-2.2-0.4v-1.6l6.4-0.4h0.6v13.8c0,3.2,1.3,4.9,4,4.9c1.8,0,3.5-0.9,5.1-2.7v-12.2c0-0.9-0.2-1.3-1-1.4
		l-2.2-0.4v-1.6l6.4-0.4h0.6V139c0,0.8,0.1,1,1,1.4L666.2,141.3z"/>
	<path class="st0" d="M677.5,140.8c0.5,0,1.2,0,2.4,0v1.9h-11.1v-1.9c2.7,0,2.9-0.1,2.9-0.9v-13.6c0-0.8-0.1-1-1-1.4l-2.1-0.9v-1
		l6.3-1.8h0.6v6c2.1-3.6,4.6-6,6.7-6c1.8,0,3,1.1,3,2.7c0,1.5-1,2.4-2.4,2.4c-0.5,0-0.8-0.1-1.6-0.7c-0.7-0.5-0.9-0.6-1.3-0.6
		c-1.1,0-2.8,1.8-4.4,4.1v10.7C675.6,140.7,676,140.8,677.5,140.8z"/>
	<path class="st0" d="M703.8,137.3l1.7,1.2c-1.4,3-4.6,4.8-8.1,4.8c-5.5,0-9.8-4.4-9.8-10.8c0-2.9,0.9-5.6,2.6-7.6
		c1.8-2.3,4.4-3.6,7.1-3.6c5.1,0,8,3.5,8,9v1.4h-13.9v0.1c0,5.3,2.7,8.8,6.8,8.8C700.5,140.6,702,139.7,703.8,137.3z M697.1,123.5
		c-2.8,0-5,2.4-5.6,6.2h10C701.5,125.5,700.1,123.5,697.1,123.5z"/>
</g>
<g class="st1">
	<path class="st0" d="M58.6,80.1h-0.2l-6.7,23h-2.7L41,76.5c-0.3-1-1-1.3-3.9-1.3v-2h12.3v2c-3.2,0-4.1,0.2-4.1,0.9
		c0,0.2,0,0.3,0.2,0.9L51.2,97h0.2L58,73.2h2.4l6.8,23.9h0.2l5.8-20.2c0.1-0.5,0.2-0.7,0.2-0.9c0-0.7-0.9-0.9-4.2-0.9v-2h10.7v2
		c-2.9,0-3.5,0.3-3.9,1.3L68,103h-2.7L58.6,80.1z"/>
	<path class="st0" d="M95.2,97.3l1.7,1.2c-1.4,3-4.6,4.8-8.1,4.8c-5.5,0-9.8-4.4-9.8-10.8c0-2.9,0.9-5.6,2.6-7.6
		c1.8-2.3,4.4-3.6,7.1-3.6c5.1,0,8,3.5,8,9v1.4H82.9v0.1c0,5.3,2.7,8.8,6.8,8.8C92,100.6,93.5,99.7,95.2,97.3z M88.6,83.5
		c-2.8,0-5,2.4-5.6,6.2h10C93,85.5,91.6,83.5,88.6,83.5z"/>
	<path class="st0" d="M132.4,103h-2.2L125,87.2h-0.2l-5,15.8h-2.2l-6.2-18.6c-0.2-0.7-0.6-0.9-2.8-0.9v-1.9h9.5v1.9
		c-2.7,0.1-2.8,0.2-2.8,0.6c0,0.1,0,0.4,0.2,0.7l3.9,12.7h0.2l5-15.9h2.2l5.1,15.9h0.2l4.1-12.7c0.1-0.3,0.2-0.5,0.2-0.7
		c0-0.4-0.2-0.5-2.8-0.6v-1.9h7.8v1.9c-2.1,0-2.5,0.1-2.7,0.9L132.4,103z"/>
	<path class="st0" d="M146,100V86.5c0-0.8-0.1-1-1-1.4l-2.1-0.9v-1l6.3-1.8h0.6V100c0,0.8,0.3,0.9,2.9,0.9v1.9h-9.7v-1.9
		C145.7,100.9,146,100.8,146,100z M147.8,76.6c-1.6,0-2.8-1.3-2.8-2.8c0-1.6,1.3-2.8,2.8-2.8c1.6,0,2.8,1.3,2.8,2.8
		C150.7,75.3,149.4,76.6,147.8,76.6z"/>
	<path class="st0" d="M158.3,100V74.3c0-0.8-0.1-1-1-1.4l-2.1-0.9v-1l6.3-1.8h0.6V100c0,0.8,0.3,0.9,2.9,0.9v1.9h-9.7v-1.9
		C158,100.9,158.3,100.8,158.3,100z"/>
	<path class="st0" d="M170.7,100V74.3c0-0.8-0.1-1-1-1.4l-2.1-0.9v-1l6.3-1.8h0.6V100c0,0.8,0.3,0.9,2.9,0.9v1.9h-9.7v-1.9
		C170.5,100.9,170.7,100.8,170.7,100z"/>
	<path class="st0" d="M199.3,100.8c0.5,0,1.2,0,2.4,0v1.9h-11.1v-1.9c2.7,0,2.9-0.1,2.9-0.9V83.9h-3.3v-2.2h3.3v-0.2
		c0-7.1,4.9-12.4,11.2-12.4c2.7,0,4.4,1.1,4.4,2.8c0,1.3-0.9,2.1-2.2,2.1c-0.7,0-1.1-0.2-2.1-0.9c-1.2-0.9-1.8-1.2-2.7-1.2
		c-2.9,0-4.7,2.6-4.7,7v2.8h11.8l1.3-0.5h0.6V100c0,0.8,0.3,0.9,2.9,0.9v1.9h-9.7v-1.9c2.7,0,2.9-0.1,2.9-0.9V83.9h-9.8v16
		C197.4,100.7,197.8,100.8,199.3,100.8z"/>
	<path class="st0" d="M226.6,100.9v1.9h-9.7v-1.9c2.7,0,2.9-0.1,2.9-0.9V86.5c0-0.8-0.1-1-1-1.4l-2.1-0.9v-1l6.3-1.8h0.6v4
		c1.8-2.3,4.7-4,7.3-4c3.9,0,6.1,2.8,6.1,7.5V100c0,0.8,0.3,0.9,2.9,0.9v1.9h-9.7v-1.9c2.7,0,2.9-0.1,2.9-0.9V89.1
		c0-3.2-1.4-4.9-4.1-4.9c-1.9,0-3.9,1-5.4,2.7V100C223.6,100.8,223.9,100.9,226.6,100.9z"/>
	<path class="st0" d="M264.8,101.3v1l-6.3,0.9h-0.6v-4c-1.4,2.3-4.1,4-6.6,4c-4.9,0-8.4-4.4-8.4-10.2c0-7.1,4-11.8,9.8-11.8
		c1.9,0,4,0.8,5.2,1.9v-8.9c0-0.8-0.1-1-1-1.4l-2.1-0.9v-1l6.3-1.8h0.6V99c0,0.8,0.1,1,1,1.4L264.8,101.3z M253.2,83.4
		c-3.9,0-6.4,3.5-6.4,8.8c0,4.9,2.3,8.3,5.9,8.3c1.9,0,3.5-0.9,5.1-2.7V85.8C256.9,84.3,255.3,83.4,253.2,83.4z"/>
	<path class="st0" d="M294.5,103.3c-2.2,0-3.9-1.6-4.2-3.9c-1.7,2.2-4.6,3.9-7.1,3.9c-3.1,0-5.2-1.9-5.2-4.9c0-4,3.9-6.7,12.2-8.4
		v-2.8c0-2.5-1.3-3.9-3.8-3.9c-1.9,0-3.5,0.9-3.5,1.9c0,0.2,0,0.3,0.2,0.7c0.2,0.5,0.2,0.8,0.2,1.1c0,1.3-0.9,2.2-2.2,2.2
		s-2.3-1-2.3-2.5c0-3,4-5.5,8.6-5.5c4.6,0,6.7,1.9,6.7,5.8v11.2c0,1.4,0.8,2.3,1.8,2.3c0.7,0,1.3-0.2,2-0.8l0.7,1.4
		C297.4,102.4,295.9,103.3,294.5,103.3z M290.1,97.9v-6c-6.1,1.4-8.4,3-8.4,5.7c0,1.8,1.1,3,2.9,3
		C286.6,100.6,288.3,99.8,290.1,97.9z"/>
	<path class="st0" d="M37.5,143h-2.2l-5.2-15.8h-0.2l-5,15.8h-2.2l-6.2-18.6c-0.2-0.7-0.6-0.9-2.8-0.9v-1.9h9.5v1.9
		c-2.7,0.1-2.8,0.2-2.8,0.6c0,0.1,0,0.4,0.2,0.7l3.9,12.7h0.2l5-15.9h2.2l5.1,15.9h0.2l4.1-12.7c0.1-0.3,0.2-0.5,0.2-0.7
		c0-0.4-0.2-0.5-2.8-0.6v-1.9h7.8v1.9c-2.1,0-2.5,0.1-2.7,0.9L37.5,143z"/>
	<path class="st0" d="M65.1,143.3c-2.2,0-3.9-1.6-4.2-3.9c-1.7,2.2-4.6,3.9-7.1,3.9c-3.1,0-5.2-1.9-5.2-4.9c0-4,3.9-6.7,12.2-8.4
		v-2.8c0-2.5-1.3-3.9-3.8-3.9c-1.9,0-3.5,0.9-3.5,1.9c0,0.2,0,0.3,0.2,0.7c0.2,0.5,0.2,0.8,0.2,1.1c0,1.3-0.9,2.2-2.2,2.2
		s-2.3-1-2.3-2.5c0-3,4-5.5,8.6-5.5c4.6,0,6.7,1.9,6.7,5.8v11.2c0,1.4,0.8,2.3,1.8,2.3c0.7,0,1.3-0.2,2-0.8l0.7,1.4
		C68.1,142.4,66.5,143.3,65.1,143.3z M60.8,137.9v-6c-6.1,1.4-8.4,3-8.4,5.7c0,1.8,1.1,3,2.9,3C57.2,140.6,59,139.8,60.8,137.9z"/>
	<path class="st0" d="M88.8,124.5l-7.8,19.2c-2.7,6.6-5.1,9.1-8.4,9.1c-1.9,0-3.3-1.2-3.3-2.8c0-1.3,0.9-2.2,2.2-2.2
		c0.7,0,1.2,0.2,2.1,1.3c0.6,0.7,0.8,0.8,1.1,0.8c1.3,0,2.8-2.3,4.7-7.1l-7.6-18.3c-0.3-0.8-0.7-0.9-2.8-0.9v-1.9h9.7v1.9
		c-2.7,0.1-2.8,0.2-2.8,0.6c0,0.1,0,0.4,0.2,0.7l5.1,13h0.1l5.1-13c0.1-0.3,0.2-0.5,0.2-0.7c0-0.4-0.2-0.5-2.8-0.6v-1.9h8v1.9
		C89.4,123.6,89.1,123.7,88.8,124.5z"/>
	<path class="st0" d="M116.8,138.3l1.2,1.4c-1.6,2.2-4.2,3.5-6.9,3.5c-3.3,0-5.7-2.1-5.7-5.1v-14.3h-2.9v-2.2h2.9v-5.4l3.9-1.1v6.5
		h6.7v2.2h-6.7v13.2c0,2.3,1.1,3.5,3.4,3.5C114.1,140.6,115.4,139.9,116.8,138.3z"/>
	<path class="st0" d="M129.8,143.3c-5.6,0-9.8-4.6-9.8-11c0-6.4,4.2-11,9.8-11s9.8,4.6,9.8,11C139.6,138.7,135.4,143.3,129.8,143.3z
		 M129.8,141c3.6,0,5.7-3.1,5.7-8.8c0-5.6-2.1-8.8-5.7-8.8c-3.6,0-5.7,3.1-5.7,8.8C124.2,137.9,126.2,141,129.8,141z"/>
	<path class="st0" d="M173.9,144.9c0,4.7-5.1,7.9-12,7.9c-6.2,0-9.9-2.1-9.9-5.7c0-2.1,2-3.7,5.1-4.3c-1.8-0.6-2.9-2.1-2.9-3.7
		c0-1.9,1.3-3.4,3.7-4.5c-2.5-1.3-4-3.5-4-6.2c0-3.9,3.9-7.2,8.5-7.2c2.3,0,4.6,0.9,6.3,2.5c2-2.5,3.3-3.3,4.7-3.3
		c1.7,0,2.7,1,2.7,2.6c0,1.3-1,2.3-2.2,2.3c-0.7,0-1.2-0.2-1.8-1c-0.4-0.5-0.5-0.5-0.8-0.5c-0.5,0-1.1,0.3-1.8,1
		c0.8,1.1,1.2,2.4,1.2,3.6c0,3.9-3.8,7.2-8.4,7.2c-1.1,0-2.2-0.1-3-0.5c-2.1,1-2.7,1.7-2.7,2.8c0,0.9,0.7,1.6,1.7,1.6h8.4
		C171.3,139.6,173.9,141.5,173.9,144.9z M170.5,146c0-2-1.2-2.7-4.2-2.7h-8c-1.9,0.8-2.8,1.9-2.8,3.5c0,2.5,2.6,3.9,6.8,3.9
		C167,150.6,170.5,148.7,170.5,146z M162.4,123.2c-2.7,0-4.4,2-4.4,5.3c0,3.2,1.7,5.2,4.4,5.2c2.7,0,4.4-2,4.4-5.2
		C166.7,125.2,165,123.2,162.4,123.2z"/>
	<path class="st0" d="M193.4,137.3l1.7,1.2c-1.4,3-4.6,4.8-8.1,4.8c-5.5,0-9.8-4.4-9.8-10.8c0-2.9,0.9-5.6,2.6-7.6
		c1.8-2.3,4.4-3.6,7.1-3.6c5.1,0,8,3.5,8,9v1.4h-13.9v0.1c0,5.3,2.7,8.8,6.8,8.8C190.2,140.6,191.7,139.7,193.4,137.3z M186.8,123.5
		c-2.8,0-5,2.4-5.6,6.2h10C191.2,125.5,189.7,123.5,186.8,123.5z"/>
	<path class="st0" d="M212.3,138.3l1.2,1.4c-1.6,2.2-4.2,3.5-6.9,3.5c-3.3,0-5.7-2.1-5.7-5.1v-14.3h-2.9v-2.2h2.9v-5.4l3.9-1.1v6.5
		h6.7v2.2h-6.7v13.2c0,2.3,1.1,3.5,3.4,3.5C209.6,140.6,210.9,139.9,212.3,138.3z"/>
	<path class="st0" d="M247.4,143h-2.2l-5.2-15.8h-0.2l-5,15.8h-2.2l-6.2-18.6c-0.2-0.7-0.6-0.9-2.8-0.9v-1.9h9.5v1.9
		c-2.7,0.1-2.8,0.2-2.8,0.6c0,0.1,0,0.4,0.2,0.7l3.9,12.7h0.2l5-15.9h2.2l5.1,15.9h0.2l4.1-12.7c0.1-0.3,0.2-0.5,0.2-0.7
		c0-0.4-0.2-0.5-2.8-0.6v-1.9h7.8v1.9c-2.1,0-2.5,0.1-2.7,0.9L247.4,143z"/>
	<path class="st0" d="M267.5,140.9v1.9h-9.7v-1.9c2.7,0,2.9-0.1,2.9-0.9v-25.7c0-0.8-0.1-1-1-1.4l-2.1-0.9v-1l6.3-1.8h0.6v16.1
		c1.8-2.3,4.7-4,7.3-4c3.9,0,6.1,2.8,6.1,7.5V140c0,0.8,0.3,0.9,2.9,0.9v1.9h-9.7v-1.9c2.7,0,2.9-0.1,2.9-0.9v-10.9
		c0-3.2-1.4-4.9-4.1-4.9c-1.9,0-3.9,1-5.4,2.7V140C264.6,140.8,264.9,140.9,267.5,140.9z"/>
	<path class="st0" d="M300.7,143.3c-2.2,0-3.9-1.6-4.2-3.9c-1.7,2.2-4.6,3.9-7.1,3.9c-3.1,0-5.2-1.9-5.2-4.9c0-4,3.9-6.7,12.2-8.4
		v-2.8c0-2.5-1.3-3.9-3.8-3.9c-1.9,0-3.5,0.9-3.5,1.9c0,0.2,0,0.3,0.2,0.7c0.2,0.5,0.2,0.8,0.2,1.1c0,1.3-0.9,2.2-2.2,2.2
		s-2.3-1-2.3-2.5c0-3,4-5.5,8.6-5.5c4.6,0,6.7,1.9,6.7,5.8v11.2c0,1.4,0.8,2.3,1.8,2.3c0.7,0,1.3-0.2,2-0.8l0.7,1.4
		C303.6,142.4,302,143.3,300.7,143.3z M296.3,137.9v-6c-6.1,1.4-8.4,3-8.4,5.7c0,1.8,1.1,3,2.9,3
		C292.7,140.6,294.5,139.8,296.3,137.9z"/>
	<path class="st0" d="M319.8,138.3l1.2,1.4c-1.6,2.2-4.2,3.5-6.9,3.5c-3.3,0-5.7-2.1-5.7-5.1v-14.3h-2.9v-2.2h2.9v-5.4l3.9-1.1v6.5
		h6.7v2.2h-6.7v13.2c0,2.3,1.1,3.5,3.4,3.5C317.1,140.6,318.4,139.9,319.8,138.3z"/>
	<path class="st0" d="M112.3,183h-2.2l-5.2-15.8h-0.2l-5,15.8h-2.2l-6.2-18.6c-0.2-0.7-0.6-0.9-2.8-0.9v-1.9H98v1.9
		c-2.7,0.1-2.8,0.2-2.8,0.6c0,0.1,0,0.4,0.2,0.7l3.9,12.7h0.2l5-15.9h2.2l5.1,15.9h0.2l4.1-12.7c0.1-0.3,0.2-0.5,0.2-0.7
		c0-0.4-0.2-0.5-2.8-0.6v-1.9h7.8v1.9c-2.1,0-2.5,0.1-2.7,0.9L112.3,183z"/>
	<path class="st0" d="M139.2,177.3l1.7,1.2c-1.4,3-4.6,4.8-8.1,4.8c-5.5,0-9.8-4.4-9.8-10.8c0-2.9,0.9-5.6,2.6-7.6
		c1.8-2.3,4.4-3.6,7.1-3.6c5.1,0,8,3.5,8,9v1.4h-13.9v0.1c0,5.3,2.7,8.8,6.8,8.8C136,180.6,137.5,179.7,139.2,177.3z M132.6,163.5
		c-2.8,0-5,2.4-5.6,6.2h10C137,165.5,135.6,163.5,132.6,163.5z"/>
	<path class="st0" d="M164.1,180.9v1.9h-9.7v-1.9c2.7,0,2.9-0.1,2.9-0.9v-13.6c0-0.8-0.1-1-1-1.4l-2.1-0.9v-1l6.3-1.8h0.6v4
		c1.8-2.3,4.7-4,7.3-4c3.9,0,6.1,2.8,6.1,7.5V180c0,0.8,0.3,0.9,2.9,0.9v1.9h-9.7v-1.9c2.7,0,2.9-0.1,2.9-0.9v-10.9
		c0-3.2-1.4-4.9-4.1-4.9c-1.9,0-3.9,1-5.4,2.7V180C161.1,180.8,161.4,180.9,164.1,180.9z"/>
	<path class="st0" d="M196.5,177.3l1.7,1.2c-1.4,3-4.6,4.8-8.1,4.8c-5.5,0-9.8-4.4-9.8-10.8c0-2.9,0.9-5.6,2.6-7.6
		c1.8-2.3,4.4-3.6,7.1-3.6c5.1,0,8,3.5,8,9v1.4h-13.9v0.1c0,5.3,2.7,8.8,6.8,8.8C193.2,180.6,194.7,179.7,196.5,177.3z M189.8,163.5
		c-2.8,0-5,2.4-5.6,6.2h10C194.2,165.5,192.8,163.5,189.8,163.5z"/>
	<path class="st0" d="M217.9,177.3l1.7,1.2c-1.4,3-4.6,4.8-8.1,4.8c-5.5,0-9.8-4.4-9.8-10.8c0-2.9,0.9-5.6,2.6-7.6
		c1.8-2.3,4.4-3.6,7.1-3.6c5.1,0,8,3.5,8,9v1.4h-13.9v0.1c0,5.3,2.7,8.8,6.8,8.8C214.7,180.6,216.2,179.7,217.9,177.3z M211.3,163.5
		c-2.8,0-5,2.4-5.6,6.2h10C215.7,165.5,214.3,163.5,211.3,163.5z"/>
	<path class="st0" d="M245.2,181.3v1l-6.3,0.9h-0.6v-4c-1.4,2.3-4.1,4-6.6,4c-4.9,0-8.4-4.4-8.4-10.2c0-7.1,4-11.8,9.8-11.8
		c1.9,0,4,0.8,5.2,1.9v-8.9c0-0.8-0.1-1-1-1.4l-2.1-0.9v-1l6.3-1.8h0.6V179c0,0.8,0.1,1,1,1.4L245.2,181.3z M233.7,163.4
		c-3.9,0-6.4,3.5-6.4,8.8c0,4.9,2.3,8.3,5.9,8.3c1.9,0,3.5-0.9,5.1-2.7v-11.9C237.4,164.3,235.7,163.4,233.7,163.4z"/>
</g>
<g class="st1">
	<path class="st0" d="M20.1,530.6h23.1l0.4,9h-1.7c-1-3.6-1.3-4.3-1.7-5c-0.9-1.4-2-1.9-4.6-1.9h-7.1V544h2.9c2.6,0,3.2-0.2,3.7-0.8
		c0.4-0.5,0.6-1.2,0.9-3.8h1.8v11.2H36c-0.3-2.5-0.5-3.3-1-3.8c-0.5-0.6-1.2-0.8-3.8-0.8h-2.9v12h6.1c3.5,0,5.2-0.4,6.5-1.7
		c1.2-1.2,2-3.1,2.7-6.3h1.8l-0.9,10H20.1v-2c3.5,0,4-0.1,4-1.2v-23.4c0-1-0.5-1.2-4-1.2V530.6z"/>
	<path class="st0" d="M65.5,560.7c-2.2,0-3.9-1.6-4.2-3.9c-1.7,2.2-4.6,3.9-7.1,3.9c-3.1,0-5.2-1.9-5.2-4.9c0-4,3.9-6.7,12.2-8.4
		v-2.8c0-2.5-1.3-3.9-3.8-3.9c-1.9,0-3.5,0.9-3.5,1.9c0,0.2,0,0.3,0.2,0.7c0.2,0.5,0.2,0.8,0.2,1.1c0,1.3-0.9,2.2-2.2,2.2
		s-2.3-1-2.3-2.5c0-3,4-5.5,8.6-5.5c4.6,0,6.7,1.9,6.7,5.8v11.2c0,1.4,0.8,2.3,1.8,2.3c0.7,0,1.3-0.2,2-0.8l0.7,1.4
		C68.4,559.8,66.9,560.7,65.5,560.7z M61.1,555.3v-6c-6.1,1.4-8.4,3-8.4,5.7c0,1.8,1.1,3,2.9,3C57.6,558,59.3,557.2,61.1,555.3z"/>
	<path class="st0" d="M83.8,543.2c-0.9-1.9-1.7-2.2-3-2.2c-3.3,0-5.9,3.6-5.9,8.4c0,5.2,2.6,8.5,6.2,8.5c2.4,0,4.1-1.1,5.7-3.7
		l1.8,1.1c-1.7,3.4-4.6,5.3-8.1,5.3c-5.4,0-9.4-4.2-9.4-10.5c0-3,1-5.8,2.9-7.9c2-2.3,4.7-3.6,7.5-3.6c3.6,0,6.6,2,6.6,4.3
		c0,1.3-0.9,2.1-2,2.1C85.1,545,84.5,544.7,83.8,543.2z"/>
	<path class="st0" d="M100.8,558.3v1.9h-9.7v-1.9c2.7,0,2.9-0.1,2.9-0.9v-25.7c0-0.8-0.1-1-1-1.4l-2.1-0.9v-1l6.3-1.8h0.6v16.1
		c1.8-2.3,4.7-4,7.3-4c3.9,0,6.1,2.8,6.1,7.5v11.3c0,0.8,0.3,0.9,2.9,0.9v1.9h-9.7v-1.9c2.7,0,2.9-0.1,2.9-0.9v-10.9
		c0-3.2-1.4-4.9-4.1-4.9c-1.9,0-3.9,1-5.4,2.7v13.2C97.9,558.2,98.2,558.3,100.8,558.3z"/>
	<path class="st0" d="M143.9,560.7c-2.2,0-3.9-1.6-4.2-3.9c-1.7,2.2-4.6,3.9-7.1,3.9c-3.1,0-5.2-1.9-5.2-4.9c0-4,3.9-6.7,12.2-8.4
		v-2.8c0-2.5-1.3-3.9-3.8-3.9c-1.9,0-3.5,0.9-3.5,1.9c0,0.2,0,0.3,0.2,0.7c0.2,0.5,0.2,0.8,0.2,1.1c0,1.3-0.9,2.2-2.2,2.2
		s-2.3-1-2.3-2.5c0-3,4-5.5,8.6-5.5c4.6,0,6.7,1.9,6.7,5.8v11.2c0,1.4,0.8,2.3,1.8,2.3c0.7,0,1.3-0.2,2-0.8l0.7,1.4
		C146.8,559.8,145.2,560.7,143.9,560.7z M139.5,555.3v-6c-6.1,1.4-8.4,3-8.4,5.7c0,1.8,1.1,3,2.9,3
		C135.9,558,137.7,557.2,139.5,555.3z"/>
	<path class="st0" d="M159,558.3v1.9h-9.7v-1.9c2.7,0,2.9-0.1,2.9-0.9v-13.6c0-0.8-0.1-1-1-1.4l-2.1-0.9v-1l6.3-1.8h0.6v4
		c1.8-2.3,4.7-4,7.3-4c3.9,0,6.1,2.8,6.1,7.5v11.3c0,0.8,0.3,0.9,2.9,0.9v1.9h-9.7v-1.9c2.7,0,2.9-0.1,2.9-0.9v-10.9
		c0-3.2-1.4-4.9-4.1-4.9c-1.9,0-3.9,1-5.4,2.7v13.2C156.1,558.2,156.3,558.3,159,558.3z"/>
	<path class="st0" d="M197.2,558.7v1l-6.3,0.9h-0.6v-4c-1.4,2.3-4.1,4-6.6,4c-4.9,0-8.4-4.4-8.4-10.2c0-7.1,4-11.8,9.8-11.8
		c1.9,0,4,0.8,5.2,1.9v-8.9c0-0.8-0.1-1-1-1.4l-2.1-0.9v-1l6.3-1.8h0.6v29.8c0,0.8,0.1,1,1,1.4L197.2,558.7z M185.6,540.8
		c-3.9,0-6.4,3.5-6.4,8.8c0,4.9,2.3,8.3,5.9,8.3c1.9,0,3.5-0.9,5.1-2.7v-11.9C189.3,541.7,187.7,540.8,185.6,540.8z"/>
	<path class="st0" d="M226.2,554.7l1.7,1.2c-1.4,3-4.6,4.8-8.1,4.8c-5.5,0-9.8-4.4-9.8-10.8c0-2.9,0.9-5.6,2.6-7.6
		c1.8-2.3,4.4-3.6,7.1-3.6c5.1,0,8,3.5,8,9v1.4h-13.9v0.1c0,5.3,2.7,8.8,6.8,8.8C222.9,558,224.4,557.1,226.2,554.7z M219.5,540.9
		c-2.8,0-5,2.4-5.6,6.2h10C223.9,542.9,222.5,540.9,219.5,540.9z"/>
	<path class="st0" d="M244.4,541v-1.9h8v1.9c-2.1,0-2.4,0.1-2.7,0.9l-7.5,18.6h-2.3l-7.4-18.6c-0.3-0.8-0.7-0.9-2.8-0.9v-1.9h9.7
		v1.9c-2.7,0.1-2.8,0.2-2.8,0.6c0,0.1,0,0.4,0.2,0.7l4.9,13.7h0.2l5.2-13.7c0.1-0.3,0.2-0.5,0.2-0.7
		C247.2,541.2,247,541.2,244.4,541z"/>
	<path class="st0" d="M270.4,554.7l1.7,1.2c-1.4,3-4.6,4.8-8.1,4.8c-5.5,0-9.8-4.4-9.8-10.8c0-2.9,0.9-5.6,2.6-7.6
		c1.8-2.3,4.4-3.6,7.1-3.6c5.1,0,8,3.5,8,9v1.4H258v0.1c0,5.3,2.7,8.8,6.8,8.8C267.1,558,268.6,557.1,270.4,554.7z M263.7,540.9
		c-2.8,0-5,2.4-5.6,6.2h10C268.1,542.9,266.7,540.9,263.7,540.9z"/>
	<path class="st0" d="M284.2,558.2c0.5,0,1.2,0,2.4,0v1.9h-11.1v-1.9c2.7,0,2.9-0.1,2.9-0.9v-13.6c0-0.8-0.1-1-1-1.4l-2.1-0.9v-1
		l6.3-1.8h0.6v6c2.1-3.6,4.6-6,6.7-6c1.8,0,3,1.1,3,2.7c0,1.5-1,2.4-2.4,2.4c-0.5,0-0.8-0.1-1.6-0.7c-0.7-0.5-0.9-0.6-1.3-0.6
		c-1.1,0-2.8,1.8-4.4,4.1v10.7C282.4,558.1,282.7,558.2,284.2,558.2z"/>
	<path class="st0" d="M313.3,541.9l-7.8,19.2c-2.7,6.6-5.1,9.1-8.4,9.1c-1.9,0-3.3-1.2-3.3-2.8c0-1.3,0.9-2.2,2.2-2.2
		c0.7,0,1.2,0.2,2.1,1.3c0.6,0.7,0.8,0.8,1.1,0.8c1.3,0,2.8-2.3,4.7-7.1l-7.6-18.3c-0.3-0.8-0.7-0.9-2.8-0.9v-1.9h9.7v1.9
		c-2.7,0.1-2.8,0.2-2.8,0.6c0,0.1,0,0.4,0.2,0.7l5.1,13h0.1l5.1-13c0.1-0.3,0.2-0.5,0.2-0.7c0-0.4-0.2-0.5-2.8-0.6v-1.9h8v1.9
		C314,541,313.6,541.1,313.3,541.9z"/>
	<path class="st0" d="M20.6,607.8c0.5,0,1.2,0,2.4,0v1.9H11.9v-1.9c2.7,0,2.9-0.1,2.9-0.9v-23.1c0-0.8-0.1-1-1-1.4l-2.1-0.9v-1
		l6.3-1.8h0.6v4c1.5-2.3,4.2-4,6.7-4c4.9,0,8.3,4.2,8.3,10.1c0,7.1-4,11.9-9.8,11.9c-2.1,0-4-0.9-5.2-2.2v8.4
		C18.7,607.6,19.1,607.7,20.6,607.8z M29.7,589.7c0-4.9-2.2-8.1-5.8-8.1c-1.9,0-4,1.1-5.3,2.7v11.9c0.9,1.5,2.6,2.3,4.5,2.3
		C27.2,598.4,29.7,595,29.7,589.7z"/>
	<path class="st0" d="M53.6,594.7l1.7,1.2c-1.4,3-4.6,4.8-8.1,4.8c-5.5,0-9.8-4.4-9.8-10.8c0-2.9,0.9-5.6,2.6-7.6
		c1.8-2.3,4.4-3.6,7.1-3.6c5.1,0,8,3.5,8,9v1.4H41.2v0.1c0,5.3,2.7,8.8,6.8,8.8C50.3,598,51.8,597.1,53.6,594.7z M46.9,580.9
		c-2.8,0-5,2.4-5.6,6.2h10C51.3,582.9,49.9,580.9,46.9,580.9z"/>
	<path class="st0" d="M67.4,598.2c0.5,0,1.2,0,2.4,0v1.9H58.8v-1.9c2.7,0,2.9-0.1,2.9-0.9v-13.6c0-0.8-0.1-1-1-1.4l-2.1-0.9v-1
		l6.3-1.8h0.6v6c2.1-3.6,4.6-6,6.7-6c1.8,0,3,1.1,3,2.7c0,1.5-1,2.4-2.4,2.4c-0.5,0-0.8-0.1-1.6-0.7c-0.7-0.5-0.9-0.6-1.3-0.6
		c-1.1,0-2.8,1.8-4.4,4.1v10.7C65.6,598.1,65.9,598.2,67.4,598.2z"/>
	<path class="st0" d="M85.5,580.8c-2.4,0-4,1.3-4,3.3c0,1.5,0.8,2.3,4.9,3.6c2.7,0.9,3.7,1.3,4.6,1.9c1.5,1.1,2.2,2.4,2.2,4.3
		c0,3.9-3.6,6.7-8.4,6.7c-2.3,0-4.7-0.7-7-2l-0.4-5.5h1.8c0.7,3.7,2.7,5.3,6.1,5.3c2.6,0,4.5-1.4,4.5-3.5c0-1.7-0.8-2.7-5-3.9
		c-2.6-0.8-3.5-1.2-4.4-1.8c-1.4-0.9-2.1-2.3-2.1-4c0-3.8,3.3-6.6,7.6-6.6c2.1,0,4,0.5,6.1,1.7v5.3h-1.6
		C89.9,582.3,88.4,580.8,85.5,580.8z"/>
	<path class="st0" d="M106.6,600.7c-5.6,0-9.8-4.6-9.8-11c0-6.4,4.2-11,9.8-11s9.8,4.6,9.8,11C116.4,596.1,112.2,600.7,106.6,600.7z
		 M106.6,598.4c3.6,0,5.7-3.1,5.7-8.8s-2.1-8.8-5.7-8.8c-3.6,0-5.7,3.1-5.7,8.8S103,598.4,106.6,598.4z"/>
	<path class="st0" d="M129.7,598.3v1.9H120v-1.9c2.7,0,2.9-0.1,2.9-0.9v-13.6c0-0.8-0.1-1-1-1.4l-2.1-0.9v-1l6.3-1.8h0.6v4
		c1.8-2.3,4.7-4,7.3-4c3.9,0,6.1,2.8,6.1,7.5v11.3c0,0.8,0.3,0.9,2.9,0.9v1.9h-9.7v-1.9c2.7,0,2.9-0.1,2.9-0.9v-10.9
		c0-3.2-1.4-4.9-4.1-4.9c-1.9,0-3.9,1-5.4,2.7v13.2C126.8,598.2,127.1,598.3,129.7,598.3z"/>
	<path class="st0" d="M158.7,597.4v-13.6c0-0.8-0.1-1-1-1.4l-2.1-0.9v-1l6.3-1.8h0.6v18.8c0,0.8,0.3,0.9,2.9,0.9v1.9h-9.7v-1.9
		C158.4,598.3,158.7,598.2,158.7,597.4z M160.5,574c-1.6,0-2.8-1.3-2.8-2.8c0-1.6,1.3-2.8,2.8-2.8c1.6,0,2.8,1.3,2.8,2.8
		C163.3,572.7,162.1,574,160.5,574z"/>
	<path class="st0" d="M176.3,580.8c-2.4,0-4,1.3-4,3.3c0,1.5,0.8,2.3,4.9,3.6c2.7,0.9,3.7,1.3,4.6,1.9c1.5,1.1,2.2,2.4,2.2,4.3
		c0,3.9-3.6,6.7-8.4,6.7c-2.3,0-4.7-0.7-7-2l-0.4-5.5h1.8c0.7,3.7,2.7,5.3,6.1,5.3c2.6,0,4.5-1.4,4.5-3.5c0-1.7-0.8-2.7-5-3.9
		c-2.6-0.8-3.5-1.2-4.4-1.8c-1.4-0.9-2.1-2.3-2.1-4c0-3.8,3.3-6.6,7.6-6.6c2.1,0,4,0.5,6.1,1.7v5.3h-1.6
		C180.6,582.3,179.2,580.8,176.3,580.8z"/>
	<path class="st0" d="M210.4,581v-1.9h8v1.9c-2.1,0-2.4,0.1-2.7,0.9l-7.5,18.6h-2.3l-7.4-18.6c-0.3-0.8-0.7-0.9-2.8-0.9v-1.9h9.7
		v1.9c-2.7,0.1-2.8,0.2-2.8,0.6c0,0.1,0,0.4,0.2,0.7l4.9,13.7h0.2l5.2-13.7c0.1-0.3,0.2-0.5,0.2-0.7
		C213.2,581.2,213,581.2,210.4,581z"/>
	<path class="st0" d="M237.1,600.7c-2.2,0-3.9-1.6-4.2-3.9c-1.7,2.2-4.6,3.9-7.1,3.9c-3.1,0-5.2-1.9-5.2-4.9c0-4,3.9-6.7,12.2-8.4
		v-2.8c0-2.5-1.3-3.9-3.8-3.9c-1.9,0-3.5,0.9-3.5,1.9c0,0.2,0,0.3,0.2,0.7c0.2,0.5,0.2,0.8,0.2,1.1c0,1.3-0.9,2.2-2.2,2.2
		s-2.3-1-2.3-2.5c0-3,4-5.5,8.6-5.5c4.6,0,6.7,1.9,6.7,5.8v11.2c0,1.4,0.8,2.3,1.8,2.3c0.7,0,1.3-0.2,2-0.8l0.7,1.4
		C240,599.8,238.5,600.7,237.1,600.7z M232.7,595.3v-6c-6.1,1.4-8.4,3-8.4,5.7c0,1.8,1.1,3,2.9,3C229.2,598,230.9,597.2,232.7,595.3
		z"/>
	<path class="st0" d="M245.2,597.4v-25.7c0-0.8-0.1-1-1-1.4l-2.1-0.9v-1l6.3-1.8h0.6v30.9c0,0.8,0.3,0.9,2.9,0.9v1.9h-9.7v-1.9
		C244.9,598.3,245.2,598.2,245.2,597.4z"/>
	<path class="st0" d="M277.1,598.7v1l-6.3,0.9h-0.6v-3.8c-1.8,2.3-4.3,3.8-6.7,3.8c-3.9,0-6.2-2.8-6.2-7.5V583c0-0.9-0.2-1.3-1-1.4
		l-2.2-0.4v-1.6l6.4-0.4h0.6v13.8c0,3.2,1.3,4.9,4,4.9c1.8,0,3.6-0.9,5.1-2.7V583c0-0.9-0.2-1.3-1-1.4l-2.2-0.4v-1.6l6.4-0.4h0.6
		v17.3c0,0.8,0.1,1,1,1.4L277.1,598.7z"/>
	<path class="st0" d="M296,594.7l1.7,1.2c-1.4,3-4.6,4.8-8.1,4.8c-5.5,0-9.8-4.4-9.8-10.8c0-2.9,0.9-5.6,2.6-7.6
		c1.8-2.3,4.4-3.6,7.1-3.6c5.1,0,8,3.5,8,9v1.4h-13.9v0.1c0,5.3,2.7,8.8,6.8,8.8C292.7,598,294.2,597.1,296,594.7z M289.3,580.9
		c-2.8,0-5,2.4-5.6,6.2h10C293.7,582.9,292.3,580.9,289.3,580.9z"/>
	<path class="st0" d="M323.2,598.7v1l-6.3,0.9h-0.6v-4c-1.4,2.3-4.1,4-6.6,4c-4.9,0-8.4-4.4-8.4-10.2c0-7.1,4-11.8,9.8-11.8
		c1.9,0,4,0.8,5.2,1.9v-8.9c0-0.8-0.1-1-1-1.4l-2.1-0.9v-1l6.3-1.8h0.6v29.8c0,0.8,0.1,1,1,1.4L323.2,598.7z M311.7,580.8
		c-3.9,0-6.4,3.5-6.4,8.8c0,4.9,2.3,8.3,5.9,8.3c1.9,0,3.5-0.9,5.1-2.7v-11.9C315.4,581.7,313.8,580.8,311.7,580.8z"/>
	<path class="st0" d="M57.3,640.7c-2.2,0-3.9-1.6-4.2-3.9c-1.7,2.2-4.6,3.9-7.1,3.9c-3.1,0-5.2-1.9-5.2-4.9c0-4,3.9-6.7,12.2-8.4
		v-2.8c0-2.5-1.3-3.9-3.8-3.9c-1.9,0-3.5,0.9-3.5,1.9c0,0.2,0,0.3,0.2,0.7c0.2,0.5,0.2,0.8,0.2,1.1c0,1.3-0.9,2.2-2.2,2.2
		s-2.3-1-2.3-2.5c0-3,4-5.5,8.6-5.5c4.6,0,6.7,1.9,6.7,5.8v11.2c0,1.4,0.8,2.3,1.8,2.3c0.7,0,1.3-0.2,2-0.8l0.7,1.4
		C60.2,639.8,58.7,640.7,57.3,640.7z M52.9,635.3v-6c-6.1,1.4-8.4,3-8.4,5.7c0,1.8,1.1,3,2.9,3C49.4,638,51.1,637.2,52.9,635.3z"/>
	<path class="st0" d="M72.4,638.3v1.9h-9.7v-1.9c2.7,0,2.9-0.1,2.9-0.9v-13.6c0-0.8-0.1-1-1-1.4l-2.1-0.9v-1l6.3-1.8h0.6v4
		c1.8-2.3,4.7-4,7.3-4c3.9,0,6.1,2.8,6.1,7.5v11.3c0,0.8,0.3,0.9,2.9,0.9v1.9h-9.7v-1.9c2.7,0,2.9-0.1,2.9-0.9v-10.9
		c0-3.2-1.4-4.9-4.1-4.9c-1.9,0-3.9,1-5.4,2.7v13.2C69.5,638.2,69.8,638.3,72.4,638.3z"/>
	<path class="st0" d="M110.6,638.7v1l-6.3,0.9h-0.6v-4c-1.4,2.3-4.1,4-6.6,4c-4.9,0-8.4-4.4-8.4-10.2c0-7.1,4-11.8,9.8-11.8
		c1.9,0,4,0.8,5.2,1.9v-8.9c0-0.8-0.1-1-1-1.4l-2.1-0.9v-1l6.3-1.8h0.6v29.8c0,0.8,0.1,1,1,1.4L110.6,638.7z M99.1,620.8
		c-3.9,0-6.4,3.5-6.4,8.8c0,4.9,2.3,8.3,5.9,8.3c1.9,0,3.5-0.9,5.1-2.7v-11.9C102.8,621.7,101.1,620.8,99.1,620.8z"/>
	<path class="st0" d="M136.2,623.2c-0.9-1.9-1.7-2.2-3-2.2c-3.3,0-5.9,3.6-5.9,8.4c0,5.2,2.6,8.5,6.2,8.5c2.4,0,4.1-1.1,5.7-3.7
		l1.8,1.1c-1.7,3.4-4.6,5.3-8.1,5.3c-5.4,0-9.4-4.2-9.4-10.5c0-3,1-5.8,2.9-7.9c2-2.3,4.7-3.6,7.5-3.6c3.6,0,6.6,2,6.6,4.3
		c0,1.3-0.9,2.1-2,2.1C137.5,625,137,624.7,136.2,623.2z"/>
	<path class="st0" d="M160.8,640.7c-2.2,0-3.9-1.6-4.2-3.9c-1.7,2.2-4.6,3.9-7.1,3.9c-3.1,0-5.2-1.9-5.2-4.9c0-4,3.9-6.7,12.2-8.4
		v-2.8c0-2.5-1.3-3.9-3.8-3.9c-1.9,0-3.5,0.9-3.5,1.9c0,0.2,0,0.3,0.2,0.7c0.2,0.5,0.2,0.8,0.2,1.1c0,1.3-0.9,2.2-2.2,2.2
		s-2.3-1-2.3-2.5c0-3,4-5.5,8.6-5.5c4.6,0,6.7,1.9,6.7,5.8v11.2c0,1.4,0.8,2.3,1.8,2.3c0.7,0,1.3-0.2,2-0.8l0.7,1.4
		C163.7,639.8,162.2,640.7,160.8,640.7z M156.4,635.3v-6c-6.1,1.4-8.4,3-8.4,5.7c0,1.8,1.1,3,2.9,3
		C152.9,638,154.6,637.2,156.4,635.3z"/>
	<path class="st0" d="M174.8,638.2c0.5,0,1.2,0,2.4,0v1.9h-11.1v-1.9c2.7,0,2.9-0.1,2.9-0.9v-13.6c0-0.8-0.1-1-1-1.4l-2.1-0.9v-1
		l6.3-1.8h0.6v6c2.1-3.6,4.6-6,6.7-6c1.8,0,3,1.1,3,2.7c0,1.5-1,2.4-2.4,2.4c-0.5,0-0.8-0.1-1.6-0.7c-0.7-0.5-0.9-0.6-1.3-0.6
		c-1.1,0-2.8,1.8-4.4,4.1v10.7C173,638.1,173.4,638.2,174.8,638.2z"/>
	<path class="st0" d="M201.1,634.7l1.7,1.2c-1.4,3-4.6,4.8-8.1,4.8c-5.5,0-9.8-4.4-9.8-10.8c0-2.9,0.9-5.6,2.6-7.6
		c1.8-2.3,4.4-3.6,7.1-3.6c5.1,0,8,3.5,8,9v1.4h-13.9v0.1c0,5.3,2.7,8.8,6.8,8.8C197.9,638,199.4,637.1,201.1,634.7z M194.5,620.9
		c-2.8,0-5,2.4-5.6,6.2h10C198.9,622.9,197.4,620.9,194.5,620.9z"/>
	<path class="st0" d="M228.4,638.7v1l-6.3,0.9h-0.6v-4c-1.4,2.3-4.1,4-6.6,4c-4.9,0-8.4-4.4-8.4-10.2c0-7.1,4-11.8,9.8-11.8
		c1.9,0,4,0.8,5.2,1.9v-8.9c0-0.8-0.1-1-1-1.4l-2.1-0.9v-1l6.3-1.8h0.6v29.8c0,0.8,0.1,1,1,1.4L228.4,638.7z M216.9,620.8
		c-3.9,0-6.4,3.5-6.4,8.8c0,4.9,2.3,8.3,5.9,8.3c1.9,0,3.5-0.9,5.1-2.7v-11.9C220.5,621.7,218.9,620.8,216.9,620.8z"/>
	<path class="st0" d="M250,638.2c0.5,0,1.2,0,2.4,0v1.9h-11.1v-1.9c2.7,0,2.9-0.1,2.9-0.9v-16.1h-3.3v-2.2h3.3v-2
		c0-5.9,4.4-10.6,9.8-10.6c2.5,0,4.1,1,4.1,2.6c0,1.3-0.9,2-2.1,2c-0.6,0-1.1-0.2-2-0.9c-0.9-0.9-1.4-1-2.1-1
		c-2.2,0-3.8,2.2-3.8,5.7v4.2h5.1v2.2h-5.1v16C248.1,638.1,248.5,638.2,250,638.2z"/>
	<path class="st0" d="M266,640.7c-5.6,0-9.8-4.6-9.8-11c0-6.4,4.2-11,9.8-11s9.8,4.6,9.8,11C275.8,636.1,271.6,640.7,266,640.7z
		 M266,638.4c3.6,0,5.7-3.1,5.7-8.8s-2.1-8.8-5.7-8.8c-3.6,0-5.7,3.1-5.7,8.8S262.4,638.4,266,638.4z"/>
	<path class="st0" d="M288,638.2c0.5,0,1.2,0,2.4,0v1.9h-11.1v-1.9c2.7,0,2.9-0.1,2.9-0.9v-13.6c0-0.8-0.1-1-1-1.4l-2.1-0.9v-1
		l6.3-1.8h0.6v6c2.1-3.6,4.6-6,6.7-6c1.8,0,3,1.1,3,2.7c0,1.5-1,2.4-2.4,2.4c-0.5,0-0.8-0.1-1.6-0.7c-0.7-0.5-0.9-0.6-1.3-0.6
		c-1.1,0-2.8,1.8-4.4,4.1v10.7C286.2,638.1,286.5,638.2,288,638.2z"/>
</g>
<g class="st1">
	<path class="st0" d="M529.2,537.5H529l-6.7,23h-2.7l-8.1-26.6c-0.3-1-1-1.3-3.9-1.3v-2H520v2c-3.2,0-4.1,0.2-4.1,0.9
		c0,0.2,0,0.3,0.2,0.9l5.8,20.2h0.2l6.6-23.9h2.4l6.8,23.9h0.2l5.8-20.2c0.1-0.5,0.2-0.7,0.2-0.9c0-0.7-0.9-0.9-4.2-0.9v-2h10.7v2
		c-2.9,0-3.5,0.3-3.9,1.3l-8.1,26.6h-2.7L529.2,537.5z"/>
	<path class="st0" d="M565.9,554.7l1.7,1.2c-1.4,3-4.6,4.8-8.1,4.8c-5.5,0-9.8-4.4-9.8-10.8c0-2.9,0.9-5.6,2.6-7.6
		c1.8-2.3,4.4-3.6,7.1-3.6c5.1,0,8,3.5,8,9v1.4h-13.9v0.1c0,5.3,2.7,8.8,6.8,8.8C562.6,558,564.1,557.1,565.9,554.7z M559.2,540.9
		c-2.8,0-5,2.4-5.6,6.2h10C563.6,542.9,562.2,540.9,559.2,540.9z"/>
	<path class="st0" d="M597.2,554.7l1.7,1.2c-1.4,3-4.6,4.8-8.1,4.8c-5.5,0-9.8-4.4-9.8-10.8c0-2.9,0.9-5.6,2.6-7.6
		c1.8-2.3,4.4-3.6,7.1-3.6c5.1,0,8,3.5,8,9v1.4h-13.9v0.1c0,5.3,2.7,8.8,6.8,8.8C594,558,595.5,557.1,597.2,554.7z M590.6,540.9
		c-2.8,0-5,2.4-5.6,6.2h10C595,542.9,593.5,540.9,590.6,540.9z"/>
	<path class="st0" d="M607,557.7c0,0.5,0.3,0.6,2.3,0.6v1.9H601v-1.9c2.2,0,2.8-0.1,3.4-0.9l6.3-8l-5.8-7.6c-0.6-0.8-1.1-0.9-3-0.9
		v-1.9h9.8v1.9c-2.1,0.1-2.4,0.2-2.4,0.6c0,0.2,0.1,0.3,0.3,0.6l3.9,5.1l3.9-5.1c0.2-0.3,0.3-0.4,0.3-0.6c0-0.5-0.4-0.6-2.3-0.6
		v-1.9h8.2v1.9c-2,0-2.6,0.1-3.3,0.9l-5.7,7l6.5,8.5c0.6,0.7,1.2,0.9,3.5,0.9v1.9h-10.4v-1.9c2.2,0,2.6-0.1,2.6-0.6
		c0-0.2-0.1-0.4-0.3-0.6l-4.5-6l-4.7,6C607.1,557.3,607,557.5,607,557.7z"/>
	<path class="st0" d="M634.9,567.8c0.5,0,1.2,0,2.4,0v1.9h-11.1v-1.9c2.7,0,2.9-0.1,2.9-0.9v-23.1c0-0.8-0.1-1-1-1.4l-2.1-0.9v-1
		l6.3-1.8h0.6v4c1.5-2.3,4.2-4,6.7-4c4.9,0,8.3,4.2,8.3,10.1c0,7.1-4,11.9-9.8,11.9c-2.1,0-4-0.9-5.2-2.2v8.4
		C633.1,567.6,633.4,567.7,634.9,567.8z M644.1,549.7c0-4.9-2.2-8.1-5.8-8.1c-1.9,0-4,1.1-5.3,2.7v11.9c0.9,1.5,2.6,2.3,4.5,2.3
		C641.5,558.4,644.1,555,644.1,549.7z"/>
	<path class="st0" d="M668,554.7l1.7,1.2c-1.4,3-4.6,4.8-8.1,4.8c-5.5,0-9.8-4.4-9.8-10.8c0-2.9,0.9-5.6,2.6-7.6
		c1.8-2.3,4.4-3.6,7.1-3.6c5.1,0,8,3.5,8,9v1.4h-13.9v0.1c0,5.3,2.7,8.8,6.8,8.8C664.7,558,666.2,557.1,668,554.7z M661.3,540.9
		c-2.8,0-5,2.4-5.6,6.2h10C665.7,542.9,664.3,540.9,661.3,540.9z"/>
	<path class="st0" d="M686.1,543.2c-0.9-1.9-1.7-2.2-3-2.2c-3.3,0-5.9,3.6-5.9,8.4c0,5.2,2.6,8.5,6.2,8.5c2.4,0,4.1-1.1,5.7-3.7
		l1.8,1.1c-1.7,3.4-4.6,5.3-8.1,5.3c-5.4,0-9.4-4.2-9.4-10.5c0-3,1-5.8,2.9-7.9c2-2.3,4.7-3.6,7.5-3.6c3.6,0,6.6,2,6.6,4.3
		c0,1.3-0.9,2.1-2,2.1C687.3,545,686.8,544.7,686.1,543.2z"/>
	<path class="st0" d="M707.3,555.7l1.2,1.4c-1.6,2.2-4.2,3.5-6.9,3.5c-3.3,0-5.7-2.1-5.7-5.1v-14.3h-2.9v-2.2h2.9v-5.4l3.9-1.1v6.5
		h6.7v2.2h-6.7v13.2c0,2.3,1.1,3.5,3.4,3.5C704.6,558,705.9,557.3,707.3,555.7z"/>
	<path class="st0" d="M489.3,594.7l1.7,1.2c-1.4,3-4.6,4.8-8.1,4.8c-5.5,0-9.8-4.4-9.8-10.8c0-2.9,0.9-5.6,2.6-7.6
		c1.8-2.3,4.4-3.6,7.1-3.6c5.1,0,8,3.5,8,9v1.4h-13.9v0.1c0,5.3,2.7,8.8,6.8,8.8C486.1,598,487.5,597.1,489.3,594.7z M482.6,580.9
		c-2.8,0-5,2.4-5.6,6.2h10C487,582.9,485.6,580.9,482.6,580.9z"/>
	<path class="st0" d="M499,597.7c0,0.5,0.3,0.6,2.3,0.6v1.9H493v-1.9c2.2,0,2.8-0.1,3.4-0.9l6.3-8l-5.8-7.6c-0.6-0.8-1.1-0.9-3-0.9
		v-1.9h9.8v1.9c-2.1,0.1-2.4,0.2-2.4,0.6c0,0.2,0.1,0.3,0.3,0.6l3.9,5.1l3.9-5.1c0.2-0.3,0.3-0.4,0.3-0.6c0-0.5-0.4-0.6-2.3-0.6
		v-1.9h8.2v1.9c-2,0-2.6,0.1-3.3,0.9l-5.7,7l6.5,8.5c0.6,0.7,1.2,0.9,3.5,0.9v1.9h-10.4v-1.9c2.2,0,2.6-0.1,2.6-0.6
		c0-0.2-0.1-0.4-0.3-0.6l-4.5-6l-4.7,6C499.1,597.3,499,597.5,499,597.7z"/>
	<path class="st0" d="M532.4,595.7l1.2,1.4c-1.6,2.2-4.2,3.5-6.9,3.5c-3.3,0-5.7-2.1-5.7-5.1v-14.3h-2.9v-2.2h2.9v-5.4l3.9-1.1v6.5
		h6.7v2.2h-6.7v13.2c0,2.3,1.1,3.5,3.4,3.5C529.7,598,531,597.3,532.4,595.7z"/>
	<path class="st0" d="M544.1,598.2c0.5,0,1.2,0,2.4,0v1.9h-11.1v-1.9c2.7,0,2.9-0.1,2.9-0.9v-13.6c0-0.8-0.1-1-1-1.4l-2.1-0.9v-1
		l6.3-1.8h0.6v6c2.1-3.6,4.6-6,6.7-6c1.8,0,3,1.1,3,2.7c0,1.5-1,2.4-2.4,2.4c-0.5,0-0.8-0.1-1.6-0.7c-0.7-0.5-0.9-0.6-1.3-0.6
		c-1.1,0-2.8,1.8-4.4,4.1v10.7C542.3,598.1,542.6,598.2,544.1,598.2z"/>
	<path class="st0" d="M571.1,600.7c-2.2,0-3.9-1.6-4.2-3.9c-1.7,2.2-4.6,3.9-7.1,3.9c-3.1,0-5.2-1.9-5.2-4.9c0-4,3.9-6.7,12.2-8.4
		v-2.8c0-2.5-1.3-3.9-3.8-3.9c-1.9,0-3.5,0.9-3.5,1.9c0,0.2,0,0.3,0.2,0.7c0.2,0.5,0.2,0.8,0.2,1.1c0,1.3-0.9,2.2-2.2,2.2
		s-2.3-1-2.3-2.5c0-3,4-5.5,8.6-5.5c4.6,0,6.7,1.9,6.7,5.8v11.2c0,1.4,0.8,2.3,1.8,2.3c0.7,0,1.3-0.2,2-0.8l0.7,1.4
		C574.1,599.8,572.5,600.7,571.1,600.7z M566.8,595.3v-6c-6.1,1.4-8.4,3-8.4,5.7c0,1.8,1.1,3,2.9,3C563.2,598,565,597.2,566.8,595.3
		z"/>
	<path class="st0" d="M586.5,600.7c-5.6,0-9.8-4.6-9.8-11c0-6.4,4.2-11,9.8-11s9.8,4.6,9.8,11C596.3,596.1,592.1,600.7,586.5,600.7z
		 M586.5,598.4c3.6,0,5.7-3.1,5.7-8.8s-2.1-8.8-5.7-8.8s-5.7,3.1-5.7,8.8S582.9,598.4,586.5,598.4z"/>
	<path class="st0" d="M608.5,598.2c0.5,0,1.2,0,2.4,0v1.9h-11.1v-1.9c2.7,0,2.9-0.1,2.9-0.9v-13.6c0-0.8-0.1-1-1-1.4l-2.1-0.9v-1
		l6.3-1.8h0.6v6c2.1-3.6,4.6-6,6.7-6c1.8,0,3,1.1,3,2.7c0,1.5-1,2.4-2.4,2.4c-0.5,0-0.8-0.1-1.6-0.7c-0.7-0.5-0.9-0.6-1.3-0.6
		c-1.1,0-2.8,1.8-4.4,4.1v10.7C606.6,598.1,607,598.2,608.5,598.2z"/>
	<path class="st0" d="M640.6,598.7v1l-6.3,0.9h-0.6v-4c-1.4,2.3-4.1,4-6.6,4c-4.9,0-8.4-4.4-8.4-10.2c0-7.1,4-11.8,9.8-11.8
		c1.9,0,4,0.8,5.2,1.9v-8.9c0-0.8-0.1-1-1-1.4l-2.1-0.9v-1l6.3-1.8h0.6v29.8c0,0.8,0.1,1,1,1.4L640.6,598.7z M629,580.8
		c-3.9,0-6.4,3.5-6.4,8.8c0,4.9,2.3,8.3,5.9,8.3c1.9,0,3.5-0.9,5.1-2.7v-11.9C632.7,581.7,631.1,580.8,629,580.8z"/>
	<path class="st0" d="M646.3,597.4v-13.6c0-0.8-0.1-1-1-1.4l-2.1-0.9v-1l6.3-1.8h0.6v18.8c0,0.8,0.3,0.9,2.9,0.9v1.9h-9.7v-1.9
		C646.1,598.3,646.3,598.2,646.3,597.4z M648.2,574c-1.6,0-2.8-1.3-2.8-2.8c0-1.6,1.3-2.8,2.8-2.8c1.6,0,2.8,1.3,2.8,2.8
		C651,572.7,649.7,574,648.2,574z"/>
	<path class="st0" d="M665.6,598.3v1.9h-9.7v-1.9c2.7,0,2.9-0.1,2.9-0.9v-13.6c0-0.8-0.1-1-1-1.4l-2.1-0.9v-1l6.3-1.8h0.6v4
		c1.8-2.3,4.7-4,7.3-4c3.9,0,6.1,2.8,6.1,7.5v11.3c0,0.8,0.3,0.9,2.9,0.9v1.9h-9.7v-1.9c2.7,0,2.9-0.1,2.9-0.9v-10.9
		c0-3.2-1.4-4.9-4.1-4.9c-1.9,0-3.9,1-5.4,2.7v13.2C662.7,598.2,662.9,598.3,665.6,598.3z"/>
	<path class="st0" d="M698.7,600.7c-2.2,0-3.9-1.6-4.2-3.9c-1.7,2.2-4.6,3.9-7.1,3.9c-3.1,0-5.2-1.9-5.2-4.9c0-4,3.9-6.7,12.2-8.4
		v-2.8c0-2.5-1.3-3.9-3.8-3.9c-1.9,0-3.5,0.9-3.5,1.9c0,0.2,0,0.3,0.2,0.7c0.2,0.5,0.2,0.8,0.2,1.1c0,1.3-0.9,2.2-2.2,2.2
		s-2.3-1-2.3-2.5c0-3,4-5.5,8.6-5.5c4.6,0,6.7,1.9,6.7,5.8v11.2c0,1.4,0.8,2.3,1.8,2.3c0.7,0,1.3-0.2,2-0.8l0.7,1.4
		C701.7,599.8,700.1,600.7,698.7,600.7z M694.4,595.3v-6c-6.1,1.4-8.4,3-8.4,5.7c0,1.8,1.1,3,2.9,3
		C690.8,598,692.6,597.2,694.4,595.3z"/>
	<path class="st0" d="M712.8,598.2c0.5,0,1.2,0,2.4,0v1.9h-11.1v-1.9c2.7,0,2.9-0.1,2.9-0.9v-13.6c0-0.8-0.1-1-1-1.4l-2.1-0.9v-1
		l6.3-1.8h0.6v6c2.1-3.6,4.6-6,6.7-6c1.8,0,3,1.1,3,2.7c0,1.5-1,2.4-2.4,2.4c-0.5,0-0.8-0.1-1.6-0.7c-0.7-0.5-0.9-0.6-1.3-0.6
		c-1.1,0-2.8,1.8-4.4,4.1v10.7C710.9,598.1,711.3,598.2,712.8,598.2z"/>
	<path class="st0" d="M741.9,581.9l-7.8,19.2c-2.7,6.6-5.1,9.1-8.4,9.1c-1.9,0-3.3-1.2-3.3-2.8c0-1.3,0.9-2.2,2.2-2.2
		c0.7,0,1.2,0.2,2.1,1.3c0.6,0.7,0.8,0.8,1.1,0.8c1.3,0,2.8-2.3,4.7-7.1l-7.6-18.3c-0.3-0.8-0.7-0.9-2.8-0.9v-1.9h9.7v1.9
		c-2.7,0.1-2.8,0.2-2.8,0.6c0,0.1,0,0.4,0.2,0.7l5.1,13h0.1l5.1-13c0.1-0.3,0.2-0.5,0.2-0.7c0-0.4-0.2-0.5-2.8-0.6v-1.9h8v1.9
		C742.5,581,742.2,581.1,741.9,581.9z"/>
	<path class="st0" d="M552,638.2c0.5,0,1.2,0,2.4,0v1.9h-11.1v-1.9c2.7,0,2.9-0.1,2.9-0.9v-13.6c0-0.8-0.1-1-1-1.4l-2.1-0.9v-1
		l6.3-1.8h0.6v6c2.1-3.6,4.6-6,6.7-6c1.8,0,3,1.1,3,2.7c0,1.5-1,2.4-2.4,2.4c-0.5,0-0.8-0.1-1.6-0.7c-0.7-0.5-0.9-0.6-1.3-0.6
		c-1.1,0-2.8,1.8-4.4,4.1v10.7C550.2,638.1,550.5,638.2,552,638.2z"/>
	<path class="st0" d="M578.3,634.7l1.7,1.2c-1.4,3-4.6,4.8-8.1,4.8c-5.5,0-9.8-4.4-9.8-10.8c0-2.9,0.9-5.6,2.6-7.6
		c1.8-2.3,4.4-3.6,7.1-3.6c5.1,0,8,3.5,8,9v1.4h-13.9v0.1c0,5.3,2.7,8.8,6.8,8.8C575.1,638,576.5,637.1,578.3,634.7z M571.7,620.9
		c-2.8,0-5,2.4-5.6,6.2h10C576.1,622.9,574.6,620.9,571.7,620.9z"/>
	<path class="st0" d="M591.6,620.8c-2.4,0-4,1.3-4,3.3c0,1.5,0.8,2.3,4.9,3.6c2.7,0.9,3.7,1.3,4.6,1.9c1.5,1.1,2.2,2.4,2.2,4.3
		c0,3.9-3.6,6.7-8.4,6.7c-2.3,0-4.7-0.7-7-2l-0.5-5.5h1.8c0.7,3.7,2.7,5.3,6.1,5.3c2.6,0,4.5-1.4,4.5-3.5c0-1.7-0.8-2.7-5-3.9
		c-2.6-0.8-3.5-1.2-4.4-1.8c-1.4-0.9-2.1-2.3-2.1-4c0-3.8,3.3-6.6,7.6-6.6c2.1,0,4,0.5,6.1,1.7v5.3h-1.6
		C595.9,622.3,594.4,620.8,591.6,620.8z"/>
	<path class="st0" d="M624.9,638.7v1l-6.3,0.9h-0.6v-3.8c-1.8,2.3-4.3,3.8-6.7,3.8c-3.9,0-6.2-2.8-6.2-7.5V623c0-0.9-0.2-1.3-1-1.4
		l-2.2-0.4v-1.6l6.4-0.4h0.6v13.8c0,3.2,1.3,4.9,4,4.9c1.8,0,3.6-0.9,5.1-2.7V623c0-0.9-0.2-1.3-1-1.4l-2.2-0.4v-1.6l6.4-0.4h0.6
		v17.3c0,0.8,0.1,1,1,1.4L624.9,638.7z"/>
	<path class="st0" d="M630.2,637.4v-25.7c0-0.8-0.1-1-1-1.4l-2.1-0.9v-1l6.3-1.8h0.6v30.9c0,0.8,0.3,0.9,2.9,0.9v1.9h-9.7v-1.9
		C629.9,638.3,630.2,638.2,630.2,637.4z"/>
	<path class="st0" d="M653.7,635.7l1.2,1.4c-1.6,2.2-4.2,3.5-6.9,3.5c-3.3,0-5.7-2.1-5.7-5.1v-14.3h-2.9v-2.2h2.9v-5.4l3.9-1.1v6.5
		h6.7v2.2h-6.7v13.2c0,2.3,1.1,3.5,3.4,3.5C651,638,652.3,637.3,653.7,635.7z"/>
	<path class="st0" d="M664.9,620.8c-2.4,0-4,1.3-4,3.3c0,1.5,0.8,2.3,4.9,3.6c2.7,0.9,3.7,1.3,4.6,1.9c1.5,1.1,2.2,2.4,2.2,4.3
		c0,3.9-3.6,6.7-8.4,6.7c-2.3,0-4.7-0.7-7-2l-0.5-5.5h1.8c0.7,3.7,2.7,5.3,6.1,5.3c2.6,0,4.5-1.4,4.5-3.5c0-1.7-0.8-2.7-5-3.9
		c-2.6-0.8-3.5-1.2-4.4-1.8c-1.4-0.9-2.1-2.3-2.1-4c0-3.8,3.3-6.6,7.6-6.6c2.1,0,4,0.5,6.1,1.7v5.3h-1.6
		C669.2,622.3,667.7,620.8,664.9,620.8z"/>
</g>
<path class="st5" d="M222.9,592.8"/>
<path class="st5" d="M562.6,588.4"/>
<g>
	<g>
		<g>
			<path class="st6" d="M489.8,24.3C458.2,13.7,424.4,7.9,389.3,7.9c-41.1,0-80.4,7.9-116.4,22.1"/>
			<g>
				<polygon class="st0" points="488.8,20.9 498.1,27.2 486.9,26.4 				"/>
			</g>
		</g>
	</g>
	<g>
		<g>
			<path class="st6" d="M332.8,635.1c18.3,3.3,37.2,5,56.5,5c35.7,0,70-5.9,102.1-16.9"/>
			<g>
				<polygon class="st0" points="334.2,638.2 324.1,633.4 335.3,632.5 				"/>
			</g>
		</g>
	</g>
	<g>
		<g>
			<path class="st6" d="M676.4,456.4c18.6-40.3,29-85.1,29-132.4c0-53.4-13.2-103.6-36.6-147.7"/>
			<g>
				<polygon class="st0" points="679.7,455.8 672.5,464.4 674.4,453.3 				"/>
			</g>
		</g>
	</g>
	<g>
		<g>
			<path class="st6" d="M96.3,205.1C81.4,241.8,73.2,282,73.2,324c0,50.4,11.8,98.1,32.8,140.4"/>
			<g>
				<polygon class="st0" points="93,205.9 99.7,197 98.3,208.1 				"/>
			</g>
		</g>
	</g>
</g>
</svg>
