<?xml version="1.0" encoding="utf-8"?>
<!-- Generator: Adobe Illustrator 22.1.0, SVG Export Plug-In . SVG Version: 6.00 Build 0)  -->
<svg version="1.1" id="Layer_1" xmlns="http://www.w3.org/2000/svg" xmlns:xlink="http://www.w3.org/1999/xlink" x="0px" y="0px"
	 viewBox="0 0 750 650" style="enable-background:new 0 0 750 650;" xml:space="preserve">
<style type="text/css">
	.st0{fill:#3D429D;}
	.st1{fill:#F0C33C;}
	.st2{fill:#52B2CC;}
	.st3{fill:#204A79;}
	.st4{fill:#DA595A;}
	.st5{fill:#E69E82;}
	.st6{enable-background:new    ;}
	.st7{fill:#FFFFFF;}
	.st8{fill:#E38283;}
	.st9{fill:#F6D5D6;}
	.st10{fill:none;stroke:#DA595A;stroke-miterlimit:10;}
</style>
<rect x="9.2" y="800.1" class="st0" width="72.8" height="72.8"/>
<rect x="277.2" y="800.1" class="st1" width="72.8" height="72.8"/>
<rect x="411.2" y="800.1" class="st2" width="72.8" height="72.8"/>
<rect x="545.2" y="800.1" class="st3" width="72.8" height="72.8"/>
<rect x="679.2" y="800.1" class="st4" width="72.8" height="72.8"/>
<rect x="143.2" y="800.1" class="st5" width="72.8" height="72.8"/>
<path class="st4" d="M381.7,501.8c98.3,0,178-79.7,178-178s-79.7-178-178-178s-178,79.7-178,178S283.4,501.8,381.7,501.8"/>
<g class="st6">
	<path class="st7" d="M282.1,310.5v-19.8c0-1.1-0.5-1.2-4.2-1.2v-2.1h11.2v2.1c-3.7,0-4.2,0.1-4.2,1.2v28h-2.3l-17.7-27.4h-0.2v23.8
		c0,1.1,0.5,1.2,4.2,1.2v2.1h-11.2v-2.1c3.7,0,4.2-0.1,4.2-1.2v-24.3c0-1.1-0.5-1.3-4.2-1.2v-2.1h9.7l14.5,23.1H282.1z"/>
	<path class="st7" d="M302,318.8c-5.9,0-10.2-4.8-10.2-11.5c0-6.7,4.4-11.5,10.2-11.5s10.2,4.8,10.2,11.5
		C312.2,314,307.8,318.8,302,318.8z M302,316.5c3.8,0,5.9-3.3,5.9-9.1s-2.2-9.1-5.9-9.1c-3.8,0-5.9,3.3-5.9,9.1
		S298.2,316.5,302,316.5z"/>
	<path class="st7" d="M330.2,313.7l1.2,1.5c-1.7,2.3-4.4,3.7-7.2,3.7c-3.5,0-5.9-2.2-5.9-5.3v-14.9h-3v-2.3h3v-5.6l4-1.2v6.8h7v2.3
		h-7v13.8c0,2.4,1.2,3.6,3.5,3.6C327.4,316,328.8,315.3,330.2,313.7z"/>
	<path class="st7" d="M343.4,316.3v2h-10.1v-2c2.8,0,3-0.1,3-0.9v-26.8c0-0.8-0.1-1.1-1.1-1.5l-2.2-1v-1l6.6-1.9h0.7V300
		c1.8-2.4,4.9-4.2,7.6-4.2c4,0,6.3,2.9,6.3,7.8v11.8c0,0.8,0.3,0.9,3,0.9v2h-10.1v-2c2.8,0,3-0.1,3-0.9V304c0-3.4-1.5-5.2-4.3-5.2
		c-2,0-4.1,1.1-5.7,2.8v13.8C340.3,316.2,340.6,316.3,343.4,316.3z"/>
	<path class="st7" d="M363.2,315.4v-14.2c0-0.8-0.1-1.1-1.1-1.5l-2.2-1v-1l6.6-1.9h0.7v19.6c0,0.8,0.3,0.9,3,0.9v2h-10.1v-2
		C363,316.3,363.2,316.2,363.2,315.4z M365.2,291c-1.6,0-3-1.3-3-3c0-1.6,1.3-3,3-3c1.6,0,3,1.3,3,3
		C368.1,289.7,366.8,291,365.2,291z"/>
	<path class="st7" d="M383.4,316.3v2h-10.1v-2c2.8,0,3-0.1,3-0.9v-14.2c0-0.8-0.1-1.1-1.1-1.5l-2.2-1v-1l6.6-1.9h0.7v4.2
		c1.8-2.4,4.9-4.2,7.6-4.2c4,0,6.3,2.9,6.3,7.8v11.8c0,0.8,0.3,0.9,3,0.9v2h-10.1v-2c2.8,0,3-0.1,3-0.9V304c0-3.4-1.5-5.2-4.3-5.2
		c-2,0-4.1,1.1-5.7,2.8v13.8C380.3,316.2,380.6,316.3,383.4,316.3z"/>
	<path class="st7" d="M421.9,320.6c0,4.9-5.3,8.2-12.6,8.2c-6.5,0-10.4-2.2-10.4-6c0-2.2,2.1-3.9,5.3-4.5c-1.8-0.6-3-2.2-3-3.8
		c0-2,1.4-3.6,3.9-4.7c-2.6-1.4-4.1-3.7-4.1-6.4c0-4.1,4-7.5,8.9-7.5c2.4,0,4.8,0.9,6.6,2.6c2.1-2.6,3.5-3.5,4.9-3.5
		c1.8,0,2.9,1,2.9,2.7c0,1.4-1.1,2.4-2.3,2.4c-0.8,0-1.2-0.2-1.9-1c-0.4-0.5-0.6-0.6-0.8-0.6c-0.6,0-1.2,0.3-1.9,1
		c0.8,1.2,1.3,2.5,1.3,3.8c0,4.1-4,7.5-8.8,7.5c-1.2,0-2.3-0.1-3.1-0.5c-2.2,1.1-2.8,1.8-2.8,2.9c0,1,0.8,1.7,1.7,1.7h8.8
		C419.2,315,421.9,317,421.9,320.6z M418.3,321.7c0-2.1-1.2-2.9-4.4-2.9h-8.4c-2,0.8-2.9,2-2.9,3.7c0,2.6,2.7,4,7.1,4
		C414.7,326.5,418.3,324.5,418.3,321.7z M409.9,297.9c-2.8,0-4.6,2.1-4.6,5.5c0,3.3,1.8,5.4,4.6,5.4c2.8,0,4.5-2.1,4.5-5.4
		C414.4,300,412.6,297.9,409.9,297.9z"/>
	<path class="st7" d="M458.6,318.6h-2.3l-5.4-16.5h-0.2l-5.3,16.5h-2.3l-6.4-19.4c-0.2-0.8-0.7-0.9-2.9-0.9v-2h9.9v2
		c-2.8,0.1-3,0.2-3,0.6c0,0.1,0,0.4,0.2,0.7l4.1,13.2h0.2l5.2-16.6h2.3l5.3,16.6h0.2l4.3-13.3c0.1-0.3,0.2-0.6,0.2-0.7
		c0-0.4-0.2-0.5-3-0.6v-2h8.2v2c-2.2,0-2.6,0.1-2.9,0.9L458.6,318.6z"/>
	<path class="st7" d="M472.8,315.4v-14.2c0-0.8-0.1-1.1-1.1-1.5l-2.2-1v-1l6.6-1.9h0.7v19.6c0,0.8,0.3,0.9,3,0.9v2h-10.1v-2
		C472.5,316.3,472.8,316.2,472.8,315.4z M474.7,291c-1.6,0-3-1.3-3-3c0-1.6,1.3-3,3-3c1.6,0,3,1.3,3,3
		C477.7,289.7,476.4,291,474.7,291z"/>
	<path class="st7" d="M485.6,315.4v-26.8c0-0.8-0.1-1.1-1.1-1.5l-2.2-1v-1l6.6-1.9h0.7v32.3c0,0.8,0.3,0.9,3,0.9v2h-10.1v-2
		C485.3,316.3,485.6,316.2,485.6,315.4z"/>
	<path class="st7" d="M498.6,315.4v-26.8c0-0.8-0.1-1.1-1.1-1.5l-2.2-1v-1l6.6-1.9h0.7v32.3c0,0.8,0.3,0.9,3,0.9v2h-10.1v-2
		C498.4,316.3,498.6,316.2,498.6,315.4z"/>
	<path class="st7" d="M324,340.6c-1-2-1.8-2.3-3.1-2.3c-3.5,0-6.1,3.7-6.1,8.8c0,5.4,2.7,8.9,6.5,8.9c2.5,0,4.3-1.1,5.9-3.9l1.8,1.1
		c-1.8,3.6-4.8,5.6-8.5,5.6c-5.7,0-9.8-4.4-9.8-10.9c0-3.1,1-6,3-8.3c2.1-2.4,4.9-3.8,7.8-3.8c3.8,0,6.9,2.1,6.9,4.5
		c0,1.3-0.9,2.2-2.1,2.2C325.3,342.5,324.7,342.2,324,340.6z"/>
	<path class="st7" d="M341.8,356.3v2h-10.1v-2c2.8,0,3-0.1,3-0.9v-26.8c0-0.8-0.1-1.1-1.1-1.5l-2.2-1v-1l6.6-1.9h0.7V340
		c1.8-2.4,4.9-4.2,7.6-4.2c4,0,6.3,2.9,6.3,7.8v11.8c0,0.8,0.3,0.9,3,0.9v2h-10.1v-2c2.8,0,3-0.1,3-0.9V344c0-3.4-1.5-5.2-4.3-5.2
		c-2,0-4.1,1.1-5.7,2.8v13.8C338.7,356.2,339,356.3,341.8,356.3z"/>
	<path class="st7" d="M376.3,358.8c-2.3,0-4-1.6-4.4-4c-1.8,2.3-4.8,4-7.5,4c-3.3,0-5.4-2-5.4-5.1c0-4.2,4.1-7,12.7-8.8V342
		c0-2.6-1.4-4-4-4c-2,0-3.7,0.9-3.7,2c0,0.2,0,0.3,0.2,0.7c0.2,0.5,0.2,0.8,0.2,1.2c0,1.3-1,2.3-2.3,2.3s-2.4-1.1-2.4-2.6
		c0-3.1,4.2-5.7,9-5.7c4.8,0,7,2,7,6v11.7c0,1.5,0.8,2.4,1.9,2.4c0.8,0,1.3-0.2,2.1-0.8l0.7,1.5
		C379.4,357.9,377.8,358.8,376.3,358.8z M371.8,353.2V347c-6.3,1.5-8.7,3.1-8.7,6c0,1.9,1.2,3.1,3,3.1
		C368.1,356,369.9,355.2,371.8,353.2z"/>
	<path class="st7" d="M392.1,356.3v2H382v-2c2.8,0,3-0.1,3-0.9v-14.2c0-0.8-0.1-1.1-1.1-1.5l-2.2-1v-1l6.6-1.9h0.7v4.2
		c1.8-2.4,4.9-4.2,7.6-4.2c4,0,6.3,2.9,6.3,7.8v11.8c0,0.8,0.3,0.9,3,0.9v2H396v-2c2.8,0,3-0.1,3-0.9V344c0-3.4-1.5-5.2-4.3-5.2
		c-2,0-4.1,1.1-5.7,2.8v13.8C389.1,356.2,389.4,356.3,392.1,356.3z"/>
	<path class="st7" d="M430.7,360.6c0,4.9-5.3,8.2-12.6,8.2c-6.5,0-10.4-2.2-10.4-6c0-2.2,2.1-3.9,5.3-4.5c-1.8-0.6-3-2.2-3-3.8
		c0-2,1.4-3.6,3.9-4.7c-2.6-1.4-4.1-3.7-4.1-6.4c0-4.1,4-7.5,8.9-7.5c2.4,0,4.8,0.9,6.6,2.6c2.1-2.6,3.5-3.5,4.9-3.5
		c1.8,0,2.9,1,2.9,2.7c0,1.4-1.1,2.4-2.3,2.4c-0.8,0-1.2-0.2-1.9-1c-0.4-0.5-0.6-0.6-0.8-0.6c-0.6,0-1.2,0.3-1.9,1
		c0.8,1.2,1.3,2.5,1.3,3.8c0,4.1-4,7.5-8.8,7.5c-1.2,0-2.3-0.1-3.1-0.5c-2.2,1.1-2.8,1.8-2.8,2.9c0,1,0.8,1.7,1.7,1.7h8.8
		C428,355,430.7,357,430.7,360.6z M427.1,361.7c0-2.1-1.2-2.9-4.4-2.9h-8.4c-2,0.8-2.9,2-2.9,3.7c0,2.6,2.7,4,7.1,4
		C423.5,366.5,427.1,364.5,427.1,361.7z M418.6,337.9c-2.8,0-4.6,2.1-4.6,5.5c0,3.3,1.8,5.4,4.6,5.4c2.8,0,4.5-2.1,4.5-5.4
		C423.2,340,421.4,337.9,418.6,337.9z"/>
	<path class="st7" d="M451,352.6l1.7,1.2c-1.5,3.1-4.8,5-8.4,5c-5.8,0-10.2-4.6-10.2-11.3c0-3,0.9-5.8,2.7-8
		c1.9-2.4,4.6-3.8,7.4-3.8c5.3,0,8.4,3.6,8.4,9.4v1.5h-14.5v0.1c0,5.6,2.9,9.1,7.1,9.1C447.7,356,449.2,355.1,451,352.6z
		 M444.1,338.1c-3,0-5.3,2.5-5.8,6.5h10.5C448.7,340.2,447.2,338.1,444.1,338.1z"/>
</g>
<g>
	<g class="st6">
		<path class="st8" d="M489.8,51.5h2.4v12h6.8v2.1h-9.2V51.5z"/>
		<path class="st8" d="M508.9,51.5l5.4,14.1h-2.4l-1.4-3.9h-5.4l-1.4,3.9h-2.4l5.4-14.1H508.9z M505.8,59.7h3.9l-1.9-5.2L505.8,59.7
			z"/>
		<path class="st8" d="M522.4,51.3c3.2,0,5.2,1.8,5.7,4.7h-2.3c-0.6-1.5-1.5-2.5-3.4-2.5c-2.5,0-4,2.2-4,5.1c0,2.9,1.5,5.1,4,5.1
			c1.9,0,2.9-1,3.4-2.5h2.3c-0.5,2.9-2.6,4.7-5.7,4.7c-3.6,0-6.4-2.9-6.4-7.3S518.8,51.3,522.4,51.3z"/>
		<path class="st8" d="M533.8,58.3l5.9-6.8h3l-5.7,6.4l5.9,7.7h-3l-4.6-6l-1.4,1.7v4.4h-2.4V51.5h2.4V58.3z"/>
		<path class="st8" d="M557.5,65.9c-3.8,0-6.5-3.1-6.5-7.3c0-4.2,2.7-7.3,6.5-7.3s6.5,3.1,6.5,7.3C564,62.8,561.3,65.9,557.5,65.9z
			 M557.5,53.4c-2.5,0-4.1,2.2-4.1,5.2s1.6,5.2,4.1,5.2s4.1-2.2,4.1-5.2S559.9,53.4,557.5,53.4z"/>
		<path class="st8" d="M567.3,65.6V51.5h9v2.1h-6.6v4.2h6.2v2.1h-6.2v5.7H567.3z"/>
		<path class="st8" d="M592.2,51.5l5.4,14.1h-2.4l-1.4-3.9h-5.4l-1.4,3.9h-2.4l5.4-14.1H592.2z M589.1,59.7h3.9l-1.9-5.2L589.1,59.7
			z"/>
		<path class="st8" d="M600.6,51.5h4.8c4.2,0,6.9,2.8,6.9,7.1s-2.7,7.1-6.9,7.1h-4.8V51.5z M605.2,63.5c3,0,4.6-1.9,4.6-4.9
			c0-3-1.6-4.9-4.6-4.9H603v9.9H605.2z"/>
		<path class="st8" d="M619.1,65.6l-5.3-14.1h2.5l4,11l4-11h2.4l-5.3,14.1H619.1z"/>
		<path class="st8" d="M634.9,65.9c-3.8,0-6.5-3.1-6.5-7.3c0-4.2,2.7-7.3,6.5-7.3c3.8,0,6.5,3.1,6.5,7.3
			C641.4,62.8,638.7,65.9,634.9,65.9z M634.9,53.4c-2.5,0-4.1,2.2-4.1,5.2s1.6,5.2,4.1,5.2s4.1-2.2,4.1-5.2S637.4,53.4,634.9,53.4z"
			/>
		<path class="st8" d="M650.5,51.3c3.2,0,5.2,1.8,5.7,4.7h-2.3c-0.6-1.5-1.5-2.5-3.4-2.5c-2.5,0-4,2.2-4,5.1c0,2.9,1.5,5.1,4,5.1
			c1.9,0,2.9-1,3.4-2.5h2.3c-0.5,2.9-2.6,4.7-5.7,4.7c-3.6,0-6.4-2.9-6.4-7.3S646.8,51.3,650.5,51.3z"/>
		<path class="st8" d="M665.7,51.5l5.4,14.1h-2.4l-1.4-3.9h-5.4l-1.4,3.9H658l5.4-14.1H665.7z M662.6,59.7h3.9l-1.9-5.2L662.6,59.7z
			"/>
		<path class="st8" d="M679.2,51.3c3.2,0,5.2,1.8,5.7,4.7h-2.3c-0.6-1.5-1.5-2.5-3.4-2.5c-2.5,0-4,2.2-4,5.1c0,2.9,1.5,5.1,4,5.1
			c1.9,0,2.9-1,3.4-2.5h2.3c-0.5,2.9-2.6,4.7-5.7,4.7c-3.6,0-6.4-2.9-6.4-7.3S675.6,51.3,679.2,51.3z"/>
		<path class="st8" d="M696.5,51.5h2.5l-5.1,8.5v5.6h-2.4V60l-5.1-8.5h2.6l3.7,6.3L696.5,51.5z"/>
	</g>
	<g class="st6">
		<path class="st8" d="M61.5,51.5h2.4v12h6.8v2.1h-9.2V51.5z"/>
		<path class="st8" d="M80.7,51.5l5.4,14.1h-2.4l-1.4-3.9h-5.4l-1.4,3.9h-2.4l5.4-14.1H80.7z M77.6,59.7h3.9l-1.9-5.2L77.6,59.7z"/>
		<path class="st8" d="M94.1,51.3c3.2,0,5.2,1.8,5.7,4.7h-2.3c-0.6-1.5-1.5-2.5-3.4-2.5c-2.5,0-4,2.2-4,5.1c0,2.9,1.5,5.1,4,5.1
			c1.9,0,2.9-1,3.4-2.5h2.3c-0.5,2.9-2.6,4.7-5.7,4.7c-3.6,0-6.4-2.9-6.4-7.3S90.5,51.3,94.1,51.3z"/>
		<path class="st8" d="M105.5,58.3l5.9-6.8h3l-5.7,6.4l5.9,7.7h-3l-4.6-6l-1.4,1.7v4.4h-2.4V51.5h2.4V58.3z"/>
		<path class="st8" d="M129.2,65.9c-3.8,0-6.5-3.1-6.5-7.3c0-4.2,2.7-7.3,6.5-7.3c3.8,0,6.5,3.1,6.5,7.3
			C135.7,62.8,133,65.9,129.2,65.9z M129.2,53.4c-2.5,0-4.1,2.2-4.1,5.2s1.6,5.2,4.1,5.2s4.1-2.2,4.1-5.2S131.7,53.4,129.2,53.4z"/>
		<path class="st8" d="M139,65.6V51.5h9v2.1h-6.6v4.2h6.2v2.1h-6.2v5.7H139z"/>
		<path class="st8" d="M159.7,59.9v5.7h-2.4V51.5h5.5c2.9,0,4.8,1.5,4.8,4.2c0,2.4-1.4,3.7-3.6,4.1l4.1,5.8h-2.7l-3.9-5.7H159.7z
			 M159.7,57.9h3c1.6,0,2.5-0.9,2.5-2.2s-0.9-2.2-2.5-2.2h-3V57.9z"/>
		<path class="st8" d="M180.2,51.5v2.1h-6.9v3.7h6.2v2.1h-6.2v4h6.9v2.1H171V51.5H180.2z"/>
		<path class="st8" d="M185.1,61.7c0.5,1.4,1.7,2.1,3.2,2.1c1.7,0,2.7-0.8,2.7-2.1c0-1-0.6-1.6-2-1.9l-2.4-0.6
			c-2-0.5-3.5-1.5-3.5-3.8c0-2.4,2-4.2,4.8-4.2c3.1,0,4.9,1.6,5.4,3.9h-2.4c-0.4-1.1-1.3-1.9-2.9-1.9c-1.5,0-2.6,0.8-2.6,2
			c0,0.9,0.6,1.5,1.9,1.8l2.5,0.6c2.2,0.5,3.7,1.8,3.7,3.9c0,2.6-2.1,4.3-5,4.3c-3,0-5.1-1.5-5.6-4.1H185.1z"/>
		<path class="st8" d="M202.3,65.9c-3.8,0-6.5-3.1-6.5-7.3c0-4.2,2.7-7.3,6.5-7.3c3.8,0,6.5,3.1,6.5,7.3
			C208.9,62.8,206.2,65.9,202.3,65.9z M202.3,53.4c-2.5,0-4.1,2.2-4.1,5.2s1.6,5.2,4.1,5.2s4.1-2.2,4.1-5.2S204.8,53.4,202.3,53.4z"
			/>
		<path class="st8" d="M211.9,60v-8.5h2.4v8.2c0,2.7,1.1,4,3.3,4c2.1,0,3.3-1.3,3.3-4v-8.2h2.4V60c0,3.9-2.3,5.8-5.7,5.8
			C214.2,65.9,211.9,63.9,211.9,60z"/>
		<path class="st8" d="M229.5,59.9v5.7h-2.4V51.5h5.5c2.9,0,4.8,1.5,4.8,4.2c0,2.4-1.4,3.7-3.6,4.1l4.1,5.8h-2.7l-3.9-5.7H229.5z
			 M229.5,57.9h3c1.6,0,2.5-0.9,2.5-2.2s-0.9-2.2-2.5-2.2h-3V57.9z"/>
		<path class="st8" d="M246.4,51.3c3.2,0,5.2,1.8,5.7,4.7h-2.3c-0.6-1.5-1.5-2.5-3.4-2.5c-2.5,0-4,2.2-4,5.1c0,2.9,1.5,5.1,4,5.1
			c1.9,0,2.9-1,3.4-2.5h2.3c-0.5,2.9-2.6,4.7-5.7,4.7c-3.6,0-6.4-2.9-6.4-7.3S242.8,51.3,246.4,51.3z"/>
		<path class="st8" d="M264.6,51.5v2.1h-6.9v3.7h6.2v2.1h-6.2v4h6.9v2.1h-9.2V51.5H264.6z"/>
		<path class="st8" d="M269.5,61.7c0.5,1.4,1.7,2.1,3.2,2.1c1.7,0,2.7-0.8,2.7-2.1c0-1-0.6-1.6-2-1.9l-2.4-0.6
			c-2-0.5-3.5-1.5-3.5-3.8c0-2.4,2-4.2,4.8-4.2c3.1,0,4.9,1.6,5.4,3.9h-2.4c-0.4-1.1-1.3-1.9-2.9-1.9c-1.5,0-2.6,0.8-2.6,2
			c0,0.9,0.6,1.5,1.9,1.8l2.5,0.6c2.2,0.5,3.7,1.8,3.7,3.9c0,2.6-2.1,4.3-5,4.3c-3,0-5.1-1.5-5.6-4.1H269.5z"/>
	</g>
	<g class="st6">
		<path class="st8" d="M48,509.4h2.4v12h6.8v2.1H48V509.4z"/>
		<path class="st8" d="M67.2,509.4l5.4,14.1h-2.4l-1.4-3.9h-5.4l-1.4,3.9h-2.4l5.4-14.1H67.2z M64.1,517.6H68l-1.9-5.2L64.1,517.6z"
			/>
		<path class="st8" d="M80.7,509.2c3.2,0,5.2,1.8,5.7,4.7h-2.3c-0.6-1.5-1.5-2.5-3.4-2.5c-2.5,0-4,2.2-4,5.1c0,2.9,1.5,5.1,4,5.1
			c1.9,0,2.9-1,3.4-2.5h2.3c-0.5,2.9-2.6,4.7-5.7,4.7c-3.6,0-6.4-2.9-6.4-7.3S77,509.2,80.7,509.2z"/>
		<path class="st8" d="M92,516.2l5.9-6.8h3l-5.7,6.4l5.9,7.7h-3l-4.6-6l-1.4,1.7v4.4h-2.4v-14.1H92V516.2z"/>
		<path class="st8" d="M115.7,523.8c-3.8,0-6.5-3.1-6.5-7.3c0-4.2,2.7-7.3,6.5-7.3c3.8,0,6.5,3.1,6.5,7.3
			C122.2,520.7,119.5,523.8,115.7,523.8z M115.7,511.4c-2.5,0-4.1,2.2-4.1,5.2s1.6,5.2,4.1,5.2s4.1-2.2,4.1-5.2
			S118.2,511.4,115.7,511.4z"/>
		<path class="st8" d="M125.5,523.6v-14.1h9v2.1h-6.6v4.2h6.2v2.1h-6.2v5.7H125.5z"/>
		<path class="st8" d="M149.6,523.8c-3.8,0-6.5-3.1-6.5-7.3c0-4.2,2.7-7.3,6.5-7.3c3.8,0,6.5,3.1,6.5,7.3
			C156.1,520.7,153.4,523.8,149.6,523.8z M149.6,511.4c-2.5,0-4.1,2.2-4.1,5.2s1.6,5.2,4.1,5.2s4.1-2.2,4.1-5.2
			S152.1,511.4,149.6,511.4z"/>
		<path class="st8" d="M161.8,518.3v5.3h-2.4v-14.1h5.5c2.9,0,4.8,1.5,4.8,4.4c0,2.9-1.9,4.4-4.8,4.4H161.8z M164.8,511.5h-3v4.7h3
			c1.7,0,2.5-1,2.5-2.3C167.3,512.5,166.5,511.5,164.8,511.5z"/>
		<path class="st8" d="M175.3,518.3v5.3h-2.4v-14.1h5.5c2.9,0,4.8,1.5,4.8,4.4c0,2.9-1.9,4.4-4.8,4.4H175.3z M178.3,511.5h-3v4.7h3
			c1.7,0,2.5-1,2.5-2.3C180.8,512.5,179.9,511.5,178.3,511.5z"/>
		<path class="st8" d="M192.1,523.8c-3.8,0-6.5-3.1-6.5-7.3c0-4.2,2.7-7.3,6.5-7.3c3.8,0,6.5,3.1,6.5,7.3
			C198.6,520.7,195.9,523.8,192.1,523.8z M192.1,511.4c-2.5,0-4.1,2.2-4.1,5.2s1.6,5.2,4.1,5.2s4.1-2.2,4.1-5.2
			S194.6,511.4,192.1,511.4z"/>
		<path class="st8" d="M204.3,517.8v5.7h-2.4v-14.1h5.5c2.9,0,4.8,1.5,4.8,4.2c0,2.4-1.4,3.7-3.6,4.1l4.1,5.8h-2.7l-3.9-5.7H204.3z
			 M204.3,515.8h3c1.6,0,2.5-0.9,2.5-2.2s-0.9-2.2-2.5-2.2h-3V515.8z"/>
		<path class="st8" d="M214.5,509.4h11.8v2.1h-4.7v12h-2.4v-12h-4.7V509.4z"/>
		<path class="st8" d="M229.2,517.9v-8.5h2.4v8.2c0,2.7,1.1,4,3.3,4c2.1,0,3.3-1.3,3.3-4v-8.2h2.4v8.5c0,3.9-2.3,5.8-5.7,5.8
			C231.5,523.8,229.2,521.8,229.2,517.9z"/>
		<path class="st8" d="M255.7,523.6h-1.8l-7.2-10.3v10.3h-2.3v-14.1h2.3l6.8,9.8v-9.8h2.3V523.6z"/>
		<path class="st8" d="M262.1,523.6h-2.4v-14.1h2.4V523.6z"/>
		<path class="st8" d="M265.3,509.4h11.8v2.1h-4.7v12H270v-12h-4.7V509.4z"/>
		<path class="st8" d="M289.1,509.4h2.5l-5.1,8.5v5.6h-2.4v-5.6l-5.1-8.5h2.6l3.7,6.3L289.1,509.4z"/>
	</g>
	<g class="st6">
		<path class="st8" d="M427.5,509.4h2.4v12h6.8v2.1h-9.2V509.4z"/>
		<path class="st8" d="M446.6,509.4l5.4,14.1h-2.4l-1.4-3.9h-5.4l-1.4,3.9h-2.4l5.4-14.1H446.6z M443.5,517.6h3.9l-1.9-5.2
			L443.5,517.6z"/>
		<path class="st8" d="M460.1,509.2c3.2,0,5.2,1.8,5.7,4.7h-2.3c-0.6-1.5-1.5-2.5-3.4-2.5c-2.5,0-4,2.2-4,5.1c0,2.9,1.5,5.1,4,5.1
			c1.9,0,2.9-1,3.4-2.5h2.3c-0.5,2.9-2.6,4.7-5.7,4.7c-3.6,0-6.4-2.9-6.4-7.3S456.4,509.2,460.1,509.2z"/>
		<path class="st8" d="M471.5,516.2l5.9-6.8h3l-5.7,6.4l5.9,7.7h-3l-4.6-6l-1.4,1.7v4.4h-2.4v-14.1h2.4V516.2z"/>
		<path class="st8" d="M495.1,523.8c-3.8,0-6.5-3.1-6.5-7.3c0-4.2,2.7-7.3,6.5-7.3c3.8,0,6.5,3.1,6.5,7.3
			C501.7,520.7,499,523.8,495.1,523.8z M495.1,511.4c-2.5,0-4.1,2.2-4.1,5.2s1.6,5.2,4.1,5.2s4.1-2.2,4.1-5.2
			S497.6,511.4,495.1,511.4z"/>
		<path class="st8" d="M505,523.6v-14.1h9v2.1h-6.6v4.2h6.2v2.1h-6.2v5.7H505z"/>
		<path class="st8" d="M524.6,519.7c0.5,1.4,1.7,2.1,3.2,2.1c1.7,0,2.7-0.8,2.7-2.1c0-1-0.6-1.6-2-1.9l-2.4-0.6
			c-2-0.5-3.5-1.5-3.5-3.8c0-2.4,2-4.2,4.8-4.2c3.1,0,4.9,1.6,5.4,3.9h-2.4c-0.4-1.1-1.3-1.9-2.9-1.9c-1.5,0-2.6,0.8-2.6,2
			c0,0.9,0.6,1.5,1.9,1.8l2.5,0.6c2.2,0.5,3.7,1.8,3.7,3.9c0,2.6-2.1,4.3-5,4.3c-3,0-5.1-1.5-5.6-4.1H524.6z"/>
		<path class="st8" d="M535,509.4h11.8v2.1h-4.7v12h-2.4v-12H535V509.4z"/>
		<path class="st8" d="M552.4,517.8v5.7H550v-14.1h5.5c2.9,0,4.8,1.5,4.8,4.2c0,2.4-1.4,3.7-3.6,4.1l4.1,5.8H558l-3.9-5.7H552.4z
			 M552.4,515.8h3c1.6,0,2.5-0.9,2.5-2.2s-0.9-2.2-2.5-2.2h-3V515.8z"/>
		<path class="st8" d="M569.4,523.8c-3.8,0-6.5-3.1-6.5-7.3c0-4.2,2.7-7.3,6.5-7.3s6.5,3.1,6.5,7.3
			C575.9,520.7,573.2,523.8,569.4,523.8z M569.4,511.4c-2.5,0-4.1,2.2-4.1,5.2s1.6,5.2,4.1,5.2s4.1-2.2,4.1-5.2
			S571.9,511.4,569.4,511.4z"/>
		<path class="st8" d="M590.6,523.6h-1.8l-7.2-10.3v10.3h-2.3v-14.1h2.3l6.8,9.8v-9.8h2.3V523.6z"/>
		<path class="st8" d="M601.2,518.3v-2h5.4v1.1c0,3.9-2.6,6.4-6,6.4c-3.8,0-6.6-2.9-6.6-7.3s2.9-7.3,6.6-7.3c3.2,0,5.2,1.8,5.8,4.6
			h-2.4c-0.6-1.5-1.5-2.5-3.4-2.5c-2.5,0-4.1,2.1-4.1,5.1s1.6,5.2,4.2,5.2c2.1,0,3.4-1.4,3.7-3.4H601.2z"/>
		<path class="st8" d="M618.2,523.6h-2.4v-14.1h2.4V523.6z"/>
		<path class="st8" d="M633.6,523.6h-1.8l-7.2-10.3v10.3h-2.3v-14.1h2.3l6.8,9.8v-9.8h2.3V523.6z"/>
		<path class="st8" d="M639,519.7c0.5,1.4,1.7,2.1,3.2,2.1c1.7,0,2.7-0.8,2.7-2.1c0-1-0.6-1.6-2-1.9l-2.4-0.6
			c-2-0.5-3.5-1.5-3.5-3.8c0-2.4,2-4.2,4.8-4.2c3.1,0,4.9,1.6,5.4,3.9h-2.4c-0.4-1.1-1.3-1.9-2.9-1.9c-1.5,0-2.6,0.8-2.6,2
			c0,0.9,0.6,1.5,1.9,1.8l2.5,0.6c2.2,0.5,3.7,1.8,3.7,3.9c0,2.6-2.1,4.3-5,4.3c-3,0-5.1-1.5-5.6-4.1H639z"/>
		<path class="st8" d="M649.4,509.4h11.8v2.1h-4.7v12h-2.4v-12h-4.7V509.4z"/>
		<path class="st8" d="M666.8,523.6h-2.4v-14.1h2.4V523.6z"/>
		<path class="st8" d="M669.9,509.4h11.8v2.1H677v12h-2.4v-12h-4.7V509.4z"/>
		<path class="st8" d="M684.7,517.9v-8.5h2.4v8.2c0,2.7,1.1,4,3.3,4c2.1,0,3.3-1.3,3.3-4v-8.2h2.4v8.5c0,3.9-2.3,5.8-5.7,5.8
			C687,523.8,684.7,521.8,684.7,517.9z"/>
		<path class="st8" d="M698.9,509.4h11.8v2.1H706v12h-2.4v-12h-4.7V509.4z"/>
		<path class="st8" d="M716.3,523.6h-2.4v-14.1h2.4V523.6z"/>
		<path class="st8" d="M726.1,523.8c-3.8,0-6.5-3.1-6.5-7.3c0-4.2,2.7-7.3,6.5-7.3c3.8,0,6.5,3.1,6.5,7.3
			C732.6,520.7,729.9,523.8,726.1,523.8z M726.1,511.4c-2.5,0-4.1,2.2-4.1,5.2s1.6,5.2,4.1,5.2s4.1-2.2,4.1-5.2
			S728.5,511.4,726.1,511.4z"/>
		<path class="st8" d="M747.2,523.6h-1.8l-7.2-10.3v10.3h-2.3v-14.1h2.3l6.8,9.8v-9.8h2.3V523.6z"/>
		<path class="st8" d="M752.6,519.7c0.5,1.4,1.7,2.1,3.2,2.1c1.7,0,2.7-0.8,2.7-2.1c0-1-0.6-1.6-2-1.9l-2.4-0.6
			c-2-0.5-3.5-1.5-3.5-3.8c0-2.4,2-4.2,4.8-4.2c3.1,0,4.9,1.6,5.4,3.9h-2.4c-0.4-1.1-1.3-1.9-2.9-1.9c-1.5,0-2.6,0.8-2.6,2
			c0,0.9,0.6,1.5,1.9,1.8l2.5,0.6c2.2,0.5,3.7,1.8,3.7,3.9c0,2.6-2.1,4.3-5,4.3c-3,0-5.1-1.5-5.6-4.1H752.6z"/>
	</g>
</g>
<g>
	<g class="st6">
		<path class="st9" d="M304.2,199.5v-14.1h9v2.1h-6.6v4.2h6.2v2.1h-6.2v5.7H304.2z"/>
		<path class="st9" d="M316.3,193.9v-8.5h2.4v8.2c0,2.7,1.1,4,3.3,4c2.1,0,3.3-1.3,3.3-4v-8.2h2.4v8.5c0,3.9-2.3,5.8-5.7,5.8
			C318.6,199.7,316.3,197.8,316.3,193.9z"/>
		<path class="st9" d="M342.7,199.5h-1.8l-7.2-10.3v10.3h-2.3v-14.1h2.3l6.8,9.8v-9.8h2.3V199.5z"/>
		<path class="st9" d="M346.8,185.4h4.8c4.2,0,6.9,2.8,6.9,7.1s-2.7,7.1-6.9,7.1h-4.8V185.4z M351.5,197.4c3,0,4.6-1.9,4.6-4.9
			c0-3-1.6-4.9-4.6-4.9h-2.3v9.9H351.5z"/>
		<path class="st9" d="M367.7,185.4l5.4,14.1h-2.4l-1.4-3.9h-5.4l-1.4,3.9H360l5.4-14.1H367.7z M364.6,193.5h3.9l-1.9-5.2
			L364.6,193.5z"/>
		<path class="st9" d="M382.3,199.5l-3.9-9.8v9.8h-2.3v-14.1h2.7l4.3,10.9l4.3-10.9h2.7v14.1h-2.3v-9.8l-3.8,9.8H382.3z"/>
		<path class="st9" d="M403.4,185.4v2.1h-6.9v3.7h6.2v2.1h-6.2v4h6.9v2.1h-9.2v-14.1H403.4z"/>
		<path class="st9" d="M418.2,199.5h-1.8l-7.2-10.3v10.3h-2.3v-14.1h2.3l6.8,9.8v-9.8h2.3V199.5z"/>
		<path class="st9" d="M421.4,185.4h11.8v2.1h-4.7v12h-2.4v-12h-4.7V185.4z"/>
		<path class="st9" d="M441.6,185.4l5.4,14.1h-2.4l-1.4-3.9h-5.4l-1.4,3.9h-2.4l5.4-14.1H441.6z M438.5,193.5h3.9l-1.9-5.2
			L438.5,193.5z"/>
		<path class="st9" d="M450,185.4h2.4v12h6.8v2.1H450V185.4z"/>
		<path class="st9" d="M282.6,217.5c0,2.6-1.8,4-4.8,4h-5.4v-14.1h4.9c2.9,0,4.8,1.3,4.8,3.8c0,1.5-0.8,2.6-1.8,3
			C281.6,214.6,282.6,216,282.6,217.5z M277.3,213.3c1.6,0,2.5-0.6,2.5-2s-0.9-1.9-2.5-1.9h-2.6v3.9H277.3z M274.8,219.4h3
			c1.6,0,2.5-0.8,2.5-2.1c0-1.3-0.9-2.1-2.5-2.1h-3V219.4z"/>
		<path class="st9" d="M292.3,207.4l5.4,14.1h-2.4l-1.4-3.9h-5.4l-1.4,3.9h-2.4l5.4-14.1H292.3z M289.2,215.5h3.9l-1.9-5.2
			L289.2,215.5z"/>
		<path class="st9" d="M305.8,207.2c3.2,0,5.2,1.8,5.7,4.7h-2.3c-0.6-1.5-1.5-2.5-3.4-2.5c-2.5,0-4,2.2-4,5.1c0,2.9,1.5,5.1,4,5.1
			c1.9,0,2.9-1,3.4-2.5h2.3c-0.5,2.9-2.6,4.7-5.7,4.7c-3.6,0-6.4-2.9-6.4-7.3S302.1,207.2,305.8,207.2z"/>
		<path class="st9" d="M317.1,214.1l5.9-6.8h3l-5.7,6.4l5.9,7.7h-3l-4.6-6l-1.4,1.7v4.4h-2.4v-14.1h2.4V214.1z"/>
		<path class="st9" d="M334.8,216.3v-2h5.4v1.1c0,3.9-2.6,6.4-6,6.4c-3.8,0-6.6-2.9-6.6-7.3s2.9-7.3,6.6-7.3c3.2,0,5.2,1.8,5.8,4.6
			h-2.4c-0.6-1.5-1.5-2.5-3.4-2.5c-2.5,0-4.1,2.1-4.1,5.1s1.6,5.2,4.2,5.2c2.1,0,3.4-1.4,3.7-3.4H334.8z"/>
		<path class="st9" d="M345.8,215.8v5.7h-2.4v-14.1h5.5c2.9,0,4.8,1.5,4.8,4.2c0,2.4-1.4,3.7-3.6,4.1l4.1,5.8h-2.7l-3.9-5.7H345.8z
			 M345.8,213.8h3c1.6,0,2.5-0.9,2.5-2.2s-0.9-2.2-2.5-2.2h-3V213.8z"/>
		<path class="st9" d="M362.9,221.7c-3.8,0-6.5-3.1-6.5-7.3c0-4.2,2.7-7.3,6.5-7.3c3.8,0,6.5,3.1,6.5,7.3
			C369.4,218.6,366.7,221.7,362.9,221.7z M362.9,209.3c-2.5,0-4.1,2.2-4.1,5.2s1.6,5.2,4.1,5.2s4.1-2.2,4.1-5.2
			S365.3,209.3,362.9,209.3z"/>
		<path class="st9" d="M372.5,215.9v-8.5h2.4v8.2c0,2.7,1.1,4,3.3,4c2.1,0,3.3-1.3,3.3-4v-8.2h2.4v8.5c0,3.9-2.3,5.8-5.7,5.8
			C374.8,221.7,372.5,219.8,372.5,215.9z"/>
		<path class="st9" d="M398.9,221.5h-1.8l-7.2-10.3v10.3h-2.3v-14.1h2.3l6.8,9.8v-9.8h2.3V221.5z"/>
		<path class="st9" d="M403,207.4h4.8c4.2,0,6.9,2.8,6.9,7.1s-2.7,7.1-6.9,7.1H403V207.4z M407.7,219.4c3,0,4.6-1.9,4.6-4.9
			c0-3-1.6-4.9-4.6-4.9h-2.3v9.9H407.7z"/>
		<path class="st9" d="M434.1,217.5c0,2.6-1.8,4-4.8,4h-5.4v-14.1h4.9c2.9,0,4.8,1.3,4.8,3.8c0,1.5-0.8,2.6-1.8,3
			C433.1,214.6,434.1,216,434.1,217.5z M428.8,213.3c1.6,0,2.5-0.6,2.5-2s-0.9-1.9-2.5-1.9h-2.6v3.9H428.8z M426.2,219.4h3
			c1.6,0,2.5-0.8,2.5-2.1c0-1.3-0.9-2.1-2.5-2.1h-3V219.4z"/>
		<path class="st9" d="M446.7,207.4v2.1h-6.9v3.7h6.2v2.1h-6.2v4h6.9v2.1h-9.2v-14.1H446.7z"/>
		<path class="st9" d="M450.2,207.4h2.4v12h6.8v2.1h-9.2V207.4z"/>
		<path class="st9" d="M465.2,221.5h-2.4v-14.1h2.4V221.5z"/>
		<path class="st9" d="M478.4,207.4v2.1h-6.9v3.7h6.2v2.1h-6.2v4h6.9v2.1h-9.2v-14.1H478.4z"/>
		<path class="st9" d="M482,221.5v-14.1h9v2.1h-6.6v4.2h6.2v2.1h-6.2v5.7H482z"/>
	</g>
</g>
<g>
	<g class="st6">
		<path class="st9" d="M297.8,426l5.4,14.1h-2.4l-1.4-3.9h-5.4l-1.4,3.9h-2.4l5.4-14.1H297.8z M294.7,434.2h3.9l-1.9-5.2
			L294.7,434.2z"/>
		<path class="st9" d="M311.3,425.8c3.2,0,5.2,1.8,5.7,4.7h-2.3c-0.6-1.5-1.5-2.5-3.4-2.5c-2.5,0-4,2.2-4,5.1c0,2.9,1.5,5.1,4,5.1
			c1.9,0,2.9-1,3.4-2.5h2.3c-0.5,2.9-2.6,4.7-5.7,4.7c-3.6,0-6.4-2.9-6.4-7.3S307.6,425.8,311.3,425.8z"/>
		<path class="st9" d="M332.1,426v14.1h-2.4V434h-7.1v6.2h-2.4V426h2.4v5.8h7.1V426H332.1z"/>
		<path class="st9" d="M338.6,440.2h-2.4V426h2.4V440.2z"/>
		<path class="st9" d="M351.9,426v2.1H345v3.7h6.2v2.1H345v4h6.9v2.1h-9.2V426H351.9z"/>
		<path class="st9" d="M359.6,440.2l-5.3-14.1h2.5l4,11l4-11h2.4l-5.3,14.1H359.6z"/>
		<path class="st9" d="M379.4,426v2.1h-6.9v3.7h6.2v2.1h-6.2v4h6.9v2.1h-9.2V426H379.4z"/>
		<path class="st9" d="M388.9,440.2V426h9v2.1h-6.6v4.2h6.2v2.1h-6.2v5.7H388.9z"/>
		<path class="st9" d="M407,426l5.4,14.1H410l-1.4-3.9h-5.4l-1.4,3.9h-2.4l5.4-14.1H407z M403.9,434.2h3.9l-1.9-5.2L403.9,434.2z"/>
		<path class="st9" d="M417.8,440.2h-2.4V426h2.4V440.2z"/>
		<path class="st9" d="M421.8,426h2.4v12h6.8v2.1h-9.2V426z"/>
		<path class="st9" d="M433.6,434.5V426h2.4v8.2c0,2.7,1.2,4,3.3,4s3.3-1.3,3.3-4V426h2.4v8.5c0,3.9-2.3,5.8-5.7,5.8
			C435.9,440.4,433.6,438.4,433.6,434.5z"/>
		<path class="st9" d="M451.1,434.4v5.7h-2.4V426h5.5c2.9,0,4.8,1.5,4.8,4.2c0,2.4-1.4,3.7-3.6,4.1l4.1,5.8h-2.7l-3.9-5.7H451.1z
			 M451.1,432.4h3c1.6,0,2.5-0.9,2.5-2.2s-0.9-2.2-2.5-2.2h-3V432.4z"/>
		<path class="st9" d="M471.6,426v2.1h-6.9v3.7h6.2v2.1h-6.2v4h6.9v2.1h-9.2V426H471.6z"/>
	</g>
</g>
<g class="st6">
	<path class="st4" d="M488.1,105.1v-19c0-1-0.5-1.2-4-1.2v-2h10.7v2c-3.5,0-4,0.1-4,1.2V113h-2.2l-16.9-26.3h-0.2v22.8
		c0,1,0.5,1.2,4,1.2v2h-10.7v-2c3.5,0,4-0.1,4-1.2V86.1c0-1.1-0.5-1.2-4-1.2v-2h9.3l13.9,22.2H488.1z"/>
	<path class="st4" d="M507.1,113.1c-5.6,0-9.8-4.6-9.8-11c0-6.4,4.2-11,9.8-11s9.8,4.6,9.8,11C516.9,108.5,512.7,113.1,507.1,113.1z
		 M507.1,110.8c3.6,0,5.7-3.1,5.7-8.8s-2.1-8.8-5.7-8.8s-5.7,3.1-5.7,8.8S503.5,110.8,507.1,110.8z"/>
	<path class="st4" d="M532.8,91c4.9,0,8.3,4.2,8.3,10.1c0,7.1-4,11.9-9.8,11.9c-2.1,0-4.2-0.9-5.3-2.3l-2.6,1.8h-1.1V84.1
		c0-0.8-0.1-1-1-1.4l-2.1-0.9v-1l6.3-1.8h0.6V95C527.7,92.7,530.4,91,532.8,91z M537.1,102.1c0-4.9-2.2-8.1-5.8-8.1
		c-1.9,0-4,1.1-5.3,2.7v11.9c0.9,1.5,2.6,2.3,4.5,2.3C534.6,110.8,537.1,107.4,537.1,102.1z"/>
	<path class="st4" d="M554.8,113.1c-5.6,0-9.8-4.6-9.8-11c0-6.4,4.2-11,9.8-11s9.8,4.6,9.8,11C564.6,108.5,560.4,113.1,554.8,113.1z
		 M554.8,110.8c3.6,0,5.7-3.1,5.7-8.8s-2.1-8.8-5.7-8.8c-3.6,0-5.7,3.1-5.7,8.8S551.2,110.8,554.8,110.8z"/>
	<path class="st4" d="M590.2,111.1v1l-6.3,0.9h-0.6v-4c-1.4,2.3-4.1,4-6.6,4c-4.9,0-8.4-4.4-8.4-10.2c0-7.1,4-11.8,9.8-11.8
		c1.9,0,4,0.8,5.2,1.9v-8.9c0-0.8-0.1-1-1-1.4l-2.1-0.9v-1l6.3-1.8h0.6v29.8c0,0.8,0.1,1,1,1.4L590.2,111.1z M578.7,93.2
		c-3.9,0-6.4,3.5-6.4,8.8c0,4.9,2.3,8.3,5.9,8.3c1.9,0,3.5-0.9,5.1-2.7V95.6C582.4,94.1,580.7,93.2,578.7,93.2z"/>
	<path class="st4" d="M611.2,94.3l-7.8,19.2c-2.7,6.6-5.1,9.1-8.4,9.1c-1.9,0-3.3-1.2-3.3-2.8c0-1.3,0.9-2.2,2.2-2.2
		c0.7,0,1.2,0.2,2.1,1.3c0.6,0.7,0.8,0.8,1.1,0.8c1.3,0,2.8-2.3,4.7-7.1l-7.6-18.3c-0.3-0.8-0.7-0.9-2.8-0.9v-1.9h9.7v1.9
		c-2.7,0.1-2.8,0.2-2.8,0.6c0,0.1,0,0.4,0.2,0.7l5.1,13h0.1l5.1-13c0.1-0.3,0.2-0.5,0.2-0.7c0-0.4-0.2-0.5-2.8-0.6v-1.9h8v1.9
		C611.9,93.4,611.6,93.5,611.2,94.3z"/>
	<path class="st4" d="M638.5,95.6c-0.9-1.9-1.7-2.2-3-2.2c-3.3,0-5.9,3.6-5.9,8.4c0,5.2,2.6,8.5,6.2,8.5c2.4,0,4.1-1.1,5.7-3.7
		l1.8,1.1c-1.7,3.4-4.6,5.3-8.1,5.3c-5.4,0-9.4-4.2-9.4-10.5c0-3,1-5.8,2.9-7.9c2-2.3,4.7-3.6,7.5-3.6c3.6,0,6.6,2,6.6,4.3
		c0,1.3-0.9,2.1-2,2.1C639.8,97.4,639.2,97.1,638.5,95.6z"/>
	<path class="st4" d="M663.1,113.1c-2.2,0-3.9-1.6-4.2-3.9c-1.7,2.2-4.6,3.9-7.1,3.9c-3.1,0-5.2-1.9-5.2-4.9c0-4,3.9-6.7,12.2-8.4
		V97c0-2.5-1.3-3.9-3.8-3.9c-1.9,0-3.5,0.9-3.5,1.9c0,0.2,0,0.3,0.2,0.7c0.2,0.5,0.2,0.8,0.2,1.1c0,1.3-0.9,2.2-2.2,2.2
		c-1.3,0-2.3-1-2.3-2.5c0-3,4-5.5,8.6-5.5c4.6,0,6.7,1.9,6.7,5.8v11.2c0,1.4,0.8,2.3,1.8,2.3c0.7,0,1.3-0.2,2-0.8l0.7,1.4
		C666,112.2,664.5,113.1,663.1,113.1z M658.7,107.7v-6c-6.1,1.4-8.4,3-8.4,5.7c0,1.8,1.1,3,2.9,3
		C655.2,110.4,656.9,109.6,658.7,107.7z"/>
	<path class="st4" d="M677.1,110.6c0.5,0,1.2,0,2.4,0v1.9h-11.1v-1.9c2.7,0,2.9-0.1,2.9-0.9V96.3c0-0.8-0.1-1-1-1.4l-2.1-0.9v-1
		l6.3-1.8h0.6v6c2.1-3.6,4.6-6,6.7-6c1.8,0,3,1.1,3,2.7c0,1.5-1,2.4-2.4,2.4c-0.5,0-0.8-0.1-1.6-0.7c-0.7-0.5-0.9-0.6-1.3-0.6
		c-1.1,0-2.8,1.8-4.4,4.1v10.7C675.3,110.5,675.7,110.6,677.1,110.6z"/>
	<path class="st4" d="M703.4,107.1l1.7,1.2c-1.4,3-4.6,4.8-8.1,4.8c-5.5,0-9.8-4.4-9.8-10.8c0-2.9,0.9-5.6,2.6-7.6
		c1.8-2.3,4.4-3.6,7.1-3.6c5.1,0,8,3.5,8,9v1.4h-13.9v0.1c0,5.3,2.7,8.8,6.8,8.8C700.2,110.4,701.7,109.5,703.4,107.1z M696.8,93.2
		c-2.8,0-5,2.4-5.6,6.2h10C701.2,95.3,699.7,93.2,696.8,93.2z"/>
	<path class="st4" d="M716.7,93.2c-2.4,0-4,1.3-4,3.3c0,1.5,0.8,2.3,4.9,3.6c2.7,0.9,3.7,1.3,4.6,1.9c1.5,1.1,2.2,2.4,2.2,4.3
		c0,3.9-3.6,6.7-8.4,6.7c-2.3,0-4.7-0.7-7-2l-0.4-5.5h1.8c0.7,3.7,2.7,5.3,6.1,5.3c2.6,0,4.5-1.4,4.5-3.5c0-1.7-0.8-2.7-5-3.9
		c-2.6-0.8-3.5-1.2-4.4-1.8c-1.4-0.9-2.1-2.3-2.1-4c0-3.8,3.3-6.6,7.6-6.6c2.1,0,4,0.5,6.1,1.7v5.3h-1.6
		C721,94.6,719.6,93.2,716.7,93.2z"/>
</g>
<g class="st6">
	<path class="st4" d="M55,89.9h-0.2l-6.7,23h-2.7l-8.1-26.6c-0.3-1-1-1.3-3.9-1.3v-2h12.3v2c-3.2,0-4.1,0.2-4.1,0.9
		c0,0.2,0,0.3,0.2,0.9l5.8,20.2h0.2L54.3,83h2.4l6.8,23.9h0.2l5.8-20.2c0.1-0.5,0.2-0.7,0.2-0.9c0-0.7-0.9-0.9-4.2-0.9v-2h10.7v2
		c-2.9,0-3.5,0.3-3.9,1.3l-8.1,26.6h-2.7L55,89.9z"/>
	<path class="st4" d="M91.6,107.1l1.7,1.2c-1.4,3-4.6,4.8-8.1,4.8c-5.5,0-9.8-4.4-9.8-10.8c0-2.9,0.9-5.6,2.6-7.6
		c1.8-2.3,4.4-3.6,7.1-3.6c5.1,0,8,3.5,8,9v1.4H79.2v0.1c0,5.3,2.7,8.8,6.8,8.8C88.3,110.4,89.8,109.5,91.6,107.1z M84.9,93.2
		c-2.8,0-5,2.4-5.6,6.2h10C89.3,95.3,87.9,93.2,84.9,93.2z"/>
	<path class="st4" d="M128.8,111.1v1l-6.3,0.9h-0.6v-4c-1.4,2.3-4.1,4-6.6,4c-4.9,0-8.4-4.4-8.4-10.2c0-7.1,4-11.8,9.8-11.8
		c1.9,0,4,0.8,5.2,1.9v-8.9c0-0.8-0.1-1-1-1.4l-2.1-0.9v-1l6.3-1.8h0.6v29.8c0,0.8,0.1,1,1,1.4L128.8,111.1z M117.2,93.2
		c-3.9,0-6.4,3.5-6.4,8.8c0,4.9,2.3,8.3,5.9,8.3c1.9,0,3.5-0.9,5.1-2.7V95.6C120.9,94.1,119.3,93.2,117.2,93.2z"/>
	<path class="st4" d="M141.5,113.1c-5.6,0-9.8-4.6-9.8-11c0-6.4,4.2-11,9.8-11s9.8,4.6,9.8,11C151.3,108.5,147.1,113.1,141.5,113.1z
		 M141.5,110.8c3.6,0,5.7-3.1,5.7-8.8s-2.1-8.8-5.7-8.8c-3.6,0-5.7,3.1-5.7,8.8S137.9,110.8,141.5,110.8z"/>
	<path class="st4" d="M164.6,110.7v1.9h-9.7v-1.9c2.7,0,2.9-0.1,2.9-0.9V96.3c0-0.8-0.1-1-1-1.4l-2.1-0.9v-1L161,91h0.6v4
		c1.8-2.3,4.7-4,7.3-4c3.9,0,6.1,2.8,6.1,7.5v11.3c0,0.8,0.3,0.9,2.9,0.9v1.9h-9.7v-1.9c2.7,0,2.9-0.1,2.9-0.9V98.9
		c0-3.2-1.4-4.9-4.1-4.9c-1.9,0-3.9,1-5.4,2.7v13.2C161.6,110.6,161.9,110.7,164.6,110.7z"/>
	<path class="st4" d="M182.9,85.6c0-0.5-0.3-0.9-1.4-1.5c-1.6-0.8-2-1.4-2-2.5c0-1.7,1.2-2.7,2.9-2.7c1.9,0,3.3,1.9,3.3,4.5
		c0,4.3-2.6,7.2-6.9,7.9l-0.4-1.6C181.5,88.8,182.9,87.6,182.9,85.6z"/>
	<path class="st4" d="M203.2,108.1l1.2,1.4c-1.6,2.2-4.2,3.5-6.9,3.5c-3.3,0-5.7-2.1-5.7-5.1V93.7H189v-2.2h2.9v-5.4l3.9-1.1v6.5
		h6.7v2.2h-6.7v13.2c0,2.3,1.1,3.5,3.4,3.5C200.5,110.4,201.8,109.7,203.2,108.1z"/>
	<path class="st4" d="M225.7,110.7v1.9H216v-1.9c2.7,0,2.9-0.1,2.9-0.9V84.1c0-0.8-0.1-1-1-1.4l-2.1-0.9v-1l6.3-1.8h0.6V95
		c1.8-2.3,4.7-4,7.3-4c3.9,0,6.1,2.8,6.1,7.5v11.3c0,0.8,0.3,0.9,2.9,0.9v1.9h-9.7v-1.9c2.7,0,2.9-0.1,2.9-0.9V98.9
		c0-3.2-1.4-4.9-4.1-4.9c-1.9,0-3.9,1-5.4,2.7v13.2C222.8,110.6,223,110.7,225.7,110.7z"/>
	<path class="st4" d="M258.8,113.1c-2.2,0-3.9-1.6-4.2-3.9c-1.7,2.2-4.6,3.9-7.1,3.9c-3.1,0-5.2-1.9-5.2-4.9c0-4,3.9-6.7,12.2-8.4
		V97c0-2.5-1.3-3.9-3.8-3.9c-1.9,0-3.5,0.9-3.5,1.9c0,0.2,0,0.3,0.2,0.7c0.2,0.5,0.2,0.8,0.2,1.1c0,1.3-0.9,2.2-2.2,2.2
		s-2.3-1-2.3-2.5c0-3,4-5.5,8.6-5.5c4.6,0,6.7,1.9,6.7,5.8v11.2c0,1.4,0.8,2.3,1.8,2.3c0.7,0,1.3-0.2,2-0.8l0.7,1.4
		C261.8,112.2,260.2,113.1,258.8,113.1z M254.5,107.7v-6c-6.1,1.4-8.4,3-8.4,5.7c0,1.8,1.1,3,2.9,3
		C250.9,110.4,252.7,109.6,254.5,107.7z"/>
	<path class="st4" d="M277.2,93.4v-1.9h8v1.9c-2.1,0-2.4,0.1-2.7,0.9l-7.5,18.6h-2.3l-7.4-18.6c-0.3-0.8-0.7-0.9-2.8-0.9v-1.9h9.7
		v1.9c-2.7,0.1-2.8,0.2-2.8,0.6c0,0.1,0,0.4,0.2,0.7l4.9,13.7h0.2l5.2-13.7c0.1-0.3,0.2-0.5,0.2-0.7
		C280.1,93.6,279.9,93.6,277.2,93.4z"/>
	<path class="st4" d="M303.2,107.1l1.7,1.2c-1.4,3-4.6,4.8-8.1,4.8c-5.5,0-9.8-4.4-9.8-10.8c0-2.9,0.9-5.6,2.6-7.6
		c1.8-2.3,4.4-3.6,7.1-3.6c5.1,0,8,3.5,8,9v1.4h-13.9v0.1c0,5.3,2.7,8.8,6.8,8.8C300,110.4,301.5,109.5,303.2,107.1z M296.6,93.2
		c-2.8,0-5,2.4-5.6,6.2h10C301,95.3,299.5,93.2,296.6,93.2z"/>
	<path class="st4" d="M115.4,147.1l1.7,1.2c-1.4,3-4.6,4.8-8.1,4.8c-5.5,0-9.8-4.4-9.8-10.8c0-2.9,0.9-5.6,2.6-7.6
		c1.8-2.3,4.4-3.6,7.1-3.6c5.1,0,8,3.5,8,9v1.4H103v0.1c0,5.3,2.7,8.8,6.8,8.8C112.1,150.4,113.6,149.5,115.4,147.1z M108.7,133.2
		c-2.8,0-5,2.4-5.6,6.2h10C113.1,135.3,111.7,133.2,108.7,133.2z"/>
	<path class="st4" d="M130.3,150.7v1.9h-9.7v-1.9c2.7,0,2.9-0.1,2.9-0.9v-13.6c0-0.8-0.1-1-1-1.4l-2.1-0.9v-1l6.3-1.8h0.6v4
		c1.8-2.3,4.7-4,7.3-4c3.9,0,6.1,2.8,6.1,7.5v11.3c0,0.8,0.3,0.9,2.9,0.9v1.9H134v-1.9c2.7,0,2.9-0.1,2.9-0.9v-10.9
		c0-3.2-1.4-4.9-4.1-4.9c-1.9,0-3.9,1-5.4,2.7v13.2C127.4,150.6,127.7,150.7,130.3,150.7z"/>
	<path class="st4" d="M156.3,153.1c-5.6,0-9.8-4.6-9.8-11c0-6.4,4.2-11,9.8-11s9.8,4.6,9.8,11C166.1,148.5,161.9,153.1,156.3,153.1z
		 M156.3,150.8c3.6,0,5.7-3.1,5.7-8.8s-2.1-8.8-5.7-8.8c-3.6,0-5.7,3.1-5.7,8.8S152.7,150.8,156.3,150.8z"/>
	<path class="st4" d="M191.8,151.1v1l-6.3,0.9h-0.6v-3.8c-1.8,2.3-4.3,3.8-6.7,3.8c-3.9,0-6.2-2.8-6.2-7.5v-10.2
		c0-0.9-0.2-1.3-1-1.4l-2.2-0.4v-1.6l6.4-0.4h0.6v13.8c0,3.2,1.3,4.9,4,4.9c1.8,0,3.6-0.9,5.1-2.7v-12.2c0-0.9-0.2-1.3-1-1.4
		l-2.2-0.4v-1.6l6.4-0.4h0.6v17.3c0,0.8,0.1,1,1,1.4L191.8,151.1z"/>
	<path class="st4" d="M215.2,154.7c0,4.7-5.1,7.9-12,7.9c-6.2,0-9.9-2.1-9.9-5.7c0-2.1,2-3.7,5.1-4.3c-1.8-0.6-2.9-2.1-2.9-3.7
		c0-1.9,1.3-3.4,3.7-4.5c-2.5-1.3-4-3.5-4-6.2c0-3.9,3.9-7.2,8.5-7.2c2.3,0,4.6,0.9,6.3,2.5c2-2.5,3.3-3.3,4.7-3.3
		c1.7,0,2.7,1,2.7,2.6c0,1.3-1,2.3-2.2,2.3c-0.7,0-1.2-0.2-1.8-1c-0.4-0.5-0.5-0.5-0.8-0.5c-0.5,0-1.1,0.3-1.8,1
		c0.8,1.1,1.2,2.4,1.2,3.6c0,3.9-3.8,7.2-8.4,7.2c-1.1,0-2.2-0.1-3-0.5c-2.1,1-2.7,1.7-2.7,2.8c0,0.9,0.7,1.6,1.7,1.6h8.4
		C212.6,149.4,215.2,151.3,215.2,154.7z M211.7,155.8c0-2-1.2-2.7-4.2-2.7h-8c-1.9,0.8-2.8,1.9-2.8,3.5c0,2.5,2.6,3.9,6.8,3.9
		C208.3,160.4,211.7,158.5,211.7,155.8z M203.6,133c-2.7,0-4.4,2-4.4,5.3c0,3.2,1.7,5.2,4.4,5.2c2.7,0,4.4-2,4.4-5.2
		C208,135,206.3,133,203.6,133z"/>
	<path class="st4" d="M227.9,150.7v1.9h-9.7v-1.9c2.7,0,2.9-0.1,2.9-0.9v-25.7c0-0.8-0.1-1-1-1.4l-2.1-0.9v-1l6.3-1.8h0.6V135
		c1.8-2.3,4.7-4,7.3-4c3.9,0,6.1,2.8,6.1,7.5v11.3c0,0.8,0.3,0.9,2.9,0.9v1.9h-9.7v-1.9c2.7,0,2.9-0.1,2.9-0.9v-10.9
		c0-3.2-1.4-4.9-4.1-4.9c-1.9,0-3.9,1-5.4,2.7v13.2C225,150.6,225.3,150.7,227.9,150.7z"/>
</g>
<g class="st6">
	<path class="st4" d="M20.2,568v2H7.9v-2c3.5,0,4-0.1,4-1.2v-23.4c0-1-0.5-1.2-4-1.2v-2h12.3v2c-3.5,0-4,0.1-4,1.2v23.4
		C16.2,567.9,16.7,568,20.2,568z"/>
	<path class="st4" d="M37,565.5l1.2,1.4c-1.6,2.2-4.2,3.5-6.9,3.5c-3.3,0-5.7-2.1-5.7-5.1v-14.3h-2.9v-2.2h2.9v-5.4l3.9-1.1v6.5h6.7
		v2.2h-6.7v13.2c0,2.3,1.1,3.5,3.4,3.5C34.4,567.8,35.7,567.1,37,565.5z"/>
	<path class="st4" d="M72.1,568.5v1l-6.3,0.9h-0.6v-4c-1.4,2.3-4.1,4-6.6,4c-4.9,0-8.4-4.4-8.4-10.2c0-7.1,4-11.8,9.8-11.8
		c1.9,0,4,0.8,5.2,1.9v-8.9c0-0.8-0.1-1-1-1.4l-2.1-0.9v-1l6.3-1.8H69v29.8c0,0.8,0.1,1,1,1.4L72.1,568.5z M60.6,550.6
		c-3.9,0-6.4,3.5-6.4,8.8c0,4.9,2.3,8.3,5.9,8.3c1.9,0,3.5-0.9,5.1-2.7V553C64.2,551.5,62.6,550.6,60.6,550.6z"/>
	<path class="st4" d="M84.8,570.5c-5.6,0-9.8-4.6-9.8-11c0-6.4,4.2-11,9.8-11s9.8,4.6,9.8,11C94.6,565.9,90.4,570.5,84.8,570.5z
		 M84.8,568.2c3.6,0,5.7-3.1,5.7-8.8s-2.1-8.8-5.7-8.8c-3.6,0-5.7,3.1-5.7,8.8S81.2,568.2,84.8,568.2z"/>
	<path class="st4" d="M114.5,564.5l1.7,1.2c-1.4,3-4.6,4.8-8.1,4.8c-5.5,0-9.8-4.4-9.8-10.8c0-2.9,0.9-5.6,2.6-7.6
		c1.8-2.3,4.4-3.6,7.1-3.6c5.1,0,8,3.5,8,9v1.4h-13.9v0.1c0,5.3,2.7,8.8,6.8,8.8C111.2,567.8,112.7,566.9,114.5,564.5z M107.8,550.6
		c-2.8,0-5,2.4-5.6,6.2h10C112.2,552.7,110.8,550.6,107.8,550.6z"/>
	<path class="st4" d="M127.8,550.6c-2.4,0-4,1.3-4,3.3c0,1.5,0.8,2.3,4.9,3.6c2.7,0.9,3.7,1.3,4.6,1.9c1.5,1.1,2.2,2.4,2.2,4.3
		c0,3.9-3.6,6.7-8.4,6.7c-2.3,0-4.7-0.7-7-2l-0.4-5.5h1.8c0.7,3.7,2.7,5.3,6.1,5.3c2.6,0,4.5-1.4,4.5-3.5c0-1.7-0.8-2.7-5-3.9
		c-2.6-0.8-3.5-1.2-4.4-1.8c-1.4-0.9-2.1-2.3-2.1-4c0-3.8,3.3-6.6,7.6-6.6c2.1,0,4,0.5,6.1,1.7v5.3h-1.6
		C132.1,552,130.6,550.6,127.8,550.6z"/>
	<path class="st4" d="M148.7,568.1v1.9H139v-1.9c2.7,0,2.9-0.1,2.9-0.9v-13.6c0-0.8-0.1-1-1-1.4l-2.1-0.9v-1l6.3-1.8h0.6v4
		c1.8-2.3,4.7-4,7.3-4c3.9,0,6.1,2.8,6.1,7.5v11.3c0,0.8,0.3,0.9,2.9,0.9v1.9h-9.7v-1.9c2.7,0,2.9-0.1,2.9-0.9v-10.9
		c0-3.2-1.4-4.9-4.1-4.9c-1.9,0-3.9,1-5.4,2.7v13.2C145.8,568,146,568.1,148.7,568.1z"/>
	<path class="st4" d="M167,543c0-0.5-0.3-0.9-1.4-1.5c-1.6-0.8-2-1.4-2-2.5c0-1.7,1.2-2.7,2.9-2.7c1.9,0,3.3,1.9,3.3,4.5
		c0,4.3-2.6,7.2-6.9,7.9l-0.4-1.6C165.6,546.2,167,545,167,543z"/>
	<path class="st4" d="M187.3,565.5l1.2,1.4c-1.6,2.2-4.2,3.5-6.9,3.5c-3.3,0-5.7-2.1-5.7-5.1v-14.3h-2.9v-2.2h2.9v-5.4l3.9-1.1v6.5
		h6.7v2.2h-6.7v13.2c0,2.3,1.1,3.5,3.4,3.5C184.6,567.8,185.9,567.1,187.3,565.5z"/>
	<path class="st4" d="M210,568.1v1.9h-9.7v-1.9c2.7,0,2.9-0.1,2.9-0.9v-13.6c0-0.8-0.1-1-1-1.4l-2.1-0.9v-1l6.3-1.8h0.6v4
		c1.8-2.3,4.6-4,7.1-4c2.8,0,4.7,1.4,5.5,4.2c2.2-2.6,4.9-4.2,7.5-4.2c3.9,0,5.9,2.7,5.9,7.5v11.3c0,0.8,0.3,0.9,2.9,0.9v1.9h-9.7
		v-1.9c2.7,0,2.9-0.1,2.9-0.9v-10.9c0-3.3-1.3-4.9-3.9-4.9c-1.7,0-3.7,1-5.3,2.7c0,0.6,0.1,1.2,0.1,1.8v11.3c0,0.8,0.3,0.9,2.9,0.9
		v1.9h-9.7v-1.9c2.7,0,2.9-0.1,2.9-0.9v-10.9c0-3.3-1.3-4.9-3.9-4.9c-1.7,0-3.6,0.9-5.2,2.7v13.2C207.1,568,207.4,568.1,210,568.1z"
		/>
	<path class="st4" d="M255.6,570.5c-2.2,0-3.9-1.6-4.2-3.9c-1.7,2.2-4.6,3.9-7.1,3.9c-3.1,0-5.2-1.9-5.2-4.9c0-4,3.9-6.7,12.2-8.4
		v-2.8c0-2.5-1.3-3.9-3.8-3.9c-1.9,0-3.5,0.9-3.5,1.9c0,0.2,0,0.3,0.2,0.7c0.2,0.5,0.2,0.8,0.2,1.1c0,1.3-0.9,2.2-2.2,2.2
		s-2.3-1-2.3-2.5c0-3,4-5.5,8.6-5.5c4.6,0,6.7,1.9,6.7,5.8v11.2c0,1.4,0.8,2.3,1.8,2.3c0.7,0,1.3-0.2,2-0.8l0.7,1.4
		C258.6,569.6,257,570.5,255.6,570.5z M251.3,565.1v-6c-6.1,1.4-8.4,3-8.4,5.7c0,1.8,1.1,3,2.9,3C247.7,567.8,249.5,567,251.3,565.1
		z"/>
	<path class="st4" d="M274.8,565.5l1.2,1.4c-1.6,2.2-4.2,3.5-6.9,3.5c-3.3,0-5.7-2.1-5.7-5.1v-14.3h-2.9v-2.2h2.9v-5.4l3.9-1.1v6.5
		h6.7v2.2h-6.7v13.2c0,2.3,1.1,3.5,3.4,3.5C272.1,567.8,273.4,567.1,274.8,565.5z"/>
	<path class="st4" d="M291.6,565.5l1.2,1.4c-1.6,2.2-4.2,3.5-6.9,3.5c-3.3,0-5.7-2.1-5.7-5.1v-14.3h-2.9v-2.2h2.9v-5.4l3.9-1.1v6.5
		h6.7v2.2h-6.7v13.2c0,2.3,1.1,3.5,3.4,3.5C288.9,567.8,290.2,567.1,291.6,565.5z"/>
	<path class="st4" d="M311,564.5l1.7,1.2c-1.4,3-4.6,4.8-8.1,4.8c-5.5,0-9.8-4.4-9.8-10.8c0-2.9,0.9-5.6,2.6-7.6
		c1.8-2.3,4.4-3.6,7.1-3.6c5.1,0,8,3.5,8,9v1.4h-13.9v0.1c0,5.3,2.7,8.8,6.8,8.8C307.7,567.8,309.2,566.9,311,564.5z M304.3,550.6
		c-2.8,0-5,2.4-5.6,6.2h10C308.7,552.7,307.3,550.6,304.3,550.6z"/>
	<path class="st4" d="M324.8,568c0.5,0,1.2,0,2.4,0v1.9h-11.1v-1.9c2.7,0,2.9-0.1,2.9-0.9v-13.6c0-0.8-0.1-1-1-1.4l-2.1-0.9v-1
		l6.3-1.8h0.6v6c2.1-3.6,4.6-6,6.7-6c1.8,0,3,1.1,3,2.7c0,1.5-1,2.4-2.4,2.4c-0.5,0-0.8-0.1-1.6-0.7c-0.7-0.5-0.9-0.6-1.3-0.6
		c-1.1,0-2.8,1.8-4.4,4.1v10.7C323,567.9,323.3,568,324.8,568z"/>
</g>
<g class="st6">
	<path class="st4" d="M461.8,568v2h-12.3v-2c3.5,0,4-0.1,4-1.2v-23.4c0-1-0.5-1.2-4-1.2v-2h12.3v2c-3.5,0-4,0.1-4,1.2v23.4
		C457.8,567.9,458.3,568,461.8,568z"/>
	<path class="st4" d="M478.7,565.5l1.2,1.4c-1.6,2.2-4.2,3.5-6.9,3.5c-3.3,0-5.7-2.1-5.7-5.1v-14.3h-2.9v-2.2h2.9v-5.4l3.9-1.1v6.5
		h6.7v2.2h-6.7v13.2c0,2.3,1.1,3.5,3.4,3.5C476,567.8,477.3,567.1,478.7,565.5z"/>
	<path class="st4" d="M513.7,568.5v1l-6.3,0.9h-0.6v-4c-1.4,2.3-4.1,4-6.6,4c-4.9,0-8.4-4.4-8.4-10.2c0-7.1,4-11.8,9.8-11.8
		c1.9,0,4,0.8,5.2,1.9v-8.9c0-0.8-0.1-1-1-1.4l-2.1-0.9v-1l6.3-1.8h0.6v29.8c0,0.8,0.1,1,1,1.4L513.7,568.5z M502.2,550.6
		c-3.9,0-6.4,3.5-6.4,8.8c0,4.9,2.3,8.3,5.9,8.3c1.9,0,3.5-0.9,5.1-2.7V553C505.8,551.5,504.2,550.6,502.2,550.6z"/>
	<path class="st4" d="M526.4,570.5c-5.6,0-9.8-4.6-9.8-11c0-6.4,4.2-11,9.8-11s9.8,4.6,9.8,11C536.2,565.9,532,570.5,526.4,570.5z
		 M526.4,568.2c3.6,0,5.7-3.1,5.7-8.8s-2.1-8.8-5.7-8.8c-3.6,0-5.7,3.1-5.7,8.8S522.8,568.2,526.4,568.2z"/>
	<path class="st4" d="M556.1,564.5l1.7,1.2c-1.4,3-4.6,4.8-8.1,4.8c-5.5,0-9.8-4.4-9.8-10.8c0-2.9,0.9-5.6,2.6-7.6
		c1.8-2.3,4.4-3.6,7.1-3.6c5.1,0,8,3.5,8,9v1.4h-13.9v0.1c0,5.3,2.7,8.8,6.8,8.8C552.9,567.8,554.3,566.9,556.1,564.5z M549.4,550.6
		c-2.8,0-5,2.4-5.6,6.2h10C553.8,552.7,552.4,550.6,549.4,550.6z"/>
	<path class="st4" d="M569.4,550.6c-2.4,0-4,1.3-4,3.3c0,1.5,0.8,2.3,4.9,3.6c2.7,0.9,3.7,1.3,4.6,1.9c1.5,1.1,2.2,2.4,2.2,4.3
		c0,3.9-3.6,6.7-8.4,6.7c-2.3,0-4.7-0.7-7-2l-0.4-5.5h1.8c0.7,3.7,2.7,5.3,6.1,5.3c2.6,0,4.5-1.4,4.5-3.5c0-1.7-0.8-2.7-5-3.9
		c-2.6-0.8-3.5-1.2-4.4-1.8c-1.4-0.9-2.1-2.3-2.1-4c0-3.8,3.3-6.6,7.6-6.6c2.1,0,4,0.5,6.1,1.7v5.3h-1.6
		C573.7,552,572.2,550.6,569.4,550.6z"/>
	<path class="st4" d="M590.3,568.1v1.9h-9.7v-1.9c2.7,0,2.9-0.1,2.9-0.9v-13.6c0-0.8-0.1-1-1-1.4l-2.1-0.9v-1l6.3-1.8h0.6v4
		c1.8-2.3,4.7-4,7.3-4c3.9,0,6.1,2.8,6.1,7.5v11.3c0,0.8,0.3,0.9,2.9,0.9v1.9H594v-1.9c2.7,0,2.9-0.1,2.9-0.9v-10.9
		c0-3.2-1.4-4.9-4.1-4.9c-1.9,0-3.9,1-5.4,2.7v13.2C587.4,568,587.6,568.1,590.3,568.1z"/>
	<path class="st4" d="M608.6,543c0-0.5-0.3-0.9-1.4-1.5c-1.6-0.8-2-1.4-2-2.5c0-1.7,1.2-2.7,2.9-2.7c1.9,0,3.3,1.9,3.3,4.5
		c0,4.3-2.6,7.2-6.9,7.9l-0.4-1.6C607.2,546.2,608.6,545,608.6,543z"/>
	<path class="st4" d="M628.9,565.5l1.2,1.4c-1.6,2.2-4.2,3.5-6.9,3.5c-3.3,0-5.7-2.1-5.7-5.1v-14.3h-2.9v-2.2h2.9v-5.4l3.9-1.1v6.5
		h6.7v2.2h-6.7v13.2c0,2.3,1.1,3.5,3.4,3.5C626.2,567.8,627.5,567.1,628.9,565.5z"/>
	<path class="st4" d="M664,570.2h-2.2l-5.2-15.8h-0.2l-5,15.8h-2.2l-6.2-18.6c-0.2-0.7-0.6-0.9-2.8-0.9v-1.9h9.5v1.9
		c-2.7,0.1-2.8,0.2-2.8,0.6c0,0.1,0,0.4,0.2,0.7l3.9,12.7h0.2l5-15.9h2.2l5.1,15.9h0.2l4.1-12.7c0.1-0.3,0.2-0.5,0.2-0.7
		c0-0.4-0.2-0.5-2.8-0.6v-1.9h7.8v1.9c-2.1,0-2.5,0.1-2.7,0.9L664,570.2z"/>
	<path class="st4" d="M684.5,570.5c-5.6,0-9.8-4.6-9.8-11c0-6.4,4.2-11,9.8-11s9.8,4.6,9.8,11C694.3,565.9,690.1,570.5,684.5,570.5z
		 M684.5,568.2c3.6,0,5.7-3.1,5.7-8.8s-2.1-8.8-5.7-8.8s-5.7,3.1-5.7,8.8S680.9,568.2,684.5,568.2z"/>
	<path class="st4" d="M706.6,568c0.5,0,1.2,0,2.4,0v1.9h-11.1v-1.9c2.7,0,2.9-0.1,2.9-0.9v-13.6c0-0.8-0.1-1-1-1.4l-2.1-0.9v-1
		l6.3-1.8h0.6v6c2.1-3.6,4.6-6,6.7-6c1.8,0,3,1.1,3,2.7c0,1.5-1,2.4-2.4,2.4c-0.5,0-0.8-0.1-1.6-0.7c-0.7-0.5-0.9-0.6-1.3-0.6
		c-1.1,0-2.8,1.8-4.4,4.1v10.7C704.7,567.9,705.1,568,706.6,568z"/>
	<path class="st4" d="M726.1,568.1v1.9h-9.7v-1.9c2.7,0,2.9-0.1,2.9-0.9v-25.7c0-0.8-0.1-1-1-1.4l-2.1-0.9v-1l6.3-1.8h0.6v24.1
		l8.5-8.2c0.3-0.3,0.4-0.5,0.4-0.7c0-0.6-0.8-0.7-3.5-0.7v-1.9h10.4v1.9c-2.5,0-3.1,0.2-3.9,0.9l-6,5.6l7.2,9.7
		c0.7,0.9,1.5,1.2,4.2,1.2v1.9h-11v-1.9c2.1,0,2.6-0.1,2.6-0.7c0-0.2,0-0.2-0.4-0.8l-5.2-7l-3.5,3.2v4.4
		C723.1,568,723.4,568.1,726.1,568.1z"/>
</g>
<path class="st10" d="M215.3,592.6"/>
<path class="st10" d="M555,588.2"/>
<g>
	<g>
		<g>
			<path class="st10" d="M504.4,32.5C466.7,16.5,425.2,7.7,381.7,7.7c-46.7,0-91,10.1-130.9,28.3"/>
			<g>
				<polygon class="st4" points="503.7,29.1 512.5,36 501.4,34.5 				"/>
			</g>
		</g>
	</g>
	<g>
		<g>
			<path class="st10" d="M222.9,597.2c46.7,27.2,100.9,42.7,158.7,42.7c61,0,118-17.3,166.3-47.3"/>
			<g>
				<polygon class="st4" points="223.2,600.7 215.3,592.6 226.1,595.7 				"/>
			</g>
		</g>
	</g>
	<g>
		<g>
			<path class="st10" d="M660.9,472.1c23.6-44.2,36.9-94.7,36.9-148.3c0-66-20.2-127.3-54.9-178"/>
			<g>
				<polygon class="st4" points="664.4,471.8 656.6,479.9 659.3,469 				"/>
			</g>
		</g>
	</g>
	<g>
		<g>
			<path class="st10" d="M98.1,184c-20.8,42.2-32.5,89.6-32.5,139.8c0,56.4,14.8,109.4,40.7,155.2"/>
			<g>
				<polygon class="st4" points="94.7,184.4 102.2,176.1 99.8,187.1 				"/>
			</g>
		</g>
	</g>
</g>
</svg>
