<?xml version="1.0" encoding="utf-8"?>
<!-- Generator: Adobe Illustrator 22.1.0, SVG Export Plug-In . SVG Version: 6.00 Build 0)  -->
<svg version="1.1" id="Layer_1" xmlns="http://www.w3.org/2000/svg" xmlns:xlink="http://www.w3.org/1999/xlink" x="0px" y="0px"
	 viewBox="0 0 88 88" style="enable-background:new 0 0 88 88;" xml:space="preserve">
<style type="text/css">
	.st0{fill:#272626;}
	.st1{fill:#FFFFFF;}
</style>
<g>
	<circle class="st0" cx="44" cy="44" r="44"/>
	<path class="st1" d="M51.1,40.8h-7.2l0,0c0,0,0,0,0,0H31.5v7.9h11.2c0,1.3-0.5,2.4-1.3,3.4c-2.3,2.8-5.9,4.7-9.9,4.7
		c-7.1,0-12.8-5.7-12.8-12.8c0-7.1,5.7-12.8,12.8-12.8c3.1,0,6,1.1,8.2,3l5.5-5.7c-3.7-3.2-8.4-5.2-13.7-5.2
		C20,23.3,10.8,32.6,10.8,44S20,64.7,31.5,64.7c4,0,7.7-1.1,10.9-3.1c5.9-3.6,9-10.2,9-17.6C51.3,42.9,51.2,41.8,51.1,40.8z"/>
	<polygon class="st1" points="77.6,40.3 69.2,40.3 69.2,32 63.6,32 63.6,40.3 55.3,40.3 55.3,45.9 63.6,45.9 63.6,54.2 69.2,54.2 
		69.2,45.9 77.6,45.9 	"/>
</g>
</svg>
