<?xml version="1.0" encoding="utf-8"?>
<!-- Generator: Adobe Illustrator 22.1.0, SVG Export Plug-In . SVG Version: 6.00 Build 0)  -->
<svg version="1.1" id="Logo_FIXED" xmlns="http://www.w3.org/2000/svg" xmlns:xlink="http://www.w3.org/1999/xlink" x="0px" y="0px"
	 viewBox="0 0 88 88" style="enable-background:new 0 0 88 88;" xml:space="preserve">
<style type="text/css">
	.st0{fill:#262626;}
	.st1{fill:#FFFFFF;}
</style>
<g>
	<circle class="st0" cx="44" cy="44" r="44"/>
</g>
<path class="st1" d="M35.6,67.3c20.5,0,31.7-17,31.7-31.7c0-0.5,0-1,0-1.4c2.2-1.6,4.1-3.5,5.6-5.8c-2,0.9-4.2,1.5-6.4,1.8
	c2.3-1.4,4.1-3.6,4.9-6.2c-2.2,1.3-4.6,2.2-7.1,2.7C60,22.1,53,21.9,48.5,26.1c-2.9,2.7-4.1,6.8-3.2,10.7c-9-0.4-17.3-4.7-23-11.7
	c-3,5.1-1.4,11.6,3.5,14.9c-1.8-0.1-3.5-0.5-5.1-1.4c0,0,0,0.1,0,0.1c0,5.3,3.7,9.9,9,10.9c-1.6,0.4-3.4,0.5-5,0.2
	c1.5,4.5,5.6,7.7,10.4,7.7c-4,3.1-8.8,4.8-13.9,4.8c-0.9,0-1.8-0.1-2.7-0.2C23.6,65.5,29.5,67.3,35.6,67.3"/>
</svg>
