<?xml version="1.0" encoding="utf-8"?>
<!-- Generator: Adobe Illustrator 22.1.0, SVG Export Plug-In . SVG Version: 6.00 Build 0)  -->
<svg version="1.1" id="Layer_1" xmlns="http://www.w3.org/2000/svg" xmlns:xlink="http://www.w3.org/1999/xlink" x="0px" y="0px"
	 viewBox="0 0 88 88" style="enable-background:new 0 0 88 88;" xml:space="preserve">
<style type="text/css">
	.st0{fill:#272626;}
	.st1{fill:#FFFFFF;}
</style>
<g>
	<circle class="st0" cx="44" cy="44" r="44"/>
</g>
<g>
	<g>
		<path class="st1" d="M32.3,63.3h-9.4V33h9.4V63.3z M27.6,28.9c-3,0-5.4-2.4-5.4-5.4c0-3,2.4-5.5,5.4-5.5c3,0,5.4,2.4,5.4,5.5
			C33.1,26.5,30.6,28.9,27.6,28.9z M67.6,63.3h-9.4V48.6c0-3.5-0.1-8-4.9-8c-4.9,0-5.6,3.8-5.6,7.8v15h-9.4V33h9v4.1h0.1
			c1.3-2.4,4.3-4.9,8.9-4.9c9.5,0,11.3,6.3,11.3,14.4V63.3z"/>
	</g>
</g>
</svg>
