<?xml version="1.0" encoding="utf-8"?>
<!-- Generator: Adobe Illustrator 22.1.0, SVG Export Plug-In . SVG Version: 6.00 Build 0)  -->
<svg version="1.1" id="Layer_1" xmlns="http://www.w3.org/2000/svg" xmlns:xlink="http://www.w3.org/1999/xlink" x="0px" y="0px"
	 viewBox="0 0 1116 148.5" style="enable-background:new 0 0 1116 148.5;" xml:space="preserve">
<style type="text/css">
	.st0{fill:#9EA0CE;}
	.st1{fill:#3D429D;}
	.st2{fill:none;}
</style>
<g>
	<g>
		<path class="st0" d="M42.5,110.4v-77H11.4v-7.1h71v7.1H50.9v77H42.5z"/>
		<path class="st0" d="M101.2,110.4h-8.1V26.3h8.1v36.9c2.8-7.1,10.8-12.3,19.5-12.3c15,0,21.2,9.7,21.2,23.6v35.9h-8.1V74.2
			c0-10.3-5.3-17-15.2-17c-9.2,0-17.4,7.2-17.4,18.4V110.4z"/>
		<path class="st1" d="M256.7,110.4h-20.2V26.3H272c21.8,0,34.5,10.1,34.5,28.3S293.8,83,272,83h-15.4V110.4z M271.2,66.7
			c11.1,0,15.6-4.1,15.6-12c0-7.9-4.5-12.2-15.6-12.2h-14.6v24.2H271.2z"/>
		<path class="st1" d="M343.2,112c-19,0-31.9-12.8-31.9-31.2c0-18.3,13-31.2,31.9-31.2c19,0,32,13,32,31.2
			C375.3,99.2,362.2,112,343.2,112z M343.2,97.5c8.4,0,12.6-6.8,12.6-16.7s-4.1-16.7-12.6-16.7c-8.5,0-12.4,6.8-12.4,16.7
			S334.7,97.5,343.2,97.5z"/>
		<path class="st1" d="M533.4,52.1v58.3h-19.2V52.1H533.4z"/>
		<path class="st1" d="M563.4,110.4h-14.8V26h19.2v35.8c2.9-7.1,9.7-12.3,20-12.3c17.4,0,26.4,13.9,26.4,31.2
			c0,17.5-9.1,31.2-26.8,31.2c-9.9,0-17.4-5.1-20.6-12.3L563.4,110.4z M567.8,81.4c0,9.6,5.5,15.6,13.5,15.6
			c9.1,0,13.5-6.5,13.5-16.3c0-9.6-4.4-16.2-13.5-16.2c-8,0-13.5,6-13.5,15.5V81.4z"/>
		<path class="st1" d="M645.4,52.1v58.3h-19.2V52.1H645.4z"/>
		<path class="st1" d="M680.1,26.1l-0.2,84.4h-19.2l0.2-84.4H680.1z"/>
		<path class="st1" d="M714.3,52.1v58.3h-19.2V52.1H714.3z"/>
		<path class="st1" d="M731.6,64.6h-8.3V52.9l4.3-0.7c5.9-1.1,7.6-4.1,9.1-9.6l2-7.9h11.9v16.4h15.8v13.5h-15.8v24.7
			c0,5.1,2.4,7.2,6.9,7.2c2.9,0,6-0.8,9.6-2.4v12.7c-4.4,3.3-9.5,5.2-17.2,5.2c-9.6,0-18.3-4.1-18.3-17.5V64.6z"/>
		<path class="st1" d="M787.9,132l8.7-21.1l-24.3-59.8h20.3l14.3,37h0.5l14.6-37h19L806.8,132H787.9z"/>
		<path class="st0" d="M862.9,110.4V26.3h55.7v7.1h-47.4v31.2h37.7v7.1h-37.7v38.7H862.9z"/>
		<path class="st0" d="M963.8,52.5h8.1v58h-8.1V99.7c-2.8,7.1-10.5,12.3-19.2,12.3c-15,0-20.8-9.7-20.8-23.6V52.5h8.1v36.2
			c0,10.3,4.9,17,14.8,17c9.2,0,17.1-7.2,17.1-18.4V52.5z"/>
		<path class="st0" d="M996.1,110.4h-8.1v-58h8.1v10.7c2.8-7.1,10.8-12.3,19.5-12.3c15,0,21.2,9.7,21.2,23.6v35.9h-8.1V74.2
			c0-10.3-5.3-17-15.2-17c-9.2,0-17.4,7.2-17.4,18.4V110.4z"/>
		<path class="st0" d="M1096.5,97.7c-2.5,7.3-10.1,14.3-21.4,14.3c-17.2,0-26.8-13.5-26.8-30.6s9.6-30.6,26.8-30.6
			c11.2,0,18.8,7.1,21.4,14.4v-39h8.1v84.1h-8.1V97.7z M1096.8,79.4c0-13.9-9.1-21.9-20.6-21.9c-12.3,0-19.4,9.2-19.4,23.9
			c0,14.7,7.1,23.9,19.4,23.9c11.5,0,20.6-8,20.6-21.9V79.4z"/>
	</g>
	<g>
		<path class="st2" d="M182.3,57.3c-11.5,0-19,9.6-20.3,20.4h38.9C200.6,67,194.6,57.3,182.3,57.3z"/>
		<path class="st0" d="M201.6,92.7c-2.9,8.3-9.2,12.6-18.8,12.6c-11.5,0-20.4-9.1-21-21.9h47.7v-3.7c0-15.8-9.1-28.8-27.2-28.8
			c-16.4,0-28.8,13.1-28.8,31.4c0,17.9,12.6,29.8,29.4,29.8c12.9,0,22-6.8,25.7-18L201.6,92.7z M182.3,57.3
			c12.3,0,18.3,9.7,18.6,20.4H162C163.3,66.9,170.8,57.3,182.3,57.3z"/>
	</g>
	<g>
		<path class="st1" d="M418.5,73.6l-11.5-2c-2.9-0.4-4.8-1.9-4.8-4.3c0-3.2,2.9-5.2,7.7-5.2c6.9,0,11,2.8,12.2,7.5l16.2-1.1
			c-1.7-11.9-11.8-18.9-28.1-18.9c-15.9,0-25.9,8.1-25.9,19.6c0,11.8,7.3,16.4,21,18.6l9.1,1.5c4.8,0.8,6.7,2.4,6.7,5.3
			c0,3.2-3.5,5.1-8.7,5.1c-6.9,0-11.4-3.1-12.4-8.4L383,92.3c1.7,13.5,13.7,19.7,29.2,19.7c16.2,0,26.7-6.9,26.7-19.4
			C438.9,81.3,431.5,75.6,418.5,73.6z"/>
	</g>
	<g>
		<path class="st1" d="M481.9,73.6l-11.5-2c-2.9-0.4-4.8-1.9-4.8-4.3c0-3.2,2.9-5.2,7.7-5.2c6.9,0,11,2.8,12.2,7.5l16.2-1.1
			c-1.7-11.9-11.8-18.9-28.1-18.9c-15.9,0-25.9,8.1-25.9,19.6c0,11.8,7.3,16.4,21,18.6l9.1,1.5c4.8,0.8,6.7,2.4,6.7,5.3
			c0,3.2-3.5,5.1-8.7,5.1c-6.9,0-11.4-3.1-12.4-8.4l-16.9,1.1c1.7,13.5,13.7,19.7,29.2,19.7c16.2,0,26.7-6.9,26.7-19.4
			C502.4,81.3,494.9,75.6,481.9,73.6z"/>
	</g>
	<path class="st1" d="M535,33.9l0,0.4c0,6-4.9,10.9-10.9,10.9h-0.3c-6,0-10.9-4.9-10.9-10.9l0-0.4c0-6,4.9-10.9,10.9-10.9h0.3
		C530.1,23,535,27.9,535,33.9z"/>
	<path class="st1" d="M646.8,33.9l0,0.4c0,6-4.9,10.9-10.9,10.9h-0.3c-6,0-10.9-4.9-10.9-10.9l0-0.4c0-6,4.9-10.9,10.9-10.9h0.3
		C642,23,646.8,27.9,646.8,33.9z"/>
	<path class="st1" d="M715.8,33.9l0,0.4c0,6-4.9,10.9-10.9,10.9h-0.3c-6,0-10.9-4.9-10.9-10.9l0-0.4c0-6,4.9-10.9,10.9-10.9h0.3
		C710.9,23,715.8,27.9,715.8,33.9z"/>
</g>
</svg>
